<svg viewBox="0 0 319.75 183.985" xmlns="http://www.w3.org/2000/svg" xmlns:xlink="http://www.w3.org/1999/xlink"><defs><linearGradient id="b"><stop stop-color="#89e789" offset="0"/><stop stop-color="#1a931a" offset=".5"/><stop stop-color="#6ece6e" offset="1"/></linearGradient><linearGradient id="a"><stop stop-color="#d8f7d8" offset="0"/><stop stop-color="#8bea8b" offset=".5"/><stop stop-color="#246924" offset="1"/></linearGradient><linearGradient id="m" x1="43.297" x2="363.02" gradientTransform="translate(-43.281 -69.75)" gradientUnits="userSpaceOnUse" xlink:href="#a"/><linearGradient id="l" x1="229.95" x2="232.04" y1="393.87" y2="444.42" gradientTransform="matrix(.41153 0 0 .53758 -19.225 -122.22)" gradientUnits="userSpaceOnUse" xlink:href="#b"/><linearGradient id="k" x1="229.95" x2="232.04" y1="393.87" y2="444.42" gradientTransform="matrix(.36286 0 0 .54678 157.13 -128.6)" gradientUnits="userSpaceOnUse" xlink:href="#b"/><linearGradient id="j" x2="0" y1="139.29" y2="171.45" gradientTransform="translate(-43.281 -69.75)" gradientUnits="userSpaceOnUse" xlink:href="#b"/><linearGradient id="i" x1="229.95" x2="232.04" y1="393.87" y2="444.42" gradientTransform="matrix(.36286 0 0 .54678 156.98 -157.55)" gradientUnits="userSpaceOnUse" xlink:href="#b"/><linearGradient id="h" x1="229.95" x2="232.04" y1="393.87" y2="444.42" gradientTransform="matrix(.41153 0 0 .53758 -19.297 -153.57)" gradientUnits="userSpaceOnUse" xlink:href="#b"/><linearGradient id="g" x1="229.95" x2="232.04" y1="393.87" y2="444.42" gradientTransform="matrix(.36286 0 0 .54678 74.109 -159.18)" gradientUnits="userSpaceOnUse" xlink:href="#b"/><linearGradient id="f" x1="229.95" x2="232.04" y1="393.87" y2="444.42" gradientTransform="matrix(.36286 0 0 .54678 74.315 -175.8)" gradientUnits="userSpaceOnUse" xlink:href="#b"/><radialGradient id="c" cx="319.84" cy="489.17" r="301.41" gradientTransform="matrix(1.097 0 0 .48423 -190.98 -128.18)" gradientUnits="userSpaceOnUse" xlink:href="#b"/><radialGradient id="d" cx="319.84" cy="144.28" r="301.41" gradientTransform="matrix(1.2634 0 0 .41216 -244.22 -65.937)" gradientUnits="userSpaceOnUse" xlink:href="#a"/><filter id="e" x="-.21" y="-.231" width="1.419" height="1.463" color-interpolation-filters="sRGB"><feGaussianBlur stdDeviation="5.921"/></filter></defs><path d="M317.86 92A157.98 90.118 0 0 1 1.89 92a157.98 90.118 0 1 1 315.97 0z" fill="url(#c)" stroke="#000" stroke-width="3.75"/><path d="M317.86 92.002c0 49.745-68.552 24.947-155.76 24.947S1.89 141.747 1.89 92.002 72.667 1.884 159.88 1.884c87.208 0 157.99 40.373 157.99 90.118z" fill="url(#d)" stroke="#000" stroke-width="3.75"/><path d="M173.31 40.584c-18.633 0-33.781.958-33.781 14.875 0 3.619.883 6.335 2.469 8.406-1.71 2.046-2.656 4.74-2.656 8.219 0 3.244.681 5.768 1.968 7.75-1.286 1.914-1.968 4.316-1.968 7.313 0 15.06 15.117 14.874 33.75 14.874s34.509-3.243 33.75-14.874c0-3.132-.917-5.62-2.563-7.594 1.824-1.984 2.76-4.432 2.563-7.47 0-3.528-1.156-6.233-3.22-8.312 2.383-2.114 3.665-4.83 3.438-8.312 0-12.774-15.117-14.875-33.75-14.875z" fill="#241c1c" fill-opacity=".671" filter="url(#e)"/><path transform="matrix(1 0 0 .98327 -13.494 -22.889)" d="M115.54 83.489c-18.633 0-33.781.958-33.781 14.875 0 3.619.883 6.335 2.469 8.406-1.71 2.046-2.656 4.74-2.656 8.219 0 3.244.681 5.768 1.968 7.75-1.286 1.914-1.968 4.316-1.968 7.313 0 15.06 15.117 14.875 33.75 14.875s34.509-3.244 33.75-14.875c0-3.132-.917-5.62-2.563-7.594 1.824-1.984 2.76-4.432 2.563-7.47 0-3.528-1.156-6.233-3.22-8.312 2.383-2.114 3.666-4.83 3.438-8.312 0-12.774-15.117-14.875-33.75-14.875z" fill="#241c1c" fill-opacity=".671" filter="url(#e)"/><path transform="matrix(1 0 0 .98134 -43.043 -84.277)" d="M301.87 148.34c-18.633 0-33.781.958-33.781 14.875 0 3.619.883 6.335 2.469 8.406-1.71 2.046-2.656 4.74-2.656 8.219 0 3.244.681 5.768 1.968 7.75-1.286 1.914-1.968 4.316-1.968 7.313 0 15.06 15.117 14.875 33.75 14.875s34.509-3.244 33.75-14.875c0-3.132-.917-5.62-2.563-7.594 1.824-1.984 2.76-4.432 2.563-7.47 0-3.528-1.156-6.233-3.22-8.312 2.383-2.114 3.665-4.83 3.438-8.312 0-12.774-15.117-14.875-33.75-14.875z" fill="#241c1c" fill-opacity=".671" filter="url(#e)"/><path d="M198.72 49.85c.759 11.631-15.122 14.859-33.755 14.859s-33.755.201-33.755-14.859c0-13.917 15.122-14.859 33.755-14.859s33.755 2.085 33.755 14.859z" fill="url(#f)" stroke="#000" stroke-width="3.75"/><path d="M198.51 66.467c.759 11.631-15.122 14.859-33.755 14.859S131 81.527 131 66.467c0-13.917 15.122-14.859 33.755-14.859s33.755 2.085 33.755 14.859z" fill="url(#g)" stroke="#000" stroke-width="3.75"/><path d="M121.79 68.278c.86 11.436-17.151 14.609-38.283 14.609s-38.283.198-38.283-14.609c0-13.683 17.151-14.609 38.283-14.609s38.283 2.05 38.283 14.609z" fill="url(#h)" stroke="#000" stroke-width="3.75"/><path d="M281.38 68.095c.759 11.631-15.122 14.859-33.755 14.859s-33.755.201-33.755-14.859c0-13.917 15.122-14.859 33.755-14.859s33.755 2.085 33.755 14.859z" fill="url(#i)" stroke="#000" stroke-width="3.75"/><path d="M164.75 66.674c-9.316 0-17.765.244-23.875 2.219-4.68 1.513-8.156 8.958-13.625 8.687-6.489.54-11.701-5.151-16.5-6.593-6.93-2.083-16.496-2.594-27.063-2.594-21.132 0-38.281.942-38.281 14.625 0 14.807 17.149 14.594 38.281 14.594 10.566 0 20.338-.777 27.375-3 4.93-1.558 7.963-6.837 16.594-7.375 6.123.247 8.766 6.04 13.219 7.375 6.11 1.832 14.559 1.781 23.875 1.78 9.316 0 17.953-.805 24.156-3.062 4.44-1.615 10.993-7.22 18.594-6.593 6.176-.671 12.415 7.562 17.312 9.03 6.11 1.833 14.559 1.782 23.875 1.782 18.633 0 34.509-3.212 33.75-14.844 0-12.774-15.117-14.875-33.75-14.875-9.316 0-17.765.244-23.875 2.219-4.614 1.491-11.975 8.165-16.688 8.125-5.123-.936-14.864-7.234-19.5-8.844-6.108-2.122-14.559-2.656-23.875-2.656z" fill="url(#j)" stroke="#000" stroke-width="3.75"/><path d="M281.53 97.049c.759 11.631-15.122 14.859-33.755 14.859s-33.755.201-33.755-14.859c0-13.917 15.122-14.859 33.755-14.859s33.755 2.085 33.755 14.859z" fill="url(#k)" stroke="#000" stroke-width="3.75"/><path d="M121.86 99.631c.86 11.436-17.151 14.609-38.283 14.609s-38.283.198-38.283-14.609c0-13.683 17.151-14.609 38.283-14.609s38.283 2.05 38.283 14.609z" fill="url(#l)" stroke="#000" stroke-width="3.75"/><path d="M159.87 1.88C72.662 1.88 1.89 42.26 1.89 92.005s73.005 24.948 160.21 24.948c87.208 0 155.76 24.798 155.76-24.948 0-49.745-70.777-90.127-157.98-90.127zm-2.129 7.5c34.355-.068 69.194 5.509 100.32 20.424 19.24 9.428 38.467 22.81 47.35 42.976 3.685 9.213 6.02 20.251 1.613 29.588-3.886 7.698-13.528 9.767-21.438 10.511-29.03 1.79-57.95-2.678-86.884-4.34-42.1-3.479-84.24.905-126.22 3.958-16.876.398-34.557 3.331-50.76-2.811-8.584-2.522-12.174-12.357-11.426-20.673 1.402-19.415 14.674-35.805 30.12-46.67 33.19-23.171 74.09-31.984 114.01-32.95l3.327-.017z" fill="url(#m)" stroke="#000" stroke-width="3.75"/></svg>