<svg xmlns="http://www.w3.org/2000/svg" viewBox="0 0 334.002 334.002" style="enable-background:new 0 0 334.002 334.002" xml:space="preserve"><path style="fill:#333e48" d="M176.102 59.459a5.005 5.005 0 0 1-5.005-5.005V15.017a5.005 5.005 0 1 1 10.011 0v39.437a5.007 5.007 0 0 1-5.006 5.005zm-25.786 0a5.006 5.006 0 0 1-5.006-5.005V15.017a5.006 5.006 0 0 1 10.011 0v39.437a5.005 5.005 0 0 1-5.005 5.005zm-25.785 0a5.005 5.005 0 0 1-5.006-5.005V15.017a5.006 5.006 0 1 1 10.011 0v39.437a5.005 5.005 0 0 1-5.005 5.005zm-25.786 0a5.005 5.005 0 0 1-5.005-5.005V15.017a5.005 5.005 0 1 1 10.011 0v39.437a5.005 5.005 0 0 1-5.006 5.005zm103.143 0a5.005 5.005 0 0 1-5.006-5.005V15.017a5.006 5.006 0 1 1 10.011 0v39.437a5.006 5.006 0 0 1-5.005 5.005zm25.785 0a5.006 5.006 0 0 1-5.006-5.005V15.017a5.006 5.006 0 0 1 10.012 0v39.437a5.007 5.007 0 0 1-5.006 5.005zm25.785 0a5.005 5.005 0 0 1-5.005-5.005V15.017a5.005 5.005 0 1 1 10.011 0v39.437a5.005 5.005 0 0 1-5.006 5.005zm-77.356 264.532a5.005 5.005 0 0 1-5.005-5.006v-39.438a5.005 5.005 0 0 1 10.011 0v39.438a5.007 5.007 0 0 1-5.006 5.006zm25.786 0a5.006 5.006 0 0 1-5.006-5.006v-39.438a5.005 5.005 0 1 1 10.011 0v39.438a5.006 5.006 0 0 1-5.005 5.006zm25.785 0a5.006 5.006 0 0 1-5.006-5.006v-39.438a5.005 5.005 0 0 1 10.012 0v39.438a5.007 5.007 0 0 1-5.006 5.006zm25.785 0a5.005 5.005 0 0 1-5.005-5.006v-39.438a5.005 5.005 0 0 1 10.011 0v39.438a5.006 5.006 0 0 1-5.006 5.006zm-103.142 0a5.006 5.006 0 0 1-5.006-5.006v-39.438a5.005 5.005 0 0 1 10.011 0v39.438a5.005 5.005 0 0 1-5.005 5.006zm-25.785 0a5.006 5.006 0 0 1-5.006-5.006v-39.438a5.005 5.005 0 1 1 10.011 0v39.438a5.005 5.005 0 0 1-5.005 5.006zm-25.786 0a5.005 5.005 0 0 1-5.005-5.006v-39.438a5.005 5.005 0 0 1 10.011 0v39.438a5.006 5.006 0 0 1-5.006 5.006zm230.251-151.985h-39.438a5.005 5.005 0 0 1 0-10.01h39.438a5.005 5.005 0 1 1 0 10.01zm0-25.785h-39.438a5.005 5.005 0 0 1 0-10.01h39.438a5.005 5.005 0 1 1 0 10.01zm0-25.785h-39.438a5.005 5.005 0 0 1 0-10.011h39.438a5.005 5.005 0 1 1 0 10.011zm0-25.786h-39.438a5.005 5.005 0 0 1 0-10.01h39.438a5.005 5.005 0 1 1 0 10.01zm0 103.142h-39.438a5.005 5.005 0 0 1 0-10.01h39.438a5.005 5.005 0 1 1 0 10.01zm0 25.786h-39.438a5.006 5.006 0 0 1 0-10.012h39.438a5.006 5.006 0 1 1 0 10.012zm0 25.785h-39.438a5.005 5.005 0 0 1 0-10.01h39.438a5.005 5.005 0 1 1 0 10.01z"/><path style="fill:#009638" d="M285.711 57.439c0-7.508-6.143-13.651-13.651-13.651H52.937c-7.508 0-13.65 6.143-13.65 13.651v219.123c0 7.508 6.142 13.651 13.65 13.651H272.06c7.509 0 13.651-6.143 13.651-13.651V57.439z"/><path style="fill:#333e48" d="M44.443 172.006H5.006a5.005 5.005 0 1 1 0-10.01h39.438a5.005 5.005 0 1 1-.001 10.01zm0 25.786H5.006a5.005 5.005 0 1 1 0-10.01h39.438a5.005 5.005 0 1 1-.001 10.01zm0 25.786H5.006a5.006 5.006 0 0 1 0-10.012h39.438a5.005 5.005 0 1 1-.001 10.012zm0 25.785H5.006a5.005 5.005 0 1 1 0-10.01h39.438a5.005 5.005 0 1 1-.001 10.01zm0-103.142H5.006a5.005 5.005 0 1 1 0-10.01h39.438a5.005 5.005 0 1 1-.001 10.01zm0-25.785H5.006a5.006 5.006 0 1 1 0-10.011h39.438a5.005 5.005 0 1 1-.001 10.011zm0-25.786H5.006a5.005 5.005 0 1 1 0-10.01h39.438a5.005 5.005 0 1 1-.001 10.01z"/><path style="fill:#00af41" d="M302.955 57.439c0-7.508-6.144-13.651-13.651-13.651H70.181c-7.508 0-13.651 6.143-13.651 13.651v219.123c0 7.508 6.144 13.651 13.651 13.651h219.123c7.508 0 13.651-6.143 13.651-13.651V57.439z"/><path style="fill:#c3c6c8" d="M265.595 90.501c0-10.011-8.191-18.202-18.202-18.202H103.241c-10.011 0-18.201 8.19-18.201 18.202v136.442c0 10.011 8.19 18.202 18.201 18.202h144.151c10.011 0 18.202-8.191 18.202-18.202V90.501h.001z"/><path style="fill:#ffc843" d="M284.554 72.299h18.401v116.848h-18.401z"/><path style="fill:#333e48" d="M108.693 115.68H241.94v19.593H108.693zm12.925 29.908h107.397v9.796H121.618z"/></svg>