<svg version="1.0" xmlns="http://www.w3.org/2000/svg" width="1200" height="1200" xml:space="preserve"><g fill-rule="evenodd" clip-rule="evenodd"><path fill="#656568" d="M501.789 848.588H705.88c-2.276 58.44 4.839 127.694 42.929 168.018H458.864c38.084-40.324 45.195-109.578 42.925-168.018z"/><path fill="#36343A" d="M55.616 160.828H1144.38c18.488 0 33.599 15.12 33.599 33.607v681.032c0 18.489-15.11 33.611-33.599 33.611H55.616c-18.474 0-33.594-15.122-33.594-33.611V194.434c0-18.486 15.12-33.606 33.594-33.606z"/><path fill="#54C5D1" d="M58.109 198.016h1076.637c1.161 0 2.113.928 2.113 2.093v610.089c0 1.159-.952 2.093-2.113 2.093H58.109a2.095 2.095 0 0 1-2.107-2.093V200.109a2.09 2.09 0 0 1 2.107-2.093z"/><path fill="#8FD5DD" d="M58.234 198.016h1076.388c19.079 0-163.083 170.732-512.897 380.994C346.07 744.693 54.467 817.285 56.002 810.198V200.109c0-1.165 1.004-2.093 2.232-2.093z"/><path fill="#00BDEB" d="M103.003 872.189c8.467 0 15.371-7.047 15.371-15.7 0-8.66-6.904-15.705-15.371-15.705s-15.367 7.045-15.367 15.705c0 8.653 6.9 15.7 15.367 15.7z"/><path fill="#919697" d="M162.476 872.189c8.469 0 15.375-7.047 15.375-15.7 0-8.66-6.906-15.705-15.375-15.705-8.457 0-15.365 7.045-15.365 15.705 0 8.653 6.908 15.7 15.365 15.7zm58.814 0c8.469 0 15.371-7.047 15.371-15.7 0-8.66-6.902-15.705-15.371-15.705-8.465 0-15.375 7.045-15.375 15.705 0 8.653 6.91 15.7 15.375 15.7z"/><path fill="#36343A" d="M378.873 978.689H849.33c16.633 0 30.236 13.591 30.236 30.24v18.548c0 6.424-5.255 11.695-11.679 11.695H358.283c-5.311 0-9.656-4.355-9.656-9.642v-20.602c0-16.648 13.616-30.239 30.246-30.239z"/></g></svg>