<svg xmlns="http://www.w3.org/2000/svg" viewBox="0 0 59 59" style="enable-background:new 0 0 59 59" xml:space="preserve"><path style="fill:#38454f" d="M4 12.5h55v32H4z"/><circle style="fill:#546a79" cx="7" cy="15.5" r="1"/><circle style="fill:#546a79" cx="7" cy="41.5" r="1"/><circle style="fill:#546a79" cx="56" cy="15.5" r="1"/><circle style="fill:#546a79" cx="56" cy="41.5" r="1"/><path style="fill:#839594" d="M0 27.5h3v13H0z"/><path style="fill:#f3cc6d" d="M3 26.5H1a1 1 0 1 1 0-2h2a1 1 0 1 1 0 2zm0 17H1a1 1 0 1 1 0-2h2a1 1 0 1 1 0 2z"/><path style="fill:#839594" d="M0 15.5h3v4H0z"/><path style="fill:#28812f" d="M12 44.5h24v4H12z"/><path style="fill:#6c797a" d="M24.389 38.655c-1.76-2.032-2.974-4.996-3.295-8.376l-.008-.075C21.035 29.645 21 29.079 21 28.5s.035-1.145.086-1.704l.008-.075c.321-3.38 1.535-6.344 3.295-8.376a17.039 17.039 0 0 1 2.667-2.845H17c-4.971 0-9 5.82-9 13s4.029 13 9 13h10.057c-.998-.84-1.886-1.8-2.668-2.845z"/><path style="fill:#283238" d="M34.846 41.5C29.534 39.394 26 34.23 26 28.5s3.534-10.894 8.846-13h10.309C50.466 17.606 54 22.77 54 28.5s-3.534 10.894-8.846 13H34.846z"/><circle style="fill:#cbd4d8" cx="40" cy="28.5" r="3"/><path style="fill:#546a79" d="M49.903 29.739c.119-.499-.359-.91-.848-.753-1.66.535-4.09.448-6.093-.863.016.125.038.248.038.377a2.99 2.99 0 0 1-2 2.816s3.823 2.809 7 3.184c.896-1.041 1.557-3.317 1.903-4.761zm-19.884-2.478c-.119.499.359.91.848.753 1.66-.535 4.09-.448 6.093.863-.016-.125-.038-.248-.038-.376a2.99 2.99 0 0 1 2-2.816s-3.823-2.809-7-3.184c-.897 1.04-1.558 3.316-1.903 4.76z"/><path style="fill:#546a79" d="M34.343 36.796c.391.333.974.093 1.056-.414.277-1.722 1.457-3.848 3.535-5.037-.118-.043-.238-.079-.353-.137a2.99 2.99 0 0 1-1.601-3.061s-4.238 2.131-6.015 4.792c.52 1.271 2.248 2.894 3.378 3.857zm11.235-16.592c-.391-.333-.974-.093-1.056.414-.277 1.722-1.457 3.848-3.535 5.037.118.043.238.079.353.137a2.99 2.99 0 0 1 1.601 3.061s4.238-2.131 6.015-4.792c-.52-1.271-2.248-2.894-3.378-3.857z"/><path style="fill:#546a79" d="M44.179 37.588c.487-.163.582-.787.189-1.118-1.334-1.124-2.548-3.231-2.497-5.624-.097.079-.19.163-.299.232a2.991 2.991 0 0 1-3.448-.204s-.356 4.73 1.009 7.623c1.357.209 3.638-.437 5.046-.909zm-8.436-18.176c-.487.163-.582.787-.189 1.118 1.334 1.124 2.548 3.231 2.497 5.624.097-.079.19-.163.299-.232a2.991 2.991 0 0 1 3.448.204s.356-4.73-1.009-7.623c-1.358-.209-3.638.437-5.046.909z"/><path style="fill:#f3cc6d" d="M14 46.5h2v2h-2zm3 0h2v2h-2zm3 0h2v2h-2zm3 0h2v2h-2zm3 0h2v2h-2zm3 0h2v2h-2zm3 0h2v2h-2z"/><path style="fill:#cbd4d8" d="M4 7.5H1a1 1 0 1 0 0 2h2v41a1 1 0 1 0 2 0v-42a1 1 0 0 0-1-1z"/></svg>