<svg xmlns="http://www.w3.org/2000/svg" width="472.723" height="251.826"><g transform="translate(-289.82 -554.402)"><rect ry="122.413" rx="161.507" y="557.902" x="293.32" height="244.826" width="465.723" style="fill:#a00;fill-rule:evenodd;stroke:#d3bc5f;stroke-width:7;stroke-miterlimit:4;stroke-dasharray:none"/><path d="M465.025 580.768c-14.987 0-37.076-3.524-42.875 4.844-5.684 8.201 1.614 26.682 2.875 38.031 1.127 10.146 5.916 22.142 8.562 35.375 1.226 6.13 2.895 20.215 5.032 34.938 1.068 7.36 2.223 14.665 3.312 20.468 1.021 5.44 2.377 10.151 2.438 10.282 1.006 2.15 1.432 5.195.602 7.708a10.124 10.124 0 0 1-5.074 5.835 10.124 10.124 0 0 1-7.718.472c-2.499-.872-4.582-2.796-5.748-5.172-2.421-4.932-2.973-9.133-4.156-15.437-1.183-6.304-2.35-13.789-3.438-21.281-2.174-14.985-4.264-30.852-4.875-33.907-2.113-10.565-7.25-23.04-8.812-37.093-1.354-12.184 4.365-33.398-2.813-34.375-14.901-2.03-47.715 16.222-51.593 32.562-4.567 19.24 6.626 42.35 12.968 61.313.835 2.495 2.958 10.344 3.165 13.618.165 2.625-3.757 6.507-6.252 7.341-2.495.835-8.52-2.112-10.87-3.296-2.35-1.183-4.182-8.823-5.011-11.32-5.039-15.163-5.914-42.345-10.22-44.718-3.361-1.854-7.905 21.63-7.905 33.343 0 33.677 48.122 90.72 58.406 81.344 10.263-9.358-8.908-78.455-8.938-106.469-.003-2.618 1.013-5.233 2.84-7.107a10.121 10.121 0 0 1 7.035-3.018 10.125 10.125 0 0 1 7.197 2.929c1.88 1.88 2.93 4.536 2.928 7.196-.03 37.033.314 88.066 17.97 117.782 8.007 13.477 32.95 6.906 50.968 6.906 5.932-5.219 5.582 4.586 14.823-17.063 0-6.088-1.232-6.318-.76-13.125.47-6.806-.373-13.026-.47-13.218-5.124-10.25-15.035-28.435-22.156-47.782-7.12-19.346-12.307-40.582-5.937-59.843 1.328-4.017 5.363-6.998 9.594-6.97 3.163.022 6.273 1.65 8.097 4.234 1.825 2.584 2.286 6.05 1.278 9.048-3.801 11.304-.702 29.096 5.75 46.625 6.452 17.53 15.602 34.456 21.25 45.75 4.115 8.23 3.064 15.829 2.53 23.531.462 8.783-3.98 14.947-1.468 23.326 6.997 17.586 56.415 13.897 56.324-5.03-.137-28.552-.89-46.46-10.043-64.764-6.357-12.714-3.562-25.454-3.25-36.25.313-10.797-.393-18.83-7.937-26.375-3.37-3.37-4.056-11.267-7.97-18.737-1.957-3.735-3.73-7.67-4.156-12.687-.213-2.509-.043-5.442 1.312-8.469 1.355-3.027 4.082-5.804 7.063-7.313 1.392-.704 2.94-1.108 4.5-1.125 3.842-.04 7.602 2.351 9.198 5.846 1.596 3.494.218 7.739-1.604 10.78-.456.759.472 1.904 1.406 3.687 2.585 4.934 7.998 11.278 8.187 11.656 8.539 17.044 10.362 30.833 10.001 43.3-.36 12.465-1.121 22.256 1.125 26.75 12.248 24.495-12.993 84.218 15.92 84.218h20.68c14.632 0 19.119-.413 30.963-4.625 1.547-.55.435-3.345.625-4.75.507-3.746.414-6.131.344-6.344-4.348-13.044-14.75-23.999-20.282-40.594-4.865-14.594-1.327-30.669.97-45.78 2.295-15.113 2.718-29.188 1-32.626-5.302-10.601-9.716-21.406-9.75-36.344-.007-2.618.995-5.236 2.817-7.117a10.122 10.122 0 0 1 7.026-3.039c2.67-.042 5.34 1.04 7.228 2.928s2.936 4.558 2.928 7.228c-.034 11.331 2.67 17.435 7.656 27.407 6.936 13.87 3.191 29.318.875 44.562-2.316 15.245-3.811 30.378-1.78 36.469 3.672 11.018 14.279 22.558 20.28 40.562 1.432 4.295-1.065 11.182 1.032 11.25 5.586.183 18.675-4.777 22.593-10.375 2.645-3.778-.842-11.128-1.093-16.937-.375-8.664-.458-17.302 0-24.875.457-7.574.916-13.677 3.968-19.781 9.524-19.049 9.124-12.592 9.094-37.563-.003-2.613 1.008-5.223 2.83-7.097a10.121 10.121 0 0 1 7.014-3.028 10.126 10.126 0 0 1 7.217 2.917c1.887 1.882 2.942 4.543 2.94 7.208-.031 25.417-2.138 28.338-11.22 46.5-.106.213-1.482 5.554-1.875 12.063-.393 6.508-.353 14.59 0 22.78.068 1.57-.905 5.587.25 4.72 19.99-15.004 33.782-40.251 33.782-65.282 0-34.627-28.318-69.216-61.407-82.843-2.69-1.109 2.609 6.293 3.72 9.625 4.233 12.703 2.03 25.389.25 36.25-1.783 10.86-2.707 20.231-1.72 23.156.842 2.492.672 5.315-.493 7.674a10.123 10.123 0 0 1-5.795 5.055c-2.495.834-5.32.63-7.67-.552-2.35-1.184-4.181-3.336-5.01-5.833-3.781-11.388-.787-22.212.937-32.72 1.724-10.506 2.65-20.363.531-26.718-2.252-6.758-2.874-19.929-10.03-25.5-11.533-8.977-33.413-7.125-51.72-7.125-3.114 0-10.353-2.946-9.343 0 3.634 10.61 5.247 21.115 6.656 30.688 1.907 12.952 3.591 24.182 7.5 32 3.878 7.757 1.727 14.045.906 18.562-.821 4.517-1.434 5.007-.906 6.063 8.964 17.927 9.717 51.032 9.75 69.687.005 2.642-1.024 5.282-2.879 7.163a10.124 10.124 0 0 1-7.121 2.98 10.124 10.124 0 0 1-7.122-2.98c-1.855-1.881-2.883-4.521-2.878-7.163.032-18.036-2.054-49.544-7.656-60.75-3.879-7.757-1.697-14.046-.875-18.562.82-4.517 1.362-5.087.875-6.063-4.992-9.983-7.503-25.309-9.375-38.031-1.744-11.844 2.917-33.514-8.375-33.594l-44.516-.315c-20.733-.147 1.472 44.167 8.047 68.846 9.64 36.183 15.185 72.188 15.219 94.282.004 2.641-1.024 5.281-2.879 7.163a10.124 10.124 0 0 1-7.121 2.979 10.124 10.124 0 0 1-7.122-2.98c-1.855-1.88-2.883-4.52-2.878-7.162.032-17.683-6.394-53.887-14.688-89.782-6.073-26.283 1.943-73.03-19.219-73.03h-16.312z" style="fill:none;stroke:#d3bc5f;stroke-width:7;stroke-miterlimit:4;stroke-opacity:1;stroke-dasharray:none"/></g></svg>