<svg xmlns="http://www.w3.org/2000/svg" viewBox="0 0 58 58" style="enable-background:new 0 0 58 58" xml:space="preserve"><path style="fill:#5e5e60" d="M0 6.5v4h3a1 1 0 1 1 0 2H0v1h3a1 1 0 1 1 0 2H0v1h3a1 1 0 1 1 0 2H0v20h3a1 1 0 1 1 0 2H0v1h3a1 1 0 1 1 0 2H0v1h3a1 1 0 1 1 0 2H0v1h3a1 1 0 1 1 0 2H0v1h3a1 1 0 1 1 0 2H0v2h58v-48H0z"/><path style="fill:#f3cc6d" d="M4 39.5a1 1 0 0 0-1-1H0v2h3a1 1 0 0 0 1-1zm0 3a1 1 0 0 0-1-1H0v2h3a1 1 0 0 0 1-1zm0 3a1 1 0 0 0-1-1H0v2h3a1 1 0 0 0 1-1zm0 3a1 1 0 0 0-1-1H0v2h3a1 1 0 0 0 1-1zm0 3a1 1 0 0 0-1-1H0v2h3a1 1 0 0 0 1-1zm0-40a1 1 0 0 0-1-1H0v2h3a1 1 0 0 0 1-1zm0 3a1 1 0 0 0-1-1H0v2h3a1 1 0 0 0 1-1zm0 3a1 1 0 0 0-1-1H0v2h3a1 1 0 0 0 1-1z"/><circle style="fill:#e7eced" cx="27" cy="24.5" r="1"/><circle style="fill:#f3cc6d" cx="27" cy="27.5" r="1"/><circle style="fill:#f3cc6d" cx="27" cy="30.5" r="1"/><circle style="fill:#f3cc6d" cx="27" cy="15.5" r="1"/><circle style="fill:#e7eced" cx="24" cy="17.5" r="1"/><circle style="fill:#e7eced" cx="24" cy="21.5" r="1"/><circle style="fill:#f3cc6d" cx="55" cy="17.5" r="1"/><circle style="fill:#f3cc6d" cx="55" cy="24.5" r="1"/><circle style="fill:#e7eced" cx="18" cy="38.5" r="1"/><circle style="fill:#e7eced" cx="15" cy="38.5" r="1"/><circle style="fill:#f3cc6d" cx="12" cy="38.5" r="1"/><circle style="fill:#f3cc6d" cx="3" cy="26.5" r="1"/><circle style="fill:#f3cc6d" cx="3" cy="29.5" r="1"/><circle style="fill:#f3cc6d" cx="3" cy="32.5" r="1"/><circle style="fill:#f3cc6d" cx="27" cy="18.5" r="1"/><circle style="fill:#e7eced" cx="27" cy="21.5" r="1"/><path style="fill:#28812f" d="M50.291 30.5H33.709A1.709 1.709 0 0 1 32 28.791V12.209c0-.944.765-1.709 1.709-1.709H50.29c.944 0 1.709.765 1.709 1.709V28.79a1.708 1.708 0 0 1-1.708 1.71z"/><path style="fill:#546a79" d="M32 3.5h4v3h-4z"/><path style="fill:#38454f" d="M36 3.5h4v3h-4z"/><path style="fill:#546a79" d="M40 3.5h4v3h-4z"/><path style="fill:#38454f" d="M44 3.5h4v3h-4z"/><path style="fill:#546a79" d="M48 3.5h4v3h-4z"/><path style="fill:#bfa380" d="M54 37.5h-2a1 1 0 1 1 0-2h2a1 1 0 1 1 0 2zm0 4h-2a1 1 0 1 1 0-2h2a1 1 0 1 1 0 2z"/><path style="fill:#8f8f99" d="M24 37.5h2a1 1 0 1 0 0-2h-2a1 1 0 1 0 0 2zm2 2h-2a1 1 0 1 0 0 2h2a1 1 0 1 0 0-2zm0 4h-2a1 1 0 1 0 0 2h2a1 1 0 1 0 0-2zm0 4h-2a1 1 0 1 0 0 2h2a1 1 0 1 0 0-2z"/><path style="fill:#bfa380" d="M54 45.5h-2a1 1 0 1 1 0-2h2a1 1 0 1 1 0 2zm0 4h-2a1 1 0 1 1 0-2h2a1 1 0 1 1 0 2z"/><path style="fill:#f3cc6d" d="M20 45.5h-2a1 1 0 1 1 0-2h2a1 1 0 1 1 0 2zm0 3h-2a1 1 0 1 1 0-2h2a1 1 0 1 1 0 2zm-8-3h-2a1 1 0 1 1 0-2h2a1 1 0 1 1 0 2zm0 3h-2a1 1 0 1 1 0-2h2a1 1 0 1 1 0 2z"/><path style="fill:#38454f" d="M10 26.5a1 1 0 0 1-1-1v-2a1 1 0 1 1 2 0v2a1 1 0 0 1-1 1zm8 6a1 1 0 0 1-1-1v-2a1 1 0 1 1 2 0v2a1 1 0 0 1-1 1z"/><path style="fill:#333331" d="M7 29.5h5v5H7zm30-14h10v10H37z"/><path style="fill:#bfa380" d="M38 12.5h2v3h-2zm3 0h2v3h-2zm3 0h2v3h-2zm-6 13h2v3h-2zm3 0h2v3h-2zm3 0h2v3h-2zm3-9h3v2h-3zm0 3h3v2h-3zm0 3h3v2h-3zm-13-6h3v2h-3zm0 3h3v2h-3zm0 3h3v2h-3z"/><path style="fill:#353a37" d="M16 6.5h4v23h-4zm-8 0h4v17H8z"/><path style="fill:#333331" d="M12 42.5h6v7h-6z"/><path style="fill:#38454f" d="M26 42.5h26v4H26z"/><path style="fill:#dd352e" d="M26 38.5h26v4H26zm0 8h2v4h-2zm4 0h18v4H30zm20 0h2v4h-2z"/><path style="fill:#38454f" d="M30 34.5h18v4H30zm20 0h2v4h-2zm-24 0h2v4h-2z"/><path style="fill:#283238" d="M28 38.5v12h2v-16h-2zm20-4v16h2v-16z"/><path style="fill:#cbd4d8" d="M27 4.5a1 1 0 1 0-2 0v2h2v-2zm3 0a1 1 0 1 0-2 0v2h2v-2zm26 0a1 1 0 1 0-2 0v2h2v-2z"/></svg>