<svg xmlns="http://www.w3.org/2000/svg" width="400" height="367.834"><g fill-rule="evenodd"><path d="M266.789 2.797c-1.607.853-2.331 1.404-3.455 2.631-.603.658-1.277 1.196-1.498 1.196-.222 0-.665.29-.985.644-.32.354-1.066 1.058-1.658 1.564-.591.506-1.562 1.582-2.157 2.392-.595.809-1.542 1.9-2.104 2.424s-1.022 1.108-1.022 1.298c0 .19-.331.629-.736.976-.405.347-.736.843-.736 1.104 0 .261-.29.753-.644 1.095-1.482 1.428-1.887 1.994-2.134 2.979-.143.571-.487 1.125-.763 1.231-.277.106-.41.343-.298.525.113.183-.056.433-.376.556-.32.122-.557.411-.528.641.079.601-.885 2.81-1.226 2.81-.158 0-.287.236-.287.526 0 .289-.223.748-.495 1.021-.273.272-.612 1.112-.753 1.866-.141.754-.389 1.371-.55 1.371-.161 0-.511.91-.778 2.024-.267 1.113-.624 2.024-.794 2.024-.171 0-.311.372-.312.828-.001.455-.262 1.324-.579 1.931-.318.608-.761 2.471-.985 4.14-.224 1.67-.524 3.036-.666 3.036-.142 0-.373 1.075-.514 2.388-.14 1.314-.419 2.49-.62 2.614-.201.124-.37 1.409-.376 2.855-.014 3.048-.009 20.01.006 23.173.006 1.178.167 2.337.358 2.576.191.238.468 2.078.614 4.089.147 2.011.403 3.915.568 4.232.165.316.472 2.325.682 4.464.21 2.138.488 4.166.619 4.507.25.652-1.245.932-1.835.344-.152-.152-.966-.294-1.809-.315-2.945-.076-6.868-.622-6.868-.957 0-.189-.699-.232-1.591-.098-1.095.164-2.031.054-3.001-.351-.99-.413-1.938-.519-3.178-.355-.971.129-2.064.116-2.426-.029-.823-.329-21.082-.466-21.083-.143 0 .389-2.522.56-3.143.212-.38-.213-.898-.112-1.52.296-.601.394-1.325.543-1.99.409-.576-.115-1.131-.071-1.235.098-.163.263-1.012.46-3.894.906-.307.047-.737.196-.955.331-.218.135-1.126.357-2.018.493-.891.136-1.81.396-2.042.578-.231.182-.562.299-.736.26-.173-.04-.645.062-1.05.225l-1.971.792c-.68.272-1.383.404-1.564.292-.181-.112-.329-.028-.329.186 0 .215-.331.39-.736.39-.405 0-.736.149-.736.331 0 .182-.828.53-1.84.773s-1.84.569-1.84.725c0 .156-.745.492-1.656.747-.911.255-1.656.602-1.656.772 0 .17-.248.213-.552.097-.349-.134-.552.005-.552.379 0 .53-.225.66-.971.56-.129-.017-.336.111-.46.285-.123.174-1.046.727-2.05 1.228-1.005.501-2.154 1.201-2.554 1.555-.4.354-.951.644-1.225.644-.274 0-.698.169-.943.375-1.845 1.557-2.691 2.206-2.928 2.246a48.17 48.17 0 0 1-.579.093c-.166.025-.593.337-.949.693-.356.356-.782.564-.947.462-.165-.102-.395.062-.511.365-.116.302-.459.549-.762.549-.302 0-.727.332-.944.736-.217.405-.7.736-1.074.736-.583 0-1.277 1.111-1.186 1.897.016.132-.256.464-.604.736-.57.447-.583.432-.127-.149.671-.856.09-.805-1.057.092-.506.396-1.121.724-1.367.728-.246.005-.623.338-.839.74-.215.402-.779.829-1.253.948-.474.119-1.075.613-1.335 1.098-.259.486-1.026 1.065-1.703 1.289-.677.223-1.231.566-1.231.761 0 .391-5.802 6.227-7.639 7.684-.639.506-1.168 1.127-1.177 1.38-.008.253-.181.46-.383.46-.203 0-.368.248-.368.552 0 .303-.169.552-.376.552s-.579.455-.826 1.012c-.248.556-.802 1.296-1.231 1.643-.429.347-.999 1.175-1.268 1.84-.268.665-.705 1.341-.969 1.503-.265.162-.482.516-.482.788s-.248.59-.552.706c-.304.117-.552.466-.552.776s-.146.563-.325.563c-.292 0-.642.772-.973 2.149-.065.27-.379.78-.698 1.132-.319.353-.58.928-.58 1.278s-.148.545-.329.433c-.377-.233-.775.621-.775 1.662 0 .388-.175.706-.39.706-.214 0-.286.167-.16.371.126.204-.03.63-.346.946-.317.317-.576.885-.576 1.263 0 .379-.147.779-.326.89-.179.111-.435.783-.569 1.494-.133.71-.372 1.292-.53 1.292-.331 0-1.151 3.297-1.151 4.628 0 .49-.157.892-.349.892-.193 0-.462.99-.599 2.2-.142 1.257-.401 2.107-.602 1.983-.203-.126-.307.23-.243.835.061.58.008 1.219-.116 1.422-.124.202-.347 2.23-.494 4.507-.147 2.277-.412 4.14-.588 4.14-.436 0-.413 19.262.024 19.706.189.192.461 2.792.605 5.777.143 2.985.366 5.428.493 5.428.128 0 .17.662.092 1.472-.077.809.019 1.472.214 1.472.194 0 .467 1.357.605 3.015.138 1.659.391 3.191.561 3.404.17.214.426 1.672.569 3.24.142 1.569.399 2.852.571 2.852.464 0 .167 1.966-.322 2.129-.231.077-.421-.039-.421-.258 0-.22-.652-.399-1.45-.399-.798 0-1.56-.177-1.694-.394-.149-.242-.796-.3-1.677-.152-.979.166-1.434.108-1.434-.182 0-.262-.531-.391-1.38-.336-2.403.155-3.723-.034-2.852-.408.6-.258.621-.321.113-.342-.342-.014-.719.131-.838.324-.232.375-3.991.07-4.159-.337-.054-.134-1.089-.171-2.3-.084-1.472.107-2.2.023-2.2-.252 0-.277-.967-.382-2.957-.32-1.999.062-3.046-.053-3.232-.353-.36-.582-13.251-.618-13.949-.039-.432.358-1.698.51-6.357.762-.911.049-1.739.19-1.84.314-.312.381-4.664 1.025-5.483.811-.474-.124-.772-.028-.772.249 0 .291-.311.373-.878.231-.563-.142-1.047-.018-1.347.344-.258.311-.712.472-1.009.358-.297-.113-.766-.019-1.043.211-.277.23-.836.331-1.242.225-.406-.106-.645-.043-.532.14.113.184-.383.334-1.103.334-.721 0-1.31.177-1.31.393 0 .225-.314.293-.736.159-.453-.144-.736-.066-.736.202 0 .255-.306.356-.736.243-.405-.106-.736-.058-.736.105 0 .461-2.155 1.103-2.831.844-.402-.155-.514-.089-.336.199.177.286-.05.431-.675.431-.518 0-.942.15-.942.334 0 .184-.828.546-1.84.805-1.012.26-1.84.606-1.84.77 0 .165-.155.299-.344.299-.189 0-.81.192-1.38.427-.569.235-1.16.401-1.312.368-.151-.032-.276.124-.276.348 0 .224-.248.312-.552.196-.303-.117-.552-.052-.552.144 0 .196-.248.357-.551.357-.304 0-.552.183-.552.407 0 .224-.257.309-.572.188-.318-.122-.474-.062-.352.134.119.194-.203.459-.717.588-.515.129-.935.346-.935.483 0 .361-2.206 1.61-2.219 1.256-.007-.163-.18-.007-.387.348-.206.354-.615.644-.909.644-.293 0-.533.162-.533.361 0 .198-.392.459-.871.579-.48.12-1.23.703-1.667 1.295-.438.592-.96 1.076-1.16 1.076-.199 0-1.45 1.153-2.779 2.561-1.328 1.409-2.715 2.656-3.081 2.772-.367.117-.87.703-1.119 1.303-.249.601-.606 1.092-.795 1.092-.188 0-.511.484-.717 1.075-.206.591-.611 1.165-.9 1.276a.885.885 0 0 0-.527.765c0 .31-.165.564-.368.564-.202 0-.368.24-.368.534 0 .293-.246.671-.548.84-1.108.62-1.171 3.778-.075 3.778 1.209 0 1.641-.645.537-.802-1.191-.169-.923-1.062 1.362-4.534 2.374-3.607 4.661-6.27 4.369-5.085-.108.441-.404.882-.657.979-.627.24-2.117 2.818-1.629 2.818.215 0 .472-.312.571-.693.128-.488.418-.642.978-.52.637.138.687.096.247-.212-.437-.306-.456-.477-.092-.841.252-.251.457-.315.457-.142 0 .173.357-.001.794-.387.785-.694.792-.693.595.095-.213.852 1.018 1.546 1.294.729.104-.309.287-.301.688.03.387.319.662.337.939.06.276-.276.474-.257.673.066.194.314.132.364-.199.159-.319-.197-.393-.154-.219.127.419.679 1.374.492 1.584-.311.106-.405.432-.736.724-.736.291 0 .439.148.327.329-.117.189.331.208 1.053.045 1.009-.227 1.217-.181 1.057.238-.11.287-.056.489.121.449.176-.041.618.056.981.214s.763.185.889.059c.126-.127-.047-.23-.384-.23s-.613-.165-.613-.368c0-.202.124-.348.276-.324.152.024.4.003.552-.046.151-.05.4-.125.552-.168.151-.042.582-.211.957-.375.447-.196.787-.127.988.199.394.637 3.542.49 4.639-.216.625-.402 1.022-.419 1.914-.083.951.359 1.237.323 1.854-.236.606-.548 1.001-.605 2.319-.331.873.182 2.25.281 3.06.221 4.607-.343 7.912-.377 7.912-.081 0 .185-1.035.355-2.3.378-5.525.099-10.307.299-10.444.435-.264.264 6.256.587 7.96.395 2.16-.245 5.787-.249 13.247-.016 3.34.105 5.41.061 4.6-.097-1.4-.272-1.415-.289-.303-.339.775-.034 1.226-.269 1.337-.696.156-.595.172-.593.211.022.024.366.211.562.417.434.206-.127.279-.385.162-.573-.116-.189-.054-.343.139-.343s.446.249.562.552c.238.619 1.907.754 2.26.183.152-.246.456-.246.917 0 .379.203.866.369 1.082.369.703 0 .412-.75-.436-1.126-.801-.355-.798-.36.092-.177.506.104 1.122.191 1.368.194.247.003.358.242.247.531-.165.429.229.506 2.127.417 1.572-.075 2.09-.005 1.594.213-.523.23-.347.267.61.126.91-.134 1.396-.047 1.502.271.098.293.331.143.623-.402.29-.544.314-.777.061-.622-.222.138-.6.129-.84-.019-.299-.185-.213-.356.276-.547 1.182-.463 1.67-.365 1.556.313-.082.485.164.658.996.698.607.03 1.774.102 2.593.16.82.058 1.689-.018 1.932-.168.275-.17.442-.048.442.322 0 .328-.124.52-.276.428-.151-.091-.489.064-.75.347-.577.623-.398.643.814.091.509-.232.822-.588.696-.793-.127-.205-.047-.258.179-.118.225.139.321.483.213.765-.132.343.024.47.476.384l.821-.156c.082-.015-.15-.359-.517-.764-.366-.405-.488-.736-.271-.736.216 0 .478.207.581.46.121.298.293.331.49.092.4-.484 3.163-.641 2.867-.163-.122.197-.351.279-.51.181-.159-.098-.603.063-.987.357-.78.599.26.661 1.203.072.235-.147.491-.079.568.151.095.286.545.204 1.411-.255.7-.371 2.059-.685 3.02-.698 1.646-.022 2.299.294 1.298.628-.248.082.406.169 1.452.193 1.641.038 1.871-.042 1.676-.579-.195-.536-.115-.524.574.08.44.387.91.594 1.043.46.134-.133.04-.243-.208-.243s-.346-.17-.218-.377c.135-.218 1.373-.335 2.934-.276 1.814.068 2.596.227 2.384.483-.174.21-.912.362-1.64.338-1.56-.052-2.051.362-.621.523 1.228.137 2.033.083 5.826-.392.234-.03.34-.274.237-.544-.104-.27-.005-.491.219-.491s.407.221.407.491c0 .642 1.432.528 1.877-.149.288-.437.46-.391 1.018.273l.672.799.679-.793.678-.793.331 1.282c.182.705.46 1.448.616 1.65.157.202.397 1.105.535 2.006.138.9.429 1.853.647 2.116.492.592-.102.614-3.189.117a123.774 123.774 0 0 0-3.864-.557c-.91-.111-2.23-.305-2.931-.431-1.2-.216-1.239-.193-.652.394.471.471.989.57 2.104.404.927-.138 1.479-.077 1.479.165 0 .212.556.386 1.234.386 3.254 0 5.758.471 5.758 1.083 0 .335.165.774.366.975.201.201.473 1.394.604 2.65s.359 2.284.505 2.284c.147 0 .477 1.821.733 4.047.256 2.227.592 4.048.747 4.048.154 0 .398 1.325.541 2.944.143 1.619.389 2.944.547 2.944.157 0 .406 1.449.552 3.22.147 1.771.409 3.488.583 3.815.91 1.714-1.275.277-3.641-2.396-.339-.383-.93-.962-1.314-1.288a13.488 13.488 0 0 1-1.287-1.288 13.735 13.735 0 0 0-1.288-1.288 14.194 14.194 0 0 1-1.288-1.272c-2.238-2.575-6.471-6.495-7.015-6.495-.43 0-11.056 10.653-11.056 11.084 0 .627 2.789 3.668 3.089 3.368.123-.123.223-.043.223.177 0 .22.657 1.034 1.461 1.809.803.775 1.672 1.616 1.931 1.868.26.252.86.832 1.336 1.288a33.241 33.241 0 0 1 1.472 1.513c1.797 2.022 5.724 5.756 6.053 5.756.21 0 .292.089.184.197-.264.264 7.174 7.799 7.526 7.624.152-.075.276.019.276.21 0 .474 2.937 3.377 3.416 3.377.213 0 .286.1.164.222-.123.123.222.636.767 1.141l.989.919-.005 9.872c-.004 10.323-.086 10.927-1.301 9.622-.411-.441-.833-.801-.938-.801-.437 0 .577 1.11 4.191 4.588 4.682 4.505 4.683 4.455-.285 14.754-2.098 4.35-2.552 4.728-4.004 3.337-1.292-1.238-1.522-1.217-1.522.136 0 .607-.148 1.104-.328 1.104-.181 0-.428.399-.551.886a16.421 16.421 0 0 1-.463 1.515c-.286.743 5.207.686 5.684-.06.142-.221.627-.517 1.079-.658.452-.141 1.601-.982 2.553-1.869s1.824-1.568 1.938-1.514c.114.054.741-.452 1.393-1.125s1.071-1.223.93-1.223c-.14 0 .154-.28.655-.622.837-.572 1.705-1.635 1.525-1.868-.041-.054.507-.632 1.219-1.285.711-.653 1.293-1.396 1.293-1.65s.169-.463.376-.463.576-.455.82-1.012c.245-.556.655-1.144.912-1.306.258-.162.468-.534.468-.828 0-.293.17-.533.377-.533.208 0 .55-.373.762-.828.767-1.652 1.804-3.396 1.806-3.036.001.202.497-.626 1.103-1.84.606-1.215 1.102-2.415 1.103-2.668 0-.253.159-.46.352-.46.193 0 .46-.58.593-1.288.133-.708.407-1.288.608-1.288.202 0 .271-.248.155-.552-.117-.304-.059-.552.128-.552s.448-.58.581-1.288c.133-.708.37-1.288.528-1.288.157 0 .402-.621.544-1.38.142-.759.427-1.585.634-1.835.207-.25.28-.706.162-1.012-.117-.306-.072-.557.101-.557s.428-.91.567-2.024c.139-1.113.387-2.024.551-2.024.165 0 .414-1.076.555-2.391.141-1.316.391-2.392.555-2.392.164 0 .417-1.822.563-4.048.145-2.226.405-4.048.577-4.048.173 0 .315-4.229.316-9.398.002-5.17-.14-9.31-.314-9.202-.321.198-.741-4.266-.733-7.77.003-1.045-.151-1.996-.341-2.114-.191-.117-.465-1.705-.609-3.528-.144-1.823-.381-3.315-.527-3.315-.145 0-.448-1.449-.673-3.219a197.926 197.926 0 0 0-1.04-6.9c-.839-4.905-.831-8.828.02-9.679.198-.197.334.825.223 1.675-.033.253.182.46.478.46s.609.207.697.46c.088.253.282-.086.432-.753.231-1.031.356-1.144.828-.753.704.585 1.522.711 1.79.277.29-.468 2.372-.421 2.372.055 0 .214-.207.27-.46.125-.253-.146-.332-.124-.176.048.484.532 5.419.446 5.419-.094 0-.258.161-.469.357-.469.196 0 .266.29.156.644-.171.55-.136.544.238-.044.356-.557.5-.592.759-.184.262.415.321.406.33-.048.01-.491.051-.491.368 0 .238.368.359.399.363.092.003-.253.346-.46.763-.46.419 0 .654.167.526.374-.127.206-.41.263-.63.127-.238-.147-.294-.075-.137.178.406.656 1.815.541 1.558-.127-.133-.347.004-.552.368-.552.336 0 .5.209.389.498-.204.53 1.42.551 1.893.024.133-.149-.041-.169-.389-.045-.348.125-.711.1-.807-.056-.097-.156.685-.273 1.736-.26 1.238.015 1.883.173 1.83.449-.044.234.204.378.552.319.348-.059.592-.29.542-.515-.103-.463 1.955-.346 2.392.137.151.167.042.168-.242.003-.325-.188-.43-.158-.282.081.328.53 2.476.291 2.862-.318.279-.44.471-.211.388.465-.016.127.365.23.847.23.62 0 .815-.158.667-.542-.174-.455-.09-.469.523-.086.462.288 1.225.363 2.074.204 1.361-.255 1.957-.201 1.834.167-.037.111.318.202.788.202.551 0 .79-.17.672-.478-.27-.706 2.285-.618 3.406.117.593.388 1.068.476 1.367.253.382-.285 1.886-.377 2.206-.135.465.351 2.501.229 2.359-.141-.202-.527.851-.625 1.472-.137.263.207.519.188.666-.05.368-.595 1.037-.456.798.166-.117.304-.046.552.156.552s.465-.253.583-.561c.168-.437.33-.467.733-.133.625.519 2.341.753 2.341.319 0-.578 1.548-.832 1.88-.308.233.367.318.378.322.039.003-.253.414-.46.914-.46.606 0 .846.164.72.491-.108.282.06.49.396.49.321 0 .511-.187.424-.415-.188-.489 1.822-.731 2.116-.255.109.175-.212.241-.712.145-.499-.095-.908-.008-.908.194s.538.323 1.195.267l1.678-.141c.265-.022.379-.205.254-.408-.125-.202-.046-.368.174-.368.221 0 .489.229.596.508.188.488 2.43.279 2.988-.279.112-.112.512-.037.891.165.465.249.687.245.687-.013 0-.209.363-.381.807-.381.751 0 .761.033.152.478-.583.426-.511.483.665.516.725.02 1.233-.101 1.129-.269-.104-.168-.019-.411.188-.539.207-.128.474.023.594.336.17.441.38.482.938.184.396-.212.918-.305 1.159-.207.314.128.302.187-.042.208-.265.016-.379.195-.254.397.361.585.851.429 1.098-.349.137-.432.438-.636.759-.514.292.113.439.352.327.534-.112.181-.028.329.186.329h.666c.152 0 .276-.207.277-.46.001-.543 1.36-.645 1.719-.128.153.22.474.169.838-.134.504-.418.737-.36 1.581.392.632.563.795.627.45.177-.509-.663-.481-.69.479-.451.695.173 1.079.1 1.205-.229.102-.266.527-.509.944-.541.536-.04.695.106.544.499-.293.764 1.062.32 2.604-.855 1.102-.838 1.188-.851 1.564-.223.378.631.418.632.785.021.212-.354.709-.644 1.104-.644.394 0 .717-.248.717-.552 0-.306.327-.552.736-.552.405 0 .736-.232.736-.516 0-.284.497-.689 1.104-.901.607-.211 1.104-.541 1.104-.732 0-.191.403-.448.896-.572.492-.123 1-.555 1.128-.959.21-.66.611-.893 1.358-.787.139.02.35-.25.469-.6.267-.784 4.476-4.132 5.195-4.132.287 0 .522-.171.522-.379s.943-1.243 2.097-2.3a143.35 143.35 0 0 0 3.207-3.025c.611-.607 1.253-1.059 1.427-1.003.173.056.222-.05.108-.235-.114-.184.782-1.223 1.992-2.309 1.209-1.085 2.204-2.139 2.21-2.341.006-.202.422-.758.925-1.234.502-.477.913-1.098.913-1.38 0-.283.171-.514.38-.514s.486-.277.616-.616c.13-.338.538-.918.908-1.288.37-.369.672-.92.672-1.224 0-.303.166-.552.368-.552.202 0 .368-.253.368-.563 0-.31.238-.655.53-.767.291-.112.635-.686.765-1.276.129-.591.416-1.073.636-1.073.22 0 .3-.1.179-.221-.122-.122.265-.892.858-1.712.594-.819 1.08-1.713 1.08-1.987 0-.273.166-.496.368-.496.202 0 .339-.125.303-.276-.136-.579.846-3.404 1.183-3.404.195 0 .354-.402.354-.894 0-.491.207-1.116.46-1.389.529-.569.619-.853 1.136-3.605.21-1.113.514-2.116.678-2.228.163-.112.406-1.023.539-2.024.134-1.001.375-1.907.535-2.013.161-.106.494-2.093.742-4.416.248-2.322.629-4.341.848-4.485.564-.372.556-27.444-.008-27.81-.312-.202-1.059-6.71-1.348-11.746-.014-.244-.142-.371-.285-.283-.143.088-.378-1.202-.524-2.867-.145-1.665-.391-3.11-.547-3.212-.155-.102-.396-1.358-.535-2.792l-.252-2.607 1.121.165c.676.099 1.12.002 1.12-.246 0-.225-.373-.412-.828-.415-1.446-.01-1.708-.491-2.311-4.234-.462-2.874-.5-3.977-.176-5.138.226-.813.453-1.763.503-2.111.153-1.059.468-1.106 2.11-.312 1.092.527 1.655.636 1.83.354.167-.27.33-.281.483-.033.155.251.601.236 1.351-.047.916-.346 1.181-.324 1.464.124.306.483.348.482.358-.005.01-.49.05-.49.367 0 .238.368.359.399.363.092.003-.253.264-.46.579-.46.316 0 .472.166.346.368-.137.223.326.354 1.175.332 1.243-.033 1.297-.071.481-.332-.865-.277-.847-.297.298-.331.67-.02 1.124.114 1.01.299-.201.325.105.304 2.652-.189.737-.142 1.41-.056 1.748.224.38.316.548.329.548.042 0-.227.249-.413.552-.413.304 0 .552.166.552.368 0 .203.29.366.644.363.55-.005.564-.058.092-.363-.432-.279-.339-.358.429-.362.54-.003 1.065.201 1.167.454.149.368.192.368.215 0 .016-.261.515-.46 1.155-.46.656 0 1.031.154.898.368-.125.203-.052.368.162.368.215 0 .39-.165.39-.368 0-.202.589-.368 1.31-.368.858 0 1.223.14 1.059.405-.165.267.031.254.577-.038.455-.244.93-.301 1.057-.129.321.44 1.558.495 1.287.057-.294-.476 1.8-.228 2.162.256.175.235.393.187.599-.132.273-.424.35-.424.492 0 .139.411.272.416.745.026.471-.389.611-.389.767 0 .146.364.197.367.219.015.016-.253.37-.46.787-.46.417 0 .655.166.53.368-.298.483.05.464 1.558-.081 1.007-.364 1.3-.356 1.544.039.212.342.378.367.554.081.323-.522 1.878-.524 2.853-.002.55.294.688.294.506 0-.138-.223-.089-.405.109-.405.197 0 .434.207.525.46.134.368.323.368.946 0 1.02-.602 2.017-.602 1.677 0-.208.368-.161.368.236 0 .64-.594 1.203-.594.868 0-.208.368-.161.368.236 0 .591-.549 1.222-.613.9-.092-.125.203.031.368.346.368.316 0 .574-.165.574-.368 0-.515 1.6-.46 2.134.074.344.343.442.343.442 0 0-.243.248-.442.552-.442.303 0 .554.207.557.46.005.346.083.339.316-.028.339-.536 1.545-.462 1.973.12.173.236.272.22.276-.044.003-.257.911-.433 2.398-.465 1.402-.03 2.391.102 2.391.321 0 .205.29.37.644.367.551-.005.564-.058.092-.363-.477-.308-.469-.357.062-.362.337-.003.697.201.799.454.148.368.191.368.214 0 .016-.253.347-.46.735-.46s.788.207.891.46c.148.368.191.368.214 0 .016-.253.278-.46.581-.46.304 0 .555.207.558.46.004.307.124.276.362-.092.317-.49.358-.49.368 0 .009.452.069.462.329.051.269-.424.349-.424.519 0 .169.423.255.423.552 0 .296-.424.382-.424.551 0 .141.356.207.368.228.041.016-.253.319-.457.673-.454.55.005.564.057.092.362-.446.289-.393.358.276.363.455.003.828-.16.828-.363 0-.526 1.967-.455 2.556.092.397.368.444.368.236 0-.161-.285-.034-.46.336-.46.327 0 .493.166.368.368-.125.203-.052.368.162.368.215 0 .39-.133.39-.296 0-.163.66-.335 1.466-.382 1.266-.075 1.435.003 1.238.572-.205.593-.174.589.314-.036.391-.501.862-.648 1.686-.527.63.092 1.061.032.959-.133-.103-.166.14-.302.54-.302s.811.207.914.46c.14.346.283.324.577-.092.287-.405.392-.424.396-.07.003.265.171.379.374.254.202-.125.373-.01.379.254.008.32.176.266.501-.162.269-.354.595-.644.724-.644.421 0 .248 1.039-.198 1.187-.238.08-.311.342-.162.583.391.632.979.54.729-.114-.135-.349.005-.552.379-.552.357 0 .606-.328.628-.828.036-.818.04-.818.283.049.222.794.292.82.744.276.274-.33.67-.601.879-.601.209 0 .923-.414 1.586-.92s1.424-.919 1.691-.918c.266 0-.06.333-.724.738-.665.405-1.299.973-1.411 1.263a.562.562 0 0 1-.723.327c-.287-.11-.522-.028-.522.182s-.331.488-.736.616c-.404.129-.736.483-.736.787 0 .482.075.479.579-.025.318-.318.773-.578 1.012-.578.238 0 1.084-.58 1.88-1.288.796-.708 1.596-1.288 1.779-1.288.182 0 .894-.579 1.582-1.288.688-.708 1.413-1.288 1.611-1.288.522 0 3.248-2.833 3.505-3.643.12-.378.669-1.161 1.22-1.742.551-.58 1.535-1.882 2.187-2.894.652-1.012 1.355-2.04 1.563-2.285.208-.244.378-.617.378-.828 0-.211.175-.383.389-.383.215 0 .288-.166.163-.368-.125-.203-.052-.368.162-.368s.39-.331.39-.736c0-.405.172-.736.382-.736.235 0 .214-.181-.056-.47-.728-.78-6.706-.476-8.238.418a2.717 2.717 0 0 1-.809.282c-.243.037-.882.508-1.421 1.046-.538.539-1.207.892-1.486.785-.279-.107-.468-.076-.419.068.048.145.004.263-.097.264-.101.001-.681.355-1.288.786-2.255 1.603-5.823 2.867-9.751 3.457-1.316.197-3.634.573-5.152.834-1.518.262-3.505.368-4.416.237-.911-.131-6.199-.262-11.752-.291-7.656-.039-10.168-.164-10.39-.514-.162-.254-.296-.29-.299-.079-.007.423-2.406.458-4.422.066-.708-.138-2.695-.333-4.416-.434-1.72-.101-3.624-.274-4.232-.385-.607-.11-3.173-.444-5.703-.741-2.53-.297-5.014-.647-5.52-.778-.506-.131-1.5-.298-2.208-.37l-3.404-.351c-1.164-.12-2.116-.374-2.116-.565 0-.203-.757-.246-1.824-.105-1.004.134-2.121.114-2.484-.044s-1.223-.336-1.912-.396c-.689-.06-1.419-.276-1.622-.48-.208-.207-1.073-.274-1.968-.151-1.134.155-1.597.088-1.597-.231 0-.32-.417-.38-1.435-.209-.814.138-1.529.088-1.655-.116-.122-.197-1.076-.365-2.12-.373-1.043-.008-1.995-.157-2.116-.331-.12-.174-.797-.307-1.506-.297-1.203.019-1.31-.076-1.639-1.452-.194-.81-.442-1.555-.552-1.656-.274-.251-.417-.954-.654-3.22-.111-1.062-.323-1.932-.471-1.932-.148 0-.379-1.035-.514-2.3-.501-4.686-.685-5.777-.948-5.615-.148.092-.383-1.189-.521-2.846-.138-1.658-.38-3.102-.538-3.21-.47-.321-1.037-7.004-.595-7.004.209 0 .831.514 1.382 1.142.551.628 1.002.976 1.002.774 0-.202-.538-.857-1.196-1.456-.658-.598-4.741-4.666-9.074-9.039l-7.878-7.952.228-6.73c.22-6.521.82-12.327 1.333-12.894.319-.353 40.138 39.227 40.138 39.897 0 .557-9.927 10.61-10.477 10.61-.191 0-.975-.614-1.743-1.363-.767-.75-1.395-1.158-1.395-.909 0 .25.262.555.583.678.469.18.487.285.092.535-.376.238-.339.313.156.317.356.003.931.337 1.278.742.748.873 1.673.947 2.307.184.252-.304.343-.552.202-.552-.14 0-.007-.249.297-.552.304-.304.678-.552.833-.552.39 0 3.083-2.928 3.083-3.352 0-.191.414-.504.92-.696.506-.193.92-.603.92-.911 0-.309.179-.561.397-.561.606 0 3.283-2.755 3.283-3.379 0-.302-6.541-7.112-14.535-15.133l-14.536-14.583V37.2c0-5.459.144-10.015.32-10.123.292-.181 1.919 1.236 3.4 2.961.325.379.904.955 1.288 1.28.383.325.962.905 1.288 1.288.325.383.904.963 1.287 1.288.384.325.963.905 1.288 1.288.326.383.905.963 1.288 1.288.383.325.971.905 1.305 1.288.335.383 1.163 1.213 1.84 1.844.678.631 1.498 1.459 1.823 1.84.325.381.905.958 1.288 1.284.383.325.963.905 1.288 1.288.325.383.905.962 1.288 1.288.383.325.969.904 1.302 1.288.334.383 1.741 1.802 3.128 3.154 1.387 1.352 2.788 2.759 3.114 3.128.325.368.905.936 1.288 1.261.383.326.971.905 1.308 1.288.336.383 2.324 2.388 4.416 4.456 2.092 2.067 4.194 4.179 4.67 4.692 1.321 1.421 2.572 1.226 4.397-.689.849-.891 1.545-1.719 1.545-1.84 0-.363 1.445-1.69 1.839-1.69.203 0 .368-.153.368-.34 0-.442 2.163-2.604 2.605-2.604.187 0 .339-.174.339-.386 0-.212.414-.769.92-1.238s.92-1.025.92-1.235c0-.21-10.67-11.057-23.711-24.103-13.041-13.047-23.584-23.868-23.429-24.047.383-.442 1.233-3.485 1.03-3.688-.42-.42-4.206-.355-5.04.088m7.028 74.626c.891.889 1.692 1.549 1.78 1.465.222-.212-2.62-3.083-3.051-3.083-.192 0 .38.728 1.271 1.618m5.9 5.9c.473.493.931.825 1.017.739.22-.22-1.104-1.633-1.529-1.633-.192 0 .038.402.512.894m-95.721 32.965c.107.174 1.93.322 4.051.329 2.122.008 4.313.12 4.869.251.785.184 1.012.103 1.012-.358 0-.412.31-.583 1.012-.558 1.057.038 3.125.595 2.484.668-.489.057.607.754 1.196.762.253.003.46-.17.46-.384 0-.215-.166-.288-.368-.163-.202.125-.368.08-.368-.1 0-.389 3.686-.169 5.52.329.708.193 3.109.452 5.336.576 2.226.123 4.136.358 4.243.522.108.164 1.35.459 2.76.655 3.793.529 4.02.573 4.22.827.101.128 1.059.307 2.129.399 1.341.115 1.827.049 1.564-.214-.835-.835-.438-1.46.526-.828.499.327 1.502.594 2.23.594.727 0 1.231.148 1.119.33-.112.181.052.427.365.547.313.12.489.089.39-.071-.098-.159-.026-.529.159-.823.293-.463.34-.461.347.017.013.829 1.725 1.499 2.793 1.093.564-.215.89-.207.89.02 0 .516.629.442 1.17-.137.255-.273.759-.419 1.119-.325.36.094.655-.024.655-.262 0-.238-.192-.314-.425-.17-.263.163-.325.101-.163-.162.145-.234.543-.436.885-.451.508-.021.487-.084-.113-.342-.703-.302-.698-.317.092-.342.905-.028 1.209 1.249.368 1.549-.253.091-.327.306-.164.48.162.174.426.105.585-.153.16-.258.523-.419.808-.357.285.061.477-.096.426-.349-.067-.338.521-.434 2.208-.361 2.389.105 3.383.444 3.021 1.031-.117.188-.051.342.147.342.197 0 .422-.189.499-.42.083-.248.567-.023 1.188.552.577.535.9.977.719.983-.181.006-.033.184.33.396.42.244.582.631.445 1.061-.118.373-.042.785.168.915.569.351.464.929-.169.929-.972 0-.59.636.514.857.996.199 1.083.358 1.324 2.438.142 1.224.39 2.225.552 2.225.162 0 .503 1.407.759 3.128.256 1.72.593 3.128.748 3.128.155 0 .396.91.535 2.023.139 1.114.366 2.024.505 2.024s.473 1.242.743 2.76c.27 1.518.617 2.76.773 2.76.155 0 .398.994.539 2.208.141 1.214.379 2.208.529 2.208.15 0 .481 1.163.735 2.583l.461 2.584 5.724 5.788c6.023 6.09 7.083 7.422 7.085 8.908.001.501.238 2.157.528 3.68 1.082 5.683 1.316 7.307 1.672 11.607.661 7.977.632 7.995-4.591 2.752-2.016-2.023-3.793-3.679-3.949-3.679-.42 0-.343 1.022.088 1.166.211.07.474 2.391.609 5.366.132 2.884.379 5.243.55 5.243.171 0 .31 1.076.31 2.392 0 1.316-.152 2.392-.338 2.392-.187 0-.394 1.264-.46 2.809l-.122 2.808 2.551 2.484 2.55 2.484-.667 1.791c-.845 2.266-2.752 5.461-5.116 8.569-2.637 3.466-2.749 3.515-4.285 1.87-1.244-1.332-1.38-1.355-1.38-.23 0 .481-.352 1.226-.782 1.656-.43.43-.782 1.002-.782 1.272 0 .269-.411.71-.914.979-.503.269-1.021.827-1.153 1.242-.245.773-2.924 3.545-3.426 3.545-.154 0-.581.331-.947.736-.366.404-.889.736-1.161.736s-.495.149-.495.331c0 .686-3.948 2.561-7.077 3.362-.958.246-1.653.589-1.546.763.108.174-.309.215-.925.092-.628-.125-1.34-.043-1.616.186-.272.226-.596.31-.72.186-.123-.123-.492.044-.819.371-.452.451-.767.503-1.306.215-.391-.209-.711-.25-.711-.092-.001.159-.497.307-1.104.329-.607.021-1.103-.083-1.103-.232 0-.149-2.857-.235-6.348-.189-3.491.045-8.666-.04-11.499-.189-4.229-.223-5.205-.179-5.447.241-.374.654-1.519.644-3.385-.028-.81-.292-2.384-.538-3.498-.546-1.115-.009-2.605-.2-3.312-.423-.707-.224-2.859-.623-4.782-.887-7.856-1.078-9.431-1.359-10.452-1.861-.587-.289-1.54-.525-2.116-.525-.576 0-1.047-.142-1.047-.315 0-.174-1.361-.429-3.024-.568-1.663-.138-3.112-.369-3.22-.513-.251-.333-.393-.358-4.691-.836-1.98-.219-3.864-.537-4.185-.706-.322-.169-1.522-.424-2.668-.567-1.146-.143-2.083-.39-2.083-.548 0-.159-.704-.254-1.564-.212-.86.042-1.73-.035-1.932-.171-.203-.136-1.187-.354-2.188-.484-2.036-.266-2.398-.619-2.406-2.348-.003-.658-.148-1.196-.322-1.196-.174 0-.528-1.242-.788-2.76-.26-1.518-.593-2.76-.74-2.76-.148 0-.38-.982-.516-2.182-.136-1.201-.408-2.237-.606-2.302-.198-.066-.462-.989-.588-2.05-.126-1.061-.338-1.93-.472-1.93-.134 0-.464-1.241-.734-2.759-.269-1.518-.617-2.76-.773-2.76-.155 0-.398-.994-.539-2.208-.141-1.215-.379-2.208-.529-2.208-.15 0-.486-1.201-.746-2.668-.261-1.467-.66-2.792-.887-2.944-.3-.2-.287-.358.046-.573.317-.206-1.819-2.561-6.927-7.636-4.062-4.036-7.542-7.622-7.733-7.969-.828-1.505-1.826-11.596-1.725-17.444l.102-5.844 4.806 4.696 4.806 4.696-.016-10.283c-.009-5.656.08-10.38.198-10.498.118-.118 10.316 9.89 22.662 22.239 12.346 12.349 22.731 22.452 23.078 22.452.667 0 11.255-10.336 11.255-10.987 0-.21-11.177-11.56-24.839-25.223-13.661-13.662-24.839-24.988-24.839-25.169 0-.181.29-.678.644-1.103.354-.426.975-1.206 1.38-1.735.806-1.052 3.185-3.476 4.948-5.041.618-.548 1.78-1.194 2.584-1.435.803-.24 1.366-.589 1.251-.775-.115-.186.139-.429.564-.54.425-.112.773-.333.773-.493 0-.16-.331-.204-.736-.098-.405.105-.736.015-.736-.202 0-.217.621-.506 1.38-.643.759-.137 1.6-.424 1.87-.638 1.635-1.302 26.912-2.198 27.664-.982m-36.546 2.419c-.568.488-1.231.883-1.472.876-.242-.007-.026-.337.48-.734a36.728 36.728 0 0 0 1.288-1.048c.202-.181.451-.25.552-.155.101.094-.281.572-.848 1.061m-1.774 2.173c-.231.24-.465.183-.681-.166-.457-.74-.077-1.209.532-.655.322.292.375.587.149.821m135.282-.412c.083.582.229 1.137.326 1.233.337.337 1.01-.344.822-.831-.103-.27.01-.587.251-.703.242-.117.075-.145-.371-.063-.445.082-.893-.04-.994-.272-.102-.231-.117.055-.034.636m-60.167.231c0 .203.497.368 1.104.368.607 0 1.104-.165 1.104-.368 0-.202-.497-.368-1.104-.368-.607 0-1.104.166-1.104.368m-74.595.545c.448-.128.152.189-.658.704-.809.515-1.736.941-2.059.948-.323.006-.886.342-1.253.747-.366.405-.88.736-1.142.736-.263 0-.609.223-.771.496-.162.272-1.205 1.119-2.319 1.881-1.113.763-2.23 1.648-2.483 1.967-.253.319-.46.399-.46.178 0-.222 1.262-1.537 2.805-2.922 1.542-1.386 3.06-2.768 3.372-3.072 1.628-1.583 2.762-2.176 3.456-1.805.384.206 1.064.269 1.512.142m77.774.007c-.159.414.059.552.869.552s1.028-.138.869-.552c-.116-.303-.508-.552-.869-.552s-.753.249-.869.552m10.437-.184c0 .203.248.368.552.368.303 0 .552-.165.552-.368 0-.202-.249-.368-.552-.368-.304 0-.552.166-.552.368m-7.728.736c.73.472 2.315.472 2.024 0-.125-.202-.756-.365-1.402-.362-.893.004-1.042.091-.622.362m136.009.403c-.539.424-1.232.675-1.54.557-.309-.119-.466-.062-.349.126.116.188-1.2 1.042-2.925 1.896-2.818 1.397-3.805 2.17-2.768 2.17.202 0 .368-.153.368-.339 0-.186.497-.448 1.104-.581.607-.133 1.104-.369 1.104-.523 0-.154.662-.479 1.472-.722.809-.242 1.472-.586 1.472-.764 0-.179.483-.431 1.073-.56 1.47-.323 3.394-2.031 2.288-2.031-.175 0-.759.347-1.299.771m-133.311.149c0 .361.362.552 1.043.552.682 0 1.043-.191 1.043-.552 0-.361-.361-.552-1.043-.552-.681 0-1.043.191-1.043.552m3.006.552c.125.202.549.368.941.368.393 0 .715-.166.715-.368 0-.202-.424-.368-.942-.368-.534 0-.843.159-.714.368m2.944.368c-.13.21.187.368.736.368.548 0 .865-.158.736-.368-.126-.202-.457-.368-.736-.368-.28 0-.611.166-.736.368m2.759.513c0 .385.321.591.92.591.506 0 .92-.166.92-.368 0-.202-.152-.368-.337-.368-.186 0-.6-.1-.92-.223-.382-.147-.583-.02-.583.368m2.576.591c0 .202.497.368 1.104.368.608 0 1.104-.166 1.104-.368 0-.202-.496-.368-1.104-.368-.607 0-1.104.166-1.104.368m2.811.552c.117.304.525.552.909.552.845 0 .919-.572.114-.881-.939-.36-1.249-.26-1.023.329m109.493 2.044c-.533.214-.749.508-.576.787.213.345.308.345.422.003.081-.243.372-.442.647-.442s.602-.166.727-.368c.274-.443-.079-.437-1.22.02m-2.46.978c-.405.098-.902.349-1.104.56-.253.262-.079.31.552.153.506-.126 1.127-.231 1.38-.234.253-.003.46-.171.46-.373 0-.386-.093-.393-1.288-.106m-4.232 1.547a52.595 52.595 0 0 1-3.995 1.138c-1.353.314-1.814.556-1.472.773.653.414 1.519.418 1.264.006-.109-.177.626-.431 1.634-.564 1.008-.134 1.833-.388 1.833-.564 0-.177.828-.435 1.84-.574 1.013-.139 1.748-.403 1.635-.587-.271-.438-.371-.424-2.739.372m-8.188 2.134c-.556.085-1.011.326-1.011.537 0 .21.261.282.582.159.32-.123.982-.223 1.472-.223.489 0 .889-.166.889-.368 0-.373-.119-.379-1.932-.105m-54.369.473c1.329.425 2.287.425 2.024 0-.126-.203-.839-.352-1.586-.332-1.22.033-1.265.067-.438.332m3.404.253c.354.093.643.322.643.51 0 .432 2.097.45 2.363.02.109-.177-.419-.423-1.174-.548-1.585-.262-2.857-.249-1.832.018m47.281.001c-.357.093-.554.322-.438.51.318.514 1.255.408 1.875-.212.593-.593.093-.697-1.437-.298m-43.326.826c.304.209 1.573.383 2.822.386 1.302.003 2.326.176 2.402.406.074.22.626.343 1.227.273 1.016-.118 1.041-.156.357-.539-.973-.546-7.577-1.056-6.808-.526m39.559-.096c-2.684.335-4.02 1.224-1.84 1.224.506 0 .92-.166.92-.368 0-.203.621-.371 1.38-.374.759-.003 1.628-.166 1.932-.362.587-.38-.055-.412-2.392-.12m-29.807 1.224c.125.202.797.368 1.494.368.696 0 1.266-.166 1.266-.368 0-.203-.672-.368-1.494-.368-.902 0-1.403.145-1.266.368m23.735 0c0 .202.321.368.714.368.393 0 .817-.166.942-.368.129-.209-.18-.368-.714-.368-.518 0-.942.165-.942.368m-17.847.398c1.814.364 13.939.351 15.455-.017.607-.148-2.953-.271-7.912-.274-5.498-.003-8.441.11-7.543.291m-94.388 45.074c0 .116.256.467.569.78.709.709 1.178.337.542-.429-.46-.554-1.111-.76-1.111-.351m8.095 7.733c0 .647 1.028 1.823 1.33 1.522.157-.157-.078-.649-.522-1.094-.444-.444-.808-.636-.808-.428m4.416 4.897c0 .181.262.429.582.552.9.345 1.019.27.522-.329-.508-.611-1.104-.732-1.104-.223m4.421 3.916c.011.634.683 1.445.965 1.164.151-.151-.006-.554-.348-.896-.342-.343-.62-.463-.617-.268m-85.01 2.826c0 .134.497.788 1.104 1.452.607.665 1.104 1.099 1.104.966 0-.134-.497-.788-1.104-1.452-.607-.665-1.104-1.1-1.104-.966m2.954 3.127c.006.159.539.787 1.184 1.394.646.607.936.773.645.368-.764-1.064-1.841-2.101-1.829-1.762m90.147 2.642c0 .181.261.43.582.552.9.346 1.019.271.521-.328-.507-.612-1.103-.733-1.103-.224M67.157 246.25c.245.244-1.112.298-4.048.16-2.428-.114-4.829-.223-5.335-.243-.723-.029-.784-.091-.282-.29.944-.374 9.237-.054 9.665.373m170.01 1.045c-1.417.979-3.528 2.247-4.691 2.818-1.183.58-2.113 1.28-2.111 1.589.003.34.109.404.275.166.149-.212.979-.593 1.845-.846s1.488-.6 1.382-.771c-.194-.315.847-.927 1.381-.811.159.035.656-.33 1.104-.81.448-.481 1.187-.991 1.642-1.134.456-.143.828-.432.828-.642 0-.21.235-.293.522-.182.287.11.618-.052.736-.359.485-1.264.193-1.166-2.913.982m-121.62-.708c0 .206-.165.272-.368.147-.202-.125-.368-.085-.368.089s-.396.316-.88.316-.813-.174-.731-.386c.194-.504 2.347-.656 2.347-.166m-82.046.498c-.26.313-.411.582-.335.597 1.547.318 1.692.228 1.111-.689-.242-.382-.398-.363-.776.092m5.579.196c-1.637.388-1.912.741-.576.741.6 0 1.249-.154 1.441-.343.192-.189 1.012-.41 1.821-.49l1.472-.147-1.472-.024c-.809-.014-2.018.105-2.686.263m-6.145 1.477-.736.316h.736c.404 0 1.067-.142 1.472-.316l.736-.316h-.736c-.405 0-1.068.142-1.472.316m-3.864 1.497c-.709.37-1.466.826-1.684 1.014-.218.189-.756.457-1.196.597-.44.139-.8.491-.8.781 0 .82.275.704 2.01-.853.282-.253.831-.46 1.218-.46.388 0 1.186-.414 1.775-.92 1.244-1.07.578-1.15-1.323-.159m68.322-.148c-.134.135-.242.425-.239.644.003.22.162.152.352-.15.277-.437.44-.456.804-.092.524.524 1.782.617 1.782.132 0-.559-2.232-1.001-2.699-.534m3.987.83c.405.19 1.605.357 2.668.371 1.062.014 1.932.192 1.932.394 0 .464 1.723.486 2.007.026.3-.485-.646-.694-4.215-.93-2.079-.137-2.881-.091-2.392.139m8.28 1.133c.72.465 1.472.465 1.472 0 0-.202-.456-.366-1.012-.362-.789.004-.891.084-.46.362m117.111 1.022c-1.467.741-2.668 1.476-2.668 1.634 0 .462.639.332 1.217-.246.294-.294.968-.643 1.498-.776.531-.133.965-.407.965-.609s.248-.273.552-.156c.303.116.552.051.552-.145 0-.196.248-.356.552-.356.303 0 .552-.166.552-.368 0-.546-.302-.451-3.22 1.022m-202.903.411c-.495.39-1.71.944-2.7 1.233-1.577.46-1.689.554-.904.76.492.129.95.074 1.018-.124.067-.197.415-.358.771-.358.357 0 1.021-.323 1.476-.717.454-.394 1.018-.785 1.252-.869.234-.085.327-.261.206-.393-.121-.132-.624.079-1.119.468m198.487 1.592c-.455.22-.828.573-.828.785 0 .252.143.242.413-.028.227-.227.62-.333.872-.236.253.097.559-.082.68-.397.253-.659.023-.684-1.137-.124m-204.968.54c.354.093.934.093 1.288 0 .354-.092.065-.168-.644-.168-.708 0-.998.076-.644.168m200.092 1.279c-1.549.435-2.749 1.412-1.734 1.412.346 0 .63-.156.63-.346 0-.19.746-.457 1.656-.594.911-.136 1.656-.395 1.656-.574 0-.397-.518-.373-2.208.102m-4.983 1.804c-.133.216-.154.481-.046.589.264.264.981-.201.981-.635 0-.47-.635-.439-.935.046m-3.296.571c-1.215.282-2.581.598-3.036.702-.937.213-1.132.911-.255.911.316 0 .485-.145.376-.322-.109-.176.943-.433 2.338-.571 1.696-.167 2.604-.426 2.741-.782.112-.294.168-.515.124-.493-.044.023-1.074.272-2.288.555m-51.702.141c0 .202.672.368 1.493.368.902 0 1.404-.146 1.267-.368-.125-.203-.798-.368-1.494-.368s-1.266.165-1.266.368m3.864.368c1.033.444 2.482.444 2.207 0-.125-.203-.838-.357-1.585-.343-1.095.021-1.216.088-.622.343m3.955.263c.557.084 1.012.308 1.012.497s.332.344.736.344c.405 0 .736-.145.736-.322 0-.343-1.899-.819-2.898-.727-.328.03-.142.124.414.208m5.06.841c.735.474 2.685.474 2.392 0-.125-.203-.839-.366-1.586-.363-1.012.004-1.217.097-.806.363m31.647 0c0 .465.752.465 1.472 0 .43-.278.328-.358-.46-.363-.557-.003-1.012.16-1.012.363m-26.767.223c.357.11.554.354.437.543-.249.404 3.709.374 5.456-.041 1.026-.244.908-.287-.878-.32a61.021 61.021 0 0 1-3.864-.21c-.989-.095-1.507-.082-1.151.028m23.005-.019c-.113.113-1.092.221-2.177.239-1.486.026-1.746.103-1.053.311 1.338.402 4.784.408 4.784.009 0-.188.29-.417.644-.51.354-.092.051-.187-.675-.211-.725-.023-1.41.05-1.523.162m-14.864.795c.404.405 8.349.496 9.02.104.389-.227-1.093-.349-4.347-.356-2.715-.006-4.818.107-4.673.252m-98.163 33.08c-2.758 2.754-5.014 5.225-5.014 5.49 0 .265 2.389-1.928 5.309-4.874 4.238-4.276 5.463-5.316 6.072-5.157.42.11.671.05.557-.134-.681-1.103-2.097-.147-6.924 4.675m9.737-1.421c.739.972 2.545 2.662 2.534 2.371-.013-.33-2.506-3.015-2.8-3.015-.123 0-.003.29.266.644m3.28 3.34c0 .34 1.361 1.633 2.208 2.097.304.166.097-.163-.46-.732-.557-.568-1.012-1.176-1.012-1.351 0-.175-.166-.318-.368-.318-.202 0-.368.137-.368.304m4.048 3.909c0 .235 1.52 1.766 2.392 2.41.405.299.073-.158-.736-1.015-1.462-1.548-1.656-1.712-1.656-1.395m-20.191 2.57c.473.492.931.824 1.017.738.22-.22-1.104-1.633-1.529-1.633-.192 0 .038.403.512.895m24.886 2.235c.511.934 1.859 2.075 2.045 1.731.078-.144-.44-.757-1.152-1.363-.936-.796-1.183-.898-.893-.368m-20.269 2.364c.768.796 1.47 1.373 1.56 1.283.212-.212-2.221-2.729-2.638-2.729-.174 0 .311.651 1.078 1.446m24.038 1.301c0 .241 2.14 2.405 2.379 2.405.391 0 .176-.332-.936-1.444-1.091-1.091-1.443-1.326-1.443-.961m-20.128 2.589c.688.708 1.362 1.287 1.498 1.287.137 0-.279-.579-.924-1.287-.644-.709-1.319-1.288-1.498-1.288-.18 0 .236.579.924 1.288m24.175 1.525c0 .33 2.987 3.155 3.156 2.985.074-.074-.606-.83-1.511-1.682-.904-.851-1.645-1.438-1.645-1.303m-20.205 2.45c.487.467.954.799 1.037.739.24-.174-1.145-1.587-1.554-1.587-.203 0 .029.382.517.848m24.978 2.28c.875 1.191 1.885 2.113 2.09 1.908.197-.197-.654-1.129-1.911-2.092-.683-.523-.692-.514-.179.184m-21.254 1.446c.66.694 1.273 1.189 1.363 1.1.208-.208-1.848-2.362-2.255-2.362-.17 0 .232.568.892 1.262m24.945 2.195c0 .299 2.236 2.526 2.385 2.376.086-.085-.341-.688-.949-1.338-1.027-1.099-1.436-1.395-1.436-1.038m-20.569 2.198c.688.682 1.321 1.177 1.407 1.1.225-.199-1.881-2.339-2.303-2.339-.194 0 .209.558.896 1.239m4.071 4.06c.675.687 1.297 1.182 1.384 1.1.214-.205-1.868-2.351-2.281-2.351-.182 0 .222.563.897 1.251m4.402 4.427c.474.493.932.825 1.018.739.22-.22-1.104-1.633-1.529-1.633-.192 0 .038.402.511.894m6.403 6.447c-.131.213-.1.386.07.386.41 0 2.365 1.809 3.11 2.879.328.471.682.716.787.546.105-.17-.691-1.183-1.768-2.253-1.133-1.124-2.061-1.781-2.199-1.558m5.764 5.882c.244.392.585.626.757.52.35-.217-.371-1.232-.876-1.232-.179 0-.126.321.119.712" fill="#ac73d2"/><path d="m294.332 86.753-5.362 5.427 1.789 1.654c.984.909 1.789 1.861 1.789 2.115 0 .255.186.463.412.463.514 0 8.419 7.776 8.42 8.282.001 1.008 5.235 1.929 19.051 3.351 6.565.676 6.932.617 5.485-.893-.542-.566-.985-1.202-.985-1.415 0-.592-1.654-2.243-2.393-2.388-.361-.071-.839-.46-1.063-.865-.225-.405-.573-.858-.776-1.006-.202-.149-.219-.273-.038-.276.181-.004-.117-.42-.663-.926s-1.145-.92-1.332-.92c-.549 0-3.446-3.062-3.948-4.173-.254-.561-.638-.911-.853-.779-.215.133-.478-.092-.585-.501-.107-.408-.661-.936-1.232-1.172-.57-.236-1.133-.813-1.25-1.281-.128-.511-.651-1.004-1.307-1.233-.701-.245-1.178-.72-1.33-1.325-.131-.519-.456-.944-.724-.944-.268 0-.593-.33-.721-.735-.128-.404-.636-.836-1.129-.959-.492-.124-.895-.456-.895-.737 0-.282-.249-.512-.552-.512a.554.554 0 0 1-.552-.552c0-.304-.166-.552-.368-.552-.203 0-.327-.198-.276-.438.05-.241-.237-.51-.639-.596-.402-.087-1.001-.469-1.331-.85-.917-1.057-.923-1.053-6.642 4.736m-99.378 30.892c-.196.751.135 1.143 1.602 1.899.534.275 1.183.896 1.442 1.38.259.483.571.879.694.879.438 0 2.55 2.132 2.329 2.352-.123.123-.046.224.172.224.217 0 3.637 3.27 7.6 7.268 8.308 8.379 7.334 7.404 10.156 10.167 1.216 1.19 2.21 2.28 2.21 2.422 0 .142.396.47.88.729.483.258 1.089.863 1.346 1.344 1.009 1.884 1.534 1.587 7.156-4.038 2.936-2.936 5.338-5.521 5.338-5.743 0-.222-3.447-3.86-7.66-8.085l-7.659-7.681-2.184-.422c-3.377-.653-8.534-1.485-11.453-1.847-1.454-.181-3.276-.489-4.048-.686-3.193-.812-7.726-.905-7.921-.162m43.957 24.082a13.15 13.15 0 0 1-1.324 1.38c-.878.758-2.461 2.342-3.22 3.219-.325.376-.905.95-1.288 1.276-.383.325-.97.904-1.304 1.287a23.437 23.437 0 0 1-1.564 1.564c-.526.476-.956 1.188-.956 1.582 0 .691 10.311 11.35 10.98 11.35.17 0 .498.414.728.92.231.506.635.92.898.92s.722.351 1.02.78c1.116 1.609 2.377 2.9 2.831 2.9.259 0 .47.156.47.346 0 .464 7.636 8.118 8.099 8.118.201 0 .365.148.365.33 0 .539 1.964 2.614 2.474 2.614.258 0 .47.154.47.343 0 .419 3.914 4.441 4.322 4.441.16 0 1.941 1.656 3.957 3.679 5.223 5.243 5.252 5.225 4.591-2.752-.356-4.3-.59-5.924-1.672-11.607-.29-1.523-.533-3.179-.54-3.68-.026-1.824-1.063-2.972-20.28-22.465-7.403-7.51-7.952-7.907-9.057-6.545m-101.285 28.588c0 .168.396.518.88.776.484.259 1.073.833 1.31 1.276.237.443.793 1.031 1.237 1.307.759.472.774.462.253-.18-2.005-2.473-3.68-3.92-3.68-3.179m5.152 4.994c0 .218 3.401 3.532 3.626 3.532.171 0-.598-.883-2.614-3.003-.612-.643-1.012-.853-1.012-.529m4.865 4.997c.25.401.703.824 1.006.94.304.116.154-.212-.332-.729-1.059-1.127-1.292-1.2-.674-.211m48.861 4.405c0 .168-.414.41-.92.537-.506.127-.92.369-.92.538 0 .169-1.003 1.283-2.229 2.477-5.197 5.057-6.97 7.003-6.97 7.647 0 .327.165.594.368.594a.37.37 0 0 1 .368.371c0 .553 2.029 2.573 2.585 2.573.264 0 .383.098.263.218s.515.972 1.411 1.893c.896.922 1.628 1.817 1.628 1.99 0 .173.17.315.377.315.206 0 1.258.911 2.336 2.024 1.078 1.113 2.151 2.024 2.384 2.024.233 0 .423.207.424.46 0 .526 4.11 4.691 4.629 4.691.188 0 .554.479.813 1.065.26.585 1.004 1.327 1.654 1.647.651.321 1.038.587.862.592-.176.005 3.37 3.693 7.88 8.196 4.511 4.503 8.339 8.146 8.508 8.096.17-.051.308.092.308.318s.824 1.261 1.83 2.3a150.513 150.513 0 0 1 2.827 2.993c1.513 1.676 6.446 1.547 13.291-.346 2.252-.622 6.053-2.474 6.242-3.041.071-.213-11.139-11.658-24.91-25.432-13.771-13.775-25.039-24.907-25.039-24.74m-42.684 1.723c.269.431 1 1.079 1.624 1.438l1.134.653-.943-.886c-1.895-1.782-2.37-2.097-1.815-1.205m6.254 6.124c0 .224 2.577 2.842 2.796 2.842.322 0 .109-.369-.68-1.181-1.041-1.069-2.116-1.913-2.116-1.661m-10.644 11.92c1.775 1.953 2.244 2.388 2.404 2.229.174-.175-2.749-3.211-3.091-3.211-.113 0 .196.442.687.982m5.025 5.274c.347.404.785.736.974.736.188 0 .043-.332-.323-.736-.367-.405-.805-.736-.974-.736-.169 0-.023.331.323.736M41.766 247.171c-.809.09-1.629.319-1.821.508-.192.189-1.098.343-2.012.343-.914 0-2.33.237-3.146.527-.816.289-1.902.614-2.412.721-1.286.271-2.789 1.7-2.182 2.075.253.156 10.499 10.319 22.769 22.584 12.271 12.264 22.56 22.299 22.865 22.299.771 0 11.315-10.738 10.742-10.939-.253-.089-.46-.29-.46-.448 0-.157-2.94-3.199-6.532-6.76-12.622-12.512-29.996-29.989-30.298-30.478-.318-.514-4.578-.759-7.513-.432m29.553.712c.562 1.005 25.984 26.266 26.433 26.266.429 0 10.804-10.265 10.804-10.689 0-.129-2.153-2.426-4.784-5.106-2.631-2.68-4.797-5.149-4.813-5.487-.016-.337-.108-.421-.204-.186-.104.255-.748-.12-1.604-.934-1.451-1.38-3.052-1.903-7.363-2.404-3.978-.463-11.054-1.364-13.318-1.696-3.874-.568-5.558-.491-5.151.236m20.954 42.672c-.104.104.162.583.591 1.065 1.013 1.138 1.275.877.327-.328-.401-.51-.814-.842-.918-.737m13.144 13.694c.596.632 1.156 1.076 1.244.989.236-.237-.692-1.262-1.567-1.73-.557-.298-.47-.099.323.741m7.922 7.664c0 .188.332.627.736.973.405.347.736.492.736.323 0-.169-.331-.607-.736-.973-.404-.367-.736-.512-.736-.323m5.044 5.279c.342.399.695.651.785.561.219-.219-.682-1.286-1.086-1.286-.176 0-.04.327.301.725m7.699 7.545c.107.278.421.592.699.699.318.122.433.007.311-.311a1.392 1.392 0 0 0-.699-.699c-.318-.122-.433-.007-.311.311m-9.362 13.257c.44.506.857.92.926.92.07 0-.145-.414-.477-.92-.331-.505-.748-.919-.926-.919-.177 0 .037.414.477.919m7.474 7.542c.124.202.589.553 1.033.782l.808.415-.813-.781c-.848-.816-1.418-1.046-1.028-.416" fill="#c1bf31"/><path d="M254.859 36.838c-.51 1.519-1.011 6.807-1.209 12.762l-.225 6.73 7.878 7.952c4.333 4.373 8.416 8.441 9.074 9.039.658.599 1.196 1.32 1.196 1.602 0 .283.184.514.408.514.225 0 3.073 2.649 6.329 5.888 3.257 3.238 6.097 5.888 6.313 5.888.5 0 10.501-10.004 10.501-10.504 0-.261-37.908-38.465-39.928-40.239-.091-.08-.242.086-.337.368M125.115 164.059c0 5.812 1.059 15.921 1.81 17.281.191.346 5.991 6.259 12.889 13.14 6.898 6.882 13.986 13.961 15.752 15.732 1.765 1.771 3.359 3.219 3.542 3.219.469 0 10.901-10.577 10.901-11.052 0-.452-1.796-2.195-2.261-2.195-.173 0-.316-.207-.317-.46-.002-.253-.581-.854-1.288-1.335-.707-.482-1.286-1.103-1.286-1.38 0-.278-.132-.505-.293-.505-.762 0-4.49-3.523-4.49-4.244 0-.269-.334-.596-.742-.725-.407-.13-.646-.389-.53-.577.116-.188-.047-.342-.363-.342-.315 0-.573-.165-.573-.368 0-.202-.222-.368-.493-.368s-.682-.414-.912-.92c-.231-.506-.566-.92-.745-.92-.499 0-2.278-1.89-2.081-2.21.096-.155-.155-.368-.557-.473-.403-.105-.732-.455-.732-.778 0-.322-.248-.586-.552-.586-.304 0-.552-.229-.552-.509s-.348-.6-.773-.712c-.427-.111-.664-.378-.53-.595.137-.221-.198-.561-.761-.775-1.076-.41-2.029-1.454-1.745-1.914.095-.154-.213-.427-.684-.607-.846-.321-3.971-3.215-3.971-3.676 0-.131-.446-.566-.991-.969-.545-.402-1.249-1.044-1.564-1.427a13.304 13.304 0 0 0-1.246-1.288c-1.837-1.614-2.306-2.143-2.723-3.076-.248-.556-.665-1.012-.926-1.012-.26 0-2.375-1.915-4.699-4.256-5.983-6.025-5.514-6.1-5.514.882m92.457-.931c-.253.243-1.081 1.065-1.84 1.828-.759.762-2.267 2.253-3.349 3.312-1.083 1.059-2.243 2.238-2.576 2.619a26.607 26.607 0 0 1-1.619 1.625c-1.245 1.145-1.289 2.009-.133 2.627.484.259 1.091.867 1.35 1.35.259.484.578.88.709.88.256 0 3.025 2.654 5.216 4.999a66.72 66.72 0 0 0 3.437 3.44c2.301 2.126 4.534 4.367 4.81 4.827.188.314.88.946 1.538 1.405.658.459 1.203 1.03 1.212 1.269.008.24.541.849 1.184 1.355 1.087.855 3.722 3.455 5.095 5.027.325.372.905.943 1.288 1.269.383.326 1.111 1.076 1.617 1.667s1.458 1.453 2.115 1.917c.658.463 1.196 1.051 1.196 1.307 0 .255.396.676.88.935s1.091.866 1.35 1.35c.259.484.672.88.918.88s.695.372.997.828c.857 1.29 2.248 2.684 2.947 2.952.35.135.643.457.652.716.008.259.522.885 1.141 1.391 1.195.977 3.422 3.181 6.3 6.236.964 1.023 1.863 1.86 1.997 1.86.135 0 .776.58 1.425 1.288 1.703 1.859 1.768 1.834 4.446-1.686 2.364-3.108 4.271-6.303 5.116-8.569l.667-1.791-2.642-2.575c-1.453-1.416-2.642-2.65-2.642-2.742 0-.34-4.421-4.532-4.78-4.532-.205 0-.372-.179-.372-.398 0-.526-3.484-4.018-4.008-4.018a.404.404 0 0 1-.408-.399c0-.306-5.859-6.27-11.719-11.928a149.196 149.196 0 0 1-2.355-2.484c-1.087-1.164-2.173-2.116-2.414-2.116-.242 0-.439-.183-.439-.407 0-.363-17.404-18.019-17.718-17.974-.071.01-.336.217-.589.46M85.765 295.519c-5.99 5.993-5.674 5.279-3.346 7.562 1.007.987 1.835 2.002 1.84 2.255.005.253.185.46.399.46.686 0 3.658 3.038 3.658 3.739 0 .382.264.677.604.677.701 0 7.952 7.145 7.603 7.493-.128.129-.033.234.212.234.758 0 4.093 3.372 4.093 4.138 0 .478.179.656.528.522.54-.207 3.152 2.353 3.152 3.091 0 .214.165.286.368.161.202-.125.368.031.368.346 0 .316.231.574.514.574.685 0 2.796 2.435 2.803 3.233.005.542.056.553.363.079.304-.472.357-.459.362.092.003.354.227.644.498.644.74 0 3.262 2.851 2.717 3.071-.252.103-.161.195.206.212.73.032 9.096 8.128 9.096 8.802 0 .234.222.426.493.426.583 0 3.417 2.973 3.268 3.429-.056.173.234.402.644.51.411.107.759.383.773.612.044.689 2.514 2.534 3.093 2.311.927-.355 5.827-11.108 6.343-13.919.168-.913-44.131-45.933-45.198-45.933-.153 0-2.607 2.331-5.454 5.179" fill="#d12e28"/><path d="M320.253 61.178c-.818.86-3.246 3.276-5.396 5.37-3.86 3.758-4.403 4.473-3.395 4.473.629 0 2.797 1.855 2.797 2.392 0 .431 1.313 1.656 1.776 1.656.482 0 2.17 1.96 2.43 2.821.132.439.73.968 1.329 1.177.599.209 1.089.617 1.089.908 0 .29.331.615.736.72.423.111.736.502.736.921 0 .46.441.938 1.196 1.297 1.349.641 2.825 2.15 3.576 3.656.277.556.767 1.011 1.087 1.011.717 0 2.407 1.74 2.754 2.836.141.444.621.919 1.066 1.055.85.261 2.805 1.974 2.822 2.473.016.443 1.217 1.585 1.943 1.846.354.127.644.473.644.77 0 .296.331.644.735.772.405.129.736.471.736.761 0 .65 1.305 1.999 1.934 1.999.509 0 2.482 1.956 2.482 2.461 0 .379 1.352 1.587 1.776 1.587.489 0 2.172 1.966 2.439 2.851.138.455.655.929 1.15 1.053.495.124 1.038.472 1.206.772.363.648 2.967.702 5.757.12 1.012-.212 2.726-.543 3.81-.737 1.084-.195 2.16-.498 2.392-.675.232-.177 1.001-.334 1.709-.348.709-.014 1.785-.288 2.392-.609.608-.32 1.311-.584 1.564-.585a.462.462 0 0 0 .459-.462c-.002-.553-45.311-45.906-45.862-45.906-.211 0-1.052.703-1.869 1.564m20.012 23.091c16.202 16.182 16.686 16.767 13.424 16.224-.273-.045-.395.083-.27.285a.423.423 0 0 1-.122.583.416.416 0 0 1-.569-.143c-.381-.616-1.375.027-1.182.765.232.888-.204.873-1.027-.036-.359-.397-.778-.687-.931-.644-.244.067-11.705-11.06-14.846-14.413-.64-.684-3.813-3.927-7.051-7.207s-6.26-6.387-6.716-6.905c-1.091-1.24-1.098-1.988-.01-1.226 1.337.937 1.782.752 1.328-.55-.458-1.316-.197-1.758.633-1.069.391.324.673.36.837.108.948-1.457-.151-2.404 16.502 14.228M324.06 70.474c-.237.618.431 1.14.872.681.168-.175.086-.517-.183-.761-.383-.349-.531-.332-.689.08m-160.123 45.482c-4.381.383-7.005.836-7.605 1.314-.27.214-1.111.501-1.87.638-.759.137-1.38.426-1.38.643 0 .217.331.307.736.202.405-.106.736-.043.736.141 0 .183-.249.333-.552.333-1.38 0 .69 2.929 4.376 6.191.383.34.963.93 1.288 1.314.325.383.905.962 1.288 1.287.383.326.963.903 1.288 1.284.325.381 1.146 1.209 1.823 1.84s1.505 1.461 1.84 1.844c.335.383.922.963 1.305 1.288.383.325.963.905 1.288 1.288.325.383.905.963 1.288 1.288.383.325.962.903 1.288 1.284.325.381 1.145 1.209 1.823 1.84.677.631 1.505 1.461 1.84 1.844.334.383.921.963 1.305 1.288.383.325.962.905 1.287 1.288.326.383.905.962 1.288 1.288.384.325.963.898 1.288 1.272.767.882 4.917 5.032 5.799 5.798.374.326.947.905 1.272 1.288.325.383.905.97 1.288 1.305.383.334 1.07.997 1.526 1.472.456.475.997 1.029 1.202 1.232a620.54 620.54 0 0 1 2.902 2.944c1.392 1.416 2.838 2.842 3.214 3.167.376.325.95.905 1.275 1.288.326.383.905.961 1.288 1.284.384.324 1.111 1.103 1.617 1.733 1.008 1.254 1.747 1.477 2.074.625.116-.302.359-.458.54-.346.182.112.33.013.33-.219 0-.493 1.878-2.565 2.325-2.565.436 0 1.355-.98 1.355-1.445 0-.217.167-.395.372-.395.788 0 5.147-4.657 5.147-5.498 0-.619-5.543-6.382-21.122-21.958l-21.122-21.118-1.969.06c-1.083.033-3.459.19-5.281.349m29.991.511c0 .408.427.552 1.634.552 1.946 0 2.507-.551.89-.875-1.811-.362-2.524-.271-2.524.323m4.416.268c0 .18.166.225.368.1.202-.125.368-.052.368.163 0 .214.538.39 1.196.391.658.001 1.818.175 2.579.387.761.211 2.583.533 4.048.715 2.95.366 8.283 1.223 11.142 1.791 1.019.203 2.551.275 3.403.16 1.062-.142 1.551-.071 1.551.225 0 .293.402.358 1.237.202.904-.17 1.292-.088 1.443.305.135.352.532.476 1.149.358.518-.099 1.235-.056 1.593.096.357.153 1.188.241 1.846.198.857-.057 1.196.078 1.196.478 0 .431.291.51 1.288.348.893-.145 1.288-.069 1.288.248 0 .321.374.387 1.259.221.692-.13 1.355-.082 1.471.106.117.189.822.326 1.568.305.745-.021 1.416.144 1.491.367.083.25.692.33 1.589.21.884-.119 1.453-.045 1.453.187 0 .21.307.302.681.204.375-.098.948.088 1.273.413.394.394.904.513 1.527.357.979-.246 1.201-.683.552-1.084-.21-.13-.286-.542-.168-.915.137-.43-.025-.817-.445-1.061-.363-.212-.511-.39-.33-.396.181-.006-.142-.448-.719-.983-.621-.575-1.105-.8-1.188-.552-.077.231-.302.42-.499.42-.198 0-.264-.154-.147-.342.362-.587-.632-.926-3.021-1.031-1.687-.073-2.275.023-2.208.361.051.253-.141.41-.426.349-.285-.062-.648.099-.808.357-.159.258-.423.327-.585.153-.163-.174-.089-.389.164-.48.841-.3.537-1.577-.368-1.549-.79.025-.795.04-.092.342.6.258.621.321.113.342-.342.015-.74.217-.885.451-.162.263-.1.325.163.162.233-.144.425-.068.425.17 0 .238-.295.356-.655.262-.36-.094-.864.052-1.119.325-.541.579-1.17.653-1.17.137 0-.227-.326-.235-.89-.02-1.068.406-2.78-.264-2.793-1.093-.007-.478-.054-.48-.347-.017-.185.294-.257.664-.159.823.099.16-.077.191-.39.071-.313-.12-.477-.366-.365-.547.112-.182-.392-.33-1.119-.33-.728 0-1.731-.267-2.23-.594-.964-.632-1.361-.007-.526.828.263.263-.223.329-1.564.214-1.07-.092-2.028-.271-2.129-.399-.2-.254-.427-.298-4.22-.827-1.41-.196-2.652-.491-2.76-.655-.107-.164-2.017-.399-4.243-.522-2.227-.124-4.628-.383-5.336-.576-1.834-.498-5.52-.718-5.52-.329m-50.598 1.066c-.202.18-.782.652-1.288 1.048-.506.397-.722.727-.48.734.532.015 2.579-1.694 2.32-1.937-.101-.095-.35-.026-.552.155m220.055.518c-.607.497-1.29.905-1.519.906-.228.001-.639.273-.913.603-.452.544-.522.518-.744-.276-.243-.867-.247-.867-.283-.049-.022.5-.271.828-.628.828-.374 0-.514.203-.379.552.25.654-.338.746-.729.114-.149-.241-.076-.503.162-.583.446-.148.619-1.187.198-1.187-.129 0-.455.29-.724.644-.325.428-.493.482-.501.162-.006-.264-.177-.379-.379-.254-.203.125-.371.011-.374-.254-.004-.354-.109-.335-.396.07-.294.416-.437.438-.577.092-.103-.253-.514-.46-.914-.46s-.643.136-.54.302c.102.165-.329.225-.959.133-.824-.121-1.295.026-1.686.527-.488.625-.519.629-.314.036.197-.569.028-.647-1.238-.572-.806.047-1.466.219-1.466.382s-.175.296-.39.296c-.214 0-.287-.165-.162-.368.125-.202-.041-.368-.368-.368-.37 0-.497.175-.336.46.208.368.161.368-.236 0-.589-.547-2.556-.618-2.556-.092 0 .203-.373.366-.828.363-.669-.005-.722-.074-.276-.363.472-.305.458-.357-.092-.362-.354-.003-.646.201-.65.454-.004.337-.09.326-.323-.041-.268-.424-.349-.424-.518 0-.165.411-.271.402-.591-.051-.347-.49-.392-.49-.402 0-.009.452-.069.462-.329.051-.268-.424-.349-.424-.517 0-.142.356-.208.368-.229.041-.016-.253-.263-.46-.55-.46-.287 0-.605.207-.707.46-.148.368-.191.368-.215 0-.016-.253-.346-.46-.734-.46s-.789.207-.891.46c-.148.368-.191.368-.215 0-.016-.253-.318-.457-.673-.454-.55.005-.563.057-.092.362.472.305.459.358-.092.363-.354.003-.644-.162-.644-.367 0-.219-.989-.351-2.391-.321-1.487.032-2.395.208-2.398.465-.004.264-.103.28-.276.044-.428-.582-1.634-.656-1.973-.12-.233.367-.311.374-.316.028-.003-.253-.254-.46-.557-.46-.304 0-.552.199-.552.442 0 .343-.098.343-.442 0-.534-.534-2.134-.589-2.134-.074 0 .203-.258.368-.574.368-.315 0-.471-.165-.346-.368.322-.521-.309-.457-.9.092-.397.368-.444.368-.236 0 .143-.253.117-.46-.057-.46-.174 0-.539.207-.811.46-.397.368-.444.368-.236 0 .16-.283.037-.46-.319-.46-.319 0-.93.207-1.358.46-.623.368-.812.368-.946 0-.091-.253-.328-.46-.525-.46-.198 0-.247.182-.109.405.182.294.044.294-.506 0-.975-.522-2.53-.52-2.853.002-.176.286-.342.261-.554-.081-.244-.395-.537-.403-1.544-.039-1.508.545-1.856.564-1.558.081.125-.202-.113-.368-.53-.368-.417 0-.76.207-.763.46-.004.285-.109.32-.276.092-.362-.492-1.309-.673-1.012-.193.128.207.058.377-.157.377-.214 0-.392-.207-.395-.46-.004-.307-.126-.277-.368.092-.228.348-.465.415-.638.183-.362-.484-2.456-.732-2.162-.256.271.438-.966.383-1.287-.057-.127-.172-.602-.115-1.057.129-.546.292-.742.305-.577.038.164-.265-.201-.405-1.059-.405-.721 0-1.31.166-1.31.368 0 .203-.175.368-.39.368-.214 0-.287-.165-.162-.368.132-.214-.231-.368-.868-.368-.602 0-1.178.207-1.28.46-.149.368-.192.368-.215 0-.016-.253-.484-.457-1.041-.454-.789.004-.89.084-.46.362.472.305.458.358-.092.363-.354.003-.644-.16-.644-.363 0-.202-.248-.368-.552-.368-.303 0-.552.186-.552.413 0 .287-.168.274-.548-.042-.338-.28-1.011-.366-1.748-.224-2.547.493-2.853.514-2.652.189.114-.185-.34-.319-1.01-.299-1.145.034-1.163.054-.298.331.816.261.762.299-.481.332-.849.022-1.312-.109-1.175-.332.126-.202-.03-.368-.346-.368-.315 0-.576.207-.579.46-.004.307-.125.276-.363-.092-.317-.49-.357-.49-.367 0-.01.487-.052.488-.358.005-.283-.448-.548-.47-1.464-.124-.75.283-1.196.298-1.351.047-.153-.248-.316-.237-.483.033-.175.282-.738.173-1.83-.354-1.642-.794-1.957-.747-2.11.312-.05.348-.277 1.298-.503 2.111-.324 1.161-.286 2.264.176 5.138.603 3.743.865 4.224 2.311 4.234.455.003.828.143.828.31s.494.232 1.099.143c.605-.089 1.391-.036 1.748.118s1.228.312 1.937.351c3.143.172 9.465 1.021 10.303 1.383.506.218 2.038.355 3.404.304 1.366-.052 2.484.046 2.484.216 0 .17 4.719.309 10.487.309 5.794 0 10.488-.145 10.488-.324 0-.178.738-.241 1.641-.139.915.103 1.694.026 1.761-.175.116-.35 5.62-1.415 7.822-1.513.607-.027 1.186-.134 1.288-.237.101-.104 1.757-.583 3.679-1.065 4.117-1.03 7.656-2.117 8.551-2.625.351-.199.823-.362 1.048-.362 1.076 0 10.7-4.757 10.449-5.164-.118-.191.037-.251.346-.132.308.118 1.001-.133 1.54-.557.54-.424 1.131-.771 1.315-.771.317 0 .766-.32 1.968-1.403.295-.266.686-.391.869-.278.183.113.427-.042.542-.343.116-.301.754-.879 1.419-1.284.664-.405.96-.732.656-.725-.303.006-1.049.419-1.656.917m-222.955 1.573c-.31.502.439 1.393.83.988.226-.234.173-.529-.149-.821-.276-.251-.583-.326-.681-.167m137.14.212c.446-.082.613-.054.371.063-.241.116-.354.433-.251.703.188.487-.485 1.168-.822.831-.097-.096-.243-.651-.326-1.233-.083-.581-.068-.867.034-.636.101.232.549.354.994.272m-139.096 1.438c-.602.447-1.35 1.061-1.662 1.365-.312.304-1.83 1.686-3.372 3.072-1.543 1.385-2.805 2.7-2.805 2.922 0 .221.207.141.46-.178.253-.319 1.37-1.204 2.483-1.967 1.114-.762 2.157-1.609 2.319-1.881.162-.273.508-.496.771-.496.262 0 .776-.331 1.142-.736.367-.405.93-.741 1.253-.747.323-.007 1.25-.433 2.059-.948.81-.515 1.106-.832.658-.704-.448.127-1.128.064-1.512-.142-.54-.289-.947-.189-1.794.44m92.621-.475c0 .203-.249.368-.552.368-.304 0-.552-.165-.552-.368 0-.202.248-.368.552-.368.303 0 .552.166.552.368m-65.267 1.656c.117.304.45.552.741.552.653 0 20.735 19.978 20.735 20.628 0 .259.1.371.221.249.188-.188 1.779 1.06 3.235 2.536 2.386 2.42 8.156 8.691 8.405 9.134.322.577.288.621-.545.716-.253.029-.448.415-.432.859.029.853-.771 1.421-1.146.815a.418.418 0 0 0-.573-.141c-.193.12-.306.019-.25-.224.055-.243-.106-.517-.359-.61-.741-.272-.531.487.46 1.666 1.548 1.84.93 2.178-.963.527-3.478-3.034-32.795-32.657-33.091-33.436-.193-.508-.517-.821-.72-.695-.203.125-.369-.015-.369-.312 0-.358.248-.474.735-.347.478.125.965-.092 1.395-.624.599-.739.708-.761 1.151-.227.525.633 1.503.803 1.503.261 0-.18-.248-.424-.552-.54-.619-.238-.761-1.339-.172-1.339.209 0 .475.249.591.552m3.171 84.563c-.252.243-.832.821-1.288 1.285-.457.464-1.716 1.706-2.799 2.76-1.083 1.054-2.242 2.227-2.576 2.607-.334.38-1.352 1.434-2.263 2.341-1.044 1.041-1.484 1.715-1.192 1.825.254.096 4.564 4.286 9.577 9.312l9.114 9.136 2.934.433c1.614.238 4.508.649 6.43.914 1.923.266 4.158.684 4.966.929.822.25 2.323.359 3.404.247 1.064-.11 1.934-.086 1.934.052 0 .139.66.458 1.466.71 2.717.848 3.75.455 2.888-1.099-.255-.46-.477-.918-.492-1.02-.039-.251-5.334-5.599-5.334-5.387 0 .093-.497-.267-1.104-.799-.607-.533-1.104-1.169-1.104-1.414 0-.245-.331-.551-.736-.679-.405-.129-.736-.481-.736-.783 0-.302-.137-.464-.305-.36-.167.104-.826-.288-1.464-.87-.747-.683-.998-1.126-.707-1.246.267-.111.112-.291-.376-.439-.455-.139-.828-.481-.828-.761a.505.505 0 0 0-.497-.509c-.582 0-2.815-2.046-2.815-2.579 0-.201-.152-.365-.338-.365-.313 0-2.013-1.681-4.187-4.14-.492-.556-1.009-1.012-1.149-1.012-.408 0-2.421-2.329-2.421-2.802 0-.236-.429-.537-.954-.669-.653-.164-.886-.414-.74-.795.121-.315.056-.458-.15-.331-.2.124-.364-.013-.364-.304s-.497-.735-1.104-.986c-.607-.252-1.104-.686-1.104-.965 0-.279-.124-.508-.276-.509-.152-.001-.805-.498-1.452-1.104-1.329-1.246-1.243-1.217-1.858-.624m3.533 9.825c.81 0 12.326 11.637 12.015 12.14-.151.244-.581.115-1.175-.353-.952-.748-2.015-.66-1.252.104.579.578.492 1.357-.151 1.357-.304 0-.552-.212-.552-.472 0-.259-.497-.658-1.104-.888-1.306-.492-1.555.252-.481 1.439.59.652.585.675-.092.426-1.762-.646-9.352-7.945-11.528-11.085-.87-1.255-.274-1.809.693-.644.779.939 1.587.693 1.313-.399-.131-.523-.096-.862.078-.755 1.138.704 2.291.545 1.741-.239-.306-.437-.543-.965-.527-1.173.016-.208.113-.171.215.082s.465.46.807.46m55.987 22.432c-.706.179-.784.286-.335.458.322.124.814.084 1.093-.089.724-.447.322-.642-.758-.369m-3.312.331c0 .173.496.297 1.103.276 1.439-.052 1.44-.592.001-.592-.607 0-1.104.142-1.104.316m-209.67 6.584c-1.899 2.277-4.761 6.722-4.923 7.646-.437 2.502 7.401 1.073 10.653-1.942.273-.253.733-.46 1.022-.46.289 0 .526-.141.526-.312 0-.589 5.759-2.787 8.301-3.168 1-.15 2.09-.418 2.422-.596 1.223-.654 8.156-1.246 16.416-1.401 1.265-.023 2.3-.194 2.3-.379 0-.296-3.305-.262-7.912.081-.81.06-2.187-.039-3.06-.221-1.318-.274-1.713-.217-2.319.331-.617.559-.903.595-1.854.236-.892-.336-1.289-.319-1.914.083-1.097.706-4.245.853-4.639.216-.201-.326-.541-.395-.988-.199a10.68 10.68 0 0 1-.957.375c-.152.043-.401.118-.552.168-.152.049-.4.07-.552.046-.152-.024-.276.122-.276.324 0 .203.276.368.613.368.337 0 .51.103.384.23-.126.126-.526.099-.889-.059s-.805-.255-.981-.214c-.177.04-.231-.162-.121-.449.16-.419-.048-.465-1.057-.238-.722.163-1.17.144-1.053-.045.112-.181-.036-.329-.327-.329-.292 0-.618.331-.724.736-.21.803-1.165.99-1.584.311-.174-.281-.1-.324.219-.127.326.201.393.154.208-.145-.19-.307-.413-.327-.728-.066-.315.262-.602.239-.933-.074-.351-.331-.52-.339-.635-.03-.299.809-1.521.127-1.307-.729.197-.788.19-.789-.595-.095-.437.386-.794.56-.794.387 0-.173-.205-.109-.457.142-.364.364-.345.535.092.841.44.308.39.35-.247.212-.56-.122-.85.032-.978.52-.099.381-.356.693-.571.693-.448 0 .907-2.445 1.583-2.855.425-.258 1.08-1.561.785-1.561-.076 0-.795.787-1.597 1.748m219.036-.854c-1.453 1.13-2.816 1.566-2.525.807.151-.393-.008-.539-.544-.499-.417.032-.842.275-.944.541-.126.329-.51.402-1.205.229-.96-.239-.988-.212-.479.451.345.45.182.386-.45-.177-.844-.752-1.077-.81-1.581-.392-.364.303-.685.354-.838.134-.359-.517-1.718-.415-1.719.128-.001.253-.125.46-.277.46h-.666c-.214 0-.298-.148-.186-.329.112-.182-.035-.421-.327-.534-.321-.122-.622.082-.759.514-.242.762-.735.936-1.079.381-.114-.186 0-.421.255-.523.356-.144.351-.193-.022-.216-.267-.016-.788.134-1.159.332-.506.271-.73.219-.894-.207-.12-.313-.387-.464-.594-.336-.207.128-.292.371-.188.539.104.168-.404.289-1.129.269-1.176-.033-1.248-.09-.665-.516.609-.445.599-.478-.152-.478-.444 0-.807.172-.807.381 0 .258-.222.262-.687.013-.379-.202-.779-.277-.891-.165-.558.558-2.8.767-2.988.279-.107-.279-.375-.508-.596-.508-.22 0-.299.166-.174.368.125.203.011.386-.254.408l-1.678.141c-.657.056-1.195-.065-1.195-.267s.409-.289.908-.194c.5.096.821.03.712-.145-.294-.476-2.304-.234-2.116.255.087.228-.103.415-.424.415-.336 0-.504-.208-.396-.49.126-.327-.114-.491-.72-.491-.5 0-.911.207-.914.46-.004.339-.089.328-.322-.039-.332-.524-1.88-.27-1.88.308 0 .434-1.716.2-2.341-.319-.403-.334-.565-.304-.733.133-.118.308-.381.561-.583.561-.202 0-.273-.248-.156-.552.239-.622-.43-.761-.798-.166-.147.238-.403.257-.666.05-.621-.488-1.674-.39-1.472.137.142.37-1.894.492-2.359.141-.32-.242-1.824-.15-2.206.135-.299.223-.774.135-1.367-.253-1.121-.735-3.676-.823-3.406-.117.118.308-.121.478-.672.478-.47 0-.825-.091-.788-.202.134-.401-.325-.45-1.739-.185-.944.177-1.69.113-2.169-.186-.613-.383-.697-.369-.523.086.148.384-.047.542-.667.542-.482 0-.863-.103-.847-.23.083-.676-.109-.905-.388-.465-.386.609-2.534.848-2.862.318-.148-.239-.043-.269.282-.081.284.165.393.164.242-.003-.437-.483-2.495-.6-2.392-.137.05.225-.194.456-.542.515-.348.059-.596-.085-.552-.319.053-.276-.592-.434-1.83-.449-1.051-.013-1.833.104-1.736.26.096.156.459.181.807.056.348-.124.522-.104.389.045-.473.527-2.097.506-1.893-.024.111-.289-.053-.498-.389-.498-.364 0-.501.205-.368.552.257.668-1.152.783-1.558.127-.157-.253-.101-.325.137-.178.22.136.503.079.63-.127.128-.207-.107-.374-.526-.374-.417 0-.76.207-.763.46-.004.307-.125.276-.363-.092-.317-.491-.358-.491-.368 0-.009.454-.068.463-.33.048-.259-.408-.403-.373-.759.184-.374.588-.409.594-.238.044.11-.354.04-.644-.156-.644s-.357.211-.357.469c0 .54-4.935.626-5.419.094-.156-.172-.077-.194.176-.048.253.145.46.089.46-.125 0-.476-2.082-.523-2.372-.055-.268.434-1.086.308-1.79-.277-.472-.391-.597-.278-.828.753-.15.667-.344 1.006-.432.753-.088-.253-.401-.46-.697-.46-.296 0-.511-.207-.478-.46.111-.85-.025-1.872-.223-1.675-1.346 1.346-.241 13.613 1.238 13.749 4.988.462 6.564.65 6.847.82.19.114 1.176.237 2.19.272 1.014.036 1.903.242 1.975.459.083.249.858.318 2.109.189 1.088-.112 2.279-.074 2.647.085 2.042.884 29.555.918 29.556.037 0-.178.738-.241 1.641-.139.902.102 1.692.032 1.754-.156.163-.489 6.155-1.731 6.405-1.327.113.184.414.05.667-.297.253-.346.652-.512.885-.368.233.144.423.087.423-.128 0-.214.405-.389.899-.389s.99-.149 1.103-.331c.112-.182 1.074-.535 2.137-.784 1.063-.25 2.133-.612 2.377-.805.244-.193.617-.245.828-.114.211.13.384.088.384-.093 0-.45 1.811-1.246 2.236-.984.187.116.34.068.34-.106s1.366-.97 3.036-1.769c1.67-.8 3.119-1.545 3.22-1.657.101-.111 1.095-.672 2.208-1.245 1.113-.574 3.183-1.807 4.6-2.741 1.416-.935 2.813-1.794 3.103-1.911.303-.122.374-.308.166-.436-.198-.123-.849.157-1.447.622m-162.908-.18c.848.376 1.139 1.126.436 1.126-.216 0-.703-.166-1.082-.369-.461-.246-.765-.246-.917 0-.353.571-2.022.436-2.26-.183-.116-.303-.369-.552-.562-.552-.193 0-.255.154-.139.343a.405.405 0 0 1-.134.556c-.19.118-.422-.078-.515-.434-.16-.613-.172-.613-.212-.005-.031.463-.38.657-1.239.689-1.33.049.46.337 6.532 1.049 5.779.678 11.894 1.468 14.903 1.925 1.518.231 3.34.416 4.048.411.709-.004 1.4.164 1.536.373.166.255.436.226.813-.087.601-.499 2.803-.233 2.803.338 0 .174.538.232 1.196.13.658-.103 2.438 0 3.956.228 1.518.227 3.463.504 4.324.614.86.11 1.564.367 1.564.572 0 .227.509.276 1.304.127 1.571-.295 2.859.041 2.494.649-.191.319-.114.316.289-.01.43-.348 1.302-.329 4.027.085 4.452.678 4.974.685 4.458.065-.218-.263-.509-1.216-.647-2.116-.138-.901-.378-1.804-.535-2.006-.156-.202-.434-.945-.616-1.65l-.331-1.282-.678.793-.679.793-.672-.799c-.558-.664-.73-.71-1.018-.273-.445.677-1.877.791-1.877.149 0-.27-.183-.491-.407-.491-.224 0-.323.221-.219.491.103.27-.003.514-.237.544-3.649.457-4.189.486-6.388.343-1.1-.071.003-.513 1.183-.474.728.024 1.466-.128 1.64-.338.212-.256-.57-.415-2.384-.483-1.561-.059-2.799.058-2.934.276-.128.207-.03.377.218.377s.342.11.208.243c-.133.134-.603-.073-1.043-.46-.718-.63-.777-.636-.566-.059.184.506.035.644-.695.644-.537 0-.833-.158-.699-.374.127-.206.385-.279.573-.162.189.116.343.036.343-.178 0-.529-.412-.472-1.266.174-.393.297-.973.527-1.288.511-.38-.019-.418-.092-.114-.215.966-.39.391-.686-1.288-.663-.961.013-2.32.327-3.02.698-.866.459-1.316.541-1.411.255-.077-.23-.333-.298-.568-.151-.943.589-1.983.527-1.203-.072.384-.294.828-.455.987-.357.159.098.388.016.51-.181.296-.478-2.467-.321-2.867.163-.197.239-.369.206-.49-.092-.103-.253-.365-.46-.581-.46-.217 0-.095.331.271.736.367.405.599.749.517.764l-.821.156c-.452.086-.608-.041-.476-.384.108-.282.012-.626-.213-.765-.226-.14-.306-.087-.179.118.126.205-.187.561-.696.793-1.212.552-1.391.532-.814-.091.261-.283.599-.438.75-.347.152.092.276-.1.276-.428 0-.37-.167-.492-.442-.322-.243.15-1.112.226-1.932.168-.819-.058-1.986-.13-2.593-.16-.832-.04-1.078-.213-.996-.698.114-.678-.374-.776-1.556-.313-.489.191-.575.362-.276.547.24.148.618.157.84.019.253-.155.229.078-.061.622-.292.545-.525.695-.623.402-.106-.318-.592-.405-1.502-.271-.957.141-1.133.104-.61-.126.496-.218-.022-.288-1.594-.213-1.898.089-2.292.012-2.127-.417.111-.289 0-.528-.247-.531-.246-.003-.862-.09-1.368-.194-.89-.183-.893-.178-.092.177m-18.589.453c-.502.199-.441.261.282.29.506.02 2.907.129 5.335.243 2.936.138 4.293.084 4.048-.16-.428-.427-8.721-.747-9.665-.373m55.708.876c-.082.212.247.386.731.386s.88-.142.88-.316c0-.174.166-.214.368-.089.203.125.368.059.368-.147 0-.49-2.153-.338-2.347.166m-78.615.961c.005.204-.305.197-1.419-.032-.076-.015.075-.284.335-.597.451-.543 1.065-.187 1.084.629" fill="#3d90b3"/><path d="M268.997 2.219c0 .209.609.339 1.354.289.808-.055 1.413.089 1.502.356.205.615.824.566.824-.065 0-.282-.262-.613-.582-.736-.947-.363-3.098-.255-3.098.156m-6.746 3.362c-.371.405-.579.832-.462.948.247.248 1.688-.976 1.688-1.434 0-.503-.502-.304-1.226.486m-6.168 6.199c-.869.914-1.157 1.467-.765 1.467.35 0 1.699-1.825 1.473-1.994-.067-.05-.385.187-.708.527m10.942 15.338c-.358.358-.281 2.321.091 2.321.396 0 .759-2.176.399-2.398-.14-.087-.361-.052-.49.077m-27.099 17.96c0 .304.166.552.368.552.203 0 .368-.248.368-.552 0-.303-.165-.552-.368-.552-.202 0-.368.249-.368.552m-1.466 10.764c.004.788.084.89.362.46.466-.72.466-1.472 0-1.472-.202 0-.365.455-.362 1.012m77.363 8.402c-4.674 4.735-5.76 6.041-5.024 6.041.232 0 6.937-6.46 9.454-9.107.817-.861 1.666-1.563 1.886-1.56.22.002 10.736 10.343 23.369 22.98l22.968 22.976 1.043-.742c.573-.408 1.042-.644 1.042-.525 0 .252 1.786-.85 2.528-1.56.277-.265.378-.598.225-.741-.153-.142-.352-.051-.442.202-.09.253-.404.46-.697.46-.293 0-.624.238-.736.529a.564.564 0 0 1-.724.328c-.287-.11-.522-.035-.522.168 0 .202-.429.475-.954.607-.96.24-6.406-4.561-6.406-5.647a.404.404 0 0 0-.405-.401c-.224 0-9.261-8.859-20.084-19.687-14.33-14.336-19.896-19.68-20.478-19.66-.521.018-2.621 1.873-6.043 5.339m-4.262-3.097c-.371.405-.576.834-.456.954.223.223 1.282-.976 1.303-1.475.016-.379-.072-.325-.847.521m12.979 8.342c-.291.094-.641.342-.777.552-.164.252-.446.216-.837-.108-.83-.689-1.091-.247-.633 1.069.454 1.302.009 1.487-1.328.55-1.088-.762-1.081-.014.01 1.226.456.518 3.478 3.625 6.716 6.905 3.238 3.28 6.411 6.523 7.051 7.207 3.141 3.353 14.602 14.48 14.846 14.413.153-.043.572.247.931.644.823.909 1.259.924 1.027.036-.193-.738.801-1.381 1.182-.765a.416.416 0 0 0 .569.143.423.423 0 0 0 .122-.583c-.125-.202-.003-.33.27-.285 3.262.543 2.778-.042-13.424-16.224-15.496-15.477-15.002-15.012-15.725-14.78m.392 1.666c-.441.459-1.109-.063-.872-.681.158-.412.306-.429.689-.08.269.244.351.586.183.761m-12 1.552c.123.32.223.652.223.736 0 .085.249.154.552.154.666 0 .712-.429.111-1.03-.629-.629-1.149-.547-.886.14m-43.187 1.269c.656.613 1.276 1.032 1.376.931.279-.278-1.502-2.032-2.071-2.04-.274-.003.038.496.695 1.109m-31.266 1.075c-.019.967.078 1.167.405.84.318-.318.324-.649.025-1.27-.38-.789-.406-.763-.43.43m77.252.436c0 .491 1.72 2.158 2.227 2.158.621 0 .373-.576-.683-1.587-1.115-1.069-1.544-1.227-1.544-.571m-43.054 1.229c.975 1.283 2.576 2.695 2.576 2.271 0-.207-1.603-1.84-2.401-2.446-.69-.524-.699-.515-.175.175m-3.312 2.585c0 .303.166.552.368.552.203 0 .368-.249.368-.552 0-.304-.165-.552-.368-.552-.202 0-.368.248-.368.552m-30.543.53c0 .417.166.758.368.758.203 0 .368-.239.368-.53 0-.292-.165-.633-.368-.758-.202-.125-.368.113-.368.53m80.957-.193c0 .321.262.583.583.583.32 0 .517-.197.437-.437-.228-.683-1.02-.796-1.02-.146m-23.183 3.895c-1.518 1.602-2.967 2.92-3.22 2.928-.253.009-.46.202-.46.431 0 .228-.91 1.291-2.024 2.36-1.688 1.622-2.466 2.744-1.903 2.744.067 0 2.502-2.401 5.412-5.335 5.581-5.63 5.773-5.763 6.611-4.6.639.886 1.104.949 1.104.149 0-.322-.331-.673-.736-.779-.405-.105-.736-.338-.736-.517 0-.995-1.615.05-4.048 2.619m24.655-2.423c0 .321.262.583.583.583.32 0 .517-.197.437-.437-.228-.683-1.02-.796-1.02-.146m-30.665.828c-.424.423-.268.859.306.859a.554.554 0 0 0 .552-.552c0-.575-.435-.73-.858-.307m-11.422 1.401c.107.278.421.592.699.698.318.123.433.008.311-.311-.107-.277-.421-.592-.699-.698-.318-.122-.433-.008-.311.311m45.031.378c0 .745 1.324 2.024 2.096 2.024.468 0 .312-.323-.624-1.288-1.42-1.465-1.472-1.491-1.472-.736m-41.351 3.302c.106.277.421.592.698.698.319.123.434.008.311-.311a1.385 1.385 0 0 0-.698-.698c-.319-.122-.433-.008-.311.311m45.543 1.144c.123.32.224.651.224.736 0 .084.248.153.552.153.303 0 .552.249.552.552 0 .304.248.552.552.552.78 0 .694-.283-.459-1.505-1.107-1.173-1.771-1.401-1.421-.488m-19.996 1.294c.436.814 1.085.929 1.085.19 0-.28-.329-.595-.73-.7-.621-.162-.674-.086-.355.51m2.557 2.5c0 .181.248.424.552.54.336.129.552.001.552-.328a.549.549 0 0 0-.552-.541c-.304 0-.552.148-.552.329m21.343.199c0 .289.331.632.736.76.404.129.736.471.736.761 0 .29.248.527.552.527.78 0 .693-.284-.459-1.505-1.118-1.184-1.565-1.339-1.565-.543m-43.423.567c0 .354 3.169 3.689 3.506 3.689.602 0-.068-1.142-1.458-2.484-1.66-1.603-2.048-1.831-2.048-1.205m-16.927.561c0 .304.166.552.368.552.202 0 .368-.248.368-.552 0-.303-.166-.552-.368-.552-.202 0-.368.249-.368.552m-71.021.92c0 .235 3.189.368 8.832.368 5.642 0 8.831-.133 8.831-.368s-3.189-.368-8.831-.368c-5.643 0-8.832.133-8.832.368m-4.416.338c0 .486.64.63 2.064.463 1.824-.213 1.525-.801-.408-.801-.911 0-1.656.152-1.656.338m24.14.089c.272.441 3.091.384 3.091-.062 0-.204-.738-.343-1.641-.309-.903.035-1.555.201-1.45.371m-27.82.493c0 .711 1.425.704 2.371-.012.664-.502.607-.54-.828-.54-1.126 0-1.543.149-1.543.552m33.671.041c1.541.667 3.128.648 3.128-.039 0-.431-.459-.538-2.116-.495-2.074.054-2.094.065-1.012.534m-37.811.407c-.599.091-1.012.384-1.012.72 0 .393.197.487.644.307.355-.143 1.269-.348 2.033-.457.764-.108 1.478-.34 1.586-.515.197-.319-1.341-.344-3.251-.055m42.411.051c0 .173 1.118.426 2.484.562 1.366.136 3.022.345 3.68.463.903.163 1.195.084 1.195-.324 0-.407-.694-.599-2.815-.778-3.718-.314-4.544-.3-4.544.077m83.9.17c0 .245 3.233 3.563 3.471 3.563.077 0 .054-.331-.052-.736-.106-.405-.413-.736-.683-.736-.27 0-.624-.207-.785-.46-.398-.622-1.951-1.92-1.951-1.631m21.344.404c0 .321.262.583.582.583.65 0 .537-.792-.145-1.019-.241-.081-.437.116-.437.436m-151.518.475c-.456.088-.828.332-.828.543 0 .447 2.564.065 3.109-.464.359-.348-.696-.385-2.281-.079m54.921.108c.125.203.632.368 1.126.368.494 0 .898-.165.898-.368 0-.202-.506-.368-1.125-.368-.657 0-1.031.153-.899.368m53.174-.058c0 .472 3.183 3.738 3.644 3.738.222 0 .404.175.404.389 0 .214.828 1.182 1.84 2.153 1.987 1.905 2.172 2.242 1.227 2.242-.338 0-.5.113-.362.251.402.403 2.815.489 2.815.101 0-.194-.248-.352-.552-.352-.304 0-.552-.207-.552-.46-.001-.452-7.791-8.372-8.236-8.372-.125 0-.228.139-.228.31m-112.511 1.259c-.86.206-1.564.518-1.564.691 0 .174-.249.316-.552.316-.304 0-.552.166-.552.368 0 .52-.262.59 3.496-.924.405-.163.93-.265 1.168-.228a.721.721 0 0 0 .666-.31c.278-.451-.537-.425-2.662.087m-4.14 1.743c0 .202.248.368.552.368.304 0 .552-.166.552-.368 0-.202-.248-.368-.552-.368-.304 0-.552.166-.552.368m-2.484.827c-1.211.388-1.74 1.224-.552.871.354-.105 1.099-.3 1.656-.432.557-.133 1.012-.389 1.012-.57 0-.403-.559-.369-2.116.131m167.118.123c.123.32.223.651.223.736 0 .085.249.154.552.154.304 0 .552.248.552.552 0 .304.249.552.552.552.781 0 .694-.284-.458-1.505-1.108-1.173-1.771-1.401-1.421-.489m34.75-.146c-.744.198-1.436.578-1.539.846-.184.481.171.505 1.235.082 1.608-.64 3.594-.94 5.369-.81 1.113.081 1.991-.009 1.991-.205 0-.449-5.285-.385-7.056.087m-204.742 1.618c-.653.533-.657.564-.04.368.371-.118.826-.214 1.012-.214.186 0 .338-.166.338-.368 0-.533-.491-.453-1.31.214m103.426-.214c.125.202.632.368 1.126.368.494 0 .898-.166.898-.368 0-.202-.507-.368-1.126-.368-.656 0-1.031.153-.898.368m108.74.184c0 .304.165.552.368.552.202 0 .368-.248.368-.552 0-.304-.166-.552-.368-.552-.203 0-.368.248-.368.552m-105.98.184c0 .202.497.368 1.104.368.607 0 1.224.012 1.371.027.146.016.326-.15.398-.367.08-.24-.462-.396-1.37-.396-.827 0-1.503.166-1.503.368m44.241.066c.199.596 1.299 1.25 1.599.95.301-.3-.731-1.384-1.318-1.384-.234 0-.36.195-.281.434m-40.009.67c.125.202.549.368.941.368.393 0 .715-.166.715-.368 0-.203-.424-.368-.942-.368-.534 0-.843.159-.714.368m3.128.368c0 .202.496.368 1.104.368.607 0 1.104-.166 1.104-.368 0-.203-.497-.368-1.104-.368-.608 0-1.104.165-1.104.368m-117.889.552c-.116.303-.465.552-.775.552s-.564.152-.564.339c0 .186-.483.444-1.073.574-.89.196-1.964 1.295-1.265 1.295.348 0 3.239-1.629 3.483-1.964.124-.169.331-.293.46-.276.738.099.971-.026.971-.52 0-.304-.23-.552-.512-.552-.282 0-.608.248-.725.552m121.403-.209c.556.545 2.462.63 2.641.117.113-.322-.313-.46-1.415-.46-.978 0-1.443.13-1.226.343m3.293.761c.125.202.88.368 1.678.368.798 0 1.45-.166 1.45-.368 0-.203-.755-.368-1.677-.368-1.025 0-1.59.143-1.451.368m53.542.05c0 .491 1.72 2.158 2.227 2.158.621 0 .373-.576-.683-1.587-1.116-1.069-1.544-1.228-1.544-.571m-48.942.318c0 .202.414.368.92.368s.92-.166.92-.368c0-.203-.414-.368-.92-.368s-.92.165-.92.368m85.373.305c0 .425-2.237 3.808-2.961 4.479-.741.685-1.984 2.576-1.694 2.576.434 0 2.371-2.127 2.603-2.857.132-.416.482-.848.778-.962.296-.113.538-.452.538-.751 0-.3.226-.678.504-.84.65-.38 1.153-1.95.625-1.95-.216 0-.393.137-.393.305m-56.299.707c.005.381 2.621 3.11 2.805 2.926.212-.212-.693-1.876-1.412-2.595-.63-.63-1.398-.812-1.393-.331m-163.817 1.075c-.729.193-1.217 1.23-.572 1.213.516-.013 1.737-.875 1.737-1.225 0-.25-.183-.248-1.165.012m200.245.737-.92.544 1.104-.238c.607-.131 1.261-.392 1.453-.58.547-.536-.591-.345-1.637.274m-33.119.856c0 .202.911.368 2.024.368s2.024-.166 2.024-.368c0-.203-.911-.368-2.024-.368s-2.024.165-2.024.368m20.676.023c.089.265.378.555.644.644.276.092.414-.046.322-.322a1.149 1.149 0 0 0-.644-.644c-.276-.092-.414.046-.322.322m-7.7.609c.56.084 1.388.082 1.84-.005.453-.088-.005-.157-1.017-.154-1.012.003-1.382.074-.823.159m-184.089.372c-.304.115-.674.392-.823.615-.562.842-.243.976.823.346.607-.359 1.104-.782 1.104-.941 0-.324-.293-.329-1.104-.02m-6.033 4.362c-.137.359-.055.527.214.437.55-.183.853-1.02.369-1.02-.198 0-.46.263-.583.583m-2.063 1.441c-.252.304-.603.552-.781.552-.452 0-1.897 1.493-1.667 1.722.258.258 3.552-2.038 3.552-2.475 0-.528-.587-.421-1.104.201m223.275.582c-.691.403-.872 1.074-.289 1.074.195 0 .532-.331.749-.736.448-.836.425-.853-.46-.338m-181.358.735c-.377.239-.243.33.493.334 1.099.006 1.297-.175.519-.473-.271-.104-.727-.042-1.012.139m-46.431 2.179c-.347.405-.538.736-.426.736.476 0 1.628-.79 1.628-1.117 0-.575-.526-.408-1.202.381m224.412-.157c-.753.752-.73.864.132.639.391-.103.799-.418.908-.702.265-.69-.323-.655-1.04.063m-159.023 14.693c7.789 7.792 14.25 14.167 14.358 14.167.264 0-.91-1.429-1.78-2.168a14.347 14.347 0 0 1-1.288-1.274c-.326-.375-1.503-1.572-2.616-2.662a585.108 585.108 0 0 1-2.304-2.262l-7.486-7.549c-3.963-3.998-7.383-7.268-7.6-7.268-.218 0-.296-.1-.173-.223.122-.122-.168-.577-.645-1.012l-1.541-1.397a26.992 26.992 0 0 1-1.541-1.564c-.476-.526-1.019-.956-1.205-.956-.187 0 6.033 6.376 13.821 14.168m-68.224-12.342c-.298.188-.446.438-.329.555.29.29 1.422-.172 1.422-.58 0-.42-.405-.41-1.093.025m223.61.181c-.293.294-.636.432-.762.306-.125-.125-.228-.017-.228.241 0 .276.239.377.583.245.32-.122.716-.223.88-.223.164 0 .394-.248.51-.552.27-.703-.287-.713-.983-.017m-196.022 1.501c0 .31.249.658.552.775.304.116.552.36.552.54 0 .542-.978.372-1.503-.261-.443-.534-.552-.512-1.151.227-.43.532-.917.749-1.395.624-.487-.127-.735-.011-.735.347 0 .297.166.437.369.312.203-.126.527.187.72.695.296.779 29.613 30.402 33.091 33.436 1.893 1.651 2.511 1.313.963-.527-.991-1.179-1.201-1.938-.46-1.666.253.093.414.367.359.61-.056.243.057.344.25.224a.418.418 0 0 1 .573.141c.375.606 1.175.038 1.146-.815-.016-.444.179-.83.432-.859.833-.095.867-.139.545-.716-.249-.443-6.019-6.714-8.405-9.134-1.456-1.476-3.047-2.724-3.235-2.536-.121.122-.221.01-.221-.249 0-.65-20.082-20.628-20.735-20.628-.291 0-.624-.248-.741-.552-.277-.721-.971-.713-.971.012m-33.045 3.361c-1.478 1.531-2.604 2.867-2.503 2.968.201.201 5.741-5.151 5.741-5.546 0-.602-.734-.017-3.238 2.578m222.098-1.07c-.355.079-.644.296-.644.484 0 .47 1.005.43 1.303-.052.31-.502.144-.611-.659-.432m-16.284 6.345c.125.202.466.368.758.368s.53-.166.53-.368c0-.203-.341-.368-.757-.368-.417 0-.656.165-.531.368m-2.024.368c0 .202.249.368.552.368.304 0 .552-.166.552-.368 0-.203-.248-.368-.552-.368-.303 0-.552.165-.552.368m-53.357 1.104c0 .202.248.368.552.368.303 0 .551-.166.551-.368 0-.203-.248-.368-.551-.368-.304 0-.552.165-.552.368m3.127.368c-.131.212.21.365.807.362.802-.004.91-.085.481-.362-.707-.457-1.005-.457-1.288 0m43.239 0c-.429.277-.321.358.481.362.597.003.938-.15.807-.362-.283-.457-.581-.457-1.288 0m-39.743.736c0 .202.663.368 1.472.368.81 0 1.472-.166 1.472-.368 0-.203-.662-.368-1.472-.368-.809 0-1.472.165-1.472.368m36.431 0c0 .202.331.368.736.368.405 0 .736-.166.736-.368 0-.203-.331-.368-.736-.368-.405 0-.736.165-.736.368m-30.543.368c0 .202.424.368.942.368.534 0 .843-.16.714-.368-.125-.203-.549-.368-.942-.368-.393 0-.714.165-.714.368m6.716.621c.354.093.934.093 1.288 0 .354-.092.064-.168-.644-.168-.709 0-.998.076-.644.168m-25.115 1.771c0 .303.165.552.368.552.202 0 .368-.249.368-.552 0-.304-.166-.552-.368-.552-.203 0-.368.248-.368.552m1.104 6.234c0 .819.576.982.636.18.03-.391-.101-.711-.291-.711-.19 0-.345.239-.345.531m-165.962 17.685c0 .303.166.552.368.552.203 0 .368-.249.368-.552 0-.304-.165-.552-.368-.552-.202 0-.368.248-.368.552m89.282 6.455c-.581.616-.995 1.176-.919 1.246.076.069.671-.434 1.323-1.12.651-.685 1.065-1.246.919-1.246-.147 0-.742.504-1.323 1.12m-91.858 8.632c0 .304.166.552.368.552.203 0 .368-.248.368-.552 0-.304-.165-.552-.368-.552-.202 0-.368.248-.368.552m170.01 8.096c0 .303.165.552.368.552.202 0 .368-.249.368-.552 0-.304-.166-.552-.368-.552-.203 0-.368.248-.368.552m-170.01 12.857c0 .518.166.942.368.942.203 0 .368-.321.368-.714 0-.393-.165-.817-.368-.942-.208-.129-.368.18-.368.714m.837 5.726c0 .911.071 1.283.159.828a5.227 5.227 0 0 0 0-1.656c-.088-.455-.159-.083-.159.828m60.269 4.692c.027.362 2.188 2.067 2.188 1.726 0-.277-1.761-2.002-2.043-2.002-.091 0-.156.124-.145.276m4.995 5.05c.107.277.421.592.699.698.318.122.433.008.311-.311-.107-.277-.421-.592-.699-.698-.318-.122-.433-.008-.311.311m1.977 1.552c0 .466 2.211 2.809 2.437 2.583.106-.106-.399-.802-1.122-1.547-.724-.744-1.315-1.211-1.315-1.036m-65.502 3.198c0 .303.166.654.368.779.203.125.368-.021.368-.324 0-.304-.165-.655-.368-.78-.202-.125-.368.021-.368.325m60.011-.315c-.016.208.221.736.527 1.173.55.784-.603.943-1.741.239-.174-.107-.209.232-.078.755.274 1.092-.534 1.338-1.313.399-.252-.303-.697-.552-.99-.552-1.676 0 9.233 11.33 11.825 12.281.677.249.682.226.092-.426-1.074-1.187-.825-1.931.481-1.439.607.23 1.104.629 1.104.888 0 .26.248.472.552.472.643 0 .73-.779.151-1.357-.763-.764.3-.852 1.252-.104.594.468 1.024.597 1.175.353.311-.503-11.205-12.14-12.015-12.14-.342 0-.705-.207-.807-.46-.102-.253-.199-.29-.215-.082m9.539 1.402c0 .302 3.427 3.563 3.582 3.408.096-.095-.604-.929-1.554-1.853-1.593-1.548-2.028-1.882-2.028-1.555m-13.456 9.314c4.98 4.988 9.138 8.986 9.24 8.884.241-.241-17.445-17.954-17.927-17.954-.203 0 3.707 4.082 8.687 9.07m-89.212-6.494c0 .203.248.368.552.368.303 0 .552-.165.552-.368 0-.202-.249-.368-.552-.368-.304 0-.552.166-.552.368m-9.099.46c.187.527 2.451.448 3.003-.105.228-.228-.275-.355-1.405-.355-1.25 0-1.713.134-1.598.46m16.826-.138c0 .177.518.426 1.15.552 1.632.326 1.794.297 1.794-.322 0-.399-.409-.552-1.472-.552-.809 0-1.472.145-1.472.322m-21.711.782c0 .47 2.217.47 2.944 0 .399-.258.068-.358-1.196-.362-.961-.003-1.748.16-1.748.362m27.967 0c0 .203.828.368 1.84.368s1.84-.165 1.84-.368c0-.202-.828-.368-1.84-.368s-1.84.166-1.84.368m-32.475.268c-1.3.136-1.76.557-1.072.982.456.283 5.212-.572 5.212-.936 0-.31-1.458-.326-4.14-.046m36.891.066c0 .221.621.428 1.38.46 2.253.094 3.169.184 4.612.455 1.102.207 1.368.145 1.368-.316 0-.429-.39-.569-1.564-.561-.86.006-2.516-.09-3.68-.214-1.423-.152-2.116-.094-2.116.176m88.316-.153c0 .214 2.248 2.395 2.469 2.395.457 0-1.726-2.559-2.193-2.57-.151-.003-.276.075-.276.175m-128.426 1.291c0 .202.248.368.552.368.303 0 .552-.166.552-.368 0-.202-.249-.368-.552-.368-.304 0-.552.166-.552.368m49.31 0c0 .202.331.368.736.368.404 0 .736-.166.736-.368 0-.202-.332-.368-.736-.368-.405 0-.736.166-.736.368m-51.886.346c0 .687.819.833 1.402.25.548-.549.517-.596-.404-.596-.549 0-.998.156-.998.346m55.013.022c.126.202.715.368 1.31.368.595 0 1.082-.166 1.082-.368 0-.202-.589-.368-1.309-.368-.78 0-1.218.149-1.083.368m-57.221.672c0 .168-.497.232-1.104.143-.724-.107-1.104-.004-1.104.297 0 .337.465.396 1.733.222 1.983-.271 3.038-.966 1.468-.966-.546 0-.993.137-.993.304m207.097 2.591a81.185 81.185 0 0 1-4.187 4.115c-2.229 2.006-2.677 2.558-2.077 2.558.497 0 6.309-5.799 6.06-6.048-.114-.114-.052-.208.139-.208.38 0 2.719-2.04 2.719-2.371 0-.606-.854.023-2.654 1.954M51.15 225.943c0 .202.248.368.552.368.304 0 .552-.166.552-.368 0-.202-.248-.368-.552-.368-.304 0-.552.166-.552.368m-2.208.368c0 .202-.281.368-.626.368-.422 0-.504.121-.252.373.251.252.753.24 1.545-.036 1.4-.488 1.538-1.073.253-1.073-.506 0-.92.166-.92.368m145.278.644c1.333 1.301 2.18 1.854 1.548 1.012-.651-.868-1.544-1.628-1.932-1.644-.152-.007.021.278.384.632m-147.854.46c0 .202.341.368.758.368s.655-.166.53-.368c-.125-.202-.466-.368-.758-.368-.291 0-.53.166-.53.368m-2.539.94c-.689.299-1.16.635-1.048.747.287.287 3.219-.633 3.219-1.009 0-.448-.741-.359-2.171.262m-2.974 1.172c-.593.233-1.479 1.033-1.479 1.336 0 .103.456-.049 1.012-.34.557-.29 1.219-.529 1.472-.53.253-.001.46-.168.46-.37 0-.398-.596-.437-1.465-.096m-7.734 4.044c-.304.115-.674.392-.823.615-.562.842-.243.976.823.346.607-.359 1.104-.782 1.104-.941 0-.324-.293-.329-1.104-.02m220.161 2.557c-2.157 1.743-2.666 2.276-2.676 2.801-.006.314.785-.272 1.758-1.303.334-.354.753-.643.93-.643.178 0 .903-.58 1.611-1.288 1.847-1.847.879-1.589-1.623.433m-222.514-.771c-.138.359-.055.527.214.437.55-.183.852-1.019.369-1.019-.198 0-.46.262-.583.582m-1.683 1.158c-.482.543-.469.58.122.354.364-.14.731-.254.816-.254.085 0 .154-.166.154-.368 0-.542-.477-.425-1.092.268m-2.343 1.633c-.371.405-.579.831-.462.948.248.248 1.689-.976 1.689-1.435 0-.502-.503-.303-1.227.487m179.044.298c.463.742 1.024.996 1.024.465 0-.154-.335-.489-.745-.744-.69-.431-.71-.411-.279.279m43.71.744c-.292.181-.408.451-.259.6.149.149.464.078.701-.158.556-.556.245-.866-.442-.442m-226.824 2.6c-1.192 1.211-2.057 2.312-1.922 2.448.258.257 4.643-3.891 4.643-4.392 0-.625-.642-.167-2.721 1.944m222.5.588c-.622.251-.585.86.053.86.282 0 .608-.248.724-.552.217-.564.036-.636-.777-.308m-191.812 4.54c-.372.241.826.345 3.68.32 3.244-.028 3.888-.108 2.76-.341-2.038-.421-5.774-.409-6.44.021m-4.048.649c0 .154 8.197 8.472 18.215 18.483 10.019 10.011 18.216 17.992 18.216 17.737 0-.444-35.779-36.501-36.219-36.501-.117 0-.212.126-.212.281m19.264-.011c1.207.125 1.869.605 4.485 3.25 4.085 4.132 4.793 3.991.867-.172l-3.089-3.277-1.84.027c-1.575.022-1.636.047-.423.172m168.053.734c-.483.543-.47.581.122.354.364-.14.731-.254.816-.254.084 0 .153-.166.153-.368 0-.541-.477-.424-1.091.268m-219.454-.023c-.352.352-.303.859.083.859.181 0 .424-.248.54-.552.216-.561-.176-.754-.623-.307m79.791 3.317c.81.798 1.542 1.399 1.627 1.335.235-.176-1.527-1.969-2.363-2.403-.405-.211-.073.27.736 1.068m-67.157-.104c0 .592 45.366 45.484 45.964 45.484.678 0 11.074-10.051 11.074-10.706 0-.583-.172-.429-5.362 4.818-2.803 2.834-5.346 5.152-5.651 5.152-.306 0-10.623-10.06-22.927-22.355-20.55-20.535-23.098-23.005-23.098-22.393m74.333.222c0 .202.414.368.92.368s.92-.166.92-.368c0-.202-.414-.368-.92-.368s-.92.166-.92.368m126.587.022c0 .214-.166.287-.368.162-.203-.125-.368-.034-.368.202 0 .24.256.33.582.205.32-.123.734-.223.92-.223.186 0 .338-.166.338-.368 0-.202-.249-.368-.552-.368-.304 0-.552.175-.552.39m-122.907.346c0 .202.538.365 1.196.362.907-.004 1.062-.091.644-.362-.724-.467-1.84-.467-1.84 0m4.416.736c0 .202.248.368.551.368.304 0 .552-.166.552-.368 0-.203-.248-.368-.552-.368-.303 0-.551.165-.551.368m-87.468.553c-.242.262-.656.553-.92.647-.265.094-.398.254-.297.355.101.101.654-.106 1.228-.46.573-.355.905-.729.735-.831-.169-.103-.505.027-.746.289m90.779-.185c0 .202.249.368.552.368.304 0 .552-.166.552-.368 0-.203-.248-.368-.552-.368-.303 0-.552.165-.552.368m-16.559.091c0 .119 2.153 2.409 4.784 5.089 2.631 2.68 4.784 4.977 4.784 5.106 0 .422-10.374 10.689-10.801 10.689-.23 0-4.925-4.505-10.434-10.011-5.509-5.506-10.121-9.906-10.249-9.778-.394.394 19.983 20.525 20.776 20.525.593 0 4.312-3.41 7.085-6.498.335-.373 1.453-1.466 2.484-2.43 1.647-1.54 2.465-3.216 1.569-3.216-.168 0-2.486-2.18-5.152-4.846-2.665-2.665-4.846-4.749-4.846-4.63m19.963.531a3.04 3.04 0 0 0 1.288 0c.354-.093.065-.169-.644-.169-.708 0-.998.076-.644.169m2.852.482c0 .202.414.368.92.368s.92-.166.92-.368c0-.203-.414-.368-.92-.368s-.92.165-.92.368m-105.851 1.564c-.095.152.914.276 2.242.276 1.327 0 2.413-.143 2.413-.317 0-.386-4.414-.347-4.655.041m140.497 4.6c.044 1.11.085 1.182.208.368.085-.557.308-1.012.497-1.012s.344-.166.344-.368c0-.203-.249-.368-.552-.368-.403 0-.537.374-.497 1.38m3.787-.61c-.113.184.218.334.736.334 1.127 0 1.218-.21.206-.475-.405-.106-.828-.042-.942.141m3.885.702c0 .202.497.368 1.104.368.608 0 1.104-.166 1.104-.368 0-.203-.496-.368-1.104-.368-.607 0-1.104.165-1.104.368m42.135 0c.125.202.549.368.941.368.393 0 .715-.166.715-.368 0-.203-.424-.368-.942-.368-.534 0-.843.159-.714.368m-37.167.368c-.131.212.21.365.806.362.803-.004.911-.085.482-.362-.707-.457-1.005-.457-1.288 0m34.407 0c-.446.288-.394.357.276.362.455.003.828-.16.828-.362 0-.461-.391-.461-1.104 0m-3.68.736c0 .202.248.368.552.368.304 0 .552-.166.552-.368 0-.203-.248-.368-.552-.368-.304 0-.552.165-.552.368m-19.503.368c0 .202.869.365 1.932.362 1.383-.004 1.775-.107 1.38-.362-.729-.471-3.312-.471-3.312 0m12.143 0c-.395.255-.003.358 1.38.362 1.063.003 1.932-.16 1.932-.362 0-.471-2.583-.471-3.312 0m-35.694 2.207c0 .405.165.736.368.736.202 0 .368-.331.368-.736 0-.404-.166-.736-.368-.736-.203 0-.368.332-.368.736m1.723 10.948c-.087.152-.026.607.137 1.012.258.642.299.607.322-.276.025-.998-.147-1.275-.459-.736m.485 5.817c0 .535.159.844.368.715.202-.125.368-.549.368-.942 0-.393-.166-.714-.368-.714-.203 0-.368.424-.368.941m-72.861 3.659c0 .303.165.552.368.552.202 0 .368-.249.368-.552 0-.304-.166-.552-.368-.552-.203 0-.368.248-.368.552m22.163 1.357c.08.24.342.502.583.582.269.09.351-.078.214-.437-.257-.669-1.018-.808-.797-.145m-17.748 3.61c0 .203.332.368.736.368.405 0 .736-.165.736-.368 0-.202-.331-.368-.736-.368-.404 0-.736.166-.736.368m26.035 4.726c.355.373.778.605.942.517.164-.089-.001-.389-.368-.666-.967-.734-1.324-.641-.574.149m42.411 6.498c0 .304.165.552.368.552.202 0 .368-.248.368-.552 0-.304-.166-.552-.368-.552-.203 0-.368.248-.368.552m-77.414 2.566c.106.278.421.592.698.699.319.122.434.007.312-.311a1.392 1.392 0 0 0-.699-.699c-.318-.122-.433-.007-.311.311m46.871 2.626c0 .356 1.621 1.97 1.986 1.977.181.004-.099-.39-.622-.875-.523-.484-.851-.981-.728-1.104.122-.122.029-.222-.207-.222s-.429.101-.429.224m-43.048 1.156c.011.466 2.569 2.649 2.569 2.192 0-.22-2.181-2.468-2.395-2.468-.099 0-.178.124-.174.276m45.412 9.475c0 4.251.053 5.939.119 3.752.065-2.187.064-5.664-.001-7.728-.065-2.063-.119-.274-.118 3.976m-41.371-5.519c0 .348 1.534 1.717 1.718 1.533.101-.101-.161-.529-.583-.951-.752-.752-1.135-.948-1.135-.582m4.769 4.94c.225.42.569.763.764.763.632 0 .377-.698-.409-1.119-.698-.374-.729-.343-.355.356m2.959 2.837c0 .257 1.778 1.974 2.043 1.974.318 0 .158-.268-.737-1.234-.891-.961-1.306-1.196-1.306-.74m4.416 4.312c0 .346 1.907 2.134 2.085 1.955.113-.112-.252-.627-.81-1.145-.972-.901-1.275-1.093-1.275-.81m4.054 4.194c.01.426 1.832 2.057 2.052 1.837.107-.107-.237-.627-.765-1.154-.993-.993-1.298-1.155-1.287-.683m5.009 5.05c.106.278.421.592.698.698.319.123.434.008.311-.311a1.388 1.388 0 0 0-.698-.698c-.319-.122-.433-.007-.311.311m3.885 3.897c.089.265.379.555.644.644.276.092.414-.046.322-.322a1.146 1.146 0 0 0-.644-.644c-.276-.092-.414.046-.322.322m3.979 3.84c0 .348 1.534 1.718 1.718 1.534.101-.102-.161-.529-.583-.951-.752-.752-1.135-.948-1.135-.583m17.388 9.363c-.84.7-1.055 1.134-.552 1.113.151-.006.573-.42.937-.92.786-1.079.718-1.113-.385-.193m-5.727 3.939c-.521.52-.226 1.234.51 1.234.514 0 .724-.2.644-.614-.132-.677-.76-1.015-1.154-.62m-5.405.725c0 .437.219.536.828.373.455-.122 1.283-.224 1.84-.227.556-.003 1.012-.171 1.012-.373 0-.203-.828-.368-1.84-.368-1.449 0-1.84.126-1.84.595" fill="#89c7d9"/></g></svg>