<svg xmlns="http://www.w3.org/2000/svg" viewBox="0 0 1000 1000" xml:space="preserve"><path d="M298.7 418.3s-1.4-15.2-2.1-22.9c3.6-2.1 7-4.3 10.3-6.8l17.1 9.9 19.5-5.1 22.1-38.1-5.1-19.5s-14.7-8.5-22-12.7c-.2-4.2-.7-8.4-1.5-12.5 5.8-5 17.5-15 17.5-15v-20.1L325.6 242h-20.1s-9.5 8.2-14.3 12.3c-5.2-2.5-10.6-4.6-16.3-6.1-.5-5.7-1.4-17-1.4-17L259.2 217l-43.9 3.6-14.2 14.2s1.2 14.9 1.8 22.4c-4.3 2.4-8.4 5.2-12.1 8.3-6.2-2.9-18.6-8.5-18.6-8.5l-19.5 5.1-18.4 40.1-.6 2.7 5.8 16.7s14.4 6.6 21.5 9.8c.3 4.7 1 9.3 2.2 13.8-5.5 4.6-16.4 13.9-16.4 13.9v20.1l28.5 33.7s16.6 2 17.5 1.5l2.7-1.5 15.6-13.2c4.4 2 9 3.6 13.7 4.9.5 5.9 1.6 17.7 1.6 17.7l14.2 14.2 43.9-4 14.2-14.2zm-51.5-47.2c-24.5 0-44.3-19.8-44.3-44.3 0-24.5 19.9-44.4 44.3-44.4 24.5 0 44.4 19.9 44.4 44.4 0 24.4-19.9 44.3-44.4 44.3zm173.4 191.4s-1-11.5-1.6-17.3c2.7-1.5 5.3-3.2 7.8-5.1 4.3 2.4 12.9 7.5 12.9 7.5l14.7-3.9 16.7-28.8-3.9-14.7s-11.1-6.5-16.7-9.6c-.1-3.2-.5-6.4-1.1-9.4 4.4-3.8 13.2-11.3 13.2-11.3v-15.2L441 429.3h-15.2l-10.8 9.3c-3.9-1.9-8.1-3.4-12.3-4.6-.4-4.3-1-12.9-1-12.9l-10.8-10.8-33.2 2.7-10.8 10.7s.9 11.3 1.4 16.9c-3.2 1.8-6.3 4-9.2 6.3-4.6-2.2-14-6.4-14-6.4l-14.7 3.9-13.9 30.3-.5 2.1 4.4 12.6s10.9 5 16.3 7.4c.2 3.6.8 7 1.7 10.5-4.1 3.5-12.4 10.5-12.4 10.5V533l21.5 25.4s12.5 1.5 13.2 1.1c.7-.4 2-1.1 2-1.1s7.9-6.7 11.8-10c3.3 1.5 6.8 2.7 10.4 3.7.4 4.5 1.2 13.4 1.2 13.4l10.7 10.7 33.2-3 10.6-10.7zm-38.9-35.7c-18.5 0-33.5-15-33.5-33.5s15-33.5 33.5-33.5 33.6 15 33.6 33.5c-.1 18.5-15.1 33.5-33.6 33.5zm344.6-382.4H304c-35.4 0-35.4 54.8 0 54.8h422.3c35.3 0 35.3-54.8 0-54.8zm0 129.7h-203c-35.3 0-35.3 54.8 0 54.8h203c35.3.1 35.3-54.8 0-54.8z"/><path d="M167.9 75.8h637.3v348.1H871V10H102.1v214.6h65.8zm587.2 719.3c-.1-7-.6-14-1.8-20.7 9.9-7.9 29.6-23.7 29.6-23.7l1.1-33.1-45.5-56.7-33.2-1.1s-16.1 13-24.2 19.5c-8.4-4.4-17.3-8.1-26.6-11-.5-9.4-1.4-28.1-1.4-28.1L630.3 616l-72.6 3.5-24.2 22.7s1.2 24.7 1.7 37c-7.2 3.8-14.1 8.2-20.5 13-10-5-30.1-15-30.1-15l-32.4 7.4-32.4 65.2-1.2 4.4 8.6 27.9s23.3 11.5 35 17.4c.3 7.8 1.2 15.4 2.9 22.9-9.3 7.3-27.8 22.1-27.8 22.1l-1.1 33.1 45.2 57s27.2 4.1 28.7 3.3c1.5-.8 4.5-2.3 4.5-2.3s17.7-14 26.5-21c7.1 3.5 14.6 6.5 22.4 8.8.5 9.8 1.7 29.3 1.7 29.3l22.7 24.2 72.5-4.2 24.2-22.7s-1.5-25.2-2.2-37.8c6-3.2 11.8-6.7 17.3-10.7 9.2 5.8 27.7 17.3 27.7 17.3l32.3-7.4 38.4-61.7-7.4-32.3c.1-.1-23.7-14.9-35.6-22.3zm-152.7 74.3c-40.4-1.3-72.1-35.1-70.7-75.4 1.3-40.5 35.1-72.1 75.4-70.8 40.4 1.3 72.1 35 70.8 75.5-1.4 40.4-35.1 72-75.5 70.7z"/><path d="M890 640.4s-25.6-15.9-38.4-23.8c-.1-7.5-.6-15-2-22.2 10.6-8.5 31.9-25.5 31.9-25.5l1.2-35.7-49-61L798 471s-17.4 13.9-26 20.9c-9-4.8-18.6-8.8-28.7-11.8-.4-10.1-1.4-30.3-1.4-30.3l-24.4-26-78.1 3.8-26 24.4s1.3 26.5 1.9 39.8c-7.8 4.1-15.1 8.8-22 14-10.8-5.4-32.5-16.1-32.5-16.1l-34.7 8-34.9 70-1.3 4.8 9.3 29.9s16.4 8.1 29.3 14.5l14.5-13.6 5.9-5.5 8.1-.4 58.3-2.8c10.2-33.1 41.2-56.7 77.4-55.5 43.5 1.4 77.5 37.7 76.1 81.2-.3 11.7-3.4 22.6-8.3 32.5l40.9 51 5.1 6.3-.3 8.1-.7 21c8.5 5.2 16.6 10.3 16.6 10.3l34.8-7.9 41.3-66.4-8.2-34.8zm-750-77.9c6.5 0 11.8-1.8 16-5.2 4.2-3.5 7.4-8.4 9.6-14.7 2.1-6.4 3.2-14.8 3.2-25.1 0-8.7-.7-15.7-2-20.8-1.3-5.2-3.2-9.6-5.5-13.2-2.4-3.6-5.3-6.3-8.9-8.2-3.6-1.9-7.7-2.8-12.5-2.8-6.4 0-11.8 1.7-16 5.2-4.2 3.4-7.4 8.3-9.6 14.7-2.1 6.4-3.2 14.8-3.2 25.2 0 16.6 2.9 28.6 8.7 35.9 5 6 11.7 9 20.2 9zm-12-74.8c3-4.2 7-6.3 11.9-6.3 5 0 9.3 2.4 12.7 7.1 3.4 4.8 5.1 14.4 5.1 29 0 14.5-1.7 24.1-5.1 28.9-3.4 4.8-7.6 7.2-12.5 7.2-5 0-9.2-2.4-12.6-7.2-3.4-4.8-5.1-14.4-5.1-28.9-.1-14.5 1.8-24.4 5.6-29.8zm76-3.5c-4.5 4.1-9.8 7.5-15.9 10.4v10.5c3.4-1.2 7.2-3.1 11.4-5.6 4.2-2.5 7.6-5 10.2-7.5v69h10.8v-88.6h-7c-1.8 3.9-5 7.8-9.5 11.8zm-40.6 130.9c-2.3-3.6-5.3-6.3-8.9-8.2-3.6-1.9-7.7-2.8-12.5-2.8-6.4 0-11.8 1.7-16 5.2-4.2 3.4-7.4 8.3-9.6 14.7-2.1 6.3-3.2 14.8-3.2 25.1 0 16.6 2.9 28.6 8.7 35.9 4.9 6.1 11.5 9.2 20.1 9.2 6.4 0 11.8-1.8 16.1-5.2 4.2-3.5 7.4-8.4 9.5-14.7 2.1-6.3 3.2-14.7 3.2-25.1 0-8.7-.7-15.7-2-20.8-1.3-5.3-3.1-9.7-5.4-13.3zm-8.8 62.9c-3.4 4.8-7.6 7.2-12.5 7.2s-9.1-2.4-12.5-7.2c-3.4-4.8-5.1-14.4-5.1-28.9 0-14.5 1.8-24.4 5.6-29.8 3-4.2 7-6.3 11.9-6.3 5.1 0 9.3 2.4 12.7 7.1 3.4 4.8 5.1 14.4 5.1 29-.1 14.5-1.8 24.1-5.2 28.9zm68 14.7V604h-7c-1.9 3.8-5.1 7.7-9.6 11.8-4.5 4.1-9.8 7.5-15.9 10.4v10.5c3.4-1.2 7.2-3.1 11.4-5.6 4.2-2.5 7.7-5 10.3-7.5v69l10.8.1zm59.4 0V604h-7c-1.9 3.8-5.1 7.7-9.6 11.8-4.5 4.1-9.8 7.5-15.9 10.4v10.5c3.3-1.2 7.2-3.1 11.4-5.6 4.2-2.5 7.7-5 10.3-7.5v69l10.8.1zm77.9-77.6c-2.3-3.6-5.3-6.3-8.9-8.2-3.6-1.9-7.7-2.8-12.4-2.8-6.4 0-11.8 1.7-16 5.2-4.2 3.4-7.4 8.3-9.6 14.7-2.1 6.4-3.2 14.8-3.2 25.2 0 16.6 2.9 28.6 8.7 35.9 4.9 6.1 11.5 9.1 20.1 9.1 6.4 0 11.8-1.8 16-5.2 4.2-3.4 7.4-8.4 9.5-14.7 2.1-6.4 3.2-14.7 3.2-25.1 0-8.7-.7-15.7-2-20.8-1.2-5.3-3-9.7-5.4-13.3zm-8.8 62.9c-3.4 4.8-7.6 7.2-12.5 7.2-5 0-9.2-2.4-12.6-7.2-3.4-4.8-5.1-14.4-5.1-28.9 0-14.5 1.9-24.4 5.6-29.8 3-4.2 7-6.3 11.9-6.3 5.1 0 9.3 2.4 12.7 7.1 3.4 4.8 5.1 14.4 5.1 29 0 14.5-1.6 24.1-5.1 28.9zm-187.7 85.1c-2.3-3.6-5.3-6.3-8.9-8.2-3.6-1.9-7.7-2.8-12.5-2.8-6.4 0-11.8 1.7-16 5.2-4.2 3.4-7.4 8.4-9.6 14.7-2.1 6.4-3.2 14.7-3.2 25.2 0 16.6 2.9 28.6 8.7 35.9 4.9 6.1 11.5 9.2 20.1 9.2 6.4 0 11.8-1.8 16.1-5.2 4.2-3.5 7.4-8.4 9.5-14.7 2.1-6.3 3.2-14.7 3.2-25.1 0-8.7-.7-15.7-2-20.8-1.3-5.4-3.1-9.8-5.4-13.4zm-8.8 62.9c-3.4 4.8-7.6 7.2-12.5 7.2s-9.1-2.4-12.5-7.2c-3.4-4.8-5.1-14.4-5.1-28.9 0-14.4 1.8-24.4 5.6-29.8 3-4.2 7-6.3 11.9-6.3 5.1 0 9.3 2.4 12.7 7.2 3.4 4.8 5.1 14.4 5.1 29-.1 14.3-1.8 23.9-5.2 28.8zm77.4-62.9c-2.4-3.6-5.3-6.3-8.9-8.2-3.6-1.9-7.7-2.8-12.5-2.8-6.4 0-11.8 1.7-16 5.2-4.2 3.4-7.4 8.4-9.6 14.7-2.1 6.4-3.2 14.7-3.2 25.1 0 16.6 2.9 28.6 8.7 35.9 4.9 6.1 11.5 9.2 20.1 9.2 6.4 0 11.8-1.7 16-5.2 4.2-3.5 7.4-8.4 9.6-14.7 2.1-6.3 3.2-14.7 3.2-25.1 0-8.7-.7-15.7-2-20.8-1.3-5.3-3.1-9.7-5.4-13.3zm-8.8 62.9c-3.4 4.8-7.6 7.2-12.5 7.2s-9.2-2.4-12.5-7.2c-3.4-4.8-5.1-14.4-5.1-28.9 0-14.4 1.9-24.4 5.6-29.8 3-4.2 7-6.3 11.9-6.3 5.1 0 9.3 2.4 12.7 7.2 3.4 4.8 5.1 14.4 5.1 29-.1 14.3-1.8 23.9-5.2 28.8zm77.3-62.9c-2.3-3.6-5.3-6.3-8.8-8.2-3.6-1.9-7.8-2.8-12.5-2.8-6.4 0-11.8 1.7-16 5.2-4.3 3.4-7.4 8.4-9.6 14.7-2.1 6.4-3.2 14.7-3.2 25.1 0 16.6 2.9 28.6 8.7 35.9 4.9 6.1 11.5 9.2 20.1 9.2 6.4 0 11.8-1.7 16-5.2 4.2-3.5 7.4-8.4 9.5-14.7 2.1-6.3 3.2-14.7 3.2-25.1 0-8.7-.7-15.7-2-20.8-1.2-5.3-3.1-9.7-5.4-13.3zm-8.8 62.9c-3.4 4.8-7.6 7.2-12.5 7.2-5 0-9.2-2.4-12.6-7.2-3.4-4.8-5.1-14.4-5.1-28.9 0-14.4 1.9-24.4 5.6-29.8 3-4.2 7-6.3 11.9-6.3 5 0 9.3 2.4 12.7 7.2 3.4 4.8 5.1 14.4 5.1 29 0 14.3-1.7 23.9-5.1 28.8zm68.1 14.6V752h-7c-1.9 3.8-5.1 7.8-9.7 11.8-4.5 4.1-9.8 7.5-15.9 10.4v10.5c3.4-1.3 7.2-3.1 11.4-5.6 4.2-2.5 7.7-5 10.3-7.5v69.1l10.9-.1zm58.5 66.8c-4.5 4.1-9.9 7.5-15.9 10.4v10.5c3.4-1.2 7.2-3.1 11.4-5.6 4.2-2.4 7.6-5 10.2-7.5v69h10.8v-88.6h-7c-1.8 3.8-5 7.8-9.5 11.8zM163.4 911c-2.3-3.6-5.3-6.3-8.9-8.2-3.6-1.9-7.7-2.9-12.5-2.9-6.4 0-11.8 1.7-16 5.1-4.2 3.4-7.4 8.4-9.6 14.7-2.1 6.4-3.2 14.8-3.2 25.2 0 16.6 2.9 28.5 8.7 35.9 4.9 6.1 11.5 9.1 20.1 9.1 6.4 0 11.8-1.7 16.1-5.2 4.2-3.5 7.4-8.4 9.5-14.8 2.1-6.3 3.2-14.7 3.2-25.1 0-8.7-.7-15.7-2-20.9-1.3-4.9-3.1-9.3-5.4-12.9zm-8.8 62.9c-3.4 4.8-7.6 7.2-12.5 7.2s-9.1-2.4-12.5-7.2c-3.4-4.8-5.1-14.4-5.1-28.9 0-14.5 1.8-24.4 5.6-29.8 3-4.2 7-6.3 11.9-6.3 5.1 0 9.3 2.4 12.7 7.2 3.4 4.8 5.1 14.4 5.1 29-.1 14.4-1.8 24-5.2 28.8zm51.4-62.2c-4.5 4.1-9.8 7.5-15.9 10.4v10.5c3.4-1.3 7.2-3.1 11.4-5.6 4.2-2.5 7.7-5 10.3-7.5v69h10.8v-88.6h-7c-1.8 3.9-5 7.8-9.6 11.8zm59.5 0c-4.5 4.1-9.8 7.5-15.9 10.4v10.5c3.3-1.3 7.2-3.1 11.4-5.6 4.2-2.5 7.7-5 10.3-7.5v69h10.8v-88.6h-7c-1.9 3.9-5.1 7.8-9.6 11.8zm94.4-.7c-2.3-3.6-5.3-6.3-8.9-8.2-3.6-1.9-7.7-2.9-12.4-2.9-6.4 0-11.8 1.7-16 5.1-4.2 3.4-7.4 8.4-9.6 14.7-2.1 6.4-3.2 14.8-3.2 25.2 0 16.6 2.9 28.5 8.7 35.9 4.9 6.1 11.5 9.1 20.1 9.1 6.4 0 11.8-1.7 16-5.2 4.2-3.5 7.4-8.4 9.5-14.8 2.1-6.3 3.2-14.7 3.2-25.1 0-8.7-.7-15.7-2-20.9-1.2-4.9-3-9.3-5.4-12.9zm-8.8 62.9c-3.4 4.8-7.6 7.2-12.5 7.2-5 0-9.2-2.4-12.6-7.2-3.4-4.8-5.1-14.4-5.1-28.9 0-14.5 1.9-24.4 5.6-29.8 3-4.2 7-6.3 11.9-6.3 5.1 0 9.3 2.4 12.7 7.2 3.4 4.8 5.1 14.4 5.1 29 0 14.4-1.6 24-5.1 28.8z"/></svg>