<svg xmlns="http://www.w3.org/2000/svg" viewBox="0 0 1000 1000" xml:space="preserve"><path d="M234.65 1.67c-13.08 1.37-39.82 8.78-55.04 15.22-22.84 9.76-42.74 22.84-61.87 41.18C86.9 87.35 69.53 117.8 56.65 164.25c-1.76 6.64-2.54 60.12-3.51 213.72l-.98 204.94-21.08.59-21.08.59.59 66.36.59 66.56 6.44 5.66c11.32 10.15 26.94 6.64 32.79-7.22l2.73-6.63h15.61c14.44 0 15.61.2 15.61 4.1 0 2.15 2.54 6.63 5.66 9.76 10.15 10.15 26.74 6.83 32.79-6.25l3.51-7.41 14.83-.2c14.44 0 15.03.2 16.2 5.08 3.71 14.64 23.62 19.71 34.55 8.78l5.66-5.66V583.9h-41.18l.59-198.69.59-198.5 5.27-13.47c10.15-25.96 27.91-46.06 51.14-57.38 16.98-8.39 27.13-10.74 46.06-10.74 28.69-.2 53.48 9.95 73.19 29.67 12.69 12.88 18.93 22.06 24.2 36.3 5.86 16.2 6.64 20.49 2.93 20.49-1.76 0-6.05 2.93-9.76 6.64-7.42 7.42-8.98 16.98-3.71 23.81 1.56 1.95 2.93 4.29 2.93 5.08 0 .98-24.59 1.56-54.65 1.56h-54.65v749.49h268.96l2.34 7.03c2.54 7.61 11.71 14.44 19.52 14.44s16.98-6.83 19.52-14.44l2.34-7.03h20.3c19.32 0 20.3.19 20.3 4.1 0 6.64 12.1 17.37 19.52 17.37 8.98 0 16.98-5.46 20.49-14.05l2.93-7.42h39.04l3.12 7.81c5.27 13.08 7.81 13.66 60.7 13.66 42.35 0 47.04-.39 52.5-3.71 3.9-2.34 7.22-6.63 8.59-10.74l2.34-7.03h20.3c19.32 0 20.3.19 20.3 4.1 0 2.34 2.93 7.03 6.64 10.74l6.64 6.64h98.37l6.63-6.64c3.71-3.71 6.64-8.39 6.64-10.74 0-3.71 1.17-4.1 10.73-4.1H990l-.39-374.16-.59-374.36-253.15-.59-253.15-.39 4.1-7.03c3.9-6.64 3.9-7.61 1.37-15.22-2.15-6.44-4.49-8.78-11.91-12.69-8.39-3.9-9.37-5.27-9.37-10.93 0-11.71-9.76-44.7-18.35-62.85-11.91-24.59-22.45-39.62-41.18-58.36C362.5 16.5 299.65-5.36 234.65 1.67zm44.89 41.77c9.17.98 21.47 3.32 27.33 5.08 56.41 16 101.49 63.04 115.16 120.23 5.66 23.23 5.66 22.84-6.44 22.84h-10.35l-2.15-12.3c-4.49-26.74-18.15-51.92-39.82-73.39-30.45-30.64-68.31-45.09-111.06-42.55-59.73 3.71-109.89 42.16-130.19 99.93l-5.46 15.61-.98 202.01-.98 202.01-10.15.58-10.34.59V389.1c0-169.42.39-197.33 3.12-211.38 13.08-70.07 71.24-125.3 141.51-134.28 18.16-2.35 22.46-2.35 40.8 0zm667.52 560.94v332.78H281.5V271.6h665.56v332.78zm-790.48 40.99v20.49h-15.42c-14.83 0-15.42-.2-16.59-5.08-3.71-14.64-23.62-19.71-34.55-8.78-3.12 3.12-5.66 7.61-5.66 9.76 0 3.9-1.17 4.1-15.61 4.1H53.14v-40.98h103.44v20.49z"/><path d="M333.02 316.3c-7.03 4.29-11.32 14.64-9.37 22.45 1.95 7.81 11.52 14.83 20.3 14.83 9.17 0 18.74-7.22 20.49-15.42 1.76-8-3.32-18.74-10.54-22.45-7.8-4.1-13.46-3.9-20.88.59zm252.96-2.54c-71.04 8.98-130.18 37.08-177.61 84.9-86.85 87.25-109.5 217.23-57.19 329.46 26.74 57.77 80.41 112.03 137.41 138.58 71.24 33.38 150.68 37.67 223.29 11.91 98.57-35.13 170.2-119.26 189.52-223.48 5.47-28.5 4.88-80.61-.78-107.55-25.19-117.88-112.83-205.32-229.55-229.33-19.12-3.9-68.7-6.44-85.09-4.49zm7.8 62.26c0 11.32-.39 20.49-.78 20.49s-7.81 1.37-16.2 2.93c-29.28 5.66-56.41 16.79-80.22 33.38-6.83 4.68-12.88 8.59-13.66 8.59-.78 0-7.81-6.44-15.61-14.25l-14.05-14.25 9.17-7.03c21.86-16.39 45.09-29.08 68.9-37.47 16.01-5.66 46.06-12.49 56.21-12.69l6.24-.2v20.5zm70.46-16.59c34.74 7.03 70.46 22.84 98.18 43.13l13.47 9.95-14.83 14.83-14.84 14.83-8.39-6.05c-28.11-20.1-59.53-32.79-95.64-38.65l-7.42-1.17v-40.79h5.07c2.74.02 13.67 1.78 24.4 3.92zm-70.46 100.33v20.3l-14.05 4.29c-7.81 2.34-19.52 7.22-26.16 10.74l-11.71 6.63-14.05-14.05c-7.81-7.81-14.05-14.64-14.05-15.42 0-2.15 24.4-16.78 36.89-22.05 12.49-5.27 31.03-10.34 38.84-10.54 4.1-.2 4.29.38 4.29 20.1zm64.41-16.2c16.59 4.49 42.94 16.79 51.72 24.01l5.86 4.88-14.44 14.64-14.44 14.44-9.96-5.46c-11.32-6.25-21.66-10.54-33.76-13.66l-8.39-2.15v-20.3c-.01-24.02-.98-23.24 23.41-16.4zM439.4 457.8l14.25 14.25-7.62 10.15c-16.98 22.45-31.42 56.21-36.3 85.3l-2.54 15.42-20.88.58c-11.52.19-20.88-.19-20.88-.98s1.37-9.76 2.93-19.71c6.05-36.7 21.27-73.58 43.33-104.23 6.05-8.39 11.52-15.22 12.1-15.22.77 0 7.6 6.44 15.61 14.44zm381.57 5.86c12.49 18.93 22.25 38.06 29.28 57.38 5.27 14.64 12.88 48.99 12.88 57.77v5.08h-40.79l-1.17-7.42c-6.24-36.7-18.74-67.73-38.64-95.64l-6.05-8.39L790.92 458c11.32-11.32 15.03-14.05 16.98-12.3 1.56 1.17 7.41 9.37 13.07 17.96zm-310.92 71.83c-6.44 10.34-12.88 24.79-15.81 35.72l-3.32 11.71-20.88.58-21.08.59 1.37-8.39c3.51-21.08 14.25-47.43 26.93-65.77l5.86-8.39 14.83 14.83c14.05 14.04 14.64 15.02 12.1 19.12zm247.88-15.62c9.18 15.42 18.54 40.21 20.69 55.24l1.17 8.78h-41.38l-2.15-8.39c-2.73-10.74-10.73-30.06-15.62-37.48l-3.9-5.86L731 517.92c7.61-7.61 14.83-13.86 16-13.47.98.39 6.05 7.22 10.93 15.42zm-164.15 18.54v15.03l-10.73-10.54-10.93-10.74 9.37-4.29c5.07-2.54 9.95-4.49 10.93-4.49.78 0 1.36 6.84 1.36 15.03zm56.22-9.37 6.25 3.32-10.74 10.54-10.74 10.54v-15.22c0-16.79 0-16.79 15.23-9.18zm-96.81 42.55c5.07 5.07 9.37 9.95 9.37 10.74s-6.05 1.56-13.66 1.56c-10.74 0-13.66-.58-13.66-2.93 0-3.71 5.86-18.54 7.42-18.54.77 0 5.45 4.1 10.53 9.17zm140.92 7.81c1.37 4.49 1.17 4.49-13.66 4.49h-15.23l10.54-10.73 10.54-10.74 3.32 6.25c1.75 3.51 3.9 8.39 4.49 10.73zm-285.16 55.63c3.32 26.54 15.03 57.58 31.62 82.76l12.1 18.15-14.25 14.05c-16.4 16.39-15.03 16.59-29.86-4.88-12.49-18.15-26.35-46.45-32.4-66.56-3.9-13.08-10.73-45.87-10.73-51.92 0-.98 9.56-1.76 21.27-1.76h21.08l1.17 10.16zm84.71 0c1.37 5.66 6.05 17.37 10.34 25.96l7.81 15.42-14.05 14.25c-7.81 7.81-14.64 14.25-15.22 14.25-1.95 0-15.42-22.45-20.49-34.16-4.88-11.13-12.69-37.47-12.69-43.33 0-1.95 4.68-2.54 21.08-2.54h20.88l2.34 10.15zm60.11-.39c-10.15 10.34-11.71 11.13-13.27 7.22-.59-1.17-2.34-5.66-4.1-9.76l-3.13-7.22h30.06l-9.56 9.76zm140.34-5.47c-.59 2.54-2.73 7.42-4.49 10.93l-3.32 6.25-10.54-10.73-10.54-10.74h15.23c14.83 0 15.02 0 13.66 4.29zm85.09-.78c0 14.44-17.37 57.38-29.28 72.61l-3.71 4.88-14.83-14.83-15.03-14.83 5.86-9.17c3.12-4.88 8.2-16.59 11.12-25.57l5.47-16.59h20.1c18.35-.01 20.3.38 20.3 3.5zm82.96 8.59c-4.49 38.84-22.45 82.76-48.01 117.3l-8.39 11.32-14.26-14.24c-7.81-7.81-14.25-14.83-14.25-15.61s3.9-6.83 8.59-13.66c16.2-23.23 27.91-51.33 33.18-79.63 1.76-8.78 3.12-16.39 3.12-16.79 0-.39 9.37-.78 20.69-.78h20.69l-1.36 12.09zm-268.77 40.4-.59 7.81-8.78-3.9c-4.68-2.15-8.98-4.29-9.56-4.88-.58-.39 3.32-5.27 8.78-10.73l9.56-9.76.59 6.83c.39 3.9.39 10.34 0 14.63zm54.07-11.51c5.27 5.27 9.18 9.96 8.59 10.54-1.56 1.56-16 7.03-18.54 7.03-2.15 0-2.73-3.32-2.73-13.66 0-7.61.78-13.66 1.56-13.66.78-.01 5.85 4.28 11.12 9.75zm-88.81 49.38c8 3.9 19.32 8.39 24.98 9.56l10.15 2.54v42.16l-7.22-1.37c-25.18-4.29-55.82-17.57-72.61-31.42-1.17-.98 27.72-30.06 29.08-29.47.59.38 7.62 3.9 15.62 8zm144.24 6.05 14.25 14.44-8.39 5.66c-18.35 12.69-44.7 23.42-65.77 26.93l-8.39 1.37.59-20.88.58-20.88 14.64-4.68c8-2.54 19.13-7.22 24.4-10.34 5.47-3.12 10.74-5.66 11.71-5.86 1.15-.21 8.38 6.23 16.38 14.24zm-182.1 68.31c18.35 9.37 39.04 16.2 57.58 19.13l15.42 2.34v21.08c0 11.51-.78 21.08-1.75 21.08-6.05 0-38.84-6.83-51.92-10.74-20.1-6.05-48.4-19.91-66.56-32.4-21.47-14.83-21.27-13.47-4.88-29.86l14.25-14.44 12.1 8.59c6.63 4.49 18.34 11.51 25.76 15.22zm240.46-9.95c7.61 7.81 14.05 14.64 14.05 15.22 0 .59-6.83 6.05-15.22 12.1-30.65 22.06-67.54 37.28-104.23 43.33-9.95 1.56-18.93 2.93-19.71 2.93-.78 0-1.17-9.37-.98-20.88l.58-20.88 14.05-2.34c28.88-4.88 65.77-20.3 85.49-35.72 5.47-4.3 10.15-7.81 10.74-7.81.59-.2 7.42 6.24 15.23 14.05zm113.79-464.34c-11.32 6.25-13.46 23.23-4.29 32.6 9.57 9.37 27.71 6.64 32.99-5.08 4.29-9.17 2.93-16.39-4.3-23.62-7.22-7.22-15.81-8.58-24.4-3.9zM334.78 856.36c-7.61 3.71-13.08 14.44-11.32 22.25 1.56 7.22 9.37 15.03 16.59 16.59 8 1.76 18.54-3.71 22.25-11.71 1.76-3.51 3.12-7.42 3.12-8.78 0-5.86-6.64-15.61-12.69-18.35-8-3.9-10.14-3.9-17.95 0zm544.55-1.75c-2.34.39-6.64 3.51-9.37 6.63-13.66 16.59 3.51 40.4 23.03 32.21 7.22-2.93 13.08-11.51 13.08-18.74 0-7.22-5.86-15.81-12.69-18.74-3.71-1.56-7.42-2.54-8.2-2.54-.77.2-3.51.79-5.85 1.18z"/></svg>