<svg version="1.0" xmlns="http://www.w3.org/2000/svg" width="1465.689" height="891.01" viewBox="0 0 1465.69 891.01" xml:space="preserve"><path opacity=".817" fill="#A5ABA2" fill-opacity=".741" stroke="#F7F8FF" stroke-width="2" d="m200.353 311.586-3.281 38.715s91.867 10.499 104.335 1.312c12.467-9.186 19.686-18.373-1.313-26.904-20.998-8.529-64.306-20.341-99.741-13.123zm223.761-89.241s-7.874 21.654-4.593 28.872c3.281 7.218 30.185-9.187 30.185-9.187s7.874-17.061-25.592-19.685zm72.181-22.967s-9.187 26.904-4.593 30.841c4.593 3.938 43.964-28.872 43.964-28.872s1.313-8.531-39.371-1.969z"/><radialGradient id="a" cx="701.708" cy="121.765" r="616.607" gradientTransform="matrix(1.3461 -.0024 -.0018 -1.0051 82.825 849.151)" gradientUnits="userSpaceOnUse"><stop offset="0" style="stop-color:#cbac4c"/><stop offset="1" style="stop-color:#dcc787"/></radialGradient><path fill="url(#a)" stroke="#F7F8FF" stroke-width="2" d="M158.04 378.774s-4.418-30.933 15.782-45.452c20.2-14.519 21.463 3.157 21.463 3.157s2.525 14.52 16.413 14.52h56.184s30.932 0 32.825-5.05c1.895-5.05 17.676-6.944-1.262-17.676s-42.927-14.52-55.552-14.52-16.966-1.396-27.776 0c-4.975.643-11.995 5.05-15.782-1.894-3.787-6.944 6.944-11.363 6.944-11.363s25.882-23.357 70.071-33.457c44.189-10.101 128.779-23.357 141.405-22.726 12.625.631 15.15 5.05 22.094-.631 6.944-5.681 8.207-10.1-.631-13.257-8.838-3.156-23.356-8.838-10.731-8.838s58.077 6.313 63.127.631c0 0 28.723-11.994 32.826-17.044 4.104-5.051 3.156-6.629.315-6.629s-6.944 1.895-13.256 1.895c-6.313 0-15.467-.632-15.467-.632s-4.104.947 0-3.472c4.103-4.419 38.508-28.408 58.708-28.092 20.201.315 57.13-4.419 65.022-4.419 7.891 0 239.252 9.785 252.509 9.785s36.613 4.418 43.558 10.101c6.944 5.681 61.233 20.832 61.233 20.832l181.807 46.083s78.909 17.675 89.642 17.675c10.731 0 95.321 11.995 133.83 71.965 0 0 6.313 13.888 5.682 23.357M158.04 378.774l.317 1.712c0 52.495 36.747 208.669 87.929 263.789 51.183 55.119 166.673 135.175 263.789 181.108 97.116 45.934 280.85 47.245 383.215 36.746 102.366-10.498 202.107-72.18 271.663-124.676 69.556-52.495 95.804-116.802 95.804-116.802l128.268-257.029"/><path fill="#853550" d="m781.999 299.072 12.357-9.062c3.724-2.73 3.655-4.415 9.063-5.766 5.753-1.439 10.916-1.648 17.3-1.648 8.588 0 10.222 1.952 8.237 9.886-1.34 5.362-7.231 7.415-12.356 7.415-3.168 0-6.43 12.035-7.415 14.004-2.237 4.476-5.359 10.313-6.59 14.005-2.509 7.524-1.833 15.014-5.767 18.948-4.201 4.201-6.063 4.119-13.181 4.119-5.543 0-11.486.824-17.3.824-8.651 0-6.087-20.143-4.943-24.714 2.349-9.394 5.5-10.99 12.357-16.476 3.573-2.859 6.34-7.736 8.238-11.535z"/><linearGradient id="b" gradientUnits="userSpaceOnUse" x1="501.094" y1="489.317" x2="599" y2="608.502" gradientTransform="matrix(1 0 0 -1 425.544 949.225)"><stop offset="0" style="stop-color:#752f47"/><stop offset="1" style="stop-color:#f69"/></linearGradient><path fill="url(#b)" stroke="#FFF" stroke-width="1.5" d="M805.083 585.658s9.561 22.308 22.307 22.308c12.748 0 66.013 5.463 66.013 5.463l218.978 17.3s16.389 2.276 25.949 4.552c9.561 2.276 12.747 4.098 17.3-2.275 4.553-6.374 2.276-11.837 13.202-15.024 10.926-3.187 15.023-13.657 15.023-13.657s1.821-10.016 5.919-12.292c4.097-2.276 5.463-10.926 2.731-15.022-2.731-4.099-3.187-14.568 2.276-20.031 5.463-5.464 5.463-11.837 5.463-23.674s5.463-20.487 5.463-20.487l20.486-62.824s4.552-19.576 13.657-29.136c9.105-9.561 14.113-10.926 13.202-25.95-.91-15.023-1.365-49.623-1.365-49.623l-23.218 40.063.911-41.884-13.203-18.666-19.121-2.276-.91 47.802s-55.541 29.136-135.211 26.86c-79.669-2.276-103.343-3.187-103.343-3.187s-78.759-12.747-92.416-22.307c-13.658-9.561-56.907-16.389-29.593-61.459l27.771-16.845 27.315-5.463.455 41.428 117.91 76.938 2.277 15.023s-80.125.911-90.597-5.463c-10.471-6.374-89.229-26.86-89.229-26.86s-32.324-25.039-32.324-35.51 1.366-32.778 12.292-40.973c10.927-8.194 32.323-31.868 78.304-41.428l30.048-.456s4.552 10.471 2.275 30.958l89.23 108.806-7.284 12.748-55.541-3.642-105.619-28.681-44.16-35.055-38.241-.455-3.642-30.502-27.315-5.463 8.194-20.486 98.79-47.346 66.013-5.463-.456 23.673-31.868 7.284-23.218 9.56-28.226-5.918-21.396 7.284-44.615 37.787-22.307-3.187 3.641-27.771-9.104-11.381 13.203-13.202 45.98-16.844s5.008 14.113.91 19.121c-4.097 5.008-35.965 17.755-35.965 17.755l-13.203 9.104-13.202-11.837-38.696 39.152-15.934-8.194s20.486-34.144 40.517-43.25l5.464-2.731s.91 19.121-.911 22.307l-21.397 31.868-20.942-1.821-6.374 16.39 4.553 26.404 31.868 40.063 3.641 12.747 18.21 19.121 82.405 146.132z"/><radialGradient id="c" cx="498.999" cy="518.669" r="172.664" gradientTransform="matrix(1 0 0 -.6574 425.544 713.385)" gradientUnits="userSpaceOnUse"><stop offset="0" style="stop-color:#a0a0ff"/><stop offset="1" style="stop-color:#e5e5ff"/></radialGradient><path fill="url(#c)" stroke="#FFF" stroke-width="3" d="M947.133 287.87s-9.47-6.313-7.575-23.988c1.894-17.675 5.049-20.201 5.049-20.201s25.252-58.077 55.553-63.127c30.301-5.05 51.133-10.1 99.11 10.101 0 0 35.352 23.988 40.4 32.826 5.051 8.838 15.782 25.251 22.096 34.088 6.312 8.838 21.463 25.251 20.831 58.709-.631 33.457 3.789 50.501-29.669 65.652-28.08 12.715-128.346 16.304-140.934 18.685-10.614-1.122-21.157-2.892-31.404-5.428l-84.906-15.782s-59.655-17.676-57.446-44.821c2.209-27.145 44.821-31.879 44.821-31.879s58.392-12.309 64.074-14.835z"/><linearGradient id="d" gradientUnits="userSpaceOnUse" x1="571.575" y1="375.129" x2="669.905" y2="344.549" gradientTransform="matrix(1 0 0 -1 425.544 949.225)"><stop offset="0" style="stop-color:#e6bd10"/><stop offset="1" style="stop-color:#9b7f0a"/></linearGradient><path fill="url(#d)" stroke="#FFF" stroke-width="1.564" d="M899.459 523.828c-5.371-11.43 12.353-15.784 12.353-15.784s35.982-8.709 91.836-8.908c0 0 66.595-3.066 91.3 38.3 0 0 8.592 13.607 8.592 41.366 0 27.758-14.5 59.872-22.556 60.96-8.056 1.089-19.334 1.633-22.556 8.709-3.224 7.075-16.649 4.354-16.649 4.354s-14.5-1.633-17.186-5.987-20.945-2.178-26.853 2.178c-5.908 4.354-24.168 6.53-25.778.543-1.611-5.986-7.52-7.619-10.205-7.619-2.685 0-10.74-3.266-12.889-8.709-2.148-5.442-12.353-31.569-18.26-34.29-5.907-2.722-22.019-1.633-22.019-1.633s-19.334-3.811-5.908-15.785c13.426-11.974 22.557-8.164 11.278-21.227s-15.036-26.671-14.5-36.468z"/><linearGradient id="e" gradientUnits="userSpaceOnUse" x1="547.468" y1="339.244" x2="697.138" y2="321.602" gradientTransform="matrix(1 0 0 -1 425.544 949.225)"><stop offset="0" style="stop-color:#e6bd10"/><stop offset="1" style="stop-color:#9b7f0a"/></linearGradient><path fill="url(#e)" stroke="#FFF" stroke-width="1.564" d="M873.469 552.697c-6.582-13.052 15.137-18.024 15.137-18.024s44.096-9.943 112.542-10.171c0 0 81.608-3.501 111.884 43.732 0 0 10.53 15.537 10.53 47.233 0 31.694-17.77 68.363-27.642 69.605-9.873 1.243-23.693 1.865-27.643 9.944-3.948 8.08-20.401 4.972-20.401 4.972s-17.771-1.864-21.062-6.836c-3.29-4.973-25.667-2.486-32.906 2.485-7.24 4.973-29.616 7.459-31.591.622s-9.214-8.701-12.505-8.701-13.163-3.729-15.796-9.943c-2.632-6.215-15.137-36.047-22.376-39.154s-26.984-1.864-26.984-1.864-23.692-4.351-7.239-18.022c16.453-13.674 27.643-9.323 13.821-24.239-13.821-14.915-18.427-30.452-17.769-41.639z"/><linearGradient id="f" gradientUnits="userSpaceOnUse" x1="259.608" y1="449.194" x2="398.506" y2="449.194" gradientTransform="matrix(1 0 0 -1 425.544 949.225)"><stop offset="0" style="stop-color:#752f47"/><stop offset="1" style="stop-color:#f69"/></linearGradient><path fill="url(#f)" stroke="#FFF" stroke-width="1.5" d="M664.932 367.919c-2.813 14.767 4.219 36.213 15.118 40.432 10.899 4.219 10.196 15.47 10.196 31.642 0 16.173 6.329 18.282 6.329 18.282s8.789 8.438 11.25 10.196c2.461 1.758.352 5.273.352 5.273s-4.571 10.195-13.712 16.876c-9.141 6.681-10.196 1.055-9.492-9.492.703-10.548-7.032-20.393-7.032-20.393s-22.963-22.445-25.776-19.984c-2.812 2.461-4.107 26.313-4.107 26.313-21.446 5.626-17.145-47-17.145-47l-20.374-18.242-2.21 43.446-17.579-.704 2.109 17.931-14.308 4.733s-.81 4.056-.81 21.636c0 8.756 1.53 13.152 4.954 16.446 3.424 3.292-33.248-.604-33.248 2.552 0 3.155-2.525 42.295-2.525 42.295s22.71 29.993 33.441 29.993 17.044.632 17.044 11.995c0 11.362 17.044 33.457 36.614 33.457s17.676 3.157 17.676 3.157 8.207 4.418 20.2 3.155c11.995-1.262 30.302-11.362 30.302-11.362 33.807-17.12 66.83-40.369 97.496-63.369 16.07-12.052 21.041-38.178 21.041-56.891 0-8.359 3.726-17.223 2.339-24.158h-3.118c-12.325 0-24.751-4.639-36.628-7.014-7.756-1.552-13.103-5.367-21.042-10.132-6.105-3.663-12.446-5.597-18.704-9.352-5.538-3.323-11.885-6.966-17.145-10.91-5.538-4.154-10.953-8.984-16.366-11.69-.157-.078-2.752-2.064-3.117-2.338"/><path fill="#FF0" stroke="#FFF" stroke-width="1.5" d="M316.467 499.121c31.417-4.645 71.126 15.877 71.126 15.877l-52.075 55.249c-21.071-15.123-70.932-47.292-19.051-71.126z"/><path fill="#7F8C46" stroke="#FFF" stroke-width="1.5" d="M1019.474 470.544c7.218 1.501 13.484 1.271 20.957 1.271 7.304 0 14.924-2.541 22.227-2.541 4.607 0 9.718-.635 14.606-.635 7.915.892 19.323-4.379 29.53-4.763 4.419 0 9.277-.635 13.972-.635h10.162c2.268 0 5.027.357 6.668 1.587 1.99 1.493 2.223 3.274 2.223 5.716 0 4.129-5.893 4.187-9.525 5.397-4.841 1.613-10.443 1.271-15.56 1.271-3.716 0-7.516.635-11.431.635h-61.283c-4.457 0-9.65 2.223-14.289 2.223-3.471 0-6.591.636-10.161.636-4.792 0-10.216.928-14.606-.952-3.424-1.469-7.805-.932-10.795-3.176-1.694-1.271-3.319-4.732-4.129-6.351-1.33-2.661 5.811-3.702 7.304-4.128 3.754-1.072 10.09 1.192 13.654 1.904.427.087.846.212 1.269.318 2.856.715 7.152.168 9.207 2.223z"/><linearGradient id="g" gradientUnits="userSpaceOnUse" x1="19.274" y1="551.74" x2="25.614" y2="614.744" gradientTransform="matrix(1 0 0 -1 425.544 949.225)"><stop offset="0" style="stop-color:#33c"/><stop offset="1" style="stop-color:#d5d5ef"/></linearGradient><path fill="url(#g)" stroke="#FFF" stroke-width="1.5" d="M438.852 296.057s82.845-32.627 103.802 8.016c20.957 40.644-43.471 38.343-43.471 38.343s-19.806-3.875-28.577 2.54c-10.937 7.998-12.977 9.999-12.977 9.999s-38.279 34.388-59.42 36.995c-18.909 2.332-31.01-16.188-31.118-16.511 0 0-13.93-24.132-9.435-45.663 4.238-20.297 58.334-26.099 81.196-33.719z"/><linearGradient id="h" gradientUnits="userSpaceOnUse" x1="-44.692" y1="574.825" x2="76.707" y2="671.645" gradientTransform="matrix(1 0 0 -1 425.544 949.225)"><stop offset="0" style="stop-color:#d5d5ef"/><stop offset="1" style="stop-color:#33c"/></linearGradient><path fill="url(#h)" stroke="#FFF" stroke-width="1.5" d="M438.397 278.757s78.747-29.212 99.704 11.431-39.373 34.928-39.373 34.928-19.806-3.875-28.578 2.54c-10.937 7.998-12.976 9.999-12.976 9.999s-38.28 34.388-59.419 36.995c-18.91 2.332-31.01-16.188-31.118-16.512 0 0-19.052-24.132-3.175-37.468 15.875-13.336 52.073-34.292 74.935-41.913z"/><linearGradient id="i" gradientUnits="userSpaceOnUse" x1="-82.195" y1="497.102" x2="-50.795" y2="319.757" gradientTransform="matrix(1 0 0 -1 425.544 949.225)"><stop offset="0" style="stop-color:#d5d5ef"/><stop offset="1" style="stop-color:#33c"/></linearGradient><path fill="url(#i)" stroke="#FFF" stroke-width="1.5" d="M395.214 518.173s99.069 49.535 98.433 80.018c-.635 30.482-44.454 37.468-44.454 37.468s-20.321 1.906-41.914-5.715c-21.592-7.621-121.931-45.09-121.931-45.09s-60.965-31.752-54.615-78.111c6.351-46.359 58.426-46.359 58.426-46.359s39.373-4.445 68.586 5.716c0-.001 32.389-.636 37.469 52.073z"/><linearGradient id="j" gradientUnits="userSpaceOnUse" x1="-31.16" y1="445.97" x2="-34.315" y2="487.554" gradientTransform="matrix(1 0 0 -1 425.544 949.225)"><stop offset="0" style="stop-color:#d5d5ef"/><stop offset="1" style="stop-color:#33c"/></linearGradient><path fill="url(#j)" stroke="#FFF" stroke-width="1.5" d="M322.5 555.642s-3.176-70.809 33.341-76.207c31.417-4.645 31.752 35.563 31.752 35.563s59.06 31.117 71.126 42.549c12.066 11.431 26.037 26.037 11.43 37.468-14.605 11.432-40.643 13.337-55.25 9.525-14.606-3.81-79.382-34.293-79.382-34.293s-13.652-6.35-13.017-14.605z"/><linearGradient id="k" gradientUnits="userSpaceOnUse" x1="-24.382" y1="399.147" x2="-8.719" y2="454.844" gradientTransform="matrix(1 0 0 -1 425.544 949.225)"><stop offset="0" style="stop-color:#d5d5ef"/><stop offset="1" style="stop-color:#33c"/></linearGradient><path fill="url(#k)" stroke="#FFF" stroke-width="1.5" d="M322.084 555.227c1.477-45.299 6.891-48.107 6.891-48.107 17.929-1.003 42.093 3.036 58.618 7.879 0 0 59.06 31.117 71.126 42.549 12.066 11.431 26.037 26.037 11.43 37.468-14.605 11.432-40.643 13.337-55.25 9.525-14.606-3.81-79.382-34.293-79.382-34.293s-14.069-6.767-13.433-15.021z"/><path fill="#FF0" stroke="#FFF" d="M347.584 562.627s-8.573-1.271-7.938-11.432c.635-10.16 11.431-34.927 22.862-39.055 11.43-4.129 20.321 2.223 20.321 2.223s16.511 9.208 9.843 23.18c-6.667 13.971-32.704 25.72-45.088 25.084z"/><path fill="#FF0" stroke="#FFF" d="M390.134 545.163s4.926 10.126 6.35 11.432c1.905 1.746 3.811 5.715 4.763-3.811.953-9.526.953-12.066.953-12.066s-1.271-5.081 5.08-5.081 12.066 4.764 12.066 4.764 5.398 4.763 6.986 8.256c1.587 3.493 1.905 6.668.318 10.161-1.588 3.492-2.541 14.605-2.541 14.605s0 4.763.635 2.54 5.081-9.208 5.081-9.208 4.763-6.668 9.208-4.763 4.445 8.573 3.176 10.796c-1.27 2.223-.913 8.095 1.905 7.303 2.262-.635 2.54-1.587 2.54-1.587.246-.395 1.151-1.628 2.54-.953 1.177.572 4.445 22.862-6.351 24.767 0 0-3.329.641-3.556-.271-.228-.91 1.138-1.82 1.138-1.82s2.503-2.277 1.821-3.87c-.684-1.593-1.821-1.82-3.187.228-1.366 2.049-5.235 3.415-5.235 3.415s-2.504.909-2.277-3.188c.228-4.098 1.593-7.057.455-9.333-1.138-2.275-3.642-3.414-4.78.229-1.138 3.642-1.138 7.738-1.138 7.738s.455 3.188-.455 3.188c-.911 0-6.146-2.504-7.967-6.602-1.822-4.097-2.504-3.983-2.731-6.373-.228-2.391.455-2.504 1.821-3.187 1.366-.684.911-5.691 0-6.83-.911-1.137-2.959-4.552-2.504-7.056.456-2.504.456-5.918 2.504-7.967 2.049-2.049 2.276-7.74 1.593-9.561-.962-2.566-6.374-5.463-7.511-.228-1.138 5.235-2.049 15.023-2.049 15.023s.228 5.69-2.504 6.373-16.389-6.601-22.079-11.608c-5.691-5.008 1.366-15.706 1.366-15.706l3.641-3.643.925 3.894zm-18.168 18.017c-1.099 1.099-2.95 1.764-4.61 1.764-2.143 0-2.563-.068-2.959-2.048-.425-2.127.252-3.085 2.277-4.098 1.692-.847 2.979-1.104 4.552-2.049 1.461-.876 2.604-.482 3.187.684.853 4.005.438 3.911-2.447 5.747z"/><path fill="#FF0" stroke="#FFF" stroke-width="1.5" d="M515.996 289.06c-7.056-12.975-12.064-8.65-12.064-8.65s-3.642 2.732-2.276 9.561 1.138 8.877 1.138 8.877-1.138 1.365-3.641-2.732c-2.504-4.097-10.471-13.43-12.293-15.023-1.82-1.594-10.926-5.691-20.031-1.594-9.104 4.098-4.325 12.292-4.325 12.292s5.008 5.69 7.739 9.105 2.504 6.601-1.821 7.056c-4.326.456-8.195-4.097-8.195-4.097s-7.739-6.146-14.112-10.471c-6.374-4.325-20.714-4.552-23.446-1.821-2.731 2.732 3.187 8.877 3.187 8.877s2.504 4.553.455 6.374c-2.049 1.821-4.325-1.593-6.374-2.503-2.048-.911-7.057-1.366-7.057-1.366s-10.698.228-12.519 1.366c-1.821 1.138-.911 5.918-.911 5.918s3.642 7.512 5.463 9.105c1.822 1.594 2.049 3.87.456 5.235-1.594 1.366-4.781-1.821-4.781-1.821l-6.146-5.236s-8.649-5.463-16.161-.228c-7.511 5.236-2.276 13.43-2.276 13.43s6.601 7.967 8.649 10.244c2.049 2.276 3.643 4.78 1.366 6.373-2.276 1.593-5.69-1.821-5.69-1.821l-10.016-8.422s-3.186-1.366-2.959 2.504c.228 3.869-.911 15.479 11.382 23.9 12.292 8.422 12.292-2.503 12.292-2.503s-3.188-3.87-1.138-6.146c2.048-2.276 6.146-5.463 7.512-.228s2.276 10.471 4.097 10.016c1.821-.455 3.642-3.642 3.187-7.967s-1.821-8.877-8.194-17.3c-6.374-8.422-6.601-15.251-.684-10.243 5.919 5.008 16.162 15.023 16.618 21.625.455 6.601 5.235 7.739 9.333 6.146s6.373-8.422 3.187-12.747c-3.187-4.325-8.877-9.788-8.877-9.788s-1.822-2.276.228-3.415c2.048-1.138 4.552-.228 6.146 2.504s8.422 10.471 11.836 9.788c3.415-.683 6.829-5.691 6.146-9.333-.683-3.642-1.822-5.918-7.512-9.333-5.69-3.414-14.112-9.56-13.885-11.608.228-2.049-.911-3.187.228-3.187s2.959 1.821 4.325 3.414 17.754 13.885 17.754 13.885 7.74 8.422 13.43 4.78c5.691-3.642-1.138-10.926-1.138-10.926l-10.699-10.699s-2.503-2.276-.91-3.87c1.593-1.594 2.275 1.138 4.78 2.959 2.504 1.821 10.471 12.975 25.267 7.74 14.795-5.236 20.714-2.959 12.52-12.975s-10.016-13.658-7.057-15.479c2.96-1.821 5.919 1.594 6.829 3.87.911 2.276 12.292 15.479 12.292 15.479l.455.228c5.69 7.284 12.064 8.422 17.072 8.422s3.642-2.959 2.048-5.008c-1.593-2.049-1.821-5.235-1.821-5.235s-1.138-2.276.911-4.097c2.048-1.821 2.959.455 2.959.455l2.731 4.552s1.593 3.87 4.552 3.415c2.96-.455 2.731-6.146 2.277-8.877-.455-2.731 2.958-1.138 3.87.911.911 2.048 2.731 4.097 2.731 4.097s2.276 2.731 2.504-2.731-4.553-10.243-4.553-10.243-3.641-4.097-6.145-7.512c-2.504-3.415-4.098-2.049-4.098-2.049s-2.049 1.594-2.276 3.415-.683 2.276-2.048 2.731-1.823-1.365-1.823-1.365z"/><linearGradient id="l" gradientUnits="userSpaceOnUse" x1="230.582" y1="396.828" x2="345.965" y2="431.549" gradientTransform="matrix(1 0 0 -1 425.544 949.225)"><stop offset="0" style="stop-color:#752f47"/><stop offset="1" style="stop-color:#f69"/></linearGradient><path fill="url(#l)" stroke="#FFF" stroke-width="1.5" d="M778.45 461.828s6.146 3.643 5.236 8.194c-.911 4.554-4.326 2.505-4.326 9.789 0 7.283 1.367 17.982-12.064 28.453-13.43 10.471-14.34 7.739-14.34 17.3s-13.43 16.845-13.43 16.845-15.529 8.08-20.448 29.6c0 0-.949 6.365-14.151 7.959-13.203 1.593-16.617 12.975-16.617 12.975s1.232 12.295-6.502 17.217c-7.735 4.922-16.876 5.976-15.47 19.336 1.406 13.36-10.9 39.378-30.588 32.346-19.688-7.032-21.446-16.876-13.711-24.611 7.734-7.734-2.813-12.305-2.813-12.305s-9.493-4.219-17.93-3.867c-8.438.351-23.205-2.109-17.579-18.282s-7.384-20.392-7.384-20.392-11.25-9.142-10.899-16.524c.352-7.384-7.031-14.767-12.305-18.985-5.273-4.219-7.735-11.953-7.383-18.282.352-6.328.865-38.729-5.463-52.089l-37.62.127s1.497 16.611 1.042 23.44c-.455 6.829 3.187 22.763 6.374 29.137 3.187 6.372 11.381 18.665 11.381 18.665s.456.91 5.463 10.016c5.008 9.104 13.658 28.681 17.756 32.778 4.097 4.098 13.202 21.396 13.202 25.949s3.642 15.479 6.829 18.665c3.187 3.188-.911 13.203 14.113 13.203s16.389 1.82 18.665 7.284c2.277 5.463 18.211 19.12 26.405 19.575 8.194.456 8.649 2.276 8.649 2.276s.456 1.366 6.83 1.366c6.373 0 18.209-8.65 30.957-22.308 12.747-13.657 10.129-7.17 19.575-13.203 9.448-6.031 7.74-10.926 18.211-10.926 0 0 15.479 5.235 30.047-11.153 14.567-16.39 30.046-28.909 36.42-28.909s12.064-.455 14.112.911c2.049 1.366 4.325 4.779 10.927.455 6.602-4.325 10.926-7.739 10.926-7.739s3.87-4.098 1.821-9.104c-2.049-5.008-2.731-6.374 2.504-12.521 5.235-6.146 13.885-14.341 13.885-14.341s2.504-2.503 2.96-5.69c.455-3.187 2.048-6.601 3.868-7.967 1.822-1.365 11.154-4.324 9.334-18.893-1.821-14.568-1.366-29.819 8.422-40.518"/><linearGradient id="m" gradientUnits="userSpaceOnUse" x1="-600.141" y1="281.876" x2="-846.513" y2="333.21" gradientTransform="matrix(.4424 0 0 -.4424 975.93 356.496)"><stop offset="0" style="stop-color:#00644c"/><stop offset="1" style="stop-color:#00b889"/></linearGradient><path fill="url(#m)" stroke="#FFF" d="M598.256 200.592c6.478 28.841 29.56 50.191 57.023 50.191s50.553-21.35 57.03-50.191c-.42 9.538-36.101 13.304-56 13.304-19.898 0-57.253-3.221-58.053-13.304z"/><linearGradient id="n" gradientUnits="userSpaceOnUse" x1="-823.001" y1="-60.159" x2="-490.089" y2="-204.398" gradientTransform="matrix(.3281 0 0 -.0505 877.186 194.888)"><stop offset="0" style="stop-color:#00b889"/><stop offset="1" style="stop-color:#00644c"/></linearGradient><path fill="url(#n)" stroke="#FFF" stroke-width="2" d="M711.95 201.133c.009 7.222-25.355 13.079-56.652 13.081-31.296.002-56.674-5.851-56.683-13.073v-.007c-.009-7.222 25.355-13.079 56.652-13.081 31.297-.002 56.674 5.851 56.683 13.073v.007z"/><linearGradient id="o" gradientUnits="userSpaceOnUse" x1="-959.684" y1="269.595" x2="-1153.332" y2="263.308" gradientTransform="matrix(.3168 0 0 -.3168 1143.79 309.108)"><stop offset="0" style="stop-color:#850033"/><stop offset="1" style="stop-color:#cf0051"/></linearGradient><path fill="url(#o)" stroke="#FFF" d="M758.088 207.707c4.639 20.655 21.169 35.945 40.838 35.945 19.668 0 36.204-15.29 40.843-35.945-.302 6.831-25.854 9.528-40.105 9.528-14.251 0-41.004-2.307-41.576-9.528z"/><linearGradient id="p" gradientUnits="userSpaceOnUse" x1="-1340.983" y1="-407.142" x2="-1012.761" y2="-407.142" gradientTransform="matrix(.2349 0 0 -.0362 1073.08 193.37)"><stop offset="0" style="stop-color:#850033"/><stop offset="1" style="stop-color:#cf0051"/></linearGradient><path fill="url(#p)" stroke="#FFF" stroke-width="2" d="M839.511 208.095c.007 5.172-18.158 9.366-40.571 9.367-22.414.002-40.589-4.19-40.595-9.362v-.005c-.006-5.173 18.158-9.367 40.571-9.368 22.414-.001 40.589 4.19 40.595 9.362v.006z"/><linearGradient id="q" gradientUnits="userSpaceOnUse" x1="-858.593" y1="331.38" x2="-1087.25" y2="359.27" gradientTransform="matrix(.311 0 0 -.2938 796.299 525.7)"><stop offset="0" style="stop-color:#424a25"/><stop offset="1" style="stop-color:#697237"/></linearGradient><path fill="url(#q)" stroke="#FFF" d="M449.624 409.288c4.555 19.157 20.783 33.338 40.092 33.338 19.31 0 35.542-14.181 40.097-33.338-.295 6.335-25.381 8.837-39.372 8.837s-40.254-2.14-40.817-8.837z"/><linearGradient id="r" gradientUnits="userSpaceOnUse" x1="-1118.273" y1="336.945" x2="-807.034" y2="69.983" gradientTransform="matrix(.2307 0 0 -.0335 726.875 418.358)"><stop offset="0" style="stop-color:#697237"/><stop offset="1" style="stop-color:#424a25"/></linearGradient><path fill="url(#r)" stroke="#FFF" stroke-width="2" d="M529.561 409.647c.006 4.797-17.827 8.687-39.831 8.688-22.004.001-39.847-3.887-39.853-8.684v-.004c-.006-4.797 17.827-8.687 39.831-8.688s39.847 3.886 39.853 8.684v.004z"/><linearGradient id="s" gradientUnits="userSpaceOnUse" x1="-2027.336" y1="336.48" x2="-2384.81" y2="336.48" gradientTransform="matrix(.1449 0 0 -.1449 783.225 516.441)"><stop offset="0" style="stop-color:#a92900"/><stop offset="1" style="stop-color:#fff"/></linearGradient><path fill="url(#s)" stroke="#FFF" stroke-width="1.5" d="M452.004 459.448c2.122 9.449 9.686 16.445 18.685 16.445 8.999 0 16.564-6.996 18.687-16.445-.137 3.124-11.829 4.359-18.349 4.359-6.521.001-18.761-1.056-19.023-4.359z"/><linearGradient id="t" gradientUnits="userSpaceOnUse" x1="-2780.593" y1="233.486" x2="-2122.954" y2="233.486" gradientTransform="matrix(.1075 0 0 -.0165 750.87 463.488)"><stop offset="0" style="stop-color:#a92900"/><stop offset="1" style="stop-color:#fff"/></linearGradient><path fill="url(#t)" stroke="#FFF" stroke-width="2" d="M489.258 459.625c.002 2.367-8.309 4.285-18.563 4.286-10.255 0-18.571-1.918-18.574-4.283v-.003c-.002-2.366 8.308-4.286 18.563-4.286s18.57 1.918 18.574 4.283v.003z"/><linearGradient id="u" gradientUnits="userSpaceOnUse" x1="-1692.915" y1="268.005" x2="-1921.573" y2="295.895" gradientTransform="matrix(.227 0 0 -.2145 1723.87 400.301)"><stop offset="0" style="stop-color:#424a25"/><stop offset="1" style="stop-color:#697237"/></linearGradient><path fill="url(#u)" stroke="#FFF" d="M1281.393 328.916c3.324 13.984 15.171 24.335 29.266 24.335s25.945-10.351 29.271-24.335c-.217 4.624-18.528 6.451-28.74 6.451-10.215 0-29.386-1.562-29.797-6.451z"/><linearGradient id="v" gradientUnits="userSpaceOnUse" x1="-2243.265" y1="-218.207" x2="-1932.029" y2="-485.167" gradientTransform="matrix(.1684 0 0 -.0245 1673.19 321.943)"><stop offset="0" style="stop-color:#697237"/><stop offset="1" style="stop-color:#424a25"/></linearGradient><path fill="url(#v)" stroke="#FFF" stroke-width="2" d="M1339.743 329.178c.005 3.501-13.013 6.341-29.074 6.342-16.063.001-29.088-2.837-29.092-6.338v-.003c-.005-3.501 13.013-6.341 29.075-6.343 16.063 0 29.087 2.838 29.091 6.339v.003z"/><path fill="none" stroke="#FFF" stroke-width="1.5" stroke-linecap="round" d="M585.475 508.2s-3.868 42.893 12.656 43.244 11.954-22.501 11.954-22.501.684-7.055-10.899-13.712c-15.277-8.779-21.446-8.789-21.446-26.368 0-17.58.81-21.636.81-21.636l28.265.189s-8.683 57.307 35.968 71.371"/><path fill="none" stroke="#FFF" stroke-width="1.5" stroke-linecap="round" d="m592.857 462.494-2.109-17.931s29.777-.352 28.372.353c-1.407.702-7.277 57.659 35.265 69.964m91.304 90.074c6.712-14.668 4.342-30.827 5.337-32.568l-30.371-.096s-4.301 20.979-2.063 30.675"/><path fill="#FF0" stroke="#000" d="m554.014 353.862 15.166-45.495s16.159-8.95 27.595 1.243c11.437 10.193 11.933 28.838 11.933 28.838s-1.492 15.662-12.679 30.33l-42.015-14.916z"/><path fill="#FF0" stroke="#000" d="M575.146 348.393c4.114.988 22.871 13.922 20.882 19.889-1.988 5.966-9.944 3.977-9.944 3.977l-2.983 8.453-1.989-7.956-5.965 5.469-.498-8.452-10.939 4.474 1.989-11.436s-5.967.995-7.458 2.983.498-5.967.498-5.967-5.47-3.48-4.475-5.966c.993-2.485 12.567-7.464 20.882-5.468zm9.944 5.718 15.165-45.495m-7.334 52.207 15.166-45.495m-34.308 32.693 15.165-45.495m22.25-26.726 35.799 33.811s2.735 17.402-7.458 27.844c-10.192 10.441-26.352 6.712-26.352 6.712l-38.036-38.036 36.047-30.331zm-57.18 78.062 15.166-45.495m-7.086 40.772 15.165-45.495m33.935-19.391 35.799 33.811"/><radialGradient id="w" cx="703.003" cy="729.394" r="125.612" gradientTransform="matrix(.8764 -.4816 -.5994 -1.0907 910.099 1490.5)" gradientUnits="userSpaceOnUse"><stop offset="0" style="stop-color:#a0a0ff"/><stop offset="1" style="stop-color:#e5e5ff"/></radialGradient><path fill="url(#w)" stroke="#FFF" stroke-width="3" d="M838.238 334.584c2.209-27.145 44.821-31.879 44.821-31.879s58.393-12.31 64.074-14.835c0 0-9.47-6.313-7.575-23.988 1.894-17.675 5.049-20.201 5.049-20.201s25.252-58.077 55.553-63.127c0 0 56.814-3.788 72.597 24.62 15.782 28.407 15.782 87.115 15.782 87.115v71.334s1.263 14.519-11.363 14.519c-7.47 0-63.992.947-116.755-4.126-36.419-3.501-71.048-11.523-86.516-17.968-37.876-15.782-30.301-11.363-35.667-21.464z"/><linearGradient id="x" gradientUnits="userSpaceOnUse" x1="521.232" y1="329.903" x2="664.844" y2="314.025" gradientTransform="matrix(1 0 0 -1 425.544 949.225)"><stop offset="0" style="stop-color:#e6bd10"/><stop offset="1" style="stop-color:#9b7f0a"/></linearGradient><path fill="url(#x)" stroke="#FFF" stroke-width="1.564" d="M886.834 571.174c-5.371-11.431 12.352-15.784 12.352-15.784s35.982-8.709 91.837-8.908c0 0 66.595-3.066 91.299 38.3 0 0 8.593 13.606 8.593 41.365 0 27.76-14.5 59.872-22.556 60.961-8.057 1.089-19.334 1.634-22.557 8.709-3.223 7.076-16.649 4.354-16.649 4.354s-14.5-1.632-17.185-5.987c-2.686-4.354-20.945-2.177-26.854 2.178-5.907 4.354-24.167 6.532-25.778.545-1.61-5.988-7.519-7.621-10.204-7.621s-10.74-3.266-12.889-8.708c-2.148-5.443-12.353-31.568-18.26-34.291-5.908-2.721-22.02-1.632-22.02-1.632s-19.334-3.811-5.908-15.785c13.427-11.975 22.557-8.164 11.279-21.228-11.278-13.064-15.037-26.67-14.5-36.468z"/><linearGradient id="y" gradientUnits="userSpaceOnUse" x1="533.702" y1="325.676" x2="641.048" y2="305.093" gradientTransform="matrix(1 0 0 -1 425.544 949.225)"><stop offset="0" style="stop-color:#e6bd10"/><stop offset="1" style="stop-color:#9b7f0a"/></linearGradient><path fill="url(#y)" stroke="#FFF" stroke-width="1.564" d="M904.076 587.252c-4.339-9.023 9.979-12.461 9.979-12.461s29.072-6.876 74.198-7.032c0 0 53.805-2.421 73.764 30.236 0 0 6.943 10.742 6.943 32.657s-11.716 47.267-18.225 48.126c-6.508.859-15.62 1.29-18.225 6.876-2.603 5.586-13.45 3.438-13.45 3.438s-11.716-1.29-13.885-4.727c-2.17-3.438-16.923-1.72-21.696 1.719-4.772 3.438-19.524 5.156-20.827.43-1.302-4.727-6.074-6.016-8.244-6.016s-8.678-2.579-10.413-6.876c-1.736-4.297-9.98-24.923-14.754-27.071-4.772-2.148-17.789-1.289-17.789-1.289s-15.62-3.008-4.773-12.461c10.848-9.453 18.225-6.445 9.112-16.759-9.111-10.313-12.148-21.055-11.715-28.79z"/><linearGradient id="z" gradientUnits="userSpaceOnUse" x1="521.653" y1="325.486" x2="610.446" y2="299.611" gradientTransform="matrix(1 0 0 -1 425.544 949.225)"><stop offset="0" style="stop-color:#e6bd10"/><stop offset="1" style="stop-color:#9b7f0a"/></linearGradient><path fill="url(#z)" stroke="#FFF" stroke-width="1.564" d="M926.3 605.086c-3.156-6.629 7.26-9.154 7.26-9.154s21.147-5.051 53.974-5.166c0 0 39.139-1.778 53.658 22.211 0 0 5.051 7.891 5.051 23.988s-8.522 34.721-13.257 35.352-11.363.946-13.257 5.05-9.785 2.525-9.785 2.525-8.521-.947-10.1-3.472c-1.579-2.526-12.311-1.263-15.782 1.262-3.472 2.525-14.203 3.788-15.15.315-.947-3.471-4.419-4.418-5.997-4.418s-6.313-1.894-7.575-5.051c-1.263-3.156-7.26-18.307-10.732-19.885-3.472-1.578-12.94-.947-12.94-.947s-11.363-2.21-3.473-9.153c7.892-6.943 13.258-4.735 6.629-12.311-6.63-7.574-8.838-15.465-8.524-21.146z"/><path fill="#7F8C46" stroke="#FFF" stroke-width="1.564" d="M987.533 590.766s39.139-1.778 53.658 22.211c0 0 3.473 5.997 0 7.259-3.472 1.263-7.575-3.155-7.575-3.155s-19.569-23.042-45.136-23.042c0 0-20.517-1.894-52.396 12.311 0 0-6.628 5.365-9.785-1.263-3.156-6.629 7.26-9.154 7.26-9.154s21.148-5.052 53.974-5.167z"/><path fill="#7F8C46" stroke="#FFF" stroke-width="1.564" d="M988.254 567.759s53.805-2.421 73.764 30.236c0 0 4.773 8.164 0 9.883-4.772 1.719-10.414-4.297-10.414-4.297s-26.901-31.369-62.048-31.369c0 0-28.204-2.577-72.028 16.759 0 0-9.112 7.305-13.451-1.719s9.979-12.461 9.979-12.461 29.072-6.876 74.198-7.032z"/><path fill="#7F8C46" stroke="#FFF" stroke-width="1.564" d="M991.023 546.481s66.595-3.066 91.299 38.3c0 0 5.907 10.342 0 12.519s-12.889-5.443-12.889-5.443-33.298-39.732-76.799-39.732c0 0-34.908-3.267-89.151 21.227 0 0-11.278 9.253-16.648-2.177-5.371-11.431 12.352-15.784 12.352-15.784s35.981-8.71 91.836-8.91z"/><path fill="none" stroke="#FFF" stroke-width="3" d="m947.133 287.87 140.142 83.959"/><radialGradient id="A" cx="590.154" cy="699.001" r="35.245" gradientTransform="matrix(1 0 0 -1 427.544 952.225)" gradientUnits="userSpaceOnUse"><stop offset="0" style="stop-color:#f8cbff"/><stop offset="1" style="stop-color:#f1a6ff"/></radialGradient><path fill="url(#A)" d="M1042.844 263.325c0 19.465-15.78 35.245-35.246 35.245-19.465 0-35.245-15.78-35.245-35.245 0-19.466 15.78-35.246 35.245-35.246 19.466 0 35.246 15.78 35.246 35.246z"/><path fill="#DB006D" stroke="#000" stroke-width="2" d="M820.219 487.017a4.83 4.83 0 1 1-9.66 0 4.83 4.83 0 0 1 9.66 0zm364.995 74.672a4.829 4.829 0 1 1-9.658 0 4.829 4.829 0 0 1 9.658 0zm-21.076-1.186a4.83 4.83 0 1 1-9.66-.001 4.83 4.83 0 0 1 9.66.001zm10.318 22.014a4.83 4.83 0 1 1-9.658 0 4.83 4.83 0 0 1 9.658 0zm-19.951 23.389a4.829 4.829 0 1 1-9.657-.001 4.829 4.829 0 0 1 9.657.001zm-26.828 8.254a4.83 4.83 0 1 1-9.658.002 4.83 4.83 0 0 1 9.658-.002z"/><path fill="none" stroke="#7F742E" stroke-width="4.564" stroke-linecap="round" d="M767.733 772.751c24.751 2.012 31.3-7.767 51.822 10.384.392.346 13.779 9.182 42.463-3.564 11.905-5.29 56.431-7.158 69.511-3.801 61.439 15.818 156.473 1.733 159.788-.753"/><radialGradient id="B" cx="-25.996" cy="113.624" r="616.381" gradientTransform="matrix(1.1238 -.2299 -.1649 -.806 376.625 803.322)" gradientUnits="userSpaceOnUse"><stop offset="0" style="stop-color:#9aa196"/><stop offset="1" style="stop-color:#d5d8d3"/></radialGradient><path opacity=".693" fill="url(#B)" stroke="#F7F8FF" stroke-width="2" d="M1389.025 363.624c-.633 9.469-11.995 21.463-16.413 29.669 0 0-26.033 29.892-54.154 45.962-28.122 16.069-61.153 31.692-67.403 44.191-6.25 12.498-4.464 23.211-4.464 23.211s-.446 5.357 3.571 5.357 3.571-3.125 3.571-3.125 1.785-3.571 4.909 1.339c3.125 4.911 10.714 19.194-8.927 27.676s-41.96 7.142-49.102 7.142c0 0-33.479-1.339-45.978 4.465-12.498 5.802-12.498 6.248-12.498 12.498s0 16.069 2.231 18.302c2.232 2.231 5.357 3.125 4.464 5.356-.893 2.231-8.928 8.034-8.928 8.034s-35.71 29.907-162.481 64.725c0 0-9.819 11.16-88.829-1.339-79.009-12.498-99.988-32.14-99.988-32.14s-26.782-20.979-87.937-20.979c-61.153 0-103.113 20.532-149.091 20.532 0 0-53.118 4.911-99.542-9.373-46.423-14.284-192.835-49.102-245.507-122.308 0 0-6.919-8.259-3.348-11.605 3.571-3.349 5.803-2.01 5.803-2.01s4.018.224 4.018-4.24-.893-9.82-5.357-16.516c-4.464-6.696-49.325-54.012-49.605-79.675l.317 1.712c0 52.495 36.747 208.669 87.929 263.789 51.183 55.119 166.673 135.175 263.789 181.108 97.116 45.934 280.85 47.245 383.215 36.746 102.366-10.498 202.107-72.18 271.663-124.676 69.556-52.495 95.804-116.802 95.804-116.802l128.268-257.026z"/><path fill="#DB006D" stroke="#000" stroke-width="2" d="M827.098 512.347a4.829 4.829 0 1 1-9.658 0 4.829 4.829 0 0 1 9.658 0zm-8.443 28.144a4.829 4.829 0 1 1-9.658-.002 4.829 4.829 0 0 1 9.658.002zm-18.451-14.385a4.829 4.829 0 1 1-9.658 0 4.829 4.829 0 0 1 9.658 0zm1.565-29.395a4.829 4.829 0 1 1-9.658 0 4.829 4.829 0 0 1 9.658 0zm-1.565-27.205a4.828 4.828 0 1 1-9.658 0 4.829 4.829 0 1 1 9.658 0zm-16.885 47.531a4.828 4.828 0 0 1-4.829 4.829 4.828 4.828 0 0 1-4.829-4.829 4.828 4.828 0 1 1 9.658 0zm-4.378 21.265a4.829 4.829 0 1 1-9.658 0 4.829 4.829 0 0 1 9.658 0zm10.632 16.261a4.829 4.829 0 1 1-4.828-4.829 4.829 4.829 0 0 1 4.828 4.829zm12.196 22.515a4.829 4.829 0 1 1-9.658 0 4.829 4.829 0 0 1 9.658 0zm-36.276 11.258a4.829 4.829 0 1 1-9.658 0 4.829 4.829 0 0 1 9.658 0zm-5.628-32.21a4.83 4.83 0 1 1-9.656 0 4.83 4.83 0 0 1 9.656 0zm75.989 36.274a4.828 4.828 0 1 1-9.658 0 4.829 4.829 0 1 1 9.658 0zm23.453-4.69a4.829 4.829 0 1 1-9.658 0 4.829 4.829 0 0 1 9.658 0zm-13.759-20.326a4.829 4.829 0 1 1-9.658 0 4.829 4.829 0 0 1 9.658 0zm14.071-15.636a4.829 4.829 0 1 1-9.658 0 4.829 4.829 0 0 1 9.658 0zm-2.501-23.141a4.83 4.83 0 1 1-9.658 0 4.83 4.83 0 0 1 9.658 0zm13.759-7.192a4.829 4.829 0 1 1-9.658 0 4.829 4.829 0 0 1 9.658 0zm16.573-4.69a4.828 4.828 0 1 1-9.657 0 4.829 4.829 0 1 1 9.657 0zm-4.689-22.515a4.829 4.829 0 1 1-9.658 0 4.829 4.829 0 0 1 9.658 0zm-22.828 7.192a4.83 4.83 0 1 1-9.657-.001 4.83 4.83 0 0 1 9.657.001zm9.381-20.952a4.828 4.828 0 1 1-9.658 0 4.829 4.829 0 1 1 9.658 0zm4.69-15.01a4.829 4.829 0 1 1-9.658-.002 4.829 4.829 0 0 1 9.658.002zm22.828 10.32a4.829 4.829 0 1 1-9.658 0 4.829 4.829 0 0 1 9.658 0zm7.193 17.824a4.829 4.829 0 1 1-9.658 0 4.829 4.829 0 0 1 9.658 0zm17.824-7.818a4.828 4.828 0 1 1-9.657.001 4.828 4.828 0 0 1 9.657-.001zm19.076.938a4.828 4.828 0 1 1-9.657 0 4.828 4.828 0 1 1 9.657 0zm-98.817-29.081a4.829 4.829 0 1 1-9.658-.002 4.829 4.829 0 0 1 9.658.002zm-27.205-14.698a4.829 4.829 0 1 1-9.658 0 4.829 4.829 0 0 1 9.658 0zm-35.962-19.388a4.828 4.828 0 0 1-4.829 4.828 4.828 4.828 0 1 1 0-9.658 4.83 4.83 0 0 1 4.829 4.83zm31.27-12.822a4.83 4.83 0 1 1-9.655 0 4.83 4.83 0 0 1 9.655 0zm-46.28 28.144a4.83 4.83 0 1 1-9.658 0 4.83 4.83 0 0 1 9.658 0zm-35.963-20.013a4.829 4.829 0 1 1-9.658 0 4.829 4.829 0 0 1 9.658 0zm1.563-37.838a4.829 4.829 0 1 1-9.658 0 4.829 4.829 0 0 1 9.658 0zm117.581 49.096a4.829 4.829 0 1 1-9.658 0 4.829 4.829 0 0 1 9.658 0zm45.655-8.443a4.829 4.829 0 1 1-9.658 0 4.829 4.829 0 0 1 9.658 0zm49.721 8.755a4.829 4.829 0 1 1-9.658 0 4.829 4.829 0 0 1 9.658 0zm-70.36-45.655a4.829 4.829 0 1 1-9.658 0 4.829 4.829 0 0 1 9.658 0zm-30.02-13.76a4.829 4.829 0 1 1-9.658 0 4.829 4.829 0 0 1 9.658 0zm-24.704-24.079a4.829 4.829 0 1 1-9.658 0 4.829 4.829 0 0 1 9.658 0zm-18.451 33.773a4.829 4.829 0 1 1-9.658 0 4.829 4.829 0 0 1 9.658 0zm20.014 11.258a4.828 4.828 0 1 1-9.658 0 4.829 4.829 0 1 1 9.658 0zm-65.044-28.144a4.829 4.829 0 1 1-9.658 0 4.829 4.829 0 0 1 9.658 0zm-9.068-20.014a4.829 4.829 0 1 1-9.658 0 4.829 4.829 0 0 1 9.658 0zm-30.333.625a4.83 4.83 0 1 1-9.66-.001 4.83 4.83 0 0 1 9.66.001zm-28.77 6.255a4.829 4.829 0 1 1-9.658 0 4.829 4.829 0 0 1 9.658 0zm5.316 15.949a4.829 4.829 0 1 1-9.658 0 4.829 4.829 0 0 1 9.658 0zm88.81-28.457a4.829 4.829 0 1 1-9.658 0 4.829 4.829 0 0 1 9.658 0zm18.45-31.897a4.829 4.829 0 1 1-9.658 0 4.829 4.829 0 0 1 9.658 0zm-43.154 5.003a4.83 4.83 0 1 1-9.66 0 4.83 4.83 0 0 1 9.66 0zm-34.711-2.814a4.829 4.829 0 1 1-9.658 0 4.829 4.829 0 0 1 9.658 0zm-22.203-8.13a4.829 4.829 0 1 1-9.658 0 4.829 4.829 0 0 1 9.658 0zm122.584 25.954a4.829 4.829 0 1 1-9.658 0 4.829 4.829 0 0 1 9.658 0zm92.249-38.775a4.828 4.828 0 1 1-9.658 0 4.829 4.829 0 1 1 9.658 0zm-30.645-27.206a4.829 4.829 0 1 1-9.658 0 4.829 4.829 0 0 1 9.658 0zm-98.504 4.378a4.829 4.829 0 1 1-9.658 0 4.829 4.829 0 0 1 9.658 0zm190.44 141.032a4.829 4.829 0 1 1-9.658 0 4.829 4.829 0 0 1 9.658 0zm6.88 55.663a4.828 4.828 0 1 1-4.829-4.829 4.828 4.828 0 0 1 4.829 4.829zm-2.189 25.642a4.83 4.83 0 1 1-9.658.002 4.83 4.83 0 0 1 9.658-.002zm22.829 2.189a4.829 4.829 0 1 1-9.658 0 4.829 4.829 0 0 1 9.658 0zm38.776-26.268a4.829 4.829 0 1 1-9.658 0 4.829 4.829 0 0 1 9.658 0zm-34.712-25.33a4.828 4.828 0 1 1-9.658 0 4.829 4.829 0 1 1 9.658 0zm42.529-.312a4.829 4.829 0 1 1-9.658 0 4.829 4.829 0 0 1 9.658 0zm16.887-26.893a4.829 4.829 0 1 1-9.658 0 4.829 4.829 0 0 1 9.658 0zm40.026 27.519a4.828 4.828 0 1 1-9.656 0 4.828 4.828 0 0 1 9.656 0zm-74.738 51.91a4.829 4.829 0 1 1-9.658-.002 4.829 4.829 0 0 1 9.658.002zm22.203 3.126a4.83 4.83 0 1 1-9.658.002 4.83 4.83 0 0 1 9.658-.002zm20.326 2.503a4.829 4.829 0 1 1-9.658-.002 4.829 4.829 0 0 1 9.658.002zm20.326 0a4.828 4.828 0 1 1-9.656 0 4.828 4.828 0 0 1 9.656 0zm24.392-10.633a4.829 4.829 0 1 1-9.658 0 4.829 4.829 0 0 1 9.658 0zm15.636 15.636a4.829 4.829 0 1 1-9.658 0 4.829 4.829 0 0 1 9.658 0zm-8.444 17.511a4.829 4.829 0 1 1-9.657.003 4.829 4.829 0 0 1 9.657-.003zm-15.323-5.628a4.829 4.829 0 1 1-9.658 0 4.829 4.829 0 0 1 9.658 0zm-18.762 0a4.829 4.829 0 1 1-9.658 0 4.829 4.829 0 0 1 9.658 0zm39.714-81.931a4.828 4.828 0 1 1-9.658 0 4.829 4.829 0 0 1 9.658 0zm45.656-10.944a4.829 4.829 0 1 1-9.658 0 4.829 4.829 0 0 1 9.658 0zm-44.092-14.385a4.829 4.829 0 1 1-9.658 0 4.829 4.829 0 0 1 9.658 0zm23.452 55.35a4.828 4.828 0 1 1-9.657 0 4.829 4.829 0 1 1 9.657 0zm20.015 13.446a4.828 4.828 0 1 1-9.658 0 4.83 4.83 0 0 1 9.658 0zm13.447-25.954a4.829 4.829 0 1 1-9.658-.002 4.829 4.829 0 0 1 9.658.002zm-32.522 46.593a4.829 4.829 0 1 1-9.658 0 4.829 4.829 0 0 1 9.658 0zm-5.003 20.014a4.829 4.829 0 1 1-9.658-.002 4.829 4.829 0 0 1 9.658.002zm-34.713 24.392a4.829 4.829 0 1 1-9.657-.001 4.829 4.829 0 0 1 9.657.001zm18.137 29.707a4.829 4.829 0 1 1-9.658 0 4.829 4.829 0 0 1 9.658 0zm47.221-33.773a4.829 4.829 0 1 1-9.66-.002 4.829 4.829 0 0 1 9.66.002zm12.508-24.079a4.828 4.828 0 0 1-4.829 4.828 4.828 4.828 0 1 1 0-9.657 4.829 4.829 0 0 1 4.829 4.829zm13.76-34.085a4.829 4.829 0 1 1-9.658-.002 4.829 4.829 0 0 1 9.658.002zm16.26-77.865a4.83 4.83 0 1 1-9.658 0 4.83 4.83 0 0 1 9.658 0zm22.516-10.319a4.83 4.83 0 1 1-9.66-.001 4.83 4.83 0 0 1 9.66.001zm-32.836-11.884a4.829 4.829 0 1 1-9.658 0 4.829 4.829 0 0 1 9.658 0zm-5.726-24.704a4.828 4.828 0 1 1-9.658 0 4.829 4.829 0 1 1 9.658 0zm3.537-15.323a4.828 4.828 0 1 1-9.657 0 4.829 4.829 0 1 1 9.657 0z"/><linearGradient id="C" gradientUnits="userSpaceOnUse" x1="97.594" y1="475.657" x2="147.123" y2="475.657" gradientTransform="matrix(1 0 0 -1 425.544 949.225)"><stop offset="0" style="stop-color:#752f47"/><stop offset="1" style="stop-color:#f69"/></linearGradient><path fill="url(#C)" stroke="#FFF" stroke-width="1.5" d="M550.808 507.612s-7.496-26.662-5.676-68.091h28.033s2.469 55.996 4.29 65.557"/><path fill="#FF0" stroke="#000" d="m574.4 289.474 7.707 9.198-6.96 7.458s19.888 6.712 29.335-4.724 6.215-26.104 6.215-26.104l-5.221.995-6.464-2.486.249 6.961-9.447-3.978-1.989 7.209h-6.215l3.481 7.458-10.691-1.987zm33.686 6.215 36.178 34.168m-44.257-24.597 36.555 34.524m-49.128-31.654 38.149 36.031"/><linearGradient id="D" gradientUnits="userSpaceOnUse" x1="76.127" y1="472.601" x2="111.921" y2="472.601" gradientTransform="matrix(1 0 0 -1 425.544 949.225)"><stop offset="0" style="stop-color:#3f4620"/><stop offset="1" style="stop-color:#859751"/></linearGradient><path fill="url(#D)" stroke="#FFF" stroke-width="1.5" d="M540.125 476.624c.002 2.893-8.454 5.236-18.889 5.237-10.435 0-18.896-2.344-18.897-5.234v-.003c-.002-2.891 8.455-5.235 18.889-5.236 10.435-.001 18.896 2.344 18.897 5.234v.002z"/><linearGradient id="E" gradientUnits="userSpaceOnUse" x1="70.792" y1="476.464" x2="104.843" y2="476.464" gradientTransform="matrix(1 0 0 -1 477.75 984.045)"><stop offset="0" style="stop-color:#3f4620"/><stop offset="1" style="stop-color:#859751"/></linearGradient><path fill="url(#E)" stroke="#FFF" stroke-width="1.5" d="M586.084 507.582c0 2.892-8.255 5.234-18.438 5.234s-18.438-2.343-18.438-5.234 8.255-5.235 18.438-5.235 18.438 2.343 18.438 5.235z"/><linearGradient id="F" gradientUnits="userSpaceOnUse" x1="71.768" y1="471.466" x2="97.209" y2="471.466" gradientTransform="matrix(1 0 0 -1 505.889 938.984)"><stop offset="0" style="stop-color:#3f4620"/><stop offset="1" style="stop-color:#859751"/></linearGradient><path fill="url(#F)" stroke="#FFF" stroke-width="1.5" d="M607.005 467.52c.001 2.892-6.417 5.235-14.337 5.236s-14.342-2.342-14.343-5.234v-.002c-.003-2.892 6.416-5.236 14.336-5.237 7.92-.001 14.342 2.343 14.344 5.235v.002z"/><linearGradient id="G" gradientUnits="userSpaceOnUse" x1="70.232" y1="468.567" x2="95.672" y2="468.567" gradientTransform="matrix(1 0 0 -1 519.737 912.869)"><stop offset="0" style="stop-color:#3f4620"/><stop offset="1" style="stop-color:#859751"/></linearGradient><path fill="url(#G)" stroke="#FFF" stroke-width="1.5" d="M619.318 444.302c.002 2.892-6.417 5.235-14.337 5.236-7.92.001-14.342-2.343-14.344-5.234v-.002c-.002-2.892 6.417-5.236 14.337-5.236 7.92-.001 14.342 2.342 14.344 5.233v.003z"/><linearGradient id="H" gradientUnits="userSpaceOnUse" x1="75.969" y1="467.942" x2="103.488" y2="467.942" gradientTransform="matrix(1 0 0 -1 468.021 907.236)"><stop offset="0" style="stop-color:#3f4620"/><stop offset="1" style="stop-color:#859751"/></linearGradient><path fill="url(#H)" stroke="#FFF" stroke-width="1.5" d="M573.337 439.294c.002 2.891-6.417 5.235-14.336 5.236s-14.342-2.343-14.344-5.234v-.002c-.001-2.892 6.417-5.236 14.337-5.237 7.92-.001 14.341 2.343 14.343 5.234v.003z"/><linearGradient id="I" gradientUnits="userSpaceOnUse" x1="201.26" y1="203.682" x2="214.52" y2="218.95" gradientTransform="scale(1 -1) rotate(-49.026 -269.603 -549.325)"><stop offset="0" style="stop-color:#3f4620"/><stop offset="1" style="stop-color:#859751"/></linearGradient><path fill="url(#I)" stroke="#FFF" stroke-width="1.5" d="M629.859 421.895c-2.592 2.255-8.905-.765-14.099-6.744s-7.303-12.654-4.709-14.909l.001-.001c2.594-2.254 8.906.765 14.1 6.744 5.195 5.979 7.303 12.653 4.71 14.908l-.003.002z"/><linearGradient id="J" gradientUnits="userSpaceOnUse" x1="147.78" y1="246.802" x2="167.321" y2="262.421" gradientTransform="scale(1 -1) rotate(-38.793 -590.33 -816.803)"><stop offset="0" style="stop-color:#3f4620"/><stop offset="1" style="stop-color:#859751"/></linearGradient><path fill="url(#J)" stroke="#FFF" stroke-width="1.5" d="M678.178 460.638c-1.782 2.223-9.002-.618-16.125-6.343-7.122-5.725-11.451-12.165-9.668-14.387l.001-.002c1.783-2.221 9.002.619 16.124 6.344 7.123 5.725 11.452 12.165 9.67 14.387l-.002.001z"/><linearGradient id="K" gradientUnits="userSpaceOnUse" x1="51.958" y1="484.536" x2="83.872" y2="484.536" gradientTransform="matrix(1 0 0 -1 666.552 1056.83)"><stop offset="0" style="stop-color:#3f4620"/><stop offset="1" style="stop-color:#859751"/></linearGradient><path fill="url(#K)" stroke="#FFF" stroke-width="1.5" d="M751.836 572.298c.001 4.265-7.308 7.722-16.326 7.723-9.018.001-16.332-3.455-16.333-7.72v-.003c-.002-4.266 7.307-7.723 16.325-7.724 9.019-.001 16.332 3.455 16.334 7.72v.004z"/><path fill="#7F8C46" stroke="#FFF" stroke-width="1.5" d="M897.491 240.946c-.271-.001-.539.011-.806.028-.713.046-1.403.156-2.001.305-3.167.792-5.11 1.584-8.585 1.584h-20.31c-2.941 0-5.692-.306-8.586-.306-2.967 0-6.082.639-8.891.639-1.633 0-2.988.306-4.751.306-4.422 0-7.974 1.35-11.752 2.861-2.099.84-5.061 2.606-7.308 3.167-2.202.55-6.02 1.771-7.918 3.195-2.674 2.005-5.865 3.577-8.585 5.39-2.06 1.374-4.204 2.885-6.669 3.501-.423.106-.872.144-1.277.306-2.054.821-3.835 1.917-6.335 3.167-2.406 1.203-5.366 2.932-7.641 3.5-1.719.43-4.137 1.277-6.029 2.223-2.237 1.119-4.886 1.893-7.307 2.862-2.507 1.003-3.817 1.908-6.335 3.167-2.241 1.121-4.123 2.788-6.668 3.806-2.418.968-4.966 1.669-7.002 3.195-2.807 2.105-4.662 2.342-7.612 4.112-2.267 1.36-5.106 4.458-7.612 5.084-4.259 1.065-3.091.104-5.724-2.528-1.238-1.238-3.452-3.412-2.528-5.724.535-1.335 1.094-5.948 3.167-6.362 2.404-.48 4.818-.447 7.308-.944 2.06-.412 5.018.067 6.668-1.584 1.402-1.402 4.862-4.028 6.668-4.751 2.951-1.18 5.163-2.941 7.307-5.084 1.205-1.205 4.147-3.99 6.335-5.084 2.636-1.317 4.453-1.509 7.308-2.223.423-.106.854-.228 1.277-.333 1.25-.312 6.183.11 6.974-.944.472-.629 4.103-4.87 2.557-6.029-1.399-1.049-3.349-.945-6.029-.945-3.362 0-5.493 1.584-8.585 1.584-2.47 0-5.219.97-7.308 2.223-2.669 1.602-5.561 4.831-8.557 6.029-2.37.947-7.221 1.846-9.863 3.167-.382.191-.803.416-1.251.639-2.373 1.187-4.848 1.779-7.001 3.5-2.181 1.745-4.81 3.462-6.974 5.084-2.171 1.629-4.426 3.103-5.723 5.696-1.462 2.925-3.916 6.407-6.029 9.224-1.812 2.417-4.373 3.096-6.362 5.084-1.896 1.896-2.916 3.861-4.751 5.696-2.046 2.046-3.326 4.019-5.084 6.362-1.494 1.993-4.333 3.916-5.39 6.029-.105.212-.166.472-.333.639-2.458 2.458-3.699 6.025-6.668 8.251-1.593 1.196-5.797 2.811-8.252 1.583-2.921-1.461-2.528-3.314-2.528-6.334 0-1.9.715-4.624 1.584-6.362 1.107-2.213 1.854-4.68 3.167-7.307 1.813-3.627 3.787-5.202 7.001-7.613 2.865-2.148 7.704-6.354 11.419-6.974 2.671-.445 6.735-3.633 8.252-6.668.941-1.882 5.612-5.53 3.5-7.64-2.241-2.242-2.679-1.317-5.39-.639-1.985.497-4.042 2.188-6.057 3.195-2.389 1.194-4.712 3.423-7.279 5.084-1.799 1.165-3.618 2.309-5.418 3.473-.423.317-.827.655-1.25.972-2.378 1.784-4.188 5.438-6.362 7.613-2.648 2.648-3.218 6.052-5.723 8.557-2.207 2.206-5.71 6.057-6.974 8.585-1.795 3.592-4.72 6.336-6.362 10.169-1.453 3.391-.896 6.825-2.223 10.141-.98 2.452-.945 5.556-.945 8.28v11.113c0 3.921.519 7.617 1.278 11.419.781 3.906 1.305 6.5 3.806 9.835 3.19 4.253 6.88 7.213 10.475 10.808 2.296 2.296 2.87 6.064 4.751 7.946.682.681 2.302 1.36 3.195 1.583 2.38 2.38 6.334 6.327 6.334 9.53 0 2.716 3.697 6.739 5.418 8.891.331.414.627.827.944 1.25 2.054 2.738 1.516 5.92 3.167 9.224 1.981 3.962 5.33 7.931 7.946 11.419 1.581 2.107 3.504 3.114 5.723 4.778 3.063 2.297 4.386 5.192 7.613 7.613 2.307 1.729 5.718 2.528 8.558 2.528 3.99 0 6.482 4.503 8.585 7.307 1.781 2.374 4.781 4.599 7.946 5.391 1.979.494 6.036 3.366 7.918 4.778 1.651 1.238 3.693 1.382 5.724 1.89 2.961.74 6.857 4.758 9.53 6.362 1.854 1.112 6.534-.22 7.946-1.277 2.418-1.814 3.219-4.544 2.528-7.308-.983-3.933-3.518-6.895-7.613-7.918-2.693-.674-6.184-1.995-8.585-3.196-2.877-1.438-5.171-3.377-7.918-4.751-2.402-1.2-5.301-2.178-7.946-3.5-3.093-1.547-7.015-4.449-9.53-6.335-1.945-1.459-5.572-3.195-8.251-3.195-1.007 0-6.62-4.703-7.307-5.39-1.99-1.991-4.904-2.043-6.974-4.112l-.973-.973c-1.745-1.746-3.771-4.982-4.445-6.668-.943-2.358-.72-4.33-1.889-6.668-2.423-4.847-6.133-9.07-8.585-13.975-1.752-3.505-4.274-6.95-6.668-10.141-1.934-2.578-3.829-4.326-6.668-6.029-2.788-1.673-5.231-5.259-7.613-7.641-2.861-2.861-5.829-3.277-7.307-6.974-.611-1.53-1.211-2.958-1.584-4.445-.629-1.575.306-5.985.306-7.946v-6.334c0-2.941.708-6.036 1.278-8.891.624-3.117 2.333-5.55 4.751-7.001 1.646-.988 5.111-.639 7.001-.639 3.557 0 4.112 2.009 4.112 5.084 0 3.192 2.751 6.226 3.501 9.224.758 3.031 2.693 4.257 4.14 6.668 1.134 1.89 1.25 7.19 1.25 9.502 0 4.306-.248 7.82 2.223 11.114 2.078 2.77 3.966 5.656 5.723 8.585 1.761 2.934 3.826 5.456 5.39 8.585.972 1.943 3.237 4.928 5.084 5.39.424.106.855.2 1.278.306 3.541.885 5.112 3.528 7.307 5.724 2.504 4.381 9.043 6.819 12.697 10.475 2.413 2.413 5.129 6.145 6.668 9.224 1.783 3.566 5.183 5.098 9.836 6.029 6.224 1.244 7.297 5.14 11.446 8.251 1.987 1.491 4.63 2.74 6.335 4.446 1.966 1.965 4.284 3.312 6.362 5.39 2.597 2.597 7.743 3.945 11.113 5.39 3.937 1.687 7.789 2.86 11.753 4.446 2.826 1.13 5.924 4.558 8.558 5.084 2.775.555 5.867 2.699 7.946 4.779 1.714 1.714 4.469 3.984 6.668 5.084 2.291 1.146 4.316 3.27 6.668 4.445 2.276 1.138 6.085 2.41 7.946 3.807 2.238 1.679 6.863 4.445 9.835 4.445 2.11 0 4.115.422 5.391-1.278 1.113-1.484 3.177-3.906 1.583-6.028-1.928-2.573-3.956-4.216-6.974-5.724-2.66-1.331-7.517-3.167-10.475-3.167-1.717 0-8.191-.915-9.529-1.918-2.041-1.531-5.954-3.131-8.585-4.445-4.369-2.185-8.68-7.394-13.337-8.558-2.499-.625-6.654-1.104-8.891-2.223-.635-.317-1.254-.654-1.889-.973-2.925-1.462-5.367-3.144-7.613-5.39-2.114-2.114-2.997-3.299-5.418-4.751-2.325-1.396-4.409-3.497-6.974-4.779-3.231-1.615-4.655-5.022-7.946-6.668-2.214-1.107-4.127-1.424-6.334-2.528-3.225-1.612-5.86-3.123-5.085-7.001.563-2.81 1.219-4.004 3.473-5.695 1.867-1.4 4.145-2.758 6.669-1.917 3.658 1.219 8.313 2.096 11.446 4.445 2.893 2.169 6.017 3.873 8.891 6.029.424.318.904.598 1.278.973 1.769 1.768 5.346 2.906 7.613 3.473 3.841.96 7.218 4.887 10.779 6.668 2.724 1.362 4.811 1.947 7.308 3.195 3.848 1.924 8.173 3.154 10.808 6.668 2.639 3.518 10.126 3.721 13.976 6.029 4.01 2.406 8.746 4.54 13.003 6.668 2.47 1.235 7.245.64 10.474.64h21.922c6.54 0 10.304 1.739 16.504 3.807 5.307 1.769 10.703 4.321 16.197 5.695 3.808.951 7.114 3.214 10.808 4.445 5.442 1.813 10.805 4.14 16.504 4.14 5.058 0 9.412 4.14 14.281 4.14 3.646 0 4.748-1.833 7.641-2.556 2.672-.669 1.642-3.091 0-3.501-2.954-.738-6.184-2.327-9.225-2.834-4.372-.729-6.375-3.188-10.169-5.084-3.976-1.988-7.288-5.346-11.113-7.641-2.286-1.372-4.88-2.529-7.613-2.529-3.621 0-7.182-1.708-10.779-2.223-4.655-.665-9.199-2.223-13.976-2.223-6.065 0-11.702.008-17.476-1.917-4.374-1.458-8.135-1.77-12.392-2.834-3.113-.777-7.585-.122-10.475-1.277-5.515-2.206-12.677.685-17.782-1.584-3.583-1.593-11.18-4.665-10.141-9.863.271-1.348 1.646-6.335 3.807-6.335 3.211 0 6.005-.944 9.196-.944 5.662 0 11.354-.17 16.503 1.889 2.331.932 7.177 4.14 10.169 4.14.318 0 .638-.077.945 0 3.508.877 7.062.847 10.502 2.223 4.893 1.956 10.741 4.748 15.864 6.028 4.167 1.042 9.084 2.472 13.031 4.446 1.896.947 5.29 1.802 6.974 2.223 1.686.421 5.433 1.583 7.307 1.583h1.278c4.34 0 7.385 2.528 11.725 2.528 3.801 0 8.866 1.452 12.392 2.862 2.37.948 7.565 1.277 10.169 1.277.317.106.61.306.944.306 6.828 0 13.66.973 20.338.973h73.655c5.368 0 13.395-.16 18.728 0 4.66.141 6.852 1.251 11.447 1.251 3.973 0 8.121-2.529 12.058-2.529h15.253c3.102 0 6.337-.639 9.502-.639 4.436 0 7.601-1.53 11.753-2.223.626.157 1.079.474 1.917.333 3.982-.663 4.031-2.362 6.974-3.834 3.036-1.518 4.7-2.289 8.252-3.473 3.422-1.141 5.979-1.917 9.53-1.917 4.393 0 7.852-1.117 12.086-2.528 4.027-1.343 10.092-2.032 13.642-3.807 1.618-.81 5.514.182 6.668-.973 1.107-1.107 1.658-3.683 3.807-4.111 2.276-.456 4.876-.567 7.307-.973 3.235-.539 5.11-1.11 7.946-2.528 3.163-1.582 2.978-2.033 5.084-4.14.586-.587 2.327-2.747 3.168-3.167 1.23-.615 3.406-1.824 4.751-3.167 1.609-1.61 3.12-1.618 4.778-2.862 1.646-1.234 3.319-1.538 5.085-2.861.745-.559 3.473-2.241 3.473-3.501v-1.25c0-2.991-1.857-5.252-5.084-4.445-2.1.525-3.541 2.058-5.391 3.167-3.837 2.302-6.621 3.796-10.475 5.724-2.747 1.374-5.169 2.223-8.251 2.223h-8.586c-1.318 0-6.348.644-6.668-.639-.464-1.851-2.157-5.261-.306-5.724 1.378-.345 2.777-1.689 4.112-2.223 2.006-.802 3.875-2.243 5.724-3.167 2.091-1.046 4.129-1.746 6.362-2.862 2.296-1.148 4.019-2.332 6.668-2.862 2.134-.427 3.913-.738 6.029-1.583 1.854-.742 5.244-2.717 6.668-4.14 1.972-1.973 4.549-2.417 6.668-4.112 1.938-1.55 3.815-1.802 4.751-4.14.919-2.298.279-4.845.973-7.613.542-2.167 1.364-4.265 1.89-6.363.688-2.753 1.947-5.511 2.861-8.251.105-.317.224-.62.306-.945.796-3.186 2.556-5.308 2.556-8.891 0-2.69-.117-6.63-3.5-7.307-1.611-.322-5.829-1.109-7.308 0-1.812 1.359-2.528 2.47-2.528 4.779v6.974c0 3.36-.639 6.545-.639 9.835 0 2.72-1.917 4.802-1.917 7.001 0 1.523-1.252 4.114-2.223 5.084-1.485 1.485-2.388 2.692-3.807 4.112-1.058 1.058-2.73 2.49-4.751 3.501-3.545 1.772-7.076 3.436-11.113 4.445-3.038.759-6.249 1.977-9.225 3.167-1.017.406-9.836 2.728-9.836 3.5-.953.317-1.964.496-2.861.945-2.682 1.34-5.225 1.601-7.612 2.556-1.615.646-4.288 1.491-6.362 2.528-2.3 1.149-4.939 2.582-7.28 3.167-.423.105-.854.227-1.277.333-4.168 1.042-8.935 4.112-13.337 4.112-3.107 0-7.312 3.174-10.474 3.806-4.447.89-9.39 2.862-13.976 2.862-3.573 0-7.152-.357-10.475.973-2.992 1.196-8.399-1.219-11.447.305-2.984 1.493-7.561 3.27-10.779 3.807-4.981.83-10.796.945-15.56.945h-16.197c-5.924 0-11.685.827-17.478 0-2.692-.385-5.542-1.25-8.251-1.25-2.521 0-5.103-.639-7.613-.639-2.448 0-4.963-.333-7.307-.333-2.192 0-7.234.623-7.946-2.223-.542-2.168-.631-6.368 0-8.891.507-2.025 2.173-3.019 4.445-3.473 2.539-.508 5.582-1.278 8.252-1.278 2.867 0 6.443.557 9.224 0 2.627-.525 5.511-.306 8.252-.306h13.642c4.806 0 9.562-.333 14.31-.333h7.613c3.454 0 7.431.563 10.808 0 2.83-.471 6.69-1.278 9.196-1.278 3.688 0 7.025-1.25 10.808-1.25 2.728 0 5.569.05 8.252-.333a64.245 64.245 0 0 1 9.196-.639c3.803 0 8.433-1.014 12.059-2.223 3.471-1.158 7.467-2.834 11.113-2.834 3.182 0 7.058-.833 10.169-1.612 2.297-.574 5.459-1.684 7.612-2.223 1.812-.453 3.784-.997 5.418-2.223 2.105-1.579 3.912-2.834 6.668-2.834 2.232 0 5.681-3.286 7.613-4.445 2.681-1.608 5.13-1.788 7.946-3.195 2.163-1.082 4.289-3.664 6.974-4.112 2.663-.444 8.13-3.725 10.169-5.084 1.962-1.309 5.338-3.903 6.028-6.668.652-2.61 3.498-3.461 4.141-6.029.579-2.317.944-3.209.944-6.029v-6.668c0-2.802-1.901-4.468-3.168-7.001-1.182-2.365-2.898-3.961-4.14-6.029-1.423-2.371-2.957-5.485-5.084-7.613-1.922-1.921-4.006-1.917-6.668-1.917-2.748 0-6.395-.609-8.891.639-1.937.968-5.302 3.183-3.168 6.029 1.623 2.164 3.468 3.166 6.029 3.807 1.599.4 3.616.639 6.029.639 1.903 0 4.705.26 6.029 1.583 1.035 1.036 5.084 3.008 5.084 5.084 0 3.062-.32 3.835-1.584 6.362-1.047 2.094-2.528 2.488-2.528 5.084 0 3.217-.121 4.579-1.917 6.974-1.597 2.129-3.227 3.591-4.445 6.029-1.154 2.31-2.884 2.795-5.084 4.445-2.044 1.532-4.35 1.934-6.668 2.862-2.913 1.165-6.731 1.767-9.53 3.167-2.975 1.487-6.32 2.698-9.529 3.501-2.883.721-5.082 2.152-7.919 2.862-3.778.944-7.745 2.326-11.446 3.806-1.948.779-4.383 2.528-6.669 2.528-2.486 0-5.851.601-8.251 0-.424-.106-5.301 1.384-5.724 1.278-6.052 3.025-6.266.717-12.697 2.861-4.777 1.593-12.134 1.942-16.81 3.501-7.798 2.6-16.744 1.583-25.089 1.583-6.418 0-12.429 1.278-18.754 1.278-4.445 0-8.892 1.583-13.337 1.583h-19.031c-5.978 0-11.434-.958-17.143-2.862-6.473-2.157-14.437-3.5-21.283-3.5h-23.172c-5.297 0-9.744-2.223-14.948-2.223-7.74 0-14.815-2.862-22.532-2.862-5.515 0-11.063-1.25-16.504-1.25-3.792 0-10.215-1.174-13.669-2.556-3.563-1.425-6.753-.829-10.142-2.861-2.616-1.571-5.84-1.795-8.585-3.167-2.179-1.09-8.729-3.501-10.808-3.501-2.151 0-4.157-1.601-6.335-2.223-3.374-.964-6.431-1.797-9.225-3.473-2.27-1.362-4.597-2.587-6.668-4.14-1.996-1.497-3.376-1.521-5.39-2.528-1.93-.964-2.07-3.621-3.807-4.779l-1.917-1.278c-1.664-1.11-4.201-1.763-5.057-3.473-.571-1.144-1.336-4.552-2.223-6.029-1.376-2.293-1.611-3.754-1.611-6.668v-5.084c0-1.813-.438-4.272 0-6.029.382-1.526.7-4.202 1.611-5.418 1.352-1.801 2.653-2.767 4.751-4.445 1.87-1.496 3.308-2.779 5.085-4.112 1.437-1.078 3.452-2.527 4.751-3.501 2.258-1.693 3.671-2.698 5.723-4.751 1.499-1.498 3.54-2.594 5.085-4.14 1.115-1.116 2.313-2.718 4.112-3.167 1.072-.268 5.948.457 7.001-.333 1.962-1.471 3.89-1.25 6.335-1.25h7.001c1.732 0 5.724-1.991 5.724-4.14v-1.584c.001-3.202-1.758-2.223-4.778-2.223-2.073 0-4.298.769-6.335 1.278-1.882.47-3.542 1.209-5.418 1.583-1.982.397-4.508.337-6.335 1.25-1.537.769-5.209.765-6.362 1.917-1.653 1.654-4.001 2.723-6.029 4.751-1.621 1.622-5.373 3.802-7.945 4.445-2.49.623-3.794 1.925-6.335 3.195-1.244.623-4.51 2.596-5.418 3.806-1.39 1.854-3.437 2.255-4.751 4.445-.317.529-.574 1.09-.944 1.584-1.611 2.147-2.813 4.49-4.445 6.668-1.239 1.652-1.918 3.736-1.918 5.724 0 2.631-.639 5.003-.639 7.612v8.252c0 4.095 3.123 4.3 4.779 7.613.932 1.863 1.405 4.42 2.861 6.362 1.087 1.449 3.032 3.071 4.751 3.501 2.301.575 3.211 1.656 5.39 2.528 1.597.638 2.861 2.271 4.779 3.806 1.774 1.42 3.4 2.066 5.39 2.862 1.817.727 3.81 1.744 5.724 2.223 1.957.489 3.613 1.39 5.695 2.223 1.989.796 4.062 2.17 5.724 3.501 1.662 1.329 3.389 3.111 5.391 4.112 2.143 1.071 3.293 2.17 6.057 2.862 2.738.685 6.187.972 8.891.972 3.66 0 8.167.263 11.419 1.89 2.159 1.079 4.34 1.625 6.668 2.556 2.668 1.066 5.598.188 8.252 1.25 2.112.845 3.319 1.595 5.724 2.556 2.802 1.121 5.62 1.488 8.558 2.223 2.076.519 4.433.639 6.668.639 2.258 0 6.272-.699 8.279.306 3.137 1.568 6.722 2.646 10.142 3.5 2.83.708 6.26.306 9.224.306h17.783c3.618 0 5.687 1.2 8.557 1.917 2.037.509 3.001 1.89 5.418 1.89 1.886 0 4.685-.492 6.335.333 2.084 1.042 1.503 4.544 3.807 5.696 1.468.734 4.968 2.614 1.917 3.834-1.878.751-3.809 1.889-6.029 1.889h-35.258c-5.197 0-10.738.549-15.864-.306-6.055-1.009-11.893-3.122-17.781-5.084-4.103-1.368-9.253-1.917-13.031-3.806-3.932-1.966-8.185-2.354-12.392-3.195-3.72-.744-7.421-1.911-11.113-2.834-3.655-.914-7.688-.984-11.419-1.917-3.648-.912-7.393-1.598-11.113-2.528-4.768-1.192-9.595-2.801-14.281-4.14-5.115-1.462-10.681-2.403-15.893-4.14-4.064-1.354-7.241-4.855-10.474-7.279-.423-.317-.854-.654-1.278-.972-2.729-2.047-6.458-3.263-8.891-5.696-2.137-2.137-5.3-3.187-6.974-5.418-1.813-2.417-3.37-5.326-5.085-7.613-1.281-1.709-3.601-2.363-4.111-4.917-.105-.106-.305-.187-.334-.333-.451-2.258-1.824-5.058-2.223-7.446-.402-2.414-.606-5.183 0-7.613.65-2.602.588-4.177 1.584-6.668.747-1.867 1.876-3.219 3.195-5.417 1.882-3.138 4.61-6.053 6.028-8.891 1.137-2.272 2.706-3.515 4.112-5.39 1.555-2.072 2.756-4.006 4.779-6.029 1.515-1.515 1.951-2.843 4.111-4.14 2.206-1.323 4.254-3.602 6.362-4.445 2.911-1.164 5.121-3.389 7.946-5.084 2.062-1.236 4.521-2.631 6.335-4.446 1.593-1.592 3.024-2.433 5.084-3.806 3.279-2.185 5.776-1.923 9.53-2.862 2.673-.668 5.672-.551 8.252-1.583 2.253-.901 5.039-4.445 7.612-4.445 2.933 0 5.642-.306 8.585-.306h26.034c.301 0 6.362.271 6.362-.333.001-2.414.944-4.244.944-6.668 0-1.738.451-4.013-1.278-4.445-2.369-.593-4.744-.947-7.307-.306-.423.106-.827.2-1.25.306-2.939.735-6.244.533-9.225 1.278-1.816.454-3.97 1.917-6.335 1.917-2.814 0-5.865 1.04-8.585 1.584-.528.106-1.054.2-1.584.305-.968.243-1.747.083-2.861.639a29.738 29.738 0 0 1-6.029 2.223c-2.48.621-3.778 1.661-6.029 2.223-1.756.439-3.183.64-4.778 1.278-1.928.771-3.633 2.223-6.335 2.223-2.781 0-5.088 1.278-7.641 1.278-2.755 0-4.902 1.89-6.974 1.89-2.483 0-2.891 2.556-5.724 2.556-.668 0-6.419.008-6.334-.333.683-2.733 1.34-3.699 4.111-5.084 1.67-.835 2.924-1.12 4.779-1.583 1.662-.416 3.078-.864 4.445-1.89 1.363-1.022 3.64-2.778 5.084-3.5.892-.446 2.972-2.223 4.445-2.223 1.842 0 3.655-.205 5.391-.639.66-.165 5.39-.09 5.39-1.278 0-1.852.18-4.445-2.528-4.445-2.42 0-5.113-.124-7.307.973-2.221 1.11-3.975.467-6.362.944-2.042.409-4.957 1.584-6.974 1.584-2.703 0-3.595.975-6.029 1.583-2.151.538-4.252.74-6.362 1.583-1.904.762-4.309 2.272-6.669 2.862-2.116.529-3.511 1.847-5.39 2.223a18.305 18.305 0 0 0-5.724 2.223c-2.404 1.443-5.277 3.702-8.252 4.445-2.153.539-4.573 1.356-6.974 2.556-2.271 1.136-4.561 3.477-6.668 5.057-1.816 1.363-4.847 3.907-7.001 4.446-1.801.45-7.067 1.921-8.252 3.5-1.718 2.291-4.686 3.742-6.668 5.724-1.465 1.465-2.528 2.823-2.528 5.084.001 1.923-.124 4.799-1.917 5.696-.211.105-.472.166-.64.333-1.626 1.627-3.179 2.396-5.39 3.501-.423.212-.838.436-1.278.611-2.575 1.03-5.033 1.278-7.946 1.278-2.304 0-4.736.253-6.974-.306-1.893-.473-4.14-.06-4.14-2.556v-5.39c0-1.949.368-3.978 1.917-5.084 1.016-.725 6.209-3.526 6.668-4.446 1.092-2.183 2.776-2.81 4.14-5.084 1.193-1.988 3.895-5.641 6.669-6.335 2.594-.648 4.36-3.345 6.668-3.806 4.745-.949 10.198-6.057 14.92-6.057 2.964 0 5.733-1.656 8.251-3.167 2.254-1.353 4.2-2.51 6.335-4.112 2.161-1.62 4.836-1.768 7.002-3.5 2.138-1.71 5.729-2.556 8.557-2.556 2.167 0 5.237-2.956 7.308-3.473 2.504-.626 4.449-1.426 6.362-2.862 2.784-2.087 5.707-.96 8.558-2.862 2.233-1.488 3.849-2.528 7.001-2.528.716 0 5.018-.712 5.724-1.278 2.393-1.914 6.571-3.501 9.836-3.501h33.645c2.253 0 5.105.441 7.308 0 .74-.148 7.398.13 7.612-.944.294-1.466 1.061-5.549.334-7.001-.701-1.405-2.602-1.906-4.499-1.916zm-79.294 45.26c1.25.023 2.403.25 2.834 1.111.664 1.327 1.889 3.029 1.889 5.084 0 1.721-1.44 2.955-2.861 3.807-1.326.795-3.001 3.562-4.445 4.14-2.067.827-3.563 2.313-4.751 3.501-1.26 1.26-1.75 4.278-2.861 5.39-1.327 1.327-1.593 2.356-3.501 3.501-2.15 1.29-3.432 3.126-5.391 5.084-1.039 1.04-1.854 2.769-2.861 4.112-1.401 1.87-4.558 5.2-5.084 7.307-.598 2.393-.64 5.366-.64 7.946v7.918c0 2.947-1.452 5.723-4.751 5.723h-10.475c-1.873-.468-3.795-.306-5.724-.306-2.584 0-5.084.029-5.084-2.861v-4.779c0-2.146-.516-4.911 0-6.974.458-1.83 1.065-4.231 2.556-5.723 1.677-1.676 2.493-3.333 3.807-5.084.99-1.318 1.666-3.25 3.168-4.751 1.322-1.323 2.266-2.798 3.5-4.445 1.614-2.152 2.66-4.881 4.445-6.668 1.322-1.322 1.598-3.493 3.501-4.445 1.282-.641 1.492-2.663 3.167-3.5 1.586-.793 1.786-2.425 3.168-3.807 1.28-1.28 2.146-2.756 3.501-4.112 1.057-1.057 3.065-2.149 4.111-3.195.647-.646 3.049-3.473 4.779-3.473 1.515 0 3.618.367 5.084 0 1.344-.336 3.559-.333 5.391-.333.919-.001 2.278-.19 3.528-.168zm-93.382 6.196c2.961 0 5.39.785 5.39 3.807 0 3.016-.524 5.633-1.583 8.279-.885 2.212-1.937 4.191-2.556 6.668-.565 2.263-2.525 4.109-3.807 5.39-1.519 1.52-2.541 3.859-3.473 5.724-.211.423-.427.827-.639 1.25-1.225 2.452-2.223 5.036-2.223 7.946 0 2.634.306 5.028.306 7.613 0 2.388.639 5.059.639 7.641 0 3.356 1.598 4.752 2.861 7.279 1.17 2.338 2.548 4.917 4.112 7.001.317.423.655.855.972 1.278 1.581 2.107 3.158 4.892 4.112 7.279 1.044 2.61 2.044 5.027 4.779 6.668 2.608 1.564 4.347 3.359 5.695 6.057 1.885 3.77 4.558 5.892 6.362 9.502 1.22 2.438 2.624 4.636 3.807 7.002.762 1.521.396 4.446 0 6.029-.513 2.053-1.817 3.807-4.112 3.807-3.175 0-4.748-.639-7.307-1.278-2.353-.588-3.938-1.578-4.445-4.112-.561-2.808-3.072-6.24-5.084-8.252-1.921-1.921-2.471-2.964-4.446-4.445-2.187-1.64-3.246-4.319-4.778-6.362-1.647-2.197-2.545-3.097-4.751-4.751-2.073-1.556-3.304-3.796-4.751-5.724-1.066-1.422-1.539-3.239-1.917-4.751-.52-2.082-1.638-4.277-2.528-6.057-.954-1.909-1.468-4.161-2.556-6.334-.856-1.713-.944-3.438-.944-5.39v-25.088c0-3.522-.374-7.413.306-10.808.573-2.863 1.178-4.65 3.195-6.668 1.056-1.056 2.922-2.588 4.445-4.112.96-.96 2.655-1.451 3.167-3.5.398-1.594 2.131-3.408 3.167-4.445.437-.437.627-1.055.944-1.584.742-.423 1.482-.854 2.223-1.278 1.53-.876 3.504-1.281 5.418-1.281zm6.669 33.035c2.328 0 5.285.639 7.612.639 2.161 0 3.843.168 5.724.639 1.189.297 2.873 1.289 4.112 2.528 1.351 1.351 2.553 3.203 2.861 4.751.498 2.486 1.633 3.361 2.223 5.724.446 1.783.64 3.446.64 5.724v5.084c0 2.894-.051 5.492.639 8.252.532 2.128 1.847 5.653 3.501 7.307 1.08 1.08 1.957 2.901 3.167 4.112 1.178 1.178 2.097 2.636 3.501 3.807 2.235 1.863 3.738 3.127 5.695 5.084 1.186 1.185 2.288 2.593 3.501 3.806 1.409 1.409 3.974 2.251 5.39 4.14 1.318 1.757 2.621 2.488 4.14 3.501 1.824 1.216 4.171 2.252 5.724 3.806 1.276 1.276 3.997 2.485 6.029 3.501 1.41.705 3.714 1.888 5.39 2.223 1.922.384 5.271 1.29 6.363 3.473.893 1.784 3.831 3.686 5.695 5.084 2.479 1.858 4.365 3.766 7.001 5.084.424.212.828.428 1.251.639 2.308 1.154 1.984 4.245-.306 5.39-1.954.977-2.37 2.91-4.612 3.806-2.117.848-4.01.973-6.335.973-3.661 0-3.072-.134-6.028-1.611-1.783-.892-9.394-4.445-11.28-4.445-2.853 0-8.156-6.573-10.475-8.891-4.688-4.687-11.513-6.734-15.893-11.113-2.705-2.706-6.762-3.901-9.53-6.668-2.987-2.988-6.036-5.835-8.557-9.196-2.009-2.678-4.566-3.622-6.668-5.723-2.522-2.523-4.09-6.297-6.029-9.53-1.172-1.954-1.888-5.34-3.195-6.974-1.723-2.153-2.802-5.025-4.751-6.974-2.184-2.184-2.686-6.639-3.167-9.53-.601-3.607-2.862-8.306-1.917-12.086.354-1.415 3.418-3.965 3.667-4.028 1.484-1.932 2.497-2.308 4.917-2.308zm58.095 33.229c1.777-.032 3.513.106 4.778 1.056 2.529 1.896 4.963 4.374 5.696 7.307.507 2.025 1.875 3.764 3.5 5.39 1.98 1.979 4.421 2.76 6.669 4.446 1.879 1.409 3.691 3.124 5.723 4.14 2.838 1.418 3.459 4.609 6.335 6.334 2.604 1.563 4.478 2.894 6.668 5.084 1.799 1.798 4.146 2.228 5.724 3.807 1.827 1.826 5.787 1.036 7.946 3.195 1.861 1.861 5.834 3.145 8.252 4.112 3.061 1.224 4.824 1.917 8.252 1.917 2.773 0 4.805.901 6.974 2.528 2.006 1.504 6.388.972 8.891.972 2.385 0 4.687.611 7.001.611 2.831 0 5.761.639 8.558.639 3.614 0 6.791 1.354 10.169 1.917 2.14.356 3.536-.446 5.39.945 2.174 1.629 4.93 2.4 6.669 4.14.721.722.333 4.09.333 5.39 0 1.777-2.16 5.032-2.862 6.668-.845 1.973-3.081 1.278-5.084 1.278h-14.92c-1.715 0-5.196-1.696-6.362-2.862-1.478-1.479-5.104-1.277-7.279-1.277-1.652 0-3.95-.358-5.418-.945-2.727-1.091-6.14-2.563-8.558-3.167-1.624-.406-2.968-1.484-4.445-2.223-2.029-1.016-3.698-1.058-5.418-1.917-1.903-.953-3.821-1.143-6.028-1.584-1.235-.247-3.386-.979-4.585-1.278-2.49 0-6.402-1.973-8.752-3-4.124-1.805-9.804-4.647-13.336-7.002-.635-.423-1.278-.82-1.89-1.278-2.47-1.853-6.599-4.857-9.529-6.029-2.813-1.125-6.655-3.974-9.225-6.029-3.425-2.741-6.231-2.316-8.891-5.862-2.892-3.856-8.176-8.841-12.058-11.752-4.774-3.581-4.399-10.061-.306-13.336 2.757-2.205 9.409-2.223 8.251-2.223 1.023-.001 2.102-.092 3.167-.112zm380.971 51.623c1.078-.021 2.104.047 2.918.25 2.172.543 4.93.919 6.668 2.223.423.318.854.627 1.278.944 1.154.867 3.474 2.174 3.806 3.501.521 2.083.945 3.619.945 6.029 0 2.686-.776 4.751-4.112 4.751-1.745 0-4.943 1.055-6.668 1.917-2.277 1.139-5.632 1.278-8.585 1.278h-10.142c-3.071 0-6.671-.409-9.529.306-1.979.494-3.479 1.738-5.418 2.223-1.211.303-5.286 1.23-6.029 2.223-.317.212-.716.334-.944.639-1.416 1.887-3.106 2.817-5.085 3.807-1.394.697-3.86 2.702-5.724 3.168-2.327.582-5.633 1.719-7.918 2.861-2.613 1.307-5.217 1.584-8.252 1.584h-9.224c-2.707 0-6.277.653-8.892 0-2.925-.731-4.81-2.352-7.612-3.474-2.457-.982-3.839-1.952-5.084-4.445-.964-1.927-1.917-3.63-1.917-6.057 0-.878-.421-7.462.333-7.612 2.172-.435 7.714-.381 9.141-.334h.028c1.898-.138 2.081-1.556 4.807-1.556h18.42c3.633 0 8.755-.571 12.059-2.223 3.037-1.519 7.672-2.556 11.113-2.556 3.015 0 6.281-.362 9.196-.945 2.998-.6 6.149-1.071 9.225-1.583 3.943-.657 4.445-2.24 7.612-4.14 3.18-1.908 4.936-1.493 8.585-2.223 1.29-.259 3.204-.522 5.001-.556zm-244.747 10.974c.274-.011.563-.003.861 0 .795.008 1.682.056 2.64.056 2.643 0 5.101.137 7.612.639 2.973.594 6.482 1.278 9.53 1.278 3.599 0 7.948.623 11.113 1.89 2.757 1.103 7.177.68 10.169 1.278 2.389.478 5.05.333 7.612.333 2.07 0 3.694-.327 5.391.944 3.723.457 7.322.64 11.113.64h40.342c3.422 0 7.464-.523 10.78.306 3.177.794 7.486 0 10.808 0 2.316 0 4.504.333 6.668.333 2.721 0 4.141 3.501 5.696 5.057 1.357 1.357 1.612 4.483 1.612 6.362 0 2.747-.156 4.624-.973 6.668-1.083 2.705-3.35 2.223-5.697 2.223h-57.79c-2.96 0-5.465-.944-8.585-.944-2.559 0-4.702-.333-7.307-.333-3.766 0-6.629-1.633-10.169-2.223-2.378-.396-5.069-2.223-6.668-2.862-1.986-.794-3.939-1.25-6.335-1.25-3.238 0-6.807.272-9.836-.333-3.684-.737-6.633.048-9.863-1.89a11.148 11.148 0 0 0-5.695-1.584c-3.356 0-5.897-1.605-9.224-2.556-2.396-.685-3.855-1.02-6.029-1.89-3.061-1.224-2.434-5.36-1.917-7.946.086-.428.229-.855.333-1.278.581-2.319 1.891-2.842 3.808-2.918z"/><path fill="#DB006D" stroke="#000" stroke-width="2" d="M1144.627 541.052a4.828 4.828 0 0 1-4.829 4.828 4.828 4.828 0 1 1 0-9.657 4.829 4.829 0 0 1 4.829 4.829zm26.389-28.704a4.828 4.828 0 1 1-9.657.001 4.828 4.828 0 0 1 9.657-.001z"/><path fill="#7F8C46" stroke="#FFF" stroke-width="1.564" d="M1003.648 499.136s66.595-3.066 91.3 38.3c0 0 5.907 10.341 0 12.519-5.908 2.178-12.89-5.443-12.89-5.443s-33.297-39.733-76.799-39.733c0 0-34.908-3.265-89.151 21.229 0 0-11.277 9.252-16.648-2.178s12.353-15.784 12.353-15.784 35.981-8.711 91.835-8.91z"/><path fill="#7F8C46" stroke="#FFF" stroke-width="1.564" d="M1001.148 524.502s81.608-3.501 111.884 43.732c0 0 7.239 11.808 0 14.294-7.239 2.485-15.795-6.215-15.795-6.215s-40.805-45.369-94.114-45.369c0 0-42.779-3.729-109.252 24.238 0 0-13.82 10.564-20.401-2.485-6.582-13.052 15.137-18.024 15.137-18.024s44.094-9.944 112.541-10.171z"/><path fill="none" stroke="#FFF" stroke-width="1.5" stroke-linecap="round" d="M987.783 470.216c-.786 4.71-1.227 18.66-.261 28.87m152.536-30.136c-1.037.741.46 18.953.46 21.619 0 5.793-3.663 10.972-5.06 16.559-1.297 5.188-3.397 10.476-5.979 15.639-3.636 7.271-7.874 13.908-11.499 21.158-3.131 6.263-6.94 11.289-11.696 15.609m133.566-153.7c-3.902 20.123-24.444 32.922-34.498 49.677-.504.841-1.227 1.533-1.84 2.299-2.712 3.392-4.431 6.313-6.438 9.66-2.309 3.846-3.631 7.261-5.521 11.038-2.736 5.475-5.81 6.508-9.659 11.499-4.611 5.98-7.321 10.586-11.499 17.019-2.976 4.584-8.127 13.585-13.799 14.72-3.034.606-9.194 6.173-11.499 7.819-.066 2.11-1.227.613-1.84.919m-178.433-58.848c-1.151 4.69-4.745 14.006-5.771 20.162-.556 2.746-3.445 9.064-3.707 9.5"/><path d="m550.625 121.861 99.063 79.256 1.109-1.39-99.063-79.256-1.109 1.39z"/><path stroke="#000" stroke-width="1.6" d="m629.281 183.668-12.833-1.158 33.778 17.915-24.869-29.005 3.924 12.248z"/><path fill="none" d="M295.345 68.005h390v152h-390z"/><text transform="translate(295.345 119.124)" font-family="'MyriadPro-Regular'" font-size="72">Vacuole</text></svg>