<svg xmlns="http://www.w3.org/2000/svg" viewBox="0 0 512.001 512.001" style="enable-background:new 0 0 512.001 512.001" xml:space="preserve"><path style="fill:#ea9b22" d="M256.001 0C141.991 84.148 34.624 56.656 34.624 56.656v62.414c0 215.645 81.453 340.758 221.377 392.931 139.924-52.173 221.377-177.285 221.377-392.931V56.656c.001 0-107.367 27.492-221.377-56.656z"/><path style="fill:#ce841c" d="m256.006 483.726-2.194-.91c-35.578-14.766-66.705-35.093-92.517-60.414-17.556-17.217-32.932-37.022-45.701-58.865-36.24-62.003-54.615-144.254-54.615-244.47V86.814l5.966.253c3.87.164 7.828.247 11.764.247 42.03-.011 106.369-9.236 174.189-53.122l3.109-2.012 3.109 2.012c25.239 16.329 51.973 29.115 79.465 38.003 31.073 10.032 62.939 15.119 94.712 15.119 3.947 0 7.905-.084 11.765-.247l5.966-.253v32.253c0 100.234-18.376 182.486-54.616 244.47-31.706 54.236-78.206 94.367-138.206 119.279l-2.196.91zM72.425 98.693v20.374c0 98.158 17.849 178.467 53.051 238.693 12.256 20.965 27.005 39.964 43.835 56.47 24.233 23.772 53.389 42.972 86.696 57.092 56.585-23.993 100.485-62.19 130.518-113.563 35.202-60.209 53.052-140.517 53.052-238.693V98.693c-2.088.045-4.188.068-6.284.068-32.967 0-66.017-5.272-98.23-15.673-27.315-8.831-53.893-21.372-79.054-37.295C186.985 89.485 121.64 98.749 78.711 98.76c-2.095 0-4.196-.022-6.286-.067z"/><path style="fill:#19b783" d="M445.299 92.785v26.281c0 99.197-18.109 180.478-53.835 241.581-31.089 53.181-76.624 92.454-135.459 116.882-35.027-14.537-65.349-34.34-90.703-59.212-17.24-16.907-32.188-36.148-44.769-57.668-35.712-61.103-53.832-142.385-53.832-241.581V92.786a284.5 284.5 0 0 0 12.006.252c43.967-.013 108.892-9.777 177.297-54.04 27.917 18.063 55.253 30.379 80.813 38.644 37.087 11.973 70.454 15.396 96.473 15.396 4.214-.001 8.231-.092 12.009-.253"/><path style="fill:#f23488" d="M142.775 108.171h98.91v17.17h-98.91zm63.529 33.378h35.39v17.17h-35.39zm-75.548 33.378h110.929v17.17H130.756zm68.108 33.39h42.829v17.17h-42.829zm-95.58 0h84.133v17.17h-84.133zm27.472 33.39h110.929v17.17H130.756zm41.208 33.379h69.728v17.17h-69.728zm69.729 50.555H123.89v-17.17h117.803v17.17m0 33.384H190.85v-17.17h50.843v17.17m0 33.385H163.38v-17.17h78.313v17.17m0 33.384h-47.408v-17.17h47.408v17.17"/><path style="fill:#36725c" d="M380.672 125.335H270.31v-17.17h110.362v17.17m-39.878 33.384H270.31v-17.17h70.484v17.17m69.822 0H352.24v-17.17h58.376v17.17m-63.527 33.384H270.31v-17.17h76.779v17.17m34.34 33.384H270.31v-17.17h111.119v17.17m25.753 33.386H270.31v-17.17h136.872v17.17m-36.055 33.384H270.31v-17.17h100.817v17.17m-42.922 33.384H270.31v-17.17h57.895v17.17m29.188 33.384H270.31v-17.17h87.083v17.17m-27.471 33.385H270.31v-17.17h59.612v17.17m-23.651 33.384H270.31v-17.17h35.961v17.17"/><path style="fill:#43ca98" d="M194.285 425.794v-17.17h47.409v17.17h-47.409m76.025 0v-17.17h35.961v17.17H270.31m0-33.384v-17.17h59.612v17.17H270.31m0-33.385v-17.17h87.083v17.17H270.31m0-33.384v-17.17h57.895v17.17H270.31m0-33.384v-17.17h100.816v17.17H270.31m81.93-133.538v-17.17h58.376v17.17H352.24m-15.422-81.078a840.357 840.357 0 0 1-7.034 30.524h50.886v17.171h-55.374a831.538 831.538 0 0 1-4.599 16.214h20.096v17.17h-25.359a803.706 803.706 0 0 1-5.355 16.214h37.01v17.17h-43.106a771.573 771.573 0 0 1-6.177 16.215h83.622v17.17H290.8a741.88 741.88 0 0 1-7.084 16.215h123.467v17.17H275.686c-9.971 20.603-21.243 41.316-33.994 61.764v5.004h-3.154a613.165 613.165 0 0 1-10.691 16.214h13.845v17.17h-26.018a573.36 573.36 0 0 1-12.39 16.215h38.408v17.17h-52.588a535.184 535.184 0 0 1-23.802 25.906c25.354 24.874 55.676 44.676 90.703 59.212 58.836-24.427 104.369-63.701 135.459-116.882 35.725-61.103 53.835-142.385 53.835-241.581v-26.28c-3.779.16-7.795.252-12.008.252-26.019-.001-59.385-3.423-96.473-15.397"/><path style="fill:#ce729c" d="M241.693 320.636a595.468 595.468 0 0 1-3.154 5.004h3.154v-5.004m0 21.219h-13.845a588.516 588.516 0 0 1-12.173 17.17h26.018v-17.17m0 33.385h-38.408a556.72 556.72 0 0 1-14.18 17.17h52.588v-17.17m0 33.384h-47.408v17.17h47.408v-17.17"/><path style="fill:#53a585" d="M380.672 108.165h-50.886a838.525 838.525 0 0 1-4.488 17.171h55.374v-17.171m-39.878 33.384h-20.096a827.481 827.481 0 0 1-5.263 17.17h25.359v-17.17m69.822 0H352.24v17.17h58.376v-17.17m-63.527 33.384h-37.01a792.914 792.914 0 0 1-6.095 17.17h43.106v-17.17m34.339 33.384h-83.622a744.637 744.637 0 0 1-7.008 17.17h90.63v-17.17m25.753 33.386H283.715a713.141 713.141 0 0 1-8.028 17.17h131.496v-17.17m-36.056 33.384H270.31v17.17h100.817v-17.17m-42.922 33.384H270.31v17.17h57.895v-17.17m29.188 33.384H270.31v17.17h87.083v-17.17m-27.471 33.385H270.31v17.17h59.612v-17.17m-23.651 33.384H270.31v17.17h35.961v-17.17"/></svg>