<svg xmlns="http://www.w3.org/2000/svg" viewBox="0 0 512 512" style="enable-background:new 0 0 512 512" xml:space="preserve"><path d="M249.429 214.144c-3.968-1.685-8.576-.747-11.627 2.304l-21.333 21.333c-4.16 4.16-4.16 10.923 0 15.083s10.923 4.16 15.083 0l3.115-3.115V288c0 5.888 4.779 10.667 10.667 10.667S256 293.888 256.021 288v-64c0-4.309-2.602-8.213-6.592-9.856zm64 0c-3.947-1.685-8.576-.747-11.627 2.304l-21.333 21.333c-4.16 4.16-4.16 10.923 0 15.083s10.923 4.16 15.083 0l3.115-3.115V288c0 5.888 4.779 10.667 10.667 10.667S320 293.888 320.021 288v-64c0-4.309-2.602-8.213-6.592-9.856zm64 0c-3.968-1.685-8.555-.747-11.627 2.304l-21.333 21.333c-4.16 4.16-4.16 10.923 0 15.083s10.923 4.16 15.083 0l3.115-3.115V288c0 5.888 4.779 10.667 10.667 10.667s10.667-4.779 10.688-10.667v-64a10.668 10.668 0 0 0-6.593-9.856zm-196.096-.811h-42.667c-5.888 0-10.667 4.779-10.667 10.667v64c0 5.888 4.779 10.667 10.667 10.667h42.667c5.888 0 10.667-4.779 10.667-10.667v-64c0-5.888-4.779-10.667-10.667-10.667zm-10.666 64h-21.333v-42.667h21.333v42.667zm142.762 64.811c-3.947-1.664-8.576-.747-11.627 2.304l-21.333 21.333c-4.16 4.16-4.16 10.923 0 15.083s10.923 4.16 15.083 0l3.115-3.115V416c0 5.888 4.779 10.667 10.667 10.667S320 421.888 320.021 416v-64c0-4.309-2.602-8.213-6.592-9.856zm64 0c-3.968-1.664-8.555-.747-11.627 2.304l-21.333 21.333c-4.16 4.16-4.16 10.923 0 15.083s10.923 4.16 15.083 0l3.115-3.115V416c0 5.888 4.779 10.667 10.667 10.667s10.667-4.779 10.688-10.667v-64a10.668 10.668 0 0 0-6.593-9.856zm-213.333 0c-3.968-1.664-8.576-.747-11.627 2.304l-21.333 21.333c-4.16 4.16-4.16 10.923 0 15.083s10.923 4.16 15.083 0l3.115-3.115V416c0 5.888 4.779 10.667 10.667 10.667s10.667-4.779 10.688-10.667v-64a10.67 10.67 0 0 0-6.593-9.856zm81.237-.811h-42.667c-5.888 0-10.667 4.779-10.667 10.667v64c0 5.888 4.779 10.667 10.667 10.667h42.667c5.888 0 10.667-4.779 10.667-10.667v-64c0-5.888-4.779-10.667-10.667-10.667zm-10.666 64h-21.333v-42.667h21.333v42.667z"/><path d="M437.333 0H202.667c-1.429 0-2.837.299-4.139.832-.405.171-.704.491-1.067.725-.811.469-1.664.896-2.347 1.557l-128 128c-.491.491-.768 1.152-1.152 1.728-.384.576-.875 1.067-1.131 1.707a10.838 10.838 0 0 0-.832 4.117v362.667C64 507.221 68.779 512 74.667 512h362.667c5.888 0 10.667-4.779 10.667-10.667V10.667C448 4.779 443.221 0 437.333 0zM192 36.416V128h-91.584L192 36.416zm234.667 454.251H85.333V149.333h117.333c5.888 0 10.667-4.779 10.667-10.667V21.333h213.333v469.334z"/></svg>