<svg xmlns="http://www.w3.org/2000/svg" width="400" height="400"><g fill-rule="evenodd"><path d="M6.8 35.6v25.6H-.02l.11 21.177.11 21.178.883.822c.486.453 1.071.823 1.3.823a.41.41 0 0 1 .417.4c0 .436 17.057.583 18.167.157.556-.213.633-1.578.633-11.203V83.593l22.1.104 22.1.103.106 11.1.107 11.1h18.531l1.728-1.856L88 102.289V61.2h-7.194l-.103-25.5-.103-25.5-7.5-.109-7.5-.109v11.409c0 6.275-.135 11.422-.3 11.437-1.769.167-12.921.233-13.612.081l-.912-.202.112-11.354L51 10l-7.2-.001h-7.2l.113 11.068c.076 7.527-.026 11.206-.319 11.499-.443.443-12.154.733-13.906.344l-.912-.203.112-11.354L21.8 10h-15v25.6m58.709 11.703.109 7.504-21.909-.104L21.8 54.6l-.11-6.986c-.06-3.842-.02-7.219.089-7.503.16-.417 4.444-.498 21.91-.414L65.4 39.8l.109 7.503M319.2 108.6V134h-7.214l.021 20.044c.023 21.814.13 22.848 2.424 23.448.423.111.769.36.769.555 0 .194.51.353 1.133.353.624 0 1.248.114 1.388.254.489.49 16.042.129 16.365-.379.166-.261.305-3.667.308-7.567.006-7.022.015-7.095.906-7.311.495-.12 10.35-.169 21.9-.108l21 .111.2 7.6.2 7.6 8 .2c4.4.11 8.06.065 8.133-.1.074-.165.722-.3 1.441-.3.908 0 1.692-.368 2.567-1.203l1.259-1.204V134h-6.8V83.2h-14.8v22.418l-7.5-.109-7.5-.109-.106-11.1-.107-11.1h-13.87l.067 10.5c.037 5.775-.011 10.815-.105 11.2-.156.635-.855.7-7.526.7H334.4V83.2h-15.2v25.4m59 11.4v7.4h-43.6l-.11-6.986c-.06-3.842-.02-7.219.089-7.503.16-.417 4.444-.498 21.91-.414l21.711.103v7.4" fill="#e4ecec"/><path d="m22.313 21.6.112 10.8H35.6V10.8h-6.7l-6.7-.001.113 10.801m29.287 0v10.8h13.2V10.8H51.6v10.8M22.4 47.264V54h42.419l-.109-6.7-.11-6.7-21.1-.036-21.1-.036v6.736M335.219 94.2l-.051 11h13.141l.193-1.3c.158-1.06.116-15.438-.056-19.6l-.046-1.1h-13.13l-.051 11m29.181 0v11h13.632l-.051-11-.051-11H364.4v11M22.075 91.3c-.061 15.425-.028 14.7-.675 14.7-.71 0-.898 6.969-.2 7.4.22.136.4 1.497.4 3.024 0 1.584.172 2.776.4 2.776.22 0 .4.54.4 1.2 0 .66.18 1.2.4 1.2.22 0 .4.36.4.8 0 .44.18.8.4.8.22 0 .4.36.4.8 0 .44.18.8.4.8.22 0 .403.315.406.7.005.598.063.613.394.1.33-.51.389-.493.394.114.003.393.368 1.113.81 1.6 3.133 3.452 3.996 4.298 3.996 3.919a.43.43 0 0 1 .424-.433c.233 0 .322.164.197.365-.124.201.315.605.977.898.661.293 1.202.646 1.202.785 0 .138.54.36 1.2.492l1.2.24v56.986c0 37.56.136 57.071.4 57.234.228.141.4 2.182.4 4.757 0 2.48.125 4.635.278 4.788.339.339.459 1.08.576 3.555.049 1.045.237 1.9.417 1.9.181 0 .308.135.282.3-.236 1.49.122 5.403.447 4.9.28-.433.403-.016.444 1.5.031 1.155.094 2.235.141 2.4.105.376.567 1.618 1.048 2.819.202.505.367 1.54.367 2.3 0 .759.18 1.381.4 1.381.22 0 .403.765.406 1.7.005 1.245.11 1.539.394 1.1.344-.532.653 1.196.447 2.5-.026.165.178.303.453.306.333.004.3.136-.1.394s-.433.39-.1.394c.275.003.5.377.5.83 0 .552.165.724.5.523.34-.204.324-.084-.049.376-.358.441-.393.677-.1.677.247 0 .449.45.449 1s.201 1 .447 1c.249 0 .354.353.237.8-.126.481-.012.8.284.8.326 0 .431.427.309 1.257-.128.87-.045 1.17.269.976.293-.181.454.082.454.743 0 .563.141 1.024.313 1.024.172 0 .351.466.398 1.036.108 1.307.435 1.845.933 1.537.231-.143.293.139.153.697-.16.638.031 1.224.599 1.834.531.57.648.898.32.902-.317.004-.361.12-.116.3.555.408 2.2 3.647 2.2 4.332 0 .309.18.562.4.562.22 0 .4.255.4.567 0 .311.188.629.418.706.23.076.448.541.485 1.033.037.492.209.894.382.894.173 0 .315.326.315.725 0 .398.36 1.111.8 1.583.44.472.8.989.8 1.149 0 .161.405.737.9 1.282.495.544.675.86.4.702-.819-.472-.567.334.3.959.44.317.8.831.8 1.141 0 .311.388.901.861 1.312.59.512.685.755.3.772-.308.014-.156.188.339.387s.9.638.9.975c0 .337.225.616.5.619.333.004.3.136-.1.394s-.433.39-.1.394c.275.003.5.266.5.583 0 .318.336.813.746 1.1.708.496.846.724.86 1.423.004.165.542.93 1.196 1.7.654.77 1.378 1.625 1.609 1.9.232.275.278.505.105.512-.174.007-.007.193.371.413.378.22.983 1.023 1.344 1.784.361.761.817 1.285 1.013 1.164.196-.121.356.06.356.403s.168.624.373.624.48.337.611.749c.26.82 4.21 5.097 4.225 4.575.005-.178.296.258.647.97.351.712.797 1.197.991 1.077.194-.12.353-.017.353.229s.18.336.4.2c.22-.136.4.111.4.549 0 .446.353.909.8 1.051.44.14.8.498.8.796 0 .596 3.11 3.804 3.687 3.804.198 0 .283.135.189.3-.165.29 1.68 2.3 2.111 2.3.117 0 .161.157.097.349-.064.192.155.245.487.118.332-.128.727-.032.878.212.166.269.092.332-.187.159-.254-.157-.462-.14-.461.038 0 .178.793.825 1.762 1.437.968.612 2.54 1.917 3.493 2.9.953.983 1.878 1.787 2.056 1.787.179 0 .774.45 1.324 1 .909.908 1.457 1.167 2.24 1.055.151-.021.376.279.499.667.226.712 2.57 2.339 3.125 2.17.165-.051.3.099.3.332s.184.309.41.17c.225-.139.384-.105.353.076-.148.848.09 1.33.654 1.33.339 0 1.003.36 1.475.8.472.44 1.108.8 1.412.8.687 0 1.747 1.016 1.41 1.352-.136.137.143.248.619.248.477 0 .867.18.867.4 0 .22.36.4.8.4.44 0 .8.18.8.4 0 .22.281.4.624.4.385 0 .513.191.335.5-.158.275-.145.371.029.214.175-.157.699-.074 1.165.186.466.259.997.478 1.179.486.183.008.596.374.917.814.322.44.713.802.868.805.732.012 2.883 1.139 2.883 1.51 0 .23.112.306.249.17.137-.137 1.172.227 2.3.809 1.128.582 2.303 1.102 2.611 1.155.308.054.71.335.894.624.27.427.335.42.34-.034.004-.407.198-.352.706.2.385.418 1.15.822 1.7.897.55.074 1.372.479 1.826.9.454.42 1.32.764 1.923.764.63 0 .993.17.851.4-.148.24.364.402 1.276.406 1.131.005 1.369.106.924.394-.468.303-.361.389.488.394.598.003 1.729.366 2.512.806.783.44 2.059.8 2.836.8.839 0 1.311.162 1.164.4-.136.22.123.4.576.4.453 0 .824.18.824.4 0 .22.731.4 1.624.4.893 0 1.529.153 1.413.34-.115.186.352.355 1.038.374.686.02 1.381.253 1.545.518.164.266.68.383 1.146.261.466-.122 1.093.023 1.391.322.299.298 1.387.587 2.417.64 1.03.053 1.963.243 2.073.421.11.178.74.324 1.4.324.698 0 1.097.167.953.4-.156.252.804.4 2.6.4 1.566 0 2.763.137 2.659.304-.103.168.823.36 2.059.428 1.236.068 2.435.244 2.665.393.229.148.957.3 1.617.337 2.766.156 3.8.326 3.8.623 0 .173.191.315.424.315.233 0 .288-.225.123-.5-.175-.291.014-.25.453.1.605.481.686.488.411.032-.27-.449-.182-.495.423-.219.421.192 3.511.357 6.865.368 3.355.01 6.1.109 6.1.219.002.384 4.203.197 4.495-.2.179-.244.296-.196.3.124.003.288.181.415.394.284.213-.132 3.588-.258 7.5-.28 3.912-.022 7.292-.175 7.512-.342.22-.166 1.772-.386 3.448-.488 1.677-.103 3.224-.295 3.437-.427.214-.132 1.588-.273 3.052-.314 1.465-.04 2.663-.227 2.663-.415 0-.188 1.339-.342 2.976-.342s3.088-.18 3.224-.4c.136-.22 1.047-.4 2.024-.4.977 0 1.776-.18 1.776-.4 0-.22.72-.4 1.6-.4 1.01 0 1.602-.184 1.606-.5.004-.347.117-.324.37.074.3.475.472.484.991.053.346-.287 1.35-.511 2.231-.499.881.012 1.602-.147 1.602-.353s.439-.375.976-.375c.537 0 1.088-.18 1.224-.4a.932.932 0 0 1 .724-.394c.286.004.237.161-.124.394-.513.331-.498.389.1.394.385.003.7-.174.7-.394 0-.22.63-.4 1.4-.4.77 0 1.4-.18 1.4-.4 0-.22.551-.4 1.224-.4.713 0 1.12-.167.976-.4-.136-.22-.072-.4.143-.4.215 0 .481.225.592.5.161.4.208.4.233 0 .018-.275.392-.5.832-.5.44 0 .803-.225.806-.5.004-.333.136-.3.394.1s.39.433.394.1c.003-.285.511-.5 1.182-.5.647 0 1.288-.18 1.424-.4.136-.22.657-.4 1.157-.4s1.035-.125 1.188-.278c.272-.272.972-.456 2.327-.611.37-.042.584-.22.477-.394-.108-.174.444-.317 1.227-.317.783 0 1.424-.18 1.424-.4 0-.22.255-.4.567-.4.311 0 .626-.163.7-.362.073-.199.673-.424 1.333-.499.66-.075 1.306-.281 1.436-.458.13-.176.625-.35 1.1-.386.475-.036.864-.207.864-.38 0-.173.439-.315.976-.315.537 0 1.093-.189 1.236-.419.142-.231.558-.382.923-.337 1.007.126 2.775-.453 3.294-1.079.254-.306.621-.458.816-.337.195.121.355.035.355-.19 0-.226.382-.614.848-.864.653-.349.78-.343.551.028-.164.264.175.172.752-.207.577-.378 1.049-.867 1.049-1.088 0-.22.36-.306.8-.191.44.115.8.046.8-.153 0-.2.135-.342.3-.316.991.157 2.11-.107 1.9-.447-.136-.22.113-.4.553-.4.44 0 .928-.208 1.085-.462.189-.305.108-.352-.238-.138-.322.199-.426.166-.271-.085.138-.224.751-.328 1.361-.23.866.139.978.084.51-.248-.491-.347-.418-.428.4-.444.55-.01 1.342-.277 1.759-.593.417-.316.899-.488 1.071-.381.172.106.427-.17.568-.613.164-.517.605-.806 1.229-.806.535 0 .973-.18.973-.4 0-.22.371-.4.824-.4.453 0 .722-.164.597-.365-.124-.201.315-.605.977-.898.661-.293 1.202-.668 1.202-.835 0-.166.36-.302.8-.302.44 0 .8-.18.8-.4 0-.22.281-.4.624-.4.385 0 .513-.191.335-.5-.158-.275-.143-.37.033-.211.325.294 2.347-.672 3.333-1.593.297-.277.693-.409.88-.293.187.116.623-.193.968-.685.345-.493.627-.738.627-.545 0 .193.471-.172 1.047-.811s.908-.909.738-.6c-.46.837.646.088 1.547-1.047.403-.507.899-.819 1.103-.693.204.126.478-.052.61-.394.131-.343.367-.544.524-.447.157.097.538-.174.846-.602.309-.429.694-.779.855-.779.162 0 .753-.46 1.315-1.022.562-.561 1.187-.919 1.39-.794.202.125.482-.135.623-.578.141-.443.474-.806.741-.806.266 0 .744-.36 1.061-.8.317-.44.796-.8 1.065-.8.268 0 .616-.208.773-.462.188-.303.093-.362-.276-.17-.309.16-.213.008.214-.338.428-.347.929-.63 1.114-.63.525 0 3.086-2.691 2.817-2.96-.132-.132.016-.24.33-.24s1.109-.626 1.767-1.391c.658-.766 1.381-1.396 1.608-1.4.226-.005.676-.388 1-.851.323-.463 1.167-1.429 1.875-2.147.707-.717 1.172-1.418 1.033-1.558-.139-.139-.039-.253.224-.253.593 0 4.056-3.422 4.056-4.008 0-.235.405-.853.9-1.372.495-.52 1.26-1.39 1.7-1.935.44-.545.963-.894 1.162-.776.199.118.242.021.096-.215-.146-.237.158-.763.675-1.17.517-.406 1.177-1.186 1.466-1.732.29-.545.886-1.307 1.325-1.692.439-.385.636-.703.437-.706-.198-.003-.124-.157.166-.34.289-.184.563-.586.608-.894.046-.308.21-.56.366-.56.584 0 1.56-1.863 1.314-2.506-.142-.368-.129-.542.027-.385.428.428 1.358-.502 1.358-1.358 0-.413.18-.751.4-.751.22 0 .4-.36.4-.8 0-.44.18-.8.4-.8.22 0 .4-.27.4-.6 0-.33.18-.6.4-.6.22 0 .4-.27.4-.6 0-.33.18-.6.4-.6.22 0 .4-.36.4-.8 0-.44.18-.8.4-.8.22 0 .4-.27.4-.6 0-.33.168-.6.374-.6s.599-.62.873-1.379c.274-.758.646-1.287.826-1.176.18.111.327-.258.327-.821s.191-1.024.424-1.024c.233 0 .325-.16.204-.355-.121-.195.049-.577.376-.849.328-.272.596-.742.596-1.045 0-.303.18-.551.4-.551.22 0 .4-.461.4-1.024 0-.572.174-.916.395-.779.218.135.3-.006.182-.312-.117-.306.065-.788.405-1.07.34-.282.618-1.042.618-1.688 0-.681.168-1.07.4-.927.228.141.4-.204.4-.8 0-.596.172-.941.4-.8.227.14.4-.196.4-.776 0-.563.191-1.024.424-1.024.233 0 .328-.153.212-.341-.116-.188.048-.683.364-1.1.316-.417.58-1.128.587-1.579.007-.451.229-1.036.493-1.3s.349-.48.19-.48c-.16 0-.04-.495.267-1.1.307-.605.506-1.426.442-1.825-.064-.398.14-.823.453-.943.312-.119.568-.738.568-1.375 0-.636.172-1.157.381-1.157.21 0 .356-.405.324-.9-.076-1.201.446-3.93.917-4.795.208-.382.378-1.136.378-1.676s.18-1.093.4-1.229c.22-.136.4-.852.4-1.59 0-.739.225-1.419.5-1.512.39-.131.379-.314-.049-.833-.357-.432-.392-.665-.1-.665.247 0 .449-.619.449-1.376 0-.757.18-1.488.4-1.624.22-.136.4-1.216.4-2.4s.156-2.249.348-2.368c.191-.118.372-1.336.403-2.707.031-1.371.235-2.671.453-2.889.218-.218.396-2.419.396-4.892 0-2.856.162-4.597.443-4.77.315-.195.3-.362-.052-.579-.311-.193-.363-.507-.142-.85.446-.692.451-.871.506-15.947l.045-12.603 1.3-.587c.715-.322 1.448-.542 1.63-.487.181.054.215-.086.076-.311-.139-.226.027-.41.37-.41.343 0 .624-.191.624-.424 0-.233.162-.323.359-.201.198.122.937-.317 1.643-.977.705-.659 1.129-1.216.94-1.238-.188-.022.074-.157.582-.3s.958-.436 1-.652c.042-.216.571-.865 1.176-1.443.605-.579 1.1-1.221 1.1-1.429 0-.624.978-2.53 1.3-2.533.165-.002.3-.352.3-.779 0-.427.18-.888.4-1.024.22-.136.4-.877.4-1.647 0-.832.162-1.3.4-1.153.252.156.4-.804.4-2.6s.148-2.756.4-2.6c.717.443.521-13.336-.2-14.057-.487-.487-.6-1.901-.6-7.51v-6.909l-5.463-.262c-7.007-.336-25.637-.335-32.237.001l-5.1.26-.013 6.639c-.01 5.202-.139 6.806-.6 7.414-.863 1.142-.867 18.801-.004 19.664.321.321.488.83.373 1.131-.116.301-.018.667.217.812.235.145.427.704.427 1.241 0 .537.18.976.4.976.22 0 .403.405.406.9.005.728.08.785.394.3.314-.485.389-.428.394.3.003.495.186.9.406.9.22 0 .4.348.4.773 0 .425.36.887.8 1.027.44.14.8.59.8 1 0 .41.36.86.8 1 .44.14.8.422.8.627 0 .205.36.373.8.373.533 0 .8.267.8.8 0 .444.267.8.6.8.33 0 .601.135.603.3.004.365 1.946 1.3 2.7 1.3.299 0 .446.16.325.355-.12.195.101.438.492.54.659.172.711.939.696 10.407-.009 5.622.119 10.138.284 10.036.165-.102.3.005.3.238 0 .233-.142.424-.315.424-.512 0-.488 1.713.034 2.358.343.425.348.516.015.316-.343-.205-.476 1.051-.508 4.792-.027 3.213-.213 5.277-.508 5.633-.361.435-.336.646.108.931.473.305.48.43.04.715-.294.189-.519.459-.5.6.208 1.558-.046 4.653-.366 4.455-.22-.136-.4-.057-.4.176 0 .233.225.427.5.43.317.004.351.114.091.3-.224.162-.459.924-.522 1.694-.062.77-.304 2.006-.538 2.747-.233.74-.33 2.045-.215 2.9.119.891.027 1.665-.216 1.815-.267.165-.304.068-.1-.262.206-.333.167-.427-.108-.257-.237.147-.38.985-.318 1.862.078 1.1-.048 1.595-.406 1.595-.454 0-1.324 5.063-1.048 6.1.044.165-.1.3-.32.3s-.4.36-.4.8c0 .44-.18.8-.4.8-.22 0-.4.54-.4 1.2 0 .69-.212 1.203-.5 1.206-.333.004-.3.136.1.394s.433.39.1.394c-.275.003-.5.366-.5.806 0 .44-.135.8-.3.801-.165 0-.341.584-.392 1.297-.05.713-.275 1.358-.5 1.433-.224.074-.408.481-.408.902 0 .422-.18.767-.4.767-.22 0-.4.349-.4.776 0 .427-.18.888-.4 1.024-.22.136-.4.787-.4 1.447 0 .698-.167 1.097-.4.953-.22-.136-.4.113-.4.553 0 .44-.18.911-.4 1.047-.22.136-.4.597-.4 1.024 0 .427-.18.776-.4.776-.22 0-.4.27-.4.6 0 .33-.191.6-.424.6-.233 0-.321.165-.196.368.125.202-.036.631-.357.952-.322.322-.478.692-.347.823s-.072.357-.452.503c-.548.21-.58.335-.158.604.4.253.408.339.034.344-.275.003-.5.276-.5.606 0 .33-.18.6-.4.6-.22 0-.4.371-.4.824 0 .527-.169.719-.468.534-.316-.195-.384-.07-.209.385.158.413-.048.982-.532 1.466-.435.435-.791 1.042-.791 1.348 0 .307-.281.665-.625.797s-.513.423-.375.646c.138.223-.045.519-.407.658-.417.16-.582.54-.452 1.037.112.431.1.679-.029.551-.301-.302-1.283.987-1.299 1.707-.007.304-.329.844-.716 1.2-.386.356-.953 1.136-1.26 1.733-.307.598-.678 1.012-.824.922-.147-.091-.484.14-.75.513-.654.92-2.152 3.228-2.757 4.247-.315.531-.496.623-.5.256-.004-.412-.167-.356-.571.195-.31.425-.479.91-.374 1.079.104.169-.092.416-.436.548-.344.132-.625.52-.625.863 0 .344-.117.508-.26.365-.272-.273-2.139 1.69-2.14 2.25 0 .178-.18.212-.4.076-.22-.136-.4.014-.4.334 0 .319-.281.688-.625.82s-.514.422-.377.643c.137.222-.042.403-.398.403-.356 0-.536.18-.4.4.136.22-.033.4-.376.4-.343 0-.579.225-.524.5.055.275-.125.455-.4.4-.275-.055-.5.183-.5.529 0 .639-.915 1.77-1.486 1.836-.858.1-1.242.456-1.046.968.147.382-.065.567-.649.567-.476 0-.784.135-.685.3.1.165-.069.532-.376.816-.307.283-.558.411-.558.284s-.251.001-.558.284c-.307.284-.476.651-.376.816.099.165-.1.3-.444.3s-1.507.9-2.584 2c-1.077 1.1-2.257 2-2.622 2-.365 0-.552.18-.416.4.136.22-.014.4-.334.4-.319 0-.688.281-.82.625s-.422.514-.643.377c-.222-.137-.403-.059-.403.174 0 .233-.178.424-.395.424-.479 0-1.71.956-3.463 2.688-.717.708-1.745 1.398-2.285 1.533-.54.136-1.078.615-1.195 1.065-.135.515-.432.735-.801.593-.322-.124-.89.111-1.261.521-.371.41-.928.649-1.238.53-.309-.118-.562-.016-.562.227 0 .244-.283.443-.629.443-.745 0-1.84.997-1.485 1.352.136.137-.148.248-.632.248-.483 0-.978.259-1.1.575a.611.611 0 0 1-.784.358c-.31-.119-.678.083-.818.448-.14.366-.49.575-.778.464-.287-.11-.579-.069-.648.092-.231.535-2.641 2.063-3.254 2.063-.333 0-.676.212-.763.472-.098.294-.45.358-.933.169-.728-.284-.708-.357.324-1.187.605-.486 1.1-1.048 1.1-1.249 0-.2.9-1.209 2-2.242s2.003-2.212 2.006-2.62c.005-.626.067-.649.394-.143.314.485.389.428.394-.3.003-.495.156-.9.338-.9.183 0 .588-.493.9-1.096.313-.603 1.063-1.638 1.667-2.3 2.357-2.583 3.501-4.137 3.501-4.757 0-.356.141-.647.312-.647.172 0 .523-.556.779-1.237.289-.764.642-1.128.927-.952.297.184.407.02.311-.464-.082-.411.216-1.076.661-1.477.446-.402.585-.617.31-.477-.275.14-.5.064-.5-.169s.281-.424.624-.424c.343 0 .512-.18.376-.4-.136-.22-.057-.4.176-.4.233 0 .424-.36.424-.8 0-.44.18-.8.4-.8.22 0 .4-.461.4-1.024 0-.58.173-.916.4-.776.22.136.4-.123.4-.576 0-.453.18-.824.4-.824.22 0 .4-.371.4-.824 0-.453.18-.712.4-.576.228.141.4-.204.4-.8 0-.596.172-.941.4-.8.228.141.4-.201.4-.793 0-.572.36-1.427.8-1.899.44-.473.779-1.05.753-1.284-.123-1.095.084-1.848.447-1.624.224.138.4-.169.4-.697 0-1.072.848-3.095 1.3-3.1.165-.002.3-.543.3-1.203s.18-1.2.4-1.2c.22 0 .4-.45.4-1s.158-1 .35-1c.193 0 .366-.405.385-.9.04-1.034.22-1.813.64-2.781.163-.374.192-.849.065-1.055-.127-.205.037-.596.364-.868.328-.272.596-1.102.596-1.845 0-.743.162-1.351.36-1.351.389 0 .817-2.494 1.03-6a446.2 446.2 0 0 1 .172-2.724c.021-.288.218-.412.438-.276.25.154.4-.655.4-2.153 0-1.32.151-2.493.336-2.607.401-.248.509-25.84.11-25.84-.325 0-.498-1.097-.579-3.664-.032-1.026-.195-1.78-.363-1.677-.167.104-.304-.692-.304-1.769 0-1.076-.135-2.092-.3-2.257-.165-.164-.33-.689-.367-1.166-.129-1.68-.387-2.907-.727-3.457-.189-.306-.402-1.018-.473-1.583-.355-2.799-.653-4.027-.977-4.027-.196 0-.356-.72-.356-1.6 0-.88-.181-1.6-.402-1.6-.22 0-.618-.81-.882-1.8-.265-.99-.585-1.8-.712-1.8-.126 0-.27-.495-.32-1.1-.05-.605-.269-1.16-.487-1.233-.219-.074-.397-.535-.397-1.025 0-.491-.36-1.637-.8-2.548-.44-.91-.803-1.979-.806-2.375-.005-.61-.065-.628-.394-.119-.303.469-.389.366-.394-.476-.003-.592-.186-1.188-.406-1.324-.22-.136-.4-.597-.4-1.024 0-.427-.18-.776-.4-.776-.22 0-.4-.36-.4-.8 0-.44-.18-.8-.4-.8-.22 0-.4-.27-.4-.6 0-.33-.18-.6-.4-.6-.22 0-.4-.45-.4-1s-.18-1-.4-1c-.22 0-.4-.257-.4-.571 0-.315-.312-.884-.694-1.265-.381-.382-.706-.89-.722-1.129-.062-.918-.686-1.819-1.088-1.571-.235.146-.302.069-.151-.175a.5.5 0 0 0-.145-.689c-.227-.14-.291-.453-.141-.696.171-.277.042-.352-.348-.202-.461.177-.569.04-.419-.532.111-.423 0-.77-.245-.77-.246 0-.45-.405-.453-.9-.005-.728-.08-.785-.394-.3-.312.483-.389.419-.394-.324-.003-.512-.184-.813-.406-.676-.22.136-.4-.044-.4-.4 0-.356-.18-.536-.4-.4-.22.136-.4-.018-.4-.343s-.225-.681-.5-.792c-.362-.146-.345-.211.061-.233.405-.023.341-.227-.228-.732-.433-.385-.905-1.015-1.048-1.4-.143-.385-.546-.7-.896-.7s-.524-.181-.387-.403c.137-.221-.033-.511-.377-.643s-.628-.625-.631-1.097c-.005-.7-.077-.747-.394-.257-.307.474-.389.388-.394-.412-.003-.574-.373-1.266-.855-1.6-1.217-.843-1.549-1.2-5.123-5.514-.422-.51-.916-.905-1.098-.879-.181.026-.395-.267-.474-.651-.08-.384-.597-1.055-1.151-1.49a26.478 26.478 0 0 1-1.938-1.723c-.512-.512-1.079-.931-1.261-.931-.181 0-.589-.36-.906-.8-.317-.44-.807-.8-1.088-.8-.282 0-.512-.152-.512-.339 0-.423-1.423-2.088-1.87-2.187-.181-.041-.285-.209-.23-.374.055-.165-.196-.3-.557-.3-.361 0-1.171-.538-1.8-1.196-.629-.658-1.143-1.08-1.143-.938 0 .142-.315-.005-.7-.327-.385-.321-1.195-.795-1.8-1.053-.605-.258-1.1-.663-1.1-.901s-.171-.327-.38-.197c-.209.129-.575-.131-.814-.577-.239-.446-.708-.811-1.044-.811-.335 0-.498-.18-.362-.4.142-.23-.23-.403-.876-.406-.873-.005-.99-.093-.524-.394.491-.317.445-.389-.251-.394-.468-.003-1.078-.279-1.355-.613-.277-.334-1.154-.91-1.949-1.28-.795-.37-1.76-1.024-2.145-1.454-.385-.43-.7-.567-.7-.305 0 .269-.376.127-.861-.325-.473-.441-.986-.723-1.141-.628-.154.095-.622-.085-1.039-.401-.417-.316-1.074-.58-1.459-.587-.385-.007-.7-.151-.7-.319 0-.318-3.101-1.851-3.8-1.878-.22-.009-.619-.196-.886-.416-.267-.22-.755-.625-1.083-.9-.329-.275-.965-.5-1.414-.5-.449 0-.817-.18-.817-.4 0-.22-.45-.4-1-.4s-1-.165-1-.367c0-.202-.621-.317-1.381-.257-.759.06-1.344-.054-1.3-.253.11-.492-2.107-1.411-3.2-1.327-.485.037-.793-.076-.684-.252.264-.428-1.669-.893-2.455-.592-.357.137-.517.07-.377-.157.146-.235-.411-.395-1.379-.395-.893 0-1.624-.18-1.624-.4 0-.22-.191-.4-.424-.4-.233 0-.296.225-.141.5.226.4.175.4-.256 0-.297-.275-1.043-.5-1.659-.5-.616 0-1.12-.18-1.12-.4 0-.22-.731-.4-1.624-.4-.98 0-1.525-.158-1.376-.4.154-.25-.655-.4-2.153-.4-1.32 0-2.496-.156-2.614-.347-.118-.191-1.235-.371-2.482-.4-1.247-.028-2.546-.277-2.886-.552-.515-.417-.559-.401-.265.099.287.487.244.511-.228.13-.748-.605-24.141-.726-23.768-.124.134.217.068.394-.147.394s-.481-.225-.592-.5c-.161-.4-.208-.4-.233 0-.022.34-.789.5-2.399.5-1.301 0-2.426.177-2.5.394-.073.216-1.348.419-2.833.451-1.485.032-2.7.215-2.7.407 0 .191-.765.351-1.7.354-1.245.005-1.539.11-1.1.394.434.28.074.389-1.3.394-1.045.003-1.9.173-1.9.377 0 .204-1.035.492-2.3.638-3.73.434-3.905.479-3.79.975.06.262-.085.355-.323.208-.751-.464-2.652.187-1.966.673.457.324.42.359-.179.163-.449-.146-1.06.026-1.5.424-.408.37-.742.532-.742.361 0-.171-.225-.147-.5.053-.275.2-1.018.418-1.651.484-.632.066-1.763.465-2.512.885-.749.421-1.567.765-1.819.765-.611 0-7.282 3.308-7.451 3.695-.074.168-.579.305-1.124.305-.558 0-.882.174-.743.4.136.22-.089.4-.501.4-.411 0-1.135.36-1.607.8-.472.44-1.006.8-1.187.8-.181 0-.588.36-.905.8-.317.44-.907.8-1.312.8-.404 0-.624.18-.488.4.14.227-.196.4-.776.4-.563 0-1.024.18-1.024.4 0 .22-.248.4-.552.4-.303 0-1.293.72-2.2 1.6-1.658 1.609-2.346 2.028-1.803 1.1.238-.406-1.045.498-1.845 1.301-.11.11-.695.455-1.3.767-.605.312-1.1.786-1.1 1.054 0 .267-.472.795-1.049 1.173-.718.471-.961.517-.771.146.154-.297-.004-.192-.35.235-.347.428-.63.646-.63.485 0-.429-3.464 3.208-3.74 3.927-.129.337-.601.612-1.047.612-.575 0-.815.264-.819.9-.004.532-.127.714-.3.444-.213-.33-.436-.302-.81.1-.338.365-.363.556-.071.556.256 0 .191.253-.156.6-.33.33-.801.6-1.047.6-.681 0-2.41 1.878-2.41 2.619 0 .361-.36.75-.8.865-.44.115-.8.446-.8.736 0 .289-.36.64-.8.78-.727.231-.978.675-.847 1.5.026.165-.332.3-.796.3-.582 0-.772.184-.614.595.13.34.024.555-.248.5-.262-.052-.541.331-.619.851-.08.527-.492 1.038-.93 1.152-.468.123-.88.671-1.016 1.354-.127.631-.434 1.148-.684 1.148-.64 0-1.529 1.542-1.198 2.078.152.245.106.341-.101.213-.208-.128-.611.295-.897.94-.285.645-.688 1.069-.894.942-.207-.128-.35-.084-.319.097.141.81-.07 1.357-.437 1.13-.22-.136-.4.033-.4.376 0 .343-.18.624-.4.624-.22 0-.4.371-.4.824 0 .453-.18.712-.4.576-.22-.136-.4.134-.4.6 0 .466-.18.736-.4.6-.22-.136-.4.134-.4.6 0 .466-.18.736-.4.6-.22-.136-.4.041-.4.393 0 .352-.36 1.027-.8 1.499-.44.472-.8 1.095-.8 1.383 0 .289-.18.525-.4.525-.22 0-.401.315-.401.7-.001.385-.361 1.289-.8 2.01-.44.72-.799 1.575-.799 1.9 0 .324-.18.59-.4.59-.22 0-.4.39-.4.867 0 .476-.122.745-.27.596-.313-.313-1.405 2.395-1.389 3.446.006.389-.159.604-.365.476-.207-.128-.376.102-.376.511 0 .409-.216.96-.48 1.224s-.348.48-.186.48c.162 0 .095.372-.148.826-.243.454-.515 1.206-.605 1.671-.089.464-.327.947-.529 1.074-.202.126-.312.724-.244 1.329.085.771-.06 1.1-.486 1.1-.37 0-.519.23-.382.587.124.323.053.694-.157.824-.211.13-.383.935-.383 1.789 0 .854-.18 1.664-.4 1.8-.22.136-.4.831-.4 1.544 0 .713-.174 1.47-.387 1.683-.212.212-.43.968-.485 1.68-.054.711-.24 1.293-.413 1.293s-.315.709-.315 1.576c0 .867-.146 1.667-.324 1.777-.178.11-.368 1.051-.422 2.091-.054 1.04-.24 2.175-.413 2.523-.173.348-.359 1.623-.412 2.833-.054 1.21-.257 2.392-.451 2.626-.582.702-.451 24.173.135 24.18.34.004.322.111-.058.352-.342.216-.385.401-.115.494.24.082.463 1.344.503 2.848.04 1.485.227 2.7.415 2.7.188 0 .342.979.342 2.176s.18 2.288.4 2.424c.22.136.4.957.4 1.824 0 .867.143 1.576.318 1.576.175 0 .363.675.418 1.5.054.825.271 1.56.482 1.633.21.074.382.659.382 1.3 0 .664.216 1.17.5 1.173.334.004.301.137-.1.4-.431.283-.47.479-.14.694.253.165.573 1.011.711 1.88.137.869.516 1.874.84 2.233.325.358.488.755.362.881-.275.275.659 3.615 1.097 3.923.171.12.366.589.436 1.042.069.453.433 1.294.81 1.868.376.575.684 1.418.684 1.873 0 .839 1.042 2.756 1.791 3.294.225.162.272.297.104.3-.168.003.147.722.7 1.598.553.876 1.005 1.703 1.005 1.84 0 .136.294.866.652 1.622.359.756.576 1.451.483 1.544-.285.285-2.335-1.656-2.335-2.211 0-.286-.111-.409-.248-.273-.288.289-1.352-.68-1.352-1.231 0-.206-.466-.84-1.035-1.409-.57-.57-.946-1.181-.836-1.36.11-.178-.504-.941-1.364-1.695-.861-.754-1.565-1.573-1.565-1.82 0-.247-.54-.967-1.2-1.599-.66-.632-1.2-1.487-1.2-1.898 0-.47-.174-.641-.468-.46-.321.198-.382.066-.195-.421.205-.535.118-.651-.353-.47-.344.132-.526.078-.403-.119.317-.514-.195-1.67-.623-1.406-.197.122-.358-.149-.358-.602 0-.453-.18-.824-.4-.824-.22 0-.381-.135-.357-.3.099-.685-.561-2.074-.888-1.872-.195.121-.355-.061-.355-.404s-.191-.624-.424-.624c-.233 0-.324-.161-.202-.358.122-.197-.048-.461-.376-.588-.329-.126-.598-.645-.598-1.153s-.36-1.184-.8-1.501c-.44-.317-.8-.807-.8-1.088 0-.282-.135-.513-.3-.515-.165-.002-.508-.452-.763-1.001-.254-.548-.299-.896-.1-.773.528.326.465.114-.578-1.947-.518-1.023-1.058-1.743-1.2-1.601-.143.142-.259-.121-.259-.585 0-.463-.18-.954-.4-1.09-.22-.136-.4-.597-.4-1.024 0-.427-.18-.776-.4-.776-.22 0-.403-.405-.406-.9-.005-.655-.1-.753-.349-.359-.243.384-.419.152-.608-.8-.628-3.166-.745-3.522-1.082-3.313-.195.12-.355-.241-.355-.804 0-.563-.141-1.024-.313-1.024-.172 0-.353-.485-.402-1.078-.049-.592-.223-1.177-.387-1.3-.164-.122-.361-.582-.438-1.022-.077-.44-.276-.89-.443-1-.167-.11-.25-.548-.185-.973.065-.424-.087-1.144-.339-1.6-.251-.455-.409-1.142-.35-1.527.068-.44-.162-.712-.618-.732-.424-.018-.516-.115-.223-.234.277-.111.402-.366.278-.567-.124-.2-.305-.725-.403-1.165a55.53 55.53 0 0 0-.412-1.702c-.13-.495-.252-1.395-.273-2-.021-.605-.185-1.1-.365-1.1s-.327-.624-.327-1.387c0-1.046-.143-1.333-.578-1.166-.465.178-.544-.132-.407-1.594.093-.998-.007-1.924-.223-2.058-.215-.133-.389-.457-.386-.719.004-.286.161-.237.394.124.213.33.391.411.394.18.003-.231-.171-.597-.387-.813-.217-.217-.426-1.243-.465-2.28-.04-1.038-.195-1.887-.346-1.887-.28 0-.415-1.213-.489-4.4-.022-.99-.209-1.912-.413-2.048-.328-.218-.584-110.401-.273-117.452.109-2.466.126-2.5 1.268-2.5.67 0 1.054-.169.911-.4-.136-.22.078-.406.476-.413.884-.015 2.211-.967 1.851-1.327-.143-.143.13-.26.606-.26.477 0 .822-.135.767-.3a.309.309 0 0 1 .207-.393c.588-.179 2.897-2.721 3.461-3.81.312-.603.717-1.097.9-1.097.182 0 .332-.27.332-.6 0-.33.18-.6.4-.6.22 0 .4-.371.4-.824 0-.453.18-.712.4-.576.227.14.4-.196.4-.776 0-.563.18-1.024.4-1.024.22 0 .4-.54.4-1.2 0-.66.18-1.2.4-1.2.249 0 .4-2.325.4-6.176 0-3.687-.161-6.276-.4-6.424-.251-.155-.4-4.271-.4-11.024V84H22.103l-.028 7.3m313.271 22.497c-.092.239-.117 3.308-.057 6.819L335.4 127h42.4v-13.6l-21.144-.019c-14.879-.013-21.193.11-21.31.416m-144.061 57.832c1.477.053 2.603.229 2.503.391-.101.162 1.301.3 3.115.305 4.459.015 6.297.153 6.297.472 0 .147.675.233 1.5.191.825-.041 1.892.165 2.372.459.506.31 1.64.477 2.7.398 1.294-.097 1.828.013 1.828.377 0 .338.894.61 2.606.793 1.433.154 2.703.438 2.823.632.12.194.75.353 1.4.353 1.163 0 2.721.655 3.231 1.358.142.197.53.255.861.128.331-.127.934.021 1.34.329.407.308 1.133.565 1.615.572.482.007.988.193 1.124.413.136.22.697.4 1.247.4.565 0 .893.174.753.4-.14.227.196.4.776.4.563 0 1.024.18 1.024.4 0 .22.27.4.6.4.33 0 .6.191.6.424 0 .233.165.321.368.196.202-.125.639.044.971.376.332.332.887.604 1.232.604.346 0 .629.18.629.4 0 .22.36.4.8.4.44 0 .814.225.832.5.024.385.077.388.229.012.139-.344.449-.255 1.044.3.465.433 1.093.788 1.394.788.302 0 .437.18.301.4-.136.22.033.4.376.4.343 0 .624.18.624.4 0 .22.461.4 1.024.4.58 0 .916.173.776.4-.136.22-.001.4.301.4.301 0 .923.349 1.381.776.458.427.938.671 1.066.543.128-.129.346.061.484.421.139.361.394.567.568.46.174-.107.424.085.555.428.132.342.422.51.645.372.223-.138.513.03.645.372.131.343.4.524.597.402.197-.122.358-.061.358.135s.444.593.986.884c.543.29.889.685.771.877-.119.192-.039.3.178.24.437-.122 1.799.71 2.931 1.79.404.385.959.703 1.234.706.333.004.3.136-.1.394s-.433.39-.1.394c.275.003.635.034.8.068.558.117 4.9 4.617 4.9 5.079 0 .252.281.459.624.459.374 0 .508.187.334.468-.196.317-.069.383.397.205.411-.158.588-.104.44.134-.135.219.049.512.41.65.361.139.818.678 1.016 1.198.197.52.644.945.993.945.348 0 .533.162.411.359-.216.351 1.814 2.801 2.454 2.961.177.044.276.215.221.38-.055.165.08.3.3.3.22 0 .4.268.4.597 0 .328.36.821.8 1.096.44.275.8.726.8 1.003 0 .277.18.504.4.504.22 0 .4.371.4.824 0 .453.18.712.4.576.22-.136.4.021.4.349 0 .329.36.711.8.851.498.158.8.605.8 1.184 0 .512.281 1.038.625 1.17.344.132.514.422.377.643-.137.222-.059.403.174.403.233 0 .424.27.424.6 0 .33.18.6.4.6.22 0 .4.317.4.704 0 .387.335.913.744 1.168.409.255.858 1.038.998 1.74.175.873.432 1.207.817 1.059.423-.162.519.063.385.908-.124.788.02 1.198.481 1.375.362.139.561.506.442.816-.119.31.054.667.384.794s.487.413.349.636c-.138.223.032.689.378 1.035s.527.795.402.997c-.125.203-.065.368.132.368.507 0 1.288 1.846 1.288 3.042 0 .568.174.898.4.758.34-.21.604.909.447 1.9-.026.165.133.3.353.3.22 0 .4.27.4.6 0 .33.18.6.4.6.22 0 .4.66.4 1.467 0 .806.126 1.34.281 1.185.371-.371 1.305 2.794 1.313 4.448.003.715.186 1.3.406 1.3.22 0 .4.641.4 1.424 0 .847.162 1.323.4 1.176.241-.149.4.388.4 1.353 0 .88.18 1.711.4 1.847.22.136.4 1.371.4 2.744 0 1.373.176 2.672.39 2.886.215.215.432 2.219.482 4.453.05 2.235.235 3.975.41 3.866.175-.108.318 2.795.318 6.451 0 4.732-.127 6.569-.44 6.375-.309-.191-.305-.019.014.577.25.466.288.848.084.848-.204 0-.389 1.203-.411 2.674-.022 1.471-.187 2.776-.367 2.9-.18.124-.378 1.126-.439 2.226-.062 1.1-.321 2.26-.576 2.577-.36.447-.352.509.035.276.275-.165.5-.12.5.1s-.18.511-.4.647c-.22.136-.4.777-.4 1.424 0 .647-.168 1.176-.373 1.176-.206 0-.357.576-.337 1.279.02.703-.172 1.348-.427 1.433-.255.085-.463.86-.463 1.721 0 .984-.186 1.569-.5 1.573-.333.004-.3.136.1.394s.433.39.1.394c-.275.003-.5.351-.5.773 0 .421-.172.826-.382.9-.211.073-.427.796-.481 1.607-.053.811-.241 1.385-.417 1.277-.176-.109-.32.262-.32.825s-.175 1.024-.388 1.024c-.213 0-.364-.63-.335-1.4.029-.77.171-1.4.315-1.4.331 0 .348-.541.391-12.17.023-6.045-.115-9.722-.373-9.98-.226-.226-.41-1.735-.41-3.354 0-1.86-.147-2.852-.4-2.696-.33.204-.652-2.603-.447-3.9.026-.165-.133-.3-.353-.3-.22 0-.4-.414-.4-.92s-.225-1.162-.5-1.459c-.4-.431-.4-.482 0-.256.275.155.5.092.5-.141 0-.233-.18-.424-.4-.424-.22 0-.4-.551-.4-1.224 0-.673-.153-1.129-.34-1.013-.186.115-.354-.299-.371-.921-.028-.99-.998-3.612-2.122-5.737-.202-.382-.373-1.012-.38-1.4-.007-.388-.271-1.047-.587-1.464-.316-.417-.48-.912-.364-1.1.116-.188.021-.341-.212-.341-.233 0-.424-.461-.424-1.024 0-.58-.173-.916-.4-.776-.226.14-.4-.186-.4-.748 0-.547-.28-1.275-.622-1.616-.342-.342-.694-1-.783-1.461-.302-1.571-.648-2.375-1.022-2.375-.205 0-.373-.27-.373-.6 0-.33-.18-.6-.4-.6-.22 0-.4-.371-.4-.824 0-.453-.18-.712-.4-.576-.228.141-.414-.235-.432-.876-.017-.618-.122-.898-.234-.622-.111.277-.359.406-.551.288-.191-.119-.247-.48-.123-.803.124-.323.026-.587-.217-.587-.244 0-.443-.371-.443-.824 0-.453-.18-.712-.4-.576-.22.136-.4.091-.4-.101 0-.191-.367-.742-.816-1.224-.46-.494-.606-.875-.335-.875.264 0-.177-.561-.979-1.247-.803-.685-1.356-1.415-1.228-1.621.127-.206-.145-.701-.605-1.1-.46-.399-.837-.93-.837-1.179s-.18-.453-.4-.453c-.22 0-.4-.27-.4-.6 0-.541-.475-.778-1.3-.647-.165.026-.3-.236-.3-.582 0-.745-.997-1.84-1.352-1.485-.137.136-.248.014-.248-.27 0-.577-4.694-5.216-5.277-5.216-.204 0-.259-.18-.123-.4.136-.22-.039-.4-.389-.4-.35 0-.756-.315-.902-.7-.304-.799-2.138-2.35-2.601-2.2-.17.055-.308-.17-.308-.5 0-.33-.242-.6-.538-.6-.296 0-.864-.36-1.262-.8-.398-.44-.902-.8-1.119-.8-.217 0-.91-.54-1.541-1.2-.631-.66-1.28-1.2-1.443-1.201-.164 0-.927-.545-1.697-1.21-.77-.665-1.805-1.314-2.3-1.442-.495-.129-.9-.391-.9-.582 0-.459-3.257-2.153-3.9-2.027-.275.053-.5-.196-.5-.554 0-.358-.224-.576-.497-.485-.274.091-1.366-.347-2.428-.973-1.062-.626-2.078-1.048-2.258-.937-.179.111-.549-.066-.821-.393-.272-.328-.832-.596-1.245-.596-.413 0-.751-.18-.751-.4 0-.22-.36-.4-.8-.4-.44 0-.8-.18-.8-.4 0-.22-.551-.4-1.224-.4-.713 0-1.12-.167-.976-.4.212-.343-1.269-.622-2.33-.437-.181.031-.215-.128-.076-.353.22-.357-.92-.622-1.924-.447-.181.031-.215-.128-.076-.353.157-.255-.371-.41-1.394-.41-.926 0-1.545-.165-1.415-.376.128-.206-.087-.38-.476-.386-2.062-.031-2.909-.173-2.909-.488 0-.192-.63-.35-1.4-.35-.77 0-1.4-.18-1.4-.4 0-.22-.81-.4-1.8-.4s-1.8-.173-1.8-.385c0-.212-1.007-.373-2.238-.358-1.231.015-2.433-.168-2.671-.406-.309-.309-.582-.307-.961.007-.384.319-.53.319-.53.001 0-.308-3.219-.433-10.806-.42-5.943.01-10.715.165-10.604.345.111.179-.022.318-.294.308-2.678-.097-5.502.174-5.296.508.154.249-.604.4-2 .4-1.236 0-2.159.143-2.051.317.107.174-.357.359-1.032.411-.675.051-1.428.221-1.672.376-.545.347-.726.383-2.269.446-.724.03-1.12.217-.97.46.139.225.105.384-.076.353-.919-.16-3.028.072-2.793.307.328.329-2.383 1.316-3.637 1.324-.495.003-.9.186-.9.406 0 .22-.54.4-1.2.4-.66 0-1.2.18-1.2.4 0 .22-.27.4-.6.4-.33 0-.6.18-.6.4 0 .22-.36.4-.8.4-.44 0-.8.18-.8.4 0 .22-.54.4-1.2.4-.66 0-1.2.18-1.2.4 0 .22-.371.4-.824.4-.453 0-.712.18-.576.4.136.22-.123.4-.576.4-.453 0-.824.21-.824.467 0 .256-.121.346-.268.198-.148-.147-.688.007-1.2.343-.513.336-.932.489-.932.34 0-.149-.36.145-.8.652-.44.507-.8.799-.8.647 0-.151-.365-.08-.811.159-.448.24-.687.635-.535.882.182.294.043.358-.404.187-.408-.157-.765-.042-.891.288-.125.325-.566.471-1.085.358-.707-.154-.759-.108-.274.238.593.423.163.656-.9.488-.165-.026-.3.133-.3.353 0 .22-.251.4-.557.4-.307 0-.665.281-.797.625s-.377.543-.543.442c-.167-.101-.535.068-.819.375-.283.307-.384.558-.223.558.16 0-.057.264-.485.587-.427.323-1.121.593-1.543.6-.421.007-.652.127-.513.266s-.469.777-1.352 1.416c-.883.64-1.706 1.426-1.83 1.747-.123.321-.388.584-.589.584-.202 0-1.344.945-2.539 2.1a127.928 127.928 0 0 1-3.772 3.5c-.881.77-1.609 1.58-1.62 1.8-.01.22-.665.916-1.455 1.547-.79.63-1.618 1.665-1.839 2.3-.223.638-.697 1.156-1.063 1.159-.573.005-.581.058-.061.394.54.349.29.572-.5.447-.165-.026-.3.229-.3.566 0 .336-.27.716-.6.842-.33.127-.6.492-.6.811 0 .32-.18.47-.4.334-.35-.216-.441-.022-.386.814.008.118-.217.472-.5.786-1.412 1.571-1.548 1.8-1.069 1.8.263 0 .09.336-.384.747-.473.411-.861 1.039-.861 1.397 0 .357-.36.874-.8 1.149-.44.275-.8.726-.8 1.003 0 .277-.21.504-.467.504-.256 0-.346.12-.199.268.147.147.016.552-.293.9-.963 1.087-2.241 3.621-2.241 4.444 0 .433-.18.788-.4.788-.22 0-.403.585-.406 1.3-.005.986-.1 1.155-.394.7-.314-.485-.389-.428-.394.3-.003.495-.186.9-.406.9-.22 0-.4.461-.4 1.024s-.135.94-.3.838c-.165-.102-.327.272-.361.83-.056.924-.395 1.855-1.386 3.803-.194.382-.353 1.067-.353 1.523 0 .456-.18.718-.4.582-.233-.144-.4.255-.4.953 0 .66-.157 1.297-.348 1.415-.192.118-.342.894-.335 1.724.008.829-.159 1.475-.371 1.435-.213-.041-.43.574-.483 1.365-.053.792-.215 1.631-.36 1.864-.144.234-.33 1.147-.412 2.029-.082.882-.31 1.703-.506 1.824s-.318 1.322-.271 2.668c.048 1.346-.03 2.376-.172 2.288-.142-.088-.373.139-.514.505-.14.366-.05.793.201.948.286.176.309.373.063.525-.463.287-.538 20.751-.076 21.057.48.318.61 1.78.177 2-.216.11-.451-.205-.521-.7s-.295-.9-.5-.9c-.205 0-.372-.63-.372-1.4 0-.77-.18-1.4-.4-1.4-.22 0-.403-.585-.406-1.3-.005-.986-.1-1.155-.394-.7-.278.43-.389.012-.394-1.476-.003-1.142-.169-2.178-.368-2.301-.2-.123-.274-.565-.164-.983.109-.417-.031-1.182-.31-1.699-.279-.518-.469-1.541-.421-2.274.048-.733-.07-1.236-.262-1.117-.384.237-.441-.153-.482-3.287-.02-1.511-.172-2.082-.517-1.95-.363.14-.469-.619-.411-2.955.043-1.728-.1-3.252-.316-3.386-.249-.154-.222-.45.075-.808.358-.432.354-.701-.019-1.151-.659-.794-.644-9.935.016-10.155.324-.108.299-.259-.082-.5-.399-.253-.411-.347-.045-.352.275-.003.5-.197.5-.43 0-.233-.208-.295-.462-.138-.317.196-.35.11-.106-.276.195-.309.381-1.866.411-3.46.031-1.594.228-3.124.438-3.4.21-.276.414-1.664.453-3.085.039-1.42.222-2.733.407-2.918.184-.184.266-1.032.181-1.883-.093-.927.037-1.667.323-1.844.323-.199.373-.125.155.228-.202.326-.167.427.094.266.229-.142.375-.883.324-1.647-.052-.764.059-1.295.244-1.18.186.114.338-.612.338-1.615 0-1.003.18-1.824.4-1.824.22 0 .4-.641.4-1.424 0-.847.162-1.323.4-1.176.22.136.4-.123.4-.576 0-.453.225-.838.5-.856.339-.021.354-.091.046-.218-.497-.204.183-2.141.754-2.147.165-.002.3-.453.3-1.003 0-.55.18-1 .4-1 .22 0 .357-.135.305-.3-.086-.27.267-1.326 1.335-4 .785-1.963 1.31-2.9 1.628-2.9.182 0 .332-.36.332-.8 0-.44.18-.8.4-.8.22 0 .4-.36.4-.8 0-.44.18-.8.4-.8.22 0 .4-.27.4-.6 0-.33.18-.6.4-.6.22 0 .4-.27.4-.6 0-.33.174-.6.387-.6.214 0 .285-.268.159-.597-.131-.34.046-.702.412-.842.353-.136.642-.497.642-.804 0-.306.191-.557.424-.557.233 0 .312-.18.176-.4-.136-.22-.046-.4.2-.4s.336-.18.2-.4c-.136-.22-.057-.4.176-.4.233 0 .424-.371.424-.824 0-.453.178-.713.395-.579.227.14.294-.02.158-.376-.144-.375-.022-.621.308-.621.712 0 1.646-1.504 1.291-2.078-.167-.27-.094-.333.186-.16.274.169.462.031.462-.338 0-.343.241-.624.536-.624.294 0 .743-.455.996-1.011.254-.556.733-1.116 1.065-1.243.331-.127.603-.506.603-.842 0-.336.405-.961.9-1.391.495-.429.908-.99.918-1.247.01-.256.235-.421.5-.366.265.055.482-.17.482-.5 0-.33.193-.6.429-.6.235 0 .698-.27 1.028-.6.33-.33.463-.6.296-.6-.167 0 .09-.367.572-.816.481-.448.875-.961.875-1.138 0-.519 1.451-2.046 1.944-2.046.247 0 .674-.36.949-.8.275-.44.707-.8.96-.8.254 0 .575-.296.714-.657.138-.362.353-.556.477-.433.297.298 2.179-1.349 1.955-1.712-.096-.154.281-.488.836-.741.556-.253.899-.64.764-.859-.135-.219-.032-.398.23-.398.263 0 .813-.388 1.224-.861.411-.474.747-.635.747-.358s.522-.055 1.16-.739c.639-.683 1.294-1.242 1.456-1.242.163 0 .554-.315.87-.7.315-.385.449-.459.298-.164-.151.294.458.004 1.354-.645.896-.649 2.177-1.407 2.846-1.684.669-.277 1.216-.735 1.216-1.018 0-.3.303-.435.727-.324.481.126.877-.124 1.173-.738.245-.51.458-.694.473-.409.016.306.448.097 1.053-.507.564-.565 1.194-.922 1.4-.795.206.127.374.041.374-.192s.36-.424.8-.424c.44 0 .8-.18.8-.4 0-.22.36-.4.8-.4.44 0 .8-.18.8-.4 0-.22.345-.4.767-.4.421 0 .834-.203.917-.451.082-.247.502-.494.933-.547 1.429-.178 2.577-.688 2.355-1.047-.121-.195.064-.355.41-.355s.941-.162 1.323-.361c.977-.508 4.234-1.456 4.595-1.338.165.055.3-.081.3-.301 0-.22.461-.4 1.024-.4.58 0 .916-.173.776-.4-.144-.233.263-.4.976-.4.673 0 1.224-.18 1.224-.4 0-.22.731-.4 1.624-.4 1.192 0 1.543-.133 1.323-.5-.204-.34-.084-.324.376.049.379.307.677.367.677.135 0-.227.441-.365.979-.306.539.059 1.056-.092 1.149-.335.093-.244.868-.419 1.721-.39.921.031 1.863-.213 2.32-.6.611-.519.698-.53.423-.053-.275.477-.227.51.231.163.317-.241 1.342-.379 2.277-.307.937.072 1.7-.045 1.7-.262 0-.232 1.651-.394 4.024-.394 2.939 0 3.946-.124 3.738-.462-.196-.316-.109-.351.276-.111.759.473 1.614.581 1.361.172-.288-.466.331-.609 2.297-.532.937.036 2.912.109 4.389.162m79.945 17.824c.925 1.003.929 1.027.078.508-.491-.299-.98-.773-1.088-1.052-.286-.747-.072-.632 1.01.544m-88.256 26.19c.395-.639 11.904-.605 12.546.037.373.373.48.373.48 0 0-.264.191-.48.424-.48.233 0 .302.196.155.435-.169.272.084.405.676.355 2.558-.213 5.719.039 5.145.41-.426.275.067.39 1.7.394 1.265.003 2.3.186 2.3.406 0 .22.594.4 1.32.4.726 0 1.497.177 1.713.393.217.217 1.045.442 1.841.5.797.059 1.365.242 1.263.407-.101.165.176.3.616.3s.911.18 1.047.4c.136.22.777.4 1.424.4.647 0 1.176.15 1.176.333 0 .184.225.341.5.349.908.029 1.674.311 2.218.817.296.275 1.02.614 1.61.754.59.14 1.387.528 1.772.863.445.386.7.44.7.146 0-.254.18-.462.4-.462.22 0 .355.221.3.491-.055.269.305.552.8.627.495.076.9.316.9.533 0 .218.194.276.432.129.238-.147.7.116 1.027.583.328.468.765.746.971.618.207-.127.484.05.616.394.132.344.681.625 1.22.625.552 0 .873.175.734.4-.136.22.044.4.4.4.356 0 .536.18.4.4-.136.22.046.4.405.4.359 0 .889.225 1.179.5 1.112 1.055 2.238 1.9 2.532 1.9.169 0 .567.36.884.8.317.44.863.8 1.213.8.679 0 1.823.964 2.76 2.325.315.458.72.741.9.63.18-.111.327.078.327.421 0 .343.23.624.512.624.281 0 .771.36 1.088.8.317.44.817.8 1.112.8.294 0 .424.18.288.4-.136.22-.04.4.212.4.605 0 1.956 1.637 1.981 2.4.017.533.062.533.407 0 .341-.528.388-.526.394.022.007.762 2.594 3.656 2.95 3.301.141-.141.256.142.256.629 0 .816 1.714 3.001 2.073 2.642.086-.087.389.213.672.666.283.453.321.704.085.558-.73-.451-.476.171.47 1.15 1.731 1.792 2.3 2.648 2.3 3.46 0 .451.18.708.4.572.22-.136.4.041.4.393 0 .352.36 1.027.8 1.499.44.472.8 1.196.8 1.607 0 .412.18.637.4.501.22-.136.4.123.4.576 0 .453.163.824.363.824.199 0 .268.36.153.8-.15.573-.012.8.484.8.492 0 .634.228.488.785-.113.432.044.993.349 1.246s.48.58.389.728c-.092.147.242 1.073.742 2.058.499.985.861 2.105.805 2.489-.057.384.041.609.217.5.302-.187.549.663 1.073 3.698.124.717.386 1.402.581 1.523.196.121.356.94.356 1.82 0 .965.159 1.502.4 1.353.22-.136.419.078.443.476l.103 1.724c.033.55.165 1.18.293 1.4.129.22.278 1.386.332 2.591.054 1.205.28 2.531.503 2.948.289.539.279.679-.034.486-.242-.15-.44-.082-.44.151 0 .233.18.424.4.424.251 0 .4 2.6.4 7 0 3.934-.159 7-.364 7-.2 0-.375 1.292-.39 2.871-.015 1.578-.166 2.973-.337 3.1-.17.126-.37.949-.444 1.829-.074.88-.299 1.771-.5 1.98-.548.57-.451 1.52.119 1.168.266-.165.086.376-.401 1.2-.486.825-.659 1.373-.384 1.217.401-.226.401-.175.001.256-.275.297-.5 1.032-.5 1.635s-.18 1.208-.4 1.344c-.22.136-.4.582-.4.99 0 .409-.163.803-.362.877-.199.073-.424.583-.5 1.133-.076.55-.272 1.1-.436 1.222-.164.123-.338.708-.387 1.3-.049.593-.242 1.078-.429 1.078s-.224.365-.083.81c.168.527.09.772-.223.7-.264-.06-.571.14-.682.446-.123.337-.026.447.246.279.284-.176.36-.051.209.344-.131.342-.489.621-.796.621-.306 0-.561.315-.566.7-.014 1.111-2.268 5.456-2.512 4.843-.195-.491-.456.982-.316 1.787.031.181-.128.215-.353.076-.226-.139-.41.027-.41.37 0 .343-.18.624-.4.624-.22 0-.4.236-.4.525 0 .288-.36.911-.8 1.383-.44.472-.803 1.181-.806 1.575-.005.609-.064.627-.394.117-.326-.504-.389-.48-.394.153-.003.414-.34 1.044-.749 1.4-.408.356-.87 1.052-1.027 1.547-.156.495-.497.901-.757.901-.26.001-.833.54-1.273 1.199-.44.659-.98 1.204-1.2 1.211-.22.008-.746.488-1.168 1.067-.423.58-.558.923-.3.764.257-.159.468-.099.468.134s-.242.424-.538.424c-.296 0-.881.391-1.3.869-.419.478-.509.72-.2.538.379-.223.469-.18.276.131-.157.254-.532.462-.835.462-.302 0-.66.351-.797.78-.136.428-.6.891-1.032 1.028-.432.137-.703.384-.601.548.184.297-.997 1.323-1.615 1.402-.179.023-.993.716-1.809 1.541-.958.967-1.555 1.321-1.685 1-.116-.288-.214-.193-.232.225-.018.398-.212.612-.432.476s-.4.063-.4.443-.117.574-.259.431c-.143-.143-.576.105-.962.55-.511.589-.758.669-.909.292-.136-.341-.218-.289-.238.152-.02.408-.507.773-1.251.936-.671.147-1.434.612-1.696 1.032-.263.42-.784.764-1.158.764-.374 0-.793.183-.931.407-.138.223-.386.323-.551.221-.165-.102-.552.165-.86.593-.309.429-.805.779-1.102.779-.297 0-.812.272-1.144.604-.332.332-.769.501-.971.376-.203-.125-.368-.037-.368.196s-.338.424-.751.424-.973.268-1.245.596c-.272.327-.654.497-.849.376-.195-.121-.355-.029-.355.204 0 .233-.54.424-1.2.424-.66 0-1.201.135-1.203.3-.002.165-.452.508-1.001.763-.548.254-.888.286-.755.07.134-.216-.136-.155-.599.134-.463.289-.842.662-.842.829 0 .167-.615.304-1.367.304-.751 0-1.426.174-1.5.387-.073.213-.732.433-1.463.488-.732.055-1.418.24-1.524.412-.106.172-.903.313-1.77.313s-1.576.18-1.576.4c0 .222-1.056.4-2.367.4-1.301 0-2.426.168-2.5.372-.073.205-1.334.425-2.801.49-1.468.064-2.582.257-2.477.427.106.171-2.889.311-6.655.311-3.766 0-6.761-.139-6.656-.31.105-.17-1.096-.362-2.669-.426-1.574-.065-2.954-.263-3.068-.439-.114-.177-1.287-.432-2.607-.567-3.877-.395-5.408-.721-5.173-1.101.121-.197-.611-.357-1.627-.357-1.13 0-1.751-.155-1.6-.4.14-.226-.188-.4-.753-.4-.55 0-1.111-.18-1.247-.4-.136-.22-.597-.4-1.024-.4-.427 0-.776-.141-.776-.313 0-.172-.442-.349-.982-.394-1.388-.115-1.987-.257-2.218-.527-.471-.552-4.818-2.718-4.546-2.265.239.398.175.398-.314.002-.337-.273-.732-.378-.877-.233-.145.145-.263-.047-.263-.427s-.157-.593-.348-.475c-.191.118-.866-.231-1.5-.777-.634-.545-1.725-1.099-2.424-1.23-.7-.132-1.369-.492-1.488-.8-.118-.309-.413-.561-.656-.561-.243 0-.692-.225-.999-.5-1.333-1.196-1.778-1.5-2.192-1.5-.414 0-1.105-.593-5.426-4.664-.972-.916-1.767-1.577-1.767-1.47 0 .108-.474-.368-1.054-1.057-.684-.813-1.277-1.168-1.688-1.01-.348.134-.512.121-.363-.028.149-.148-.045-.563-.431-.921-.443-.41-.474-.508-.083-.265.341.211.098-.185-.538-.881-.636-.697-1.356-1.23-1.6-1.185-.244.045-.403-.128-.355-.382.097-.513-2.789-3.737-3.344-3.737-.192 0-.593-.552-.892-1.227-.298-.674-.927-1.601-1.397-2.058-.47-.458-.632-.707-.36-.553.333.188.417.075.258-.341-.131-.342-.5-.621-.819-.621-.32 0-.47-.18-.334-.4.136-.22.046-.4-.2-.4s-.345-.165-.22-.368c.125-.202-.044-.639-.376-.971-.332-.332-.604-.887-.604-1.232 0-.346-.18-.629-.4-.629-.22 0-.4-.227-.4-.505s-.447-.841-.992-1.25c-.546-.41-.907-.885-.801-1.056.105-.171-.348-1.336-1.008-2.59-.659-1.254-1.199-2.603-1.199-2.997 0-.394-.267-.819-.593-.944-.368-.141-.494-.487-.332-.908.177-.461.11-.588-.207-.392-.318.197-.468-.102-.468-.934 0-.673-.18-1.224-.4-1.224-.22 0-.4-.641-.4-1.424 0-.847-.162-1.323-.4-1.176-.234.145-.4-.27-.4-1s-.166-1.145-.4-1c-.242.15-.4-.404-.4-1.4 0-.906-.143-1.559-.317-1.451-.174.107-.36-.365-.412-1.05-.052-.685-.259-1.444-.46-1.686s-.41-1.299-.464-2.35c-.054-1.05-.245-2-.423-2.11-.178-.11-.337-1.765-.352-3.677-.019-2.314-.143-3.209-.372-2.676-.212.494-.355-1.608-.372-5.5-.021-4.773.093-6.308.472-6.332.4-.025.4-.072 0-.233-.563-.227-.689-1.335-.152-1.335.191 0 .347-.315.345-.7-.014-3.492.166-5.427.46-4.962.216.34.358-.215.387-1.514.025-1.128.225-2.385.443-2.793.219-.408.439-1.29.49-1.959.051-.669.236-1.128.41-1.021.174.108.317-.318.317-.947s.225-1.386.5-1.683c.404-.435.393-.477-.062-.218-.417.238-.469.176-.203-.241.565-.886 1.352-3.284 1.365-4.162.01-.664.078-.698.4-.2.294.455.389.286.394-.7.003-.715.164-1.3.356-1.3.193 0 .35-.44.35-.979 0-.538.294-1.272.654-1.632.359-.359.534-.847.388-1.083-.157-.255-.078-.313.196-.144s.462.031.462-.338c0-.343.18-.624.4-.624.22 0 .4-.45.4-1s.18-1 .4-1c.22 0 .4-.278.4-.617 0-.339.36-1.003.8-1.475.44-.472.8-1.095.8-1.383 0-.289.159-.525.353-.525.349 0 .918-1.31 1.008-2.317.025-.284.314-.686.642-.894.329-.207.417-.385.197-.395-.22-.01-.084-.203.303-.428.386-.225 1.053-1.074 1.481-1.887.428-.814 1.237-1.903 1.797-2.421.561-.518 1.019-1.115 1.019-1.326 0-.211.906-1.266 2.013-2.345 1.107-1.078 2.052-2.101 2.1-2.274a.303.303 0 0 1 .387-.213c.165.055.255-.117.2-.382-.055-.265.08-.492.3-.505.489-.029 3.155-2.608 2.714-2.625-.173-.007.361-.428 1.185-.935.825-.507 1.38-1.041 1.233-1.187-.146-.146-.055-.266.201-.266.257 0 .821-.315 1.253-.7.433-.385 1.237-1.105 1.786-1.6.55-.495 1.196-.9 1.437-.9.241 0 .31-.208.153-.462-.166-.268-.111-.354.131-.204.229.141 1.102-.371 1.94-1.138.838-.768 1.839-1.396 2.225-1.396.386 0 .886-.315 1.11-.7.224-.385.413-.552.42-.371.007.18.297.044.644-.304.348-.348.779-.542.958-.431.18.111.424-.054.544-.366.281-.733 2.898-1.979 3.446-1.64.231.142.42.101.42-.093 0-.423 3.588-2.095 4.495-2.095.351 0 .704-.197.784-.437.08-.24.618-.465 1.195-.5.577-.035.966-.198.864-.363-.102-.165.005-.322.238-.35.233-.027.559-.092.724-.144.165-.052.885-.232 1.6-.4.715-.168 1.3-.463 1.3-.656 0-.192.799-.35 1.776-.35s1.888-.18 2.024-.4c.136-.22.867-.4 1.624-.4.757 0 1.376-.18 1.376-.4 0-.22.709-.4 1.576-.4.867 0 1.688-.18 1.824-.4.136-.22 1.486-.4 3-.4 1.581 0 2.869-.188 3.026-.443.196-.316.36-.304.574.043.214.347.378.359.574.043" fill="#acb4bc"/><path d="M21.784 10.497c-.108.283-.146 5.462-.084 11.509L21.813 33l.093-11.2.093-11.2 7.001.118 7 .118v21.59l-.9.362c-.559.224-.664.371-.276.387 1.948.079 1.997-.231 1.883-11.975l-.107-11-7.309-.109c-5.67-.085-7.353.006-7.507.406m29.283-.23c-.656.656.161.726 7.133.616 4.365-.069 7.4-.274 7.4-.5 0-.433-14.104-.546-14.533-.116M52.5 33.076c.385.1 1.015.1 1.4 0 .385-.101.07-.183-.7-.183s-1.085.082-.7.183m-30.721 7.035c-.109.284-.149 3.661-.089 7.503l.11 6.986 21.9.103c20.68.098 21.898.065 21.868-.6-.018-.418-.113-.5-.233-.203-.158.391-4.889.5-21.768.5H22V40h21.571c16.9 0 21.607.108 21.738.5.097.288.149.245.124-.1-.061-.838-43.334-1.124-43.654-.289M334.493 94.3l-.093 11.3 7.5-.09 7.5-.091-7.294-.118-7.293-.119-.113-11.091L334.587 83l-.094 11.3m28.801 0 .106 11.1 7.5.109 7.5.109-.093-11.309L378.213 83l-.113 11.1-.113 11.1H364v-11c0-7.181-.141-11-.406-11-.268 0-.37 3.782-.3 11.1m-341.519.1c0 6.05.056 8.525.124 5.5.068-3.025.068-7.975 0-11-.068-3.025-.124-.55-.124 5.5m43.825.319.199 11.081.107-10.773c.059-5.926-.031-10.912-.199-11.081-.169-.169-.217 4.679-.107 10.773m268.979 18.192c-.109.284-.149 3.661-.089 7.503l.11 6.986h43.6v-14.8l-21.711-.103c-17.466-.084-21.75-.003-21.91.414M378 120v7.2h-43.2v-6.933c0-3.814.12-7.054.267-7.2.146-.147 9.866-.267 21.6-.267H378v7.2m-43.082 43.517c-.339.217-.517 2.453-.6 7.558-.065 3.987.017 7.166.182 7.064.165-.102.3-3.298.3-7.101v-6.915l5.1-.26c6.573-.335 26.422-.335 32.991 0l5.091.26.124 7.038.123 7.039-.014-7.4-.015-7.4-21.4-.096c-11.77-.053-21.617.043-21.882.213m43.481 15.383c.001.165 3.556.265 7.901.222 7.996-.08 7.067-.229-2.601-.418-2.915-.057-5.3.031-5.3.196m-55.478.198c2.156.073 5.576.072 7.6 0 2.023-.073.259-.132-3.921-.131-4.18 0-5.836.059-3.679.131" fill="#ccccd4"/><path d="M65.375 21.2c0 5.83.056 8.215.124 5.3s.068-7.685 0-10.6-.124-.53-.124 5.3m-14.401.2c.001 5.72.057 8.004.125 5.076.069-2.928.068-7.608 0-10.4-.069-2.792-.125-.396-.125 5.324M23.905 32.683c.497.096 1.217.092 1.6-.008.382-.1-.025-.179-.905-.174-.88.004-1.193.086-.695.182m5.595.012c1.155.081 3.045.081 4.2 0 1.155-.081.21-.147-2.1-.147s-3.255.066-2.1.147m22.2-.019c.385.1 1.015.1 1.4 0 .385-.101.07-.183-.7-.183s-1.085.082-.7.183m5.405.007c.497.096 1.217.092 1.6-.008.382-.1-.025-.179-.905-.174-.88.004-1.193.086-.695.182M65.362 47.4c0 3.52.062 4.906.136 3.081.074-1.825.074-4.705-.001-6.4-.075-1.695-.136-.201-.135 3.319m283.613 47c0 6.05.056 8.525.124 5.5.068-3.025.068-7.975 0-11-.068-3.025-.124-.55-.124 5.5m-.249 69.5c4.029.065 10.509.065 14.4-.001 3.891-.065.594-.119-7.326-.118-7.92 0-11.103.053-7.074.119" fill="#bcc4cc"/><path d="M35.775 21.6c0 6.05.056 8.525.124 5.5.068-3.025.068-7.975 0-11-.068-3.025-.124-.55-.124 5.5m15.6 0c0 6.05.056 8.525.124 5.5.068-3.025.068-7.975 0-11-.068-3.025-.124-.55-.124 5.5m13.6 0c0 6.05.056 8.525.124 5.5.068-3.025.068-7.975 0-11-.068-3.025-.124-.55-.124 5.5m-42.8.2c0 5.94.056 8.426.124 5.524s.068-7.762 0-10.8c-.068-3.038-.124-.664-.124 5.276m.002 18.715c-.109.284-.148 3.479-.087 7.1l.11 6.585H65l.11-6.77c.084-5.149-.012-6.848-.4-7.094-.926-.588-42.305-.413-42.533.179M64.71 47.3l.109 6.7H22.4V40.528l21.1.036 21.1.036.11 6.7m270.177 46.92.087 11.18.213-10.8c.117-5.94.078-10.971-.087-11.18-.165-.209-.261 4.651-.213 10.8m13.606-9.82c0 .77.082 1.085.183.7.1-.385.1-1.015 0-1.4-.101-.385-.183-.07-.183.7m15.683 9.8c0 6.16.056 8.624.123 5.476a307.45 307.45 0 0 0 0-11.2c-.068-3.012-.123-.436-.123 5.724M43.694 83.898l21.493.109.116 10.696.116 10.697-.009-10.8-.01-10.8-21.6-.005-21.6-.006 21.494.109M335.3 113.065c-.557.225-.754 14.135-.2 14.135.165 0 .3-3.105.3-6.9v-6.9h21.262c11.694 0 21.178-.135 21.076-.3-.203-.328-41.627-.363-42.438-.035m-.323 51.45c-.109.284-.143 3.479-.077 7.1l.121 6.585.09-6.884.089-6.885 3.5-.133 3.5-.133-3.513-.083c-2.558-.06-3.566.058-3.71.433m37.523-.221a29.38 29.38 0 0 0 3.8 0c1.045-.082.19-.15-1.9-.15s-2.945.068-1.9.15m-255.4 36.993c-.385.481-.7 1.049-.7 1.261 0 .212.045.31.1.219.055-.092.536-.662 1.07-1.267.533-.605.803-1.098.6-1.095-.204.003-.685.4-1.07.882M289.692 280.2c-.046.55.05 1 .212 1 .163 0 .322-.45.354-1 .075-1.306-.458-1.305-.566 0M241.4 354c-.398.44-.634.8-.523.8.11 0 .616-.36 1.123-.8.507-.44.743-.8.523-.8-.219 0-.725.36-1.123.8" fill="#bcc2c4"/></g></svg>