<svg xmlns="http://www.w3.org/2000/svg" viewBox="0 0 512.441 512.441" style="enable-background:new 0 0 512.441 512.441" xml:space="preserve"><path d="m128.221 248.497-88.276 52.966c-2.648 1.766-4.414 4.414-4.414 7.945v105.931c0 5.297 3.531 8.828 8.828 8.828s8.828-3.531 8.828-8.828V314.703l84.745-51.2c3.531-2.648 5.297-7.945 2.648-12.359-2.649-3.53-7.945-5.296-12.359-2.647z"/><path d="m507.807 283.807-119.172-68.099V79.89c0-3.531-1.766-6.179-4.414-7.945L260.635 1.324c-2.648-1.766-6.179-1.766-8.828 0L128.221 71.945c-2.648 1.766-4.414 4.414-4.414 7.945v135.819L4.635 283.807c-2.648 1.766-4.414 4.414-4.414 7.945v141.241c0 3.531 1.766 6.179 4.414 7.945l123.586 70.621c1.766.883 2.648.883 4.414.883.883 0 2.648 0 3.531-.883l120.055-51.452 120.055 51.452c.883.883 2.648.883 3.531.883 1.766 0 2.648 0 4.414-.883l123.586-70.621c2.648-1.766 4.414-4.414 4.414-7.945V291.752c0-3.531-1.766-6.18-4.414-7.945zM256.221 19.862 370.98 85.186v130.522l-57.38 32.789-57.379 32.662-57.379-32.662-57.379-32.788V85.186l114.758-65.324zM133.517 493.903 17.876 427.697V297.048l114.1-65.827 115.418 65.953v147.295l-113.877 49.434zm360.166-67.089-114.759 66.207-113.876-48.552V297.174l114.981-65.704 113.653 64.695v130.649z"/><path d="m375.393 248.497-88.276 52.966c-2.648 1.766-4.414 4.414-4.414 7.945v114.759c0 5.297 3.531 8.828 8.828 8.828 5.297 0 8.828-3.531 8.828-8.828V314.703l84.745-51.2c3.531-2.648 5.297-7.945 2.648-12.359-2.649-3.53-7.945-5.296-12.359-2.647zm-207.448-36.194c5.297 0 8.828-3.531 8.828-8.828V102.841l83.862-50.317c4.414-2.648 5.297-7.945 3.531-12.359-2.648-4.414-7.945-5.297-12.359-3.531L163.531 89.6c-2.648 1.766-4.414 4.414-4.414 7.945v105.931c0 5.296 3.531 8.827 8.828 8.827z"/></svg>