<svg xmlns="http://www.w3.org/2000/svg" viewBox="0 0 1000 1000" xml:space="preserve"><path d="M603.3 68.6v877.7l313-175.3V178.9l-313-110.3zm291.8 64.3C878 126.5 581.8 15.3 581.8 15.3s18.4 11.7 18.4 32l313.1 114.2c.1 0-1.2-22.2-18.2-28.6zM537 10H140.6c-31.4 0-56.9 25.5-56.9 56.9V933c0 31.4 25.5 56.9 56.9 56.9H537c31.4 0 56.9-25.6 56.9-56.9V66.9c0-31.4-25.5-56.9-56.9-56.9zm27.4 923.1c0 15.2-12.2 27.4-27.4 27.4H140.6c-15.2 0-27.4-12.3-27.4-27.4V66.9c0-15.2 12.3-27.4 27.4-27.4H537c15.2 0 27.4 12.3 27.4 27.4v866.2zm-378-702.5h306.9c10.8 0 19.6-8.8 19.6-19.5V107.8c0-10.8-8.8-19.6-19.6-19.6H186.4c-10.8 0-19.5 8.8-19.5 19.6v103.3c0 10.7 8.7 19.5 19.5 19.5zm248-33.4h58.4v13.6h-58.4v-13.6zM186.4 434h306.9c10.8 0 19.6-8.8 19.6-19.5V311.2c0-10.8-8.8-19.6-19.6-19.6H186.4c-10.8 0-19.5 8.8-19.5 19.6v103.3c0 10.8 8.7 19.5 19.5 19.5zM429 406.4h58.4V420H429v-13.6zm-88.6 371.7c-33.5 0-60.7 27.2-60.7 60.7s27.2 60.7 60.7 60.7 60.7-27.2 60.7-60.7-27.2-60.7-60.7-60.7zm0 91.9c-17.2 0-31.2-14-31.2-31.2s14-31.2 31.2-31.2 31.2 14 31.2 31.2-14 31.2-31.2 31.2zm-174-194.3h346v29.9h-346v-29.9zm1-75.3h346v29.8h-346v-29.8zm0-78.1h346v29.8h-346v-29.8z"/></svg>