<svg xmlns="http://www.w3.org/2000/svg" viewBox="0 0 511.999 511.999" style="enable-background:new 0 0 511.999 511.999" xml:space="preserve"><path style="fill:#ced4d2" d="M312.813 67.227h137.29L312.813 8.171H199.186L61.896 67.227h137.29v59.056l-137.29 59.056h137.29L99.338 503.831l157.215-147.134 156.108 147.134-99.848-318.492h137.29l-137.29-59.056z"/><path d="M450.103 117.872a8.17 8.17 0 0 0 8.17-8.17V67.228c0-.056-.007-.109-.008-.163a7.766 7.766 0 0 0-.128-1.286c-.017-.1-.035-.2-.057-.3-.032-.147-.072-.291-.112-.435-.028-.101-.052-.204-.084-.303a8.082 8.082 0 0 0-.377-.95c-.06-.13-.119-.259-.186-.386-.052-.098-.11-.192-.166-.288-.071-.121-.142-.242-.218-.358a7.83 7.83 0 0 0-.179-.257 7.677 7.677 0 0 0-.451-.579 8.805 8.805 0 0 0-.319-.352c-.062-.064-.123-.129-.186-.191a9.767 9.767 0 0 0-.368-.336c-.064-.056-.126-.112-.193-.166a8.53 8.53 0 0 0-.405-.303c-.069-.049-.135-.101-.206-.148-.136-.09-.279-.173-.422-.256a8.229 8.229 0 0 0-.632-.331c-.083-.038-.161-.082-.246-.119l-.007-.002-.075-.033L316.042.666l-.002-.001A8.149 8.149 0 0 0 312.814 0H199.186a8.179 8.179 0 0 0-3.226.663l-.002.001L58.749 59.687l-.075.033-.007.002c-.085.037-.163.081-.246.119a8.064 8.064 0 0 0-.632.331 8.929 8.929 0 0 0-.422.256c-.07.047-.136.099-.205.148a7.617 7.617 0 0 0-.405.303c-.066.053-.129.11-.193.166-.126.109-.249.22-.368.336a5.586 5.586 0 0 0-.186.191 7.08 7.08 0 0 0-.503.575 8.253 8.253 0 0 0-.267.356c-.061.085-.121.17-.179.257a9.222 9.222 0 0 0-.218.358c-.056.096-.113.19-.166.288-.068.126-.126.256-.186.386a8.522 8.522 0 0 0-.377.95c-.032.099-.056.203-.084.303-.04.144-.08.289-.112.435-.022.098-.039.198-.057.3a9.246 9.246 0 0 0-.073.476 8.5 8.5 0 0 0-.055.81c-.001.054-.008.109-.008.163v42.474a8.17 8.17 0 0 0 16.34 0V75.397h120.95v45.506L58.749 177.798l-.075.033-.007.002c-.085.036-.163.081-.246.119a8.064 8.064 0 0 0-.632.331 8.929 8.929 0 0 0-.422.256c-.07.047-.136.099-.205.148a7.617 7.617 0 0 0-.405.303c-.066.053-.129.11-.193.166-.126.109-.249.22-.368.336a5.586 5.586 0 0 0-.186.191 7.08 7.08 0 0 0-.503.575 8.253 8.253 0 0 0-.267.356c-.061.085-.121.17-.179.257a9.222 9.222 0 0 0-.218.358c-.056.096-.113.19-.166.288-.068.126-.126.256-.186.386a8.522 8.522 0 0 0-.377.95c-.032.099-.056.203-.084.303-.04.144-.08.289-.112.435-.022.099-.039.199-.057.3a9.416 9.416 0 0 0-.073.476 8.5 8.5 0 0 0-.055.81c-.001.054-.008.109-.008.163v42.474a8.17 8.17 0 0 0 16.34 0V193.51H188.06L91.54 501.389c-.009.028-.011.058-.02.086-.117.39-.207.785-.266 1.185-.004.031-.012.061-.016.09a8.018 8.018 0 0 0-.063 1.18c.001.078 0 .156.003.234.015.382.058.764.126 1.141.012.065.026.129.04.194.161.779.438 1.538.831 2.255l.089.163c.194.336.411.658.657.97.046.058.096.112.143.169.1.12.196.244.304.359.137.147.285.28.431.414.045.041.085.086.131.125.312.275.639.517.98.736.027.019.049.04.076.058.037.023.076.038.113.061.27.163.546.313.829.442l.124.06c.32.139.646.258.979.355.075.022.151.038.228.058.259.068.52.123.782.164a8.225 8.225 0 0 0 1.281.113h.014a8.135 8.135 0 0 0 5.581-2.205l232.757-217.832 57.9 184.689-110.082-103.029a8.17 8.17 0 0 0-11.166 11.93l132.752 124.238a8.168 8.168 0 0 0 9.93.952 8.169 8.169 0 0 0 3.448-9.361l-96.52-307.878h117.995v34.304a8.17 8.17 0 0 0 16.34 0v-42.474c0-.056-.007-.109-.008-.163a7.766 7.766 0 0 0-.128-1.286c-.017-.1-.035-.2-.057-.3a8.158 8.158 0 0 0-.112-.435c-.028-.101-.052-.204-.084-.303a8.082 8.082 0 0 0-.377-.95c-.06-.13-.119-.259-.186-.386-.052-.098-.11-.192-.166-.288-.071-.121-.142-.242-.218-.358a9.071 9.071 0 0 0-.179-.257 7.677 7.677 0 0 0-.451-.579 8.805 8.805 0 0 0-.319-.352c-.062-.064-.123-.129-.186-.191a9.767 9.767 0 0 0-.368-.336c-.064-.056-.126-.112-.193-.166a8.53 8.53 0 0 0-.405-.303c-.069-.049-.135-.101-.206-.148-.136-.09-.279-.173-.422-.256a8.229 8.229 0 0 0-.632-.331c-.083-.038-.161-.083-.246-.119l-.007-.002-.075-.033-132.266-56.895V75.397h120.95v34.304a8.175 8.175 0 0 0 8.173 8.171zM207.356 16.342h97.288v42.715h-97.288V16.342zm-105.79 42.714 89.45-38.477v38.477h-89.45zm203.077 118.112h-97.288v-42.715h97.288v42.715zm-113.627-38.477v38.477h-89.45l89.45-38.477zM174.32 291.965l69.721 65.251-127.62 119.437 57.899-184.688zm157.934-17.304L256 346.025l-76.253-71.364 25.441-81.152h101.625l25.441 81.152zm78.179-97.493h-89.45v-38.477l89.45 38.477zm-105.79-59.055h-97.288V75.397h97.288v42.716zm16.34-59.057V20.58l89.45 38.477h-89.45v-.001z"/></svg>