<svg width="530.48" height="434.493" viewBox="0 0 397.86 325.87" class="displayed_equation" xmlns="http://www.w3.org/2000/svg"><defs><clipPath id="a"><path d="M89.531 16H279v294H89.531Zm0 0"/></clipPath><clipPath id="b"><path d="M89.531 15.738h189.574v294.395H89.531Zm0 0"/></clipPath><clipPath id="c"><path d="M89.531 15.738h189.574v294.395H89.531Zm0 0"/></clipPath><clipPath id="d"><path d="M89.531 15.738h189.574v294.395H89.531Zm0 0"/></clipPath></defs><g clip-path="url(#a)"><path d="M96.828 264.953c.082 1.39.203 2.785.285 4.176.29 3.48.739 6.957 1.723 10.398 2.742 9.418 9.66 17.934 18.668 23.215 13.96 8.27 31.644 7.164 46.836 6.59 17.316-.695 34.351-2.785 50.89-6.344 1.024-.207 2.047-.453 3.114-.699 11.422-2.578 22.761-5.851 32.793-11.46 9.988-5.571 18.75-13.677 23.254-23.911 5.28-11.914 4.504-25.629 3.644-38.895-1.8-27.226-3.644-55.109-5.488-83.562 0 0 0-72.465-.735-83.563-.082-1.39-.207-2.78-.289-4.171-.285-3.485-.734-6.961-1.718-10.403-2.743-9.418-9.66-17.933-18.668-23.215-13.961-8.226-31.649-7.164-46.836-6.55-17.32.699-34.352 2.785-50.89 6.304-1.024.207-2.048.453-3.114.7-11.422 2.578-22.762 5.851-32.793 11.46-9.988 5.57-18.75 13.676-23.254 23.91-5.281 11.915-4.504 25.63-3.645 38.895 1.801 27.227 3.645 55.11 5.485 83.563.043 0 0 72.464.738 83.562Zm0 0" fill="#679966"/></g><g clip-path="url(#b)"><path d="M96.828 264.953c.082 1.39.203 2.785.285 4.176.29 3.48.739 6.957 1.723 10.398 2.742 9.418 9.66 17.934 18.668 23.215 13.96 8.27 31.644 7.164 46.836 6.59 17.316-.695 34.351-2.785 50.89-6.344 1.024-.207 2.047-.453 3.114-.699 11.422-2.578 22.761-5.851 32.793-11.46 9.988-5.571 18.75-13.677 23.254-23.911 5.28-11.914 4.504-25.629 3.644-38.895-1.8-27.226-3.644-55.109-5.488-83.562 0 0 0-72.465-.735-83.563-.082-1.39-.207-2.78-.289-4.171-.285-3.485-.734-6.961-1.718-10.403-2.743-9.418-9.66-17.933-18.668-23.215-13.961-8.226-31.649-7.164-46.836-6.55-17.32.699-34.352 2.785-50.89 6.304-1.024.207-2.048.453-3.114.7-11.422 2.578-22.762 5.851-32.793 11.46-9.988 5.57-18.75 13.676-23.254 23.91-5.281 11.915-4.504 25.63-3.645 38.895 1.801 27.227 3.645 55.11 5.485 83.563.043 0 0 72.464.738 83.562Zm0 0" fill="none" stroke-width=".819" stroke="#000" stroke-miterlimit="10"/></g><path d="M104.195 259.344c.082 1.308.168 2.62.29 3.93.245 3.273.656 6.55 1.597 9.746 2.496 8.882 8.883 16.867 17.113 21.859 12.813 7.781 29.11 6.797 43.07 6.266 15.965-.614 31.645-2.579 46.919-5.856.941-.203 1.925-.41 2.867-.613 10.562-2.414 21-5.485 30.254-10.727 9.254-5.242 17.277-12.855 21.453-22.476 4.832-11.22 4.094-24.114 3.234-36.602-1.719-25.59-5.812-147.883-6.469-158.281-.082-1.309-.164-2.621-.285-3.93-.246-3.277-.656-6.55-1.597-9.746-2.496-8.883-8.883-16.863-17.114-21.86-12.812-7.78-29.109-6.796-43.07-6.265-15.969.613-31.648 2.578-46.918 5.856-.941.203-1.926.41-2.867.613-10.563 2.375-21.004 5.445-30.258 10.687-9.25 5.239-17.273 12.856-21.45 22.477-4.831 11.219-4.097 24.113-3.234 36.601 1.72 25.586 3.477 51.75 5.282 78.442 0 0 .488 69.437 1.183 79.879Zm0 0" fill="#9ec981"/><g clip-path="url(#c)"><path d="M104.195 259.344c.082 1.308.168 2.62.29 3.93.245 3.273.656 6.55 1.597 9.746 2.496 8.882 8.883 16.867 17.113 21.859 12.813 7.781 29.11 6.797 43.07 6.266 15.965-.614 31.645-2.579 46.919-5.856.941-.203 1.925-.41 2.867-.613 10.562-2.414 21-5.485 30.254-10.727 9.254-5.242 17.277-12.855 21.453-22.476 4.832-11.22 4.094-24.114 3.234-36.602-1.719-25.59-5.812-147.883-6.469-158.281-.082-1.309-.164-2.621-.285-3.93-.246-3.277-.656-6.55-1.597-9.746-2.496-8.883-8.883-16.863-17.114-21.86-12.812-7.78-29.109-6.796-43.07-6.265-15.969.613-31.648 2.578-46.918 5.856-.941.203-1.926.41-2.867.613-10.563 2.375-21.004 5.445-30.258 10.687-9.25 5.239-17.273 12.856-21.45 22.477-4.831 11.219-4.097 24.113-3.234 36.601 1.72 25.586 3.477 51.75 5.282 78.442 0 0 .488 69.437 1.183 79.879Zm0 0" fill="none" stroke-width=".819" stroke="#000" stroke-miterlimit="10"/></g><path d="M107.43 257.625c.086 1.266.168 2.578.246 3.848.25 3.234.656 6.425 1.515 9.539 2.414 8.68 8.516 16.5 16.457 21.41 12.325 7.656 27.965 6.715 41.434 6.183 15.356-.574 30.461-2.496 45.16-5.73.903-.203 1.844-.41 2.742-.613 10.153-2.336 20.227-5.367 29.11-10.524 8.883-5.156 16.664-12.61 20.636-22.066 4.665-11.016 3.926-23.664 3.07-35.906-1.679-25.098-5.98-145.344-6.593-155.54-.082-1.265-.164-2.578-.246-3.847-.246-3.234-.656-6.43-1.516-9.54-2.414-8.679-8.511-16.5-16.457-21.413-12.324-7.653-27.965-6.711-41.43-6.18-15.355.57-30.46 2.496-45.16 5.73-.902.208-1.843.41-2.746.618-10.152 2.332-20.222 5.36-29.105 10.52-8.887 5.16-16.664 12.613-20.637 22.07-4.668 11.011-3.93 23.66-3.07 35.902 1.68 25.098 3.437 50.727 5.2 76.848 0 0 .776 68.496 1.39 78.691Zm0 0" fill="#9acc99"/><g clip-path="url(#d)"><path d="M107.43 257.625c.086 1.266.168 2.578.246 3.848.25 3.234.656 6.425 1.515 9.539 2.414 8.68 8.516 16.5 16.457 21.41 12.325 7.656 27.965 6.715 41.434 6.183 15.356-.574 30.461-2.496 45.16-5.73.903-.203 1.844-.41 2.742-.613 10.153-2.336 20.227-5.367 29.11-10.524 8.883-5.156 16.664-12.61 20.636-22.066 4.665-11.016 3.926-23.664 3.07-35.906-1.679-25.098-5.98-145.344-6.593-155.54-.082-1.265-.164-2.578-.246-3.847-.246-3.234-.656-6.43-1.516-9.54-2.414-8.679-8.511-16.5-16.457-21.413-12.324-7.653-27.965-6.711-41.43-6.18-15.355.57-30.46 2.496-45.16 5.73-.902.208-1.843.41-2.746.618-10.152 2.332-20.222 5.36-29.105 10.52-8.887 5.16-16.664 12.613-20.637 22.07-4.668 11.011-3.93 23.66-3.07 35.902 1.68 25.098 3.437 50.727 5.2 76.848 0 0 .776 68.496 1.39 78.691Zm0 0" fill="none" stroke-width=".819" stroke="#000" stroke-miterlimit="10"/></g><path d="M172.855 66.672c1.72 1.64 4.094 2.375 6.348 1.473 1.309-.532 2.453-1.391 3.684-2.13 3.027-1.84 6.675-2.945 10.195-2.288 1.39.242 2.742.777 4.133.859 2.5.164 4.957-1.027 6.715-2.828.984-.98 1.597-2.375 1.476-3.809-.168-1.8-1.187-3.437-2.582-4.582-2.703-2.336-6.55-3.113-10.027-3.234-5.04-.164-10.113.816-14.7 2.906-1.23.574-2.456 1.23-3.523 2.09-1.676 1.39-2.824 3.355-3.316 5.445-.242 1.024-.406 2.125-.082 3.11a6.225 6.225 0 0 0 1.68 2.988Zm0 0" fill="#76463b" stroke-width=".409" stroke="#000" stroke-miterlimit="10"/><path d="M175.434 63.766c.043-.04.082-.121.125-.164.12-.122.285-.164.41-.122.203.079.246.329.246.532-.043.652-.535 1.226-1.11 1.593-.16.125-.324.207-.449.332-.12.122-.203.368-.12.532.081.164.245.285.41.367.695.367 2.331.86 2.988.203.285-.285.246-.777.164-1.184-.164-.984-.328-1.925-.493-2.91-.042-.164-.082-.53.043-.695.16-.164.45-.121.57.043.165.16.208.45.208.695.039.614.082 1.227.12 1.883.044.45.083.942.325 1.313.41.53.906.406 1.395.078.41-.285.777-.532 1.187-.817.203-.125.41-.289.531-.492.207-.328.207-.738.207-1.144-.082-1.68-.535-3.317-1.27-4.832-.12-.29-.284-.575-.245-.903.039-.328.328-.613.613-.531.207.039.328.246.41.45a16.38 16.38 0 0 1 1.473 4.831c.043.246.043.492.207.696.531.82 1.637.207 2.25-.204.246-.164.492-.41.574-.738.04-.203.04-.45 0-.695a21.067 21.067 0 0 0-.86-3.934c-.202-.613-.53-1.101-.902-1.676a1.325 1.325 0 0 1-.246-.53c-.039-.208.043-.411.246-.493.29-.121.575.164.778.41.578.817 1.023 1.762 1.351 2.7.29.984.368 2.007.618 3.03.078.368.242.739.57.903.207.121.453.121.695.082.164 0 .371-.043.492-.125.246-.164.328-.492.328-.777.082-1.188-.164-2.375-.246-3.563 0-.285.04-.613.328-.652.122-.043.29.078.368.164a.65.65 0 0 1 .125.367c.246 1.145.324 2.293.246 3.438 0 .207-.043.41.039.613.164.328.531.453.902.535.656.16 1.145-.29 1.227-.902.082-.41 0-.778-.082-1.188-.203-1.27-.164-2.539-.203-3.808 0-.16 0-.368.082-.532.082-.164.246-.285.41-.285.285.04.367.367.449.613.285 1.801.164 3.645.328 5.446.04.328.082.656.285.86.367.366 1.313.655 1.637.12.289-.488.41-1.062.453-1.636.04-.657 0-1.27.078-1.922.043-.125.082-.29.207-.328.082-.043.203 0 .285.082.29.246.29.656.29.984 0 .613-.043 1.184-.043 1.8 0 .407-.04.856.164 1.227.328.614 1.351.739 1.761.121.285-.492.203-1.144.203-1.718.043-1.063-.164-2.13-.41-3.153-.039-.164-.078-.328-.039-.531.04-.164.164-.328.367-.328.164 0 .328.164.41.328.329.531.41 1.145.41 1.719v1.883c0 .453.04.984.41 1.308.49.41 1.31.086 1.638-.488.53-.984.082-2.09.164-3.113 0-.164.043-.329.12-.489.083-.168.208-.289.372-.289.203 0 .406.164.449.328.082.203.04.41.04.614-.083.656-.286 1.308-.083 1.925.043.082.082.164.125.247.164.082.367-.043.492-.165.98-.984 1.227-2.417.86-3.77-.286-1.062-.903-1.964-1.598-2.78-.164-.207-.367-.41-.613-.492-.246-.083-.575-.043-.739.207a.675.675 0 0 0-.12.406c-.044.37-.044.695.038 1.066.043.324.121.656.082.985-.039.203-.164.406-.367.406-.207 0-.37-.164-.453-.367-.203-.45-.242-.946-.203-1.434.043-.492.164-.984.164-1.473 0-.168 0-.37-.039-.535-.043-.12-.164-.246-.29-.367-.202-.203-.491-.45-.82-.41-.285.043-.488.246-.613.531-.082.246-.082.535-.082.82v.739c0 .164 0 .285-.082.449-.078.121-.246.246-.367.164-.082-.043-.121-.121-.164-.164-.285-.492-.203-1.145-.203-1.719 0-.738-.41-1.926-1.395-1.762-.328.04-.613.329-.773.618-.168.285-.25.652-.29.98-.163 1.188-.081 2.375.165 3.524.039.203.125.449.039.652-.082.203-.285.367-.492.285-.121-.082-.203-.242-.242-.367a8.226 8.226 0 0 1-.329-3.317c.04-.613.247-1.351-.042-1.882-.247-.453-.696-.903-1.227-.942a.814.814 0 0 0-.45.121c-.288.207-.288.618-.288.946v1.02c0 .206 0 .448-.121.655-.125.204-.41.329-.575.164-.164-.12-.164-.37-.164-.574 0-.203.043-.41.043-.613.04-.328.04-.695-.043-1.023-.082-.329-.285-.657-.613-.778-.285-.125-.941-.043-1.23.082-.329.164-.45.614-.45.942 0 .738.41 1.433.575 2.129.042.164.042.328-.043.449-.122.164-.41.207-.57.082-.165-.121-.29-.328-.368-.488a3.478 3.478 0 0 1-.25-.864c-.039-.285-.039-.613-.16-.898-.164-.453-1.066-1.106-1.395-.41-.164.328.082.738.286 1.023.863 1.39 1.027 3.234 1.23 4.828.04.207.04.41-.04.574-.081.164-.245.329-.452.29-.164-.043-.285-.247-.328-.41-.203-.614-.121-1.27-.243-1.926-.082-.614-.328-1.227-.617-1.801-.246-.531-.488-1.063-.898-1.516-.656-.652-1.887-1.187-2.828-.898-.406.12-.778.41-.778.816 0 .207.082.41.164.574.782 1.555 1.473 3.114 2.172 4.75.082.164.164.368.121.532-.039.164-.164.37-.328.41-.203 0-.367-.203-.492-.367-.86-1.473-1.266-3.196-2.125-4.668-.207-.329-.453-.696-.777-.86-.453-.246-.946-.082-1.27.285-.328.368-.328.657-.125 1.106.246.613.531 1.187.778 1.8.043.126.125.247.082.41-.082.247-.45.329-.657.165-.203-.164-.328-.41-.406-.656-.082-.286-.207-.532-.289-.817-.078-.246-.203-.535-.367-.738-.41-.492-1.106-.367-1.352.203-.164.371-.12.781-.043 1.148.371 1.84 1.926 2.743 3.075 4.094.082.125.203.246.246.367.039.164.039.329-.082.41-.207.165-.536.044-.739-.12a9.396 9.396 0 0 1-2.62-2.91c-.329-.571-.614-1.184-1.063-1.676a1.044 1.044 0 0 0-.367-.247c-.207-.043-.41.043-.579.164-.695.532-.406 1.352.168 1.84.614.535 1.348.985 1.84 1.641.121.164.207.367.121.531-.078.164-.285.164-.449.125-.164-.043-.285-.207-.367-.328-.531-.656-1.188-1.27-1.926-1.68-.203-.12-.406-.207-.613-.164-.246.082-.367.328-.492.575-.203.492-.368.98-.532 1.515a.362.362 0 0 0 0 .285c.043.04.125.082.165.121.738.29 1.515.372 2.292.29.286-.043.657-.043.778.246.082.164 0 .324-.121.449-.125.125-.285.164-.453.203-.41.082-.735-.04-1.145-.078-.41-.086-.86-.086-1.309-.125-.164 0-.37-.043-.492.082-.164.12-.164.328-.207.488a4 4 0 0 0 .82 2.621c.165.207.329.371.532.453.207.078.453 0 .656-.082.613-.289.98-.86 1.27-1.476-.204-.04-.164-.121-.125-.203Zm0 0" fill="#caa99e" stroke-width=".409" stroke="#000" stroke-miterlimit="10"/><path d="M239.836 167.922c-1.965 1.308-3.152 3.52-2.785 5.894.25 1.395.82 2.704 1.312 4.012 1.188 3.36 1.473 7.164.121 10.442-.53 1.308-1.351 2.496-1.718 3.847-.696 2.414 0 5.035 1.351 7.121.778 1.192 2.004 2.051 3.399 2.215 1.8.203 3.601-.453 5.035-1.558 2.863-2.168 4.383-5.73 5.238-9.13a32.48 32.48 0 0 0 .207-14.984c-.285-1.351-.695-2.66-1.309-3.89a10.2 10.2 0 0 0-4.628-4.38c-.942-.448-2.004-.859-3.028-.738a8.065 8.065 0 0 0-3.195 1.149Zm0 0" fill="#76463b" stroke-width=".409" stroke="#000" stroke-miterlimit="10"/><path d="M242.172 171.074c.039.04.082.078.121.164.082.121.121.325.043.45-.125.164-.371.164-.574.12-.657-.203-1.106-.777-1.313-1.43-.082-.163-.12-.37-.246-.534-.121-.16-.285-.285-.488-.242a.64.64 0 0 0-.41.324c-.493.613-1.352 2.09-.82 2.867.245.328.738.41 1.148.41l2.906.121c.164 0 .57 0 .695.164.121.164.04.45-.164.575-.203.125-.492.082-.695.039l-1.844-.247c-.449-.078-.941-.12-1.351.083-.614.289-.57.82-.368 1.312.165.45.368.898.532 1.309.086.246.207.453.37.613.286.289.696.371 1.063.453 1.637.242 3.36.164 4.996-.207.286-.078.614-.164.899-.078.289.078.531.45.371.695-.082.16-.328.242-.531.285-1.64.41-3.36.532-5.035.41-.247 0-.497-.042-.7.04-.941.328-.53 1.554-.285 2.21.121.29.328.575.574.696.204.125.45.125.653.164 1.351.125 2.703.125 4.011-.04.657-.081 1.188-.284 1.844-.53a1.45 1.45 0 0 1 .574-.125c.204 0 .41.125.45.328.082.285-.246.53-.532.656a9.167 9.167 0 0 1-2.949.734c-1.023.082-2.047-.082-3.07-.039-.367 0-.777.082-.98.367-.165.207-.208.454-.247.657a.782.782 0 0 0 .04.53c.12.286.41.411.695.493 1.148.324 2.375.324 3.523.492.285.04.613.16.57.45 0 .12-.12.246-.242.285-.125.043-.289.043-.41.043-1.148 0-2.293-.164-3.441-.493-.203-.043-.407-.125-.575-.082-.367.082-.53.45-.695.739-.285.574.043 1.187.656 1.39.368.164.778.164 1.188.164 1.27.04 2.5.328 3.766.575.164.039.367.082.492.164.164.12.246.285.203.449-.078.246-.45.289-.695.289-1.801-.125-3.602-.617-5.403-.82-.328-.043-.656-.082-.902.12-.41.29-.942 1.145-.45 1.555.41.371.942.614 1.473.782.617.16 1.27.242 1.844.488.121.043.246.125.285.246 0 .121-.039.203-.12.246-.286.203-.696.121-1.024.043-.575-.168-1.188-.289-1.762-.453-.406-.082-.816-.203-1.227-.082-.656.207-1.023 1.187-.492 1.68.406.41 1.106.41 1.637.53 1.023.247 2.09.29 3.152.29.164 0 .367 0 .531.078.168.086.29.246.247.41-.04.164-.204.29-.41.328-.57.207-1.184.164-1.758.043-.614-.125-1.23-.246-1.844-.37-.45-.083-.98-.165-1.352.124-.53.41-.367 1.27.164 1.719.82.695 2.008.492 2.993.816.16.043.324.125.449.207.12.125.246.29.203.45-.04.207-.246.37-.41.37-.203.04-.41-.042-.614-.081-.613-.207-1.226-.535-1.882-.493a.461.461 0 0 0-.246.083c-.122.12-.043.367.043.53.777 1.188 2.128 1.72 3.476 1.637 1.11-.039 2.09-.449 3.07-.98.246-.121.493-.285.618-.492.12-.246.164-.574-.043-.735-.082-.125-.246-.164-.368-.207-.328-.12-.695-.164-1.023-.203-.328 0-.656 0-.984-.125-.203-.082-.368-.246-.328-.449.042-.207.246-.328.453-.367.492-.125.98-.043 1.433.121.45.164.899.367 1.39.492.165.04.329.082.532.04.164-.04.29-.122.41-.204.246-.164.531-.41.574-.695.04-.29-.164-.535-.37-.7-.247-.16-.532-.203-.778-.245-.242-.04-.492-.079-.734-.16a1.253 1.253 0 0 1-.41-.165c-.125-.082-.165-.289-.083-.41a.223.223 0 0 1 .204-.125c.574-.164 1.144.043 1.722.164.735.164 1.961 0 2.004-.98 0-.328-.164-.657-.45-.903-.245-.203-.573-.367-.901-.488a9.17 9.17 0 0 0-3.48-.574c-.204 0-.45 0-.653-.082-.207-.125-.328-.367-.164-.535.082-.121.285-.16.406-.16a9.076 9.076 0 0 1 3.316.367c.575.164 1.27.492 1.844.37.492-.124 1.024-.495 1.188-1.027a.94.94 0 0 0 0-.488c-.125-.328-.532-.41-.86-.496-.328-.078-.656-.117-.984-.203-.203-.04-.45-.082-.613-.242-.164-.168-.204-.453-.04-.617.165-.121.41-.079.57-.04.208.04.411.122.575.165.328.082.656.203 1.024.164.37-.043.695-.164.859-.453.164-.247.246-.899.164-1.188-.082-.367-.492-.57-.82-.652-.735-.164-1.47.12-2.207.082-.164 0-.329-.043-.41-.125-.165-.164-.126-.41.038-.57.165-.169.372-.208.575-.247.285-.043.574-.082.898-.043.29 0 .617.082.903.043.492-.082 1.308-.82.695-1.27-.285-.245-.735-.081-1.063.04-1.515.531-3.398.328-4.953.164-.207 0-.41-.04-.531-.164-.125-.121-.246-.328-.168-.492.086-.164.289-.203.453-.246.652-.079 1.266.125 1.922.168.656.039 1.27-.086 1.926-.208.57-.12 1.144-.246 1.636-.53.778-.493 1.56-1.598 1.477-2.54-.043-.41-.246-.86-.656-.941-.207-.043-.41 0-.574.039-1.68.41-3.356.777-5.079 1.105-.203.043-.367.082-.57 0-.164-.039-.328-.246-.328-.41.04-.203.246-.324.45-.367 1.64-.531 3.398-.574 5.034-1.106.371-.12.782-.285 1.024-.613.328-.41.289-.902 0-1.27-.285-.367-.57-.449-1.063-.367-.656.122-1.27.286-1.925.407a.669.669 0 0 1-.41 0c-.247-.121-.204-.489-.04-.696.203-.203.45-.242.739-.285.285-.043.57-.082.855-.125.29-.039.574-.082.781-.203.57-.324.614-1.023.082-1.39-.328-.208-.738-.29-1.105-.29-1.887 0-3.113 1.313-4.629 2.172-.121.082-.285.164-.406.164-.164 0-.328-.043-.41-.164-.122-.246.082-.492.285-.695a9.137 9.137 0 0 1 3.398-1.965c.613-.207 1.309-.328 1.844-.699.121-.078.246-.203.328-.324a.832.832 0 0 0 0-.614c-.371-.82-1.23-.656-1.844-.25-.656.493-1.226 1.11-2.008 1.434-.164.082-.406.125-.53 0a.323.323 0 0 1 0-.45c.081-.12.245-.202.41-.284.738-.41 1.472-.903 2.046-1.516.164-.164.285-.367.285-.574-.039-.246-.246-.45-.488-.574-.453-.286-.902-.57-1.351-.817a.574.574 0 0 0-.29-.082.32.32 0 0 0-.164.164c-.406.653-.695 1.39-.777 2.168-.039.29-.082.656-.367.738-.164.043-.328-.039-.41-.207-.082-.12-.121-.328-.121-.488 0-.41.164-.738.328-1.066.164-.41.285-.82.41-1.27.039-.164.078-.367.039-.492-.082-.16-.285-.242-.45-.281a3.954 3.954 0 0 0-2.745.242c-.203.125-.407.246-.532.45a.762.762 0 0 0-.043.655c.168.657.657 1.149 1.192 1.555-.164.164-.082.207 0 .29Zm0 0" fill="#caa99e" stroke-width=".409" stroke="#000" stroke-miterlimit="10"/><path d="M176.418 265.32c-1.637-1.718-3.973-2.539-6.266-1.757-1.351.449-2.539 1.265-3.765 1.96-3.11 1.723-6.797 2.664-10.278 1.844-1.39-.328-2.699-.898-4.093-1.062-2.496-.29-4.996.816-6.797 2.496-1.024.941-1.676 2.293-1.637 3.722.082 1.805 1.066 3.48 2.375 4.711 2.621 2.457 6.387 3.399 9.867 3.645a32.744 32.744 0 0 0 14.82-2.25c1.27-.535 2.5-1.11 3.602-1.926 1.723-1.312 2.992-3.234 3.563-5.324.289-.98.492-2.129.207-3.11-.328-1.105-.82-2.128-1.598-2.949Zm0 0" fill="#76463b" stroke-width=".409" stroke="#000" stroke-miterlimit="10"/><path d="M173.715 268.105c-.04.04-.082.122-.121.165-.121.12-.29.164-.41.082-.204-.082-.246-.329-.204-.536.083-.652.614-1.226 1.184-1.554.164-.082.332-.203.492-.328a.592.592 0 0 0 .164-.532c-.039-.164-.246-.285-.367-.367-.656-.41-2.293-.984-2.988-.328-.29.285-.29.777-.207 1.188.125.98.246 1.921.328 2.906.043.164.082.57-.082.695-.16.164-.45.082-.57-.039-.164-.207-.164-.453-.164-.7 0-.612-.043-1.226-.043-1.882 0-.45-.04-.941-.286-1.309-.37-.574-.902-.449-1.351-.164-.41.246-.82.493-1.227.778-.207.125-.41.246-.574.449-.246.328-.246.738-.246 1.148.039 1.68.367 3.356 1.023 4.871.121.286.246.575.204.903-.04.285-.368.613-.657.492-.203-.086-.285-.29-.367-.453-.652-1.555-1.105-3.235-1.226-4.914 0-.242-.043-.488-.165-.696-.492-.859-1.64-.285-2.25.082-.246.165-.496.41-.574.696-.082.207-.043.453-.043.699.082 1.348.328 2.66.7 3.969.16.656.488 1.148.816 1.722.082.16.207.368.207.532 0 .203-.086.406-.246.492-.29.121-.574-.168-.738-.41-.532-.86-.985-1.805-1.23-2.785-.243-1.024-.243-2.047-.45-3.028-.082-.37-.203-.738-.531-.945-.203-.121-.453-.121-.696-.121-.164 0-.37 0-.492.12-.246.165-.328.493-.367.778-.121 1.192.082 2.375.082 3.563 0 .289-.082.613-.328.656-.125 0-.285-.082-.328-.203-.082-.125-.082-.246-.125-.41-.203-1.149-.203-2.293-.078-3.438.039-.207.039-.41-.043-.617-.121-.328-.532-.45-.86-.574-.613-.203-1.148.246-1.27.863-.081.406 0 .777.044 1.184.16 1.27.078 2.539.039 3.808 0 .164 0 .367-.082.535-.082.16-.246.286-.41.286-.286-.043-.368-.368-.41-.657-.204-1.8 0-3.644-.083-5.445 0-.328-.039-.656-.242-.898-.328-.372-1.312-.739-1.637-.207-.332.492-.453 1.023-.496 1.597-.082.656-.039 1.27-.164 1.926-.039.121-.078.285-.203.324-.082.043-.203-.039-.285-.078-.246-.246-.246-.656-.203-1.023a252.2 252.2 0 0 1 .121-1.805c.04-.41.04-.86-.121-1.227-.29-.613-1.313-.82-1.723-.203-.328.489-.246 1.145-.285 1.676-.082 1.066.04 2.129.246 3.152.04.164.078.368.04.536-.04.16-.204.324-.368.324s-.328-.164-.41-.324c-.285-.536-.367-1.149-.328-1.762.043-.617.043-1.27.082-1.883 0-.453 0-.984-.328-1.312-.489-.45-1.309-.122-1.637.41-.57.941-.164 2.047-.285 3.07-.043.164-.043.328-.125.492-.082.164-.242.285-.41.285-.203 0-.368-.164-.45-.367-.082-.207-.039-.41 0-.613.122-.656.329-1.313.165-1.926-.043-.082-.043-.164-.122-.246-.164-.121-.37 0-.492.121-1.023.945-1.351 2.379-1.023 3.73.246 1.102.816 2.004 1.472 2.864.165.207.372.41.618.531.242.125.57.086.734-.164a.684.684 0 0 0 .121-.406c.043-.371.043-.7.043-1.067-.043-.328-.125-.656-.043-.984.043-.203.207-.406.41-.406.207 0 .367.203.453.367.203.45.203.941.121 1.434-.082.492-.207.984-.246 1.433 0 .164-.043.367.04.531.042.121.167.246.246.371.207.243.492.489.777.45.289 0 .492-.246.617-.493.121-.246.121-.535.121-.82 0-.246 0-.488.043-.738 0-.16 0-.285.082-.45a.304.304 0 0 1 .367-.163c.082.043.121.125.164.207.286.53.164 1.144.125 1.718-.043.739.325 1.926 1.309 1.801.324-.039.613-.285.82-.574.16-.285.243-.613.325-.938.207-1.19.207-2.378-.04-3.523-.042-.207-.082-.45-.042-.656.082-.203.328-.367.535-.285.12.082.203.246.246.41.285 1.062.324 2.21.16 3.316-.078.613-.285 1.309-.04 1.883.204.45.657.941 1.188.984.164 0 .328 0 .45-.082.285-.207.328-.574.328-.945 0-.328 0-.695.043-1.023 0-.204 0-.45.12-.657.122-.203.41-.285.575-.16.16.121.16.367.121.57-.043.208-.043.41-.082.618-.039.324-.082.695 0 1.023.082.328.29.656.574.777.285.122.903.082 1.227-.043.332-.16.492-.57.492-.94.043-.74-.367-1.435-.45-2.169-.042-.164-.042-.328.04-.45.125-.167.41-.167.574-.042a.917.917 0 0 1 .328.531c.082.285.164.574.203.863.043.286.043.614.125.899.164.492 1.024 1.148 1.352.492.164-.328-.043-.738-.207-1.066-.778-1.39-.903-3.274-.98-4.871 0-.207 0-.41.038-.575.082-.164.29-.328.45-.246.164.043.246.246.328.41.164.614.082 1.309.125 1.926.082.653.285 1.227.531 1.84.203.535.41 1.106.82 1.559.614.695 1.84 1.27 2.782 1.023.41-.082.82-.367.82-.777 0-.207-.082-.41-.164-.574-.695-1.598-1.309-3.192-1.926-4.832a1.313 1.313 0 0 1-.121-.532c0-.164.164-.367.367-.367.203 0 .371.203.453.406.817 1.516 1.145 3.235 1.922 4.75.203.368.41.696.738.903.45.246.899.12 1.266-.246.328-.372.371-.657.207-1.106-.242-.617-.492-1.23-.695-1.8a1.56 1.56 0 0 1-.082-.41c.082-.247.453-.286.656-.165.203.164.324.41.367.695.082.286.164.575.246.82.082.243.164.532.328.735.41.492 1.106.41 1.391-.164.164-.367.164-.777.082-1.144-.285-1.844-1.8-2.825-2.906-4.215-.082-.125-.207-.25-.246-.41-.043-.165 0-.329.125-.41.203-.165.527 0 .734.163a9.391 9.391 0 0 1 2.496 3.028c.29.574.535 1.23.985 1.722.12.122.246.204.37.286.204.039.407 0 .614-.125.734-.489.45-1.309-.082-1.84-.617-.575-1.313-1.024-1.762-1.719-.125-.164-.203-.371-.082-.535.082-.121.285-.16.45-.082.163.082.245.207.37.37.532.653 1.106 1.31 1.84 1.759.203.125.41.246.614.164.246-.082.41-.324.492-.57.207-.493.41-.985.613-1.477.043-.082.082-.203 0-.285-.039-.04-.121-.082-.16-.121a5.374 5.374 0 0 0-2.293-.41c-.29 0-.656 0-.781-.247a.469.469 0 0 1 .125-.453c.12-.12.285-.16.449-.203.41-.039.738.043 1.105.164.41.082.86.125 1.313.164.164.043.367.043.488-.082.164-.125.207-.328.207-.492a4.088 4.088 0 0 0-.695-2.66 1.009 1.009 0 0 0-.535-.453c-.203-.078-.45-.04-.657.043-.609.246-1.02.82-1.347 1.39.039.29 0 .371-.043.453Zm0 0" fill="#caa99e" stroke-width=".409" stroke="#000" stroke-miterlimit="10"/><path d="M175.762 162.23c.043-.125.043-.289.082-.41 2.5-13.468 1.433-27.265 1.148-40.98-.125-6.02-.082-12.16 1.68-17.934 2.984-9.91 11.75-16.953 22.39-15.969 10.567.985 14.782 9.336 16.993 18.63 6.922 29.027 13.922 58.464 12.898 88.273-.289 8.879-1.312 17.847-4.3 26.242-2.989 8.39-8.024 16.211-15.188 21.453-4.953 3.602-10.727 5.852-16.5 7.817a221.837 221.837 0 0 1-15.434 4.628c-10.484 2.7-21.293.368-28.988-7.78-5.324-5.61-8.023-13.837-6.266-21.372 1.434-6.098 5.489-11.176 9.215-16.21 10.274-13.88 19.035-29.4 22.27-46.388Zm0 0" fill="#bddfe0" stroke-width=".819" stroke="#000" stroke-miterlimit="10"/><path d="M251.258 82.188c-.203 1.68-.653 3.402-1.801 4.628-1.434 1.473-3.684 1.883-5.73 1.516-2.047-.367-3.848-1.434-5.57-2.582a68.644 68.644 0 0 1-20.634-21.125c-2.046-3.316-3.847-6.96-3.765-10.852.246-12.28 13.222-8.144 19.937-4.214 5.977 3.52 11.301 10.48 14.41 16.539 2.54 4.914 3.852 10.566 3.153 16.09Zm0 0" fill="#007f2a" stroke-width=".819" stroke="#000" stroke-miterlimit="10"/><path d="M247.656 79.078c-.164 1.352-.531 2.7-1.433 3.684-1.145 1.187-2.95 1.515-4.543 1.187-1.598-.285-3.07-1.144-4.422-2.047A54.387 54.387 0 0 1 220.8 65.035c-1.64-2.62-3.07-5.566-2.992-8.637.207-9.789 10.562-6.511 15.886-3.359 4.79 2.824 9.008 8.352 11.504 13.184 1.965 3.93 2.988 8.433 2.457 12.855Zm0 0" fill="#009a34"/><path d="M243.645 75.64c-.125.938-.372 1.962-1.067 2.66-.816.86-2.129 1.106-3.273.86-1.149-.207-2.211-.82-3.196-1.472a38.888 38.888 0 0 1-11.832-12.122c-1.187-1.882-2.21-4.011-2.168-6.222.121-7.043 7.614-4.707 11.461-2.414 3.442 2.004 6.512 6.015 8.274 9.496 1.472 2.785 2.21 6.02 1.8 9.215Zm0 0" fill="#00b13c"/><path d="M137.973 64.992c2.254-1.39 4.87-2.617 7.492-2.086 2.824.574 4.957 3.192 5.61 5.977.655 2.785.163 5.773-.696 8.515-1.473 4.832-3.973 9.254-6.55 13.594-3.93 6.551-8.227 13.02-14.165 17.77-2.008 1.593-4.586 3.027-7.004 2.168-4.46-1.637-4.87-9.047-4.625-12.938.203-3.644 1.719-7.246 2.824-10.683 2.829-9.133 8.926-17.239 17.114-22.317Zm0 0" fill="#007f2a" stroke-width=".819" stroke="#000" stroke-miterlimit="10"/><path d="M137.36 68.84c1.843-1.145 4.011-2.168 6.183-1.719 2.332.492 4.055 2.621 4.625 4.914.574 2.293.121 4.75-.57 7-1.23 3.973-3.278 7.617-5.407 11.18-3.234 5.363-6.757 10.683-11.629 14.613-1.636 1.313-3.765 2.5-5.73 1.762-3.684-1.352-4.012-7.41-3.809-10.602.165-2.992 1.391-5.937 2.293-8.804 2.332-7.493 7.329-14.164 14.043-18.344Zm0 0" fill="#009a34"/><path d="M136.625 73.426c1.39-.86 2.984-1.594 4.586-1.266 1.719.367 3.027 1.922 3.437 3.64.41 1.723.122 3.52-.41 5.204-.898 2.945-2.418 5.648-4.011 8.308-2.375 4.012-5.036 7.942-8.641 10.852-1.227.98-2.824 1.84-4.258 1.309-2.742-.98-2.988-5.528-2.824-7.903.125-2.21 1.062-4.422 1.719-6.511 1.722-5.567 5.445-10.563 10.402-13.633Zm0 0" fill="#00b13c"/><path d="M123.645 184.953c1.921-.738 4.011-1.023 5.976-.492 3.606 1.023 5.938 4.504 7.328 7.984 2.906 7.246 3.153 15.313 1.805 22.926-1.191 6.633-2.992 14.7-9.133 18.547-7.574 4.75-12.773-3.356-14.863-9.418-2.617-7.45-3.52-16.172-2.125-23.988 1.062-5.856 4.05-11.668 9.21-14.7a13.836 13.836 0 0 1 1.802-.859Zm0 0" fill="#007f2a" stroke-width=".819" stroke="#000" stroke-miterlimit="10"/><path d="M124.219 190.355c1.472-.574 3.11-.816 4.668-.367 2.824.778 4.625 3.52 5.691 6.223 2.29 5.648 2.453 11.953 1.39 17.89-.945 5.2-2.335 11.465-7.124 14.454-5.938 3.726-9.95-2.621-11.63-7.368-2.046-5.816-2.741-12.613-1.675-18.71.816-4.586 3.191-9.09 7.203-11.465.535-.207.985-.45 1.477-.657Zm0 0" fill="#009a34"/><path d="M124.871 196.129c1.067-.41 2.172-.57 3.277-.246 1.965.574 3.235 2.457 4.012 4.383 1.598 3.968 1.723 8.351.985 12.527-.657 3.644-1.641 8.023-4.997 10.113-4.136 2.578-6.96-1.844-8.148-5.16-1.434-4.094-1.922-8.844-1.145-13.101.575-3.192 2.207-6.387 5.036-8.024a3.66 3.66 0 0 1 .98-.492Zm0 0" fill="#00b13c"/><path d="M221.574 276.21c-1.308.247-2.738.372-3.969-.124-1.925-.734-3.07-2.863-3.195-4.91-.12-2.047.613-4.055 1.516-5.938 3.644-7.656 10.113-13.59 16.91-18.629 2.703-2.004 6.14-4.011 9.254-2.742 2.453.98 3.805 3.766 3.887 6.43.37 12.484-13.02 23.988-24.403 25.914Zm0 0" fill="#007f2a" stroke-width=".819" stroke="#000" stroke-miterlimit="10"/><path d="M224.156 271.379c-.941.164-1.926.246-2.785-.082-1.351-.531-2.129-2.004-2.21-3.438-.083-1.433.41-2.867 1.066-4.175 2.578-5.364 7.082-9.54 11.87-13.102 1.883-1.434 4.301-2.824 6.512-1.926 1.72.696 2.66 2.664 2.743 4.504.203 8.762-9.211 16.867-17.196 18.219Zm0 0" fill="#009a34"/><path d="M226.324 267.328c-.613.082-1.226.164-1.8-.082-.86-.328-1.391-1.312-1.434-2.21-.04-.942.289-1.845.695-2.665 1.64-3.437 4.586-6.14 7.656-8.433 1.23-.899 2.786-1.801 4.176-1.227 1.106.45 1.723 1.719 1.762 2.906.125 5.61-5.895 10.809-11.055 11.711Zm0 0" fill="#00b13c"/><path d="M230.422 101.309c.613-1.188 1.348-2.375 2.496-3.114 1.758-1.062 4.133-.734 5.852.41 1.722 1.149 2.91 2.95 3.851 4.75 3.93 7.493 4.79 16.211 4.79 24.688 0 3.36-.493 7.328-3.356 9.05-2.254 1.391-5.325.774-7.453-.738-10.278-7.164-11.465-24.77-6.18-35.046Zm0 0" fill="#007f2a" stroke-width=".819" stroke="#000" stroke-miterlimit="10"/><path d="M232.715 106.305c.45-.86.937-1.68 1.758-2.172 1.226-.778 2.906-.531 4.093.289 1.188.816 2.047 2.047 2.704 3.355 2.742 5.282 3.359 11.422 3.359 17.36 0 2.375-.328 5.117-2.375 6.347-1.598.98-3.73.532-5.242-.535-7.164-5.078-7.985-17.437-4.297-24.644Zm0 0" fill="#009a34"/><path d="M234.676 110.48c.289-.53.613-1.066 1.148-1.39.778-.492 1.84-.328 2.621.203.778.531 1.309 1.309 1.72 2.129 1.76 3.398 2.17 7.328 2.17 11.176 0 1.515-.206 3.316-1.515 4.093-1.023.614-2.418.371-3.36-.328-4.624-3.273-5.155-11.258-2.784-15.883Zm0 0" fill="#00b13c"/><path d="M146.367 115.598c.285-.082.574-.125.778-.125 6.14-.121 11.957 3.359 15.925 8.066.575.656 1.106 1.352 1.352 2.172.531 1.8-.574 2.906-2.375 2.742-1.106-.082-2.129-.656-3.11-1.187a337.536 337.536 0 0 1-8.433-4.954c-1.965-1.187-4.18-2.253-6.02-3.601-1.843-1.395.286-2.746 1.883-3.113zm21.781 14.656c1.309.86 1.965 2.375 2.497 3.848 1.226 3.398 2.21 6.96 2.128 10.605-.039 2.617-.613 5.2-1.347 7.695-.371 1.23-.781 2.5-1.64 3.442-.86.941-2.376 1.433-3.481.777-.739-.41-1.188-1.23-1.352-2.047-.164-.82-.121-1.68-.039-2.496.41-6.144.531-12.324.324-18.508-.039-1.105-1.226-2.578-.367-3.355.82-.778 2.418-.531 3.277.039zm-18.464 41.105c-1.145.082-2.336.082-3.442-.207-.855-.242-1.758-.734-2.086-1.55-.41-1.067.328-2.297 1.309-2.91.984-.575 2.172-.696 3.316-.86 2.91-.406 5.735-1.27 8.516-2.129 1.187-.367 2.21-.777 3.07-1.719.696-.738 1.192-1.597 2.008-2.21 1.23-.942 3.602-1.227 3.191 1.105-.285 1.8-2.496 3.89-3.804 5.074-1.559 1.434-3.317 2.664-5.242 3.563a18.633 18.633 0 0 1-6.836 1.843zm-9.54-.82c-1.105.453-2.374.371-3.562.164-5.855-.86-11.383-3.887-15.312-8.351-.903-1.063-1.801-2.293-1.883-3.684-.082-1.39.98-2.95 2.375-2.906.86.039 1.597.613 2.25 1.187 2.91 2.617 5.527 5.774 9.215 7.082 1.964.696 4.05.82 6.097 1.309 1.149.289 2.95.902 2.988 2.336.043 1.226-1.101 2.457-2.167 2.863zm-24.113-18.789c-1.23-3.563-2.418-7.207-2.21-10.934.16-3.316 1.472-6.55 3.644-9.086.57-.699 1.226-1.351 2.004-1.843.492-.285 1.023-.575 1.594-.41.656.164 1.066.902 1.066 1.554 0 .656-.203 1.352-.45 1.965a28.647 28.647 0 0 0-.617 16.582c.41 1.598 1.149 3.89-.816 4.707-2.25.985-3.562-.613-4.215-2.535zm7.203-28.047c4.63-4.258 10.32-7.777 16.582-8.23.493-.04 1.024-.04 1.473.168 1.106.53 1.149 2.25.371 3.191-.777.941-2.008 1.395-3.195 1.762-3.11 1.023-6.223 2.25-8.926 4.094-1.719 1.183-4.133 3.601-6.387 3.683-.98.04-1.511-.574-1.593-1.555-.164-1.308.816-2.293 1.675-3.113zm0 0" fill="#aaf9f9" stroke-width=".819" stroke="#000" stroke-miterlimit="10"/><path d="M116.848 137.664c-.04.125-.04.246-.082.371-.532 2.781-.368 5.692.082 8.473.535 3.316 1.515 6.594 3.113 9.539 2.781 5.117 7.492 9.172 12.855 11.383 5.403 2.21 11.504 2.66 17.196 1.515 1.68-.328 3.355-.82 4.87-1.558 1.927-.899 3.645-2.168 5.2-3.602 6.469-5.894 10.234-14.777 9.297-23.46-1.395-12.61-13.352-22.477-25.797-22.723-6.14-.122-12.2 2.09-16.91 5.98-4.379 3.563-8.637 8.39-9.824 14.082Zm0 0" fill="#7aafc4" stroke-width=".819" stroke="#000" stroke-miterlimit="10"/><path d="M70.574 60.797h46.07" fill="none" stroke-width=".797" stroke-linecap="round" stroke-linejoin="round" stroke="#000" stroke-miterlimit="10"/><path d="m120.508 60.797-5.469-2.067 1.805 2.067-1.805 2.062"/><path d="m120.508 60.797-5.469-2.067 1.805 2.067-1.805 2.062Zm0 0" fill="none" stroke-width=".797" stroke-linecap="round" stroke="#000" stroke-miterlimit="10"/><path d="M22.484 61.809c-.625.68-1.375 1.082-2.398 1.082-1.574 0-2.668-.961-2.668-3.192 0-1.984.902-3.215 2.512-3.215 1.148 0 1.937.618 2.187 2.078h.375v-2.554h-.332c-.137.222-.2.398-.379.398-.281 0-.691-.398-1.863-.398-2.145 0-3.66 1.37-3.66 3.804 0 2.172 1.203 3.782 3.504 3.782 1.46 0 2.386-.649 2.988-1.551l-.266-.234M28.7 58.19h-1.894v.325c.367 0 .625.058.625.28 0 .087-.035.188-.059.278l-1.07 3.27h-.078l-.157-.578-1.093-2.457c-.067-.157-.157-.348-.157-.48 0-.2.137-.302.637-.302v-.336h-2.387v.325c.403 0 .559.144.668.402l1.641 3.582c.133.3.336.77.336.914 0 .324-.637 1.707-.992 1.707-.282 0-.516-.246-.907-.246-.3 0-.523.145-.523.48 0 .422.324.582.824.582.907 0 1.453-.582 2.078-2.222l1.739-4.574c.156-.434.324-.625.77-.625v-.325m3.269 4.274c-.278.312-.422.457-.782.457-.433 0-.535-.266-.535-1.059V58.66h1.262v-.469h-1.262l.012-1.527h-.289c-.402.95-.738 1.418-1.262 1.738v.258h.614v3.516c0 1.004.324 1.406 1.07 1.406.715 0 .95-.336 1.383-.937l-.211-.18m3.008-4.406c-1.504 0-2.497 1.093-2.497 2.71 0 1.81.938 2.813 2.497 2.813 1.453 0 2.476-.98 2.476-2.855 0-1.653-.945-2.668-2.476-2.668zm-.043.421c.992 0 1.496.93 1.496 2.301 0 1.82-.492 2.356-1.407 2.356-.96.011-1.507-.739-1.507-2.512 0-1.43.57-2.145 1.418-2.145m4.93-.386h-.278l-1.406.308v.325s.21-.02.355-.02c.371 0 .426.145.426.566v5.524c0 .625-.113.816-.816.816v.313h2.824v-.324c-.871 0-1.082-.145-1.082-.872v-1.46h.043c.324.222.703.312 1.129.312 1.336 0 2.441-1.129 2.441-3.023 0-1.461-.77-2.5-1.875-2.5-.656 0-1.191.343-1.727.968h-.035zm.023 1.402c.21-.277.691-.68 1.281-.68.824 0 1.316.649 1.316 2.055 0 1.55-.59 2.277-1.37 2.277-.626 0-1.016-.503-1.227-.738v-2.914m6.914 3.652c-.805 0-.86-.16-.86-.804v-6.75h-.277l-1.473.39v.301s.168-.02.356-.02c.281 0 .469.02.469.477v5.602c0 .625-.047.804-.782.804v.32h2.567v-.32m3.734-.37c.067.492.18.75.672.75.566 0 .836-.235 1.203-.77l-.168-.18c-.156.168-.312.277-.523.277-.235 0-.336-.09-.336-.546v-2.532c0-1.16-.457-1.718-1.672-1.718-1.215 0-1.965.601-1.965 1.226 0 .367.246.535.469.535.312 0 .492-.168.492-.511 0-.668.113-.907.746-.907.672 0 1.004.371 1.004 1.34v.492c-.957.301-2.934.59-2.934 2.063 0 .715.47 1.25 1.329 1.25.714 0 1.117-.313 1.64-.77zm-.078-.337c-.379.317-.781.493-1.148.493-.48 0-.801-.344-.801-.903 0-.87.933-1.172 1.949-1.43v1.84m2.477-.8.035 1.918h.234l.234-.254h.024c.289.12.625.289 1.27.289 1.003 0 1.874-.403 1.874-1.453 0-.825-.546-1.239-1.562-1.774-.938-.476-1.305-.758-1.305-1.191 0-.504.39-.739.903-.739.68 0 1.093.325 1.34 1.383h.3l-.031-1.707h-.227l-.187.239h-.012c-.277-.137-.613-.293-1.172-.293-.957 0-1.707.492-1.707 1.406 0 .824.457 1.215 1.473 1.726 1.039.516 1.25.73 1.25 1.25 0 .528-.402.739-.957.739-.828 0-1.25-.39-1.484-1.54h-.293m6.03-2.152c.325-.3.813-.715 1.395-.715.512 0 .891.247.891 1.196v2.207c0 .781-.066.972-.86.972v.32h2.645v-.32c-.8 0-.86-.203-.86-.972v-2.711c.372-.313.829-.692 1.286-.692.523 0 .957.247.957 1.262v2.14c0 .68-.031.973-.793.973v.32h2.523v-.32c-.77 0-.804-.27-.804-.972v-2.278c0-1.347-.567-1.84-1.438-1.84-.59 0-1.16.325-1.773.926h-.047c-.223-.535-.602-.925-1.234-.925-.762 0-1.274.414-1.875.937h-.047v-.902h-.266l-1.394.324v.32s.132-.02.3-.02c.313 0 .47.098.47.5v3.126c0 .668-.08.804-.782.804v.32H59.8v-.32c-.692 0-.836-.136-.836-.761v-2.899"/><path d="M272.89 172.223h32.145" fill="none" stroke-width=".797" stroke-linecap="round" stroke-linejoin="round" stroke="#000" stroke-miterlimit="10"/><path d="m269.027 172.223 5.47 2.062-1.806-2.062 1.805-2.067"/><path d="m269.027 172.223 5.47 2.062-1.806-2.062 1.805-2.067Zm0 0" fill="none" stroke-width=".797" stroke-linecap="round" stroke="#000" stroke-miterlimit="10"/><path d="M315.984 174.406c-.625.684-1.375 1.082-2.398 1.082-1.574 0-2.668-.957-2.668-3.187 0-1.988.902-3.215 2.512-3.215 1.148 0 1.937.613 2.187 2.074h.375v-2.555h-.332c-.137.223-.2.403-.379.403-.277 0-.691-.403-1.863-.403-2.145 0-3.66 1.375-3.66 3.805 0 2.176 1.207 3.781 3.504 3.781 1.46 0 2.386-.644 2.992-1.55l-.27-.235m5.344.07c-.355.465-.7.868-1.605.868-.891 0-1.739-.703-1.739-2.242h3.524c-.055-1.563-.86-2.442-2.074-2.442-1.305 0-2.356.89-2.356 2.754 0 1.797 1.04 2.766 2.379 2.766 1.148 0 1.684-.7 2.086-1.547zm-3.355-1.785c.09-1.039.535-1.586 1.293-1.586.793 0 1.16.758 1.195 1.586h-2.488m6.828 3.055c-.805 0-.86-.156-.86-.805v-6.75h-.277l-1.473.395v.3s.168-.023.356-.023c.281 0 .469.024.469.48v5.598c0 .625-.047.805-.782.805v.324h2.567v-.324m3.097 0c-.8 0-.855-.156-.855-.805v-6.75h-.281l-1.473.395v.3s.168-.023.36-.023c.277 0 .468.024.468.48v5.598c0 .625-.047.805-.781.805v.324h2.562v-.324m5.067-3.66c.324-.3.812-.715 1.394-.715.512 0 .895.246.895 1.195v2.211c0 .782-.07.97-.863.97v.323h2.644v-.324c-.8 0-.86-.2-.86-.969v-2.71c.372-.313.829-.696 1.286-.696.523 0 .957.246.957 1.262v2.144c0 .68-.031.97-.79.97v.323h2.52v-.324c-.77 0-.804-.266-.804-.969V172.5c0-1.352-.567-1.84-1.438-1.84-.59 0-1.16.32-1.773.926h-.043c-.227-.535-.606-.926-1.238-.926-.762 0-1.274.41-1.875.938h-.047v-.907h-.266l-1.394.325v.324s.132-.024.3-.024c.313 0 .47.102.47.504v3.121c0 .672-.08.805-.782.805v.324h2.543v-.324c-.692 0-.836-.133-.836-.758v-2.902m12.066 2.39c-.36.465-.703.868-1.61.868-.89 0-1.737-.703-1.737-2.242h3.523c-.055-1.563-.855-2.442-2.074-2.442-1.305 0-2.352.89-2.352 2.754 0 1.797 1.035 2.766 2.375 2.766 1.149 0 1.684-.7 2.086-1.547zm-3.36-1.785c.09-1.039.536-1.586 1.294-1.586.793 0 1.164.758 1.195 1.586h-2.488m5.992-.605c.324-.3.813-.715 1.395-.715.511 0 .894.246.894 1.195v2.211c0 .782-.07.97-.86.97v.323h2.641v-.324c-.8 0-.855-.2-.855-.969v-2.71c.367-.313.824-.696 1.281-.696.524 0 .957.246.957 1.262v2.144c0 .68-.031.97-.789.97v.323h2.52v-.324c-.77 0-.801-.266-.801-.969V172.5c0-1.352-.57-1.84-1.442-1.84-.59 0-1.16.32-1.773.926h-.043c-.226-.535-.601-.926-1.238-.926-.762 0-1.274.41-1.875.938h-.047v-.907h-.266l-1.394.325v.324s.133-.024.3-.024c.313 0 .47.102.47.504v3.121c0 .672-.079.805-.782.805v.324h2.543v-.324c-.691 0-.836-.133-.836-.758v-2.902m9.356-3.895h-.293l-1.438.395v.312s.133-.023.313-.023c.421 0 .492.09.492.59v6.27c.265.148.914.445 1.863.445 1.55 0 2.676-1.047 2.676-3.043 0-1.45-.758-2.477-1.863-2.477-.747 0-1.329.48-1.72.945h-.03zm0 3.907c.199-.266.69-.68 1.261-.68 1.059 0 1.336 1.004 1.336 2.074 0 1.238-.402 2.235-1.46 2.235-.59 0-.927-.27-1.137-.528v-3.101m6.023-1.407h-.27l-1.382.336v.313s.12-.024.343-.024c.403 0 .403.204.403.606v3.066c0 .625-.078.758-.813.758v.324h2.79v-.324c-.837 0-1.051-.11-1.051-.812v-2.543c.269-.45.625-.918.882-.918.133 0 .356.379.727.379.242 0 .488-.176.488-.602 0-.379-.21-.625-.644-.625-.54 0-.871.39-1.442 1.219h-.031v-1.153m5.492 4.688c.067.488.18.746.672.746.566 0 .836-.234 1.203-.77l-.168-.175c-.152.164-.312.277-.523.277-.235 0-.336-.09-.336-.547v-2.531c0-1.16-.457-1.719-1.672-1.719-1.215 0-1.965.602-1.965 1.227 0 .367.246.535.469.535.312 0 .492-.168.492-.512 0-.672.113-.906.746-.906.668 0 1.004.367 1.004 1.34v.492c-.96.3-2.934.59-2.934 2.062 0 .715.47 1.25 1.329 1.25.714 0 1.117-.312 1.64-.77zm-.078-.336c-.379.312-.781.492-1.148.492-.48 0-.801-.347-.801-.902 0-.871.933-1.172 1.949-1.43v1.84m7.41-2.398c0-1.282-.48-1.985-1.496-1.985-.703 0-1.191.403-1.797.938h-.043l.012-.907h-.258l-1.418.325v.324s.113-.024.301-.024c.3 0 .469.09.469.493v3.132c0 .625-.032.817-.782.817v.312h2.56v-.312c-.806 0-.853-.192-.853-.817v-2.867c.336-.3.75-.703 1.352-.703.5 0 1.027.215 1.027 1.555v2.015c0 .625-.035.817-.828.817v.312h2.578v-.312c-.746 0-.824-.192-.824-.817v-2.296m5.664 1.832c-.36.464-.703.867-1.61.867-.89 0-1.737-.703-1.737-2.242h3.523c-.055-1.563-.855-2.442-2.074-2.442-1.305 0-2.352.89-2.352 2.754 0 1.797 1.035 2.766 2.375 2.766 1.149 0 1.684-.7 2.086-1.547zm-3.36-1.786c.09-1.039.536-1.586 1.294-1.586.793 0 1.164.758 1.195 1.586h-2.488"/><path d="M280.55 195.434h32.145" fill="none" stroke-width=".797" stroke-linecap="round" stroke-linejoin="round" stroke="#000" stroke-miterlimit="10"/><path d="m276.688 195.434 5.468 2.066-1.804-2.066 1.804-2.063"/><path d="m276.688 195.434 5.468 2.066-1.804-2.066 1.804-2.063Zm0 0" fill="none" stroke-width=".797" stroke-linecap="round" stroke="#000" stroke-miterlimit="10"/><path d="M323.582 197.707c-.625.684-1.371 1.082-2.398 1.082-1.575 0-2.664-.957-2.664-3.187 0-1.989.902-3.215 2.507-3.215 1.153 0 1.942.613 2.188 2.074h.379v-2.555h-.336c-.133.223-.2.403-.38.403-.276 0-.69-.403-1.862-.403-2.141 0-3.657 1.371-3.657 3.805 0 2.176 1.204 3.781 3.5 3.781 1.461 0 2.387-.648 2.993-1.55l-.27-.235m5.348.066c-.356.47-.703.872-1.606.872-.894 0-1.742-.704-1.742-2.243h3.527c-.054-1.562-.859-2.441-2.078-2.441-1.304 0-2.351.89-2.351 2.754 0 1.797 1.039 2.765 2.375 2.765 1.148 0 1.687-.703 2.086-1.55zm-3.36-1.785c.09-1.035.54-1.582 1.297-1.582.79 0 1.16.758 1.192 1.582h-2.489m6.828 3.059c-.8 0-.855-.156-.855-.805v-6.75h-.281l-1.473.39v.305s.168-.023.36-.023c.277 0 .468.024.468.48v5.598c0 .625-.047.805-.781.805v.324h2.562v-.324m3.204 0c-.805 0-.86-.156-.86-.805v-6.75h-.277l-1.473.39v.305s.164-.023.356-.023c.28 0 .468.024.468.48v5.598c0 .625-.046.805-.78.805v.324h2.566v-.324m11.402-4.953h-1.934v.324c.414 0 .625.066.625.277 0 .192-.054.348-.066.403l-.883 2.5-.223.644h-.066l-.2-.644-.905-2.446a1.578 1.578 0 0 1-.098-.457c0-.18.133-.277.558-.277v-.324h-2.335v.324c.492 0 .66.09.93.812l.12.336-.804 2.032-.23.644h-.079l-.203-.644-.969-2.465c-.07-.168-.125-.293-.125-.438 0-.18.145-.277.594-.277v-.324h-2.399v.324c.489 0 .657.121.946.812l1.676 4.208h.511l1.305-3.247h.047l1.18 3.246h.535l1.664-4.285c.222-.578.39-.734.828-.734v-.324m3.133 4.586c.066.488.175.746.668.746.57 0 .836-.235 1.207-.77l-.168-.18c-.156.169-.313.282-.524.282-.234 0-.336-.09-.336-.547v-2.531c0-1.164-.457-1.72-1.671-1.72-1.22 0-1.965.602-1.965 1.227 0 .368.246.536.468.536.313 0 .489-.168.489-.512 0-.672.113-.906.75-.906.668 0 1.004.367 1.004 1.34v.488c-.961.304-2.938.594-2.938 2.066 0 .711.473 1.25 1.332 1.25.711 0 1.113-.312 1.64-.77zm-.078-.336c-.38.312-.782.492-1.149.492-.48 0-.805-.348-.805-.906 0-.868.938-1.172 1.954-1.426v1.84m4.941.703c-.805 0-.86-.156-.86-.805v-6.75h-.277l-1.472.39v.305s.168-.023.355-.023c.281 0 .469.024.469.48v5.598c0 .625-.043.805-.781.805v.324H355v-.324m3.2 0c-.802 0-.856-.156-.856-.805v-6.75h-.281l-1.473.39v.305s.168-.023.355-.023c.282 0 .47.024.47.48v5.598c0 .625-.044.805-.782.805v.324h2.566v-.324"/><path d="M200.926 218.648h99.465" fill="none" stroke-width=".797" stroke-linecap="round" stroke-linejoin="round" stroke="#000" stroke-miterlimit="10"/><path d="m197.063 218.648 5.468 2.067-1.804-2.067 1.804-2.062"/><path d="m197.063 218.648 5.468 2.067-1.804-2.067 1.804-2.062Zm0 0" fill="none" stroke-width=".797" stroke-linecap="round" stroke="#000" stroke-miterlimit="10"/><path d="m309.04 220.047-.392 1.117h-.054l-.434-1.172-1.351-3.312c-.133-.325-.188-.535-.188-.68 0-.414.469-.426.758-.426v-.336h-2.988v.336c.601 0 .843.27 1.168 1.016l2.554 6.035h.45l2.296-5.602c.536-1.257.68-1.449 1.305-1.449v-.336h-2.344v.336c.524 0 .75.078.75.38 0 .198-.058.382-.125.546l-1.406 3.547m5.899 1.832c.066.488.175.746.667.746.57 0 .836-.234 1.207-.77l-.167-.175c-.157.164-.313.277-.528.277-.234 0-.332-.09-.332-.547v-2.531c0-1.16-.457-1.719-1.676-1.719-1.214 0-1.96.602-1.96 1.227 0 .367.242.535.468.535.313 0 .488-.168.488-.512 0-.672.114-.906.75-.906.668 0 1.004.367 1.004 1.34v.492c-.96.3-2.937.59-2.937 2.062 0 .715.469 1.25 1.332 1.25.71 0 1.113-.312 1.637-.77zm-.079-.336c-.382.312-.78.492-1.148.492-.48 0-.805-.347-.805-.902 0-.871.938-1.172 1.953-1.43v1.84m6.594-.625c-.504.648-.883.926-1.61.926-1.148 0-1.695-.957-1.695-2.32 0-1.282.547-1.954 1.454-1.954.957 0 .59 1.274 1.414 1.274.312 0 .468-.18.468-.5 0-.649-.644-1.184-1.695-1.184-1.605 0-2.52 1.137-2.52 2.887 0 1.555.836 2.633 2.231 2.633 1.195 0 1.738-.7 2.164-1.606l-.21-.156m6.37 1.148h-.11c-.534 0-.671-.078-.671-.734v-4.094h-.27l-1.558.164v.317c.715 0 .902.054.902.644v2.934c-.445.39-.805.672-1.37.672-.583 0-1.005-.336-1.005-1.473v-3.258h-.246l-1.441.164v.317c.605.008.761.054.761.656v2.266c0 1.515.536 2.039 1.461 2.039.715 0 1.239-.332 1.828-.914h.06v.859h.241l1.418-.258v-.3m3.254-4.907c-1.508 0-2.5 1.094-2.5 2.711 0 1.809.938 2.809 2.5 2.809 1.45 0 2.477-.98 2.477-2.856 0-1.648-.95-2.664-2.477-2.664zm-.043.422c.992 0 1.492.926 1.492 2.3 0 1.817-.488 2.352-1.406 2.352-.957.012-1.504-.734-1.504-2.507 0-1.43.57-2.145 1.418-2.145m5.863 4.664c-.8 0-.855-.156-.855-.805v-6.75h-.281l-1.473.395v.3s.168-.023.36-.023c.277 0 .468.024.468.48v5.598c0 .625-.047.805-.781.805v.324h2.562v-.324m4.93-1.27c-.355.465-.7.868-1.605.868-.891 0-1.739-.703-1.739-2.242h3.524c-.055-1.563-.86-2.442-2.074-2.442-1.305 0-2.356.89-2.356 2.754 0 1.797 1.04 2.766 2.379 2.766 1.148 0 1.684-.7 2.086-1.547zm-3.355-1.785c.09-1.039.535-1.586 1.293-1.586.793 0 1.16.758 1.195 1.586h-2.488"/></svg>