<svg xmlns="http://www.w3.org/2000/svg" viewBox="0 0 21.4 29.2"><path fill="#656766" d="M19.3 29.2H2.1c-1.2 0-2.1-.9-2.1-2.1v-25C0 .9.9 0 2.1 0h17.2c1.2 0 2.1.9 2.1 2.1V27c0 1.2-.9 2.2-2.1 2.2z"/><path fill="#fff" d="M3.6 21.4V5.8c0-1 .8-1.7 1.7-1.7h10.6c1 0 1.7.8 1.7 1.7v15.6c0 1-.8 1.7-1.7 1.7H5.3c-.9 0-1.7-.8-1.7-1.7z"/><path fill="#53b2e4" d="M3.6 13.4v8c0 1 .8 1.7 1.7 1.7h10.6c1 0 1.7-.8 1.7-1.7v-4.2h-4.2c-3.6.1-7.1-1.4-9.8-3.8z"/><circle cx="19.8" cy="1.8" r=".5" fill="#e8e4e7"/><circle cx="19.8" cy="27.4" r=".5" fill="#e8e4e7"/><circle cx="1.7" cy="1.8" r=".5" fill="#e8e4e7"/><circle cx="1.7" cy="27.4" r=".5" fill="#e8e4e7"/><path fill="#4d4c4d" d="M17 29.2H4.4v-.7c0-.3.3-.6.6-.6h11.4c.3 0 .6.3.6.6v.7z"/><path fill="#ed6f62" d="m5.5 9.4.4-.6c.3.3.7.5 1.2.5.4 0 .7-.2.7-.4 0-.7-2.2-.2-2.2-1.6 0-.6.5-1.1 1.4-1.1.6 0 1.1.2 1.5.5l-.5.6c-.3-.3-.7-.4-1.1-.4-.3 0-.5.1-.5.4 0 .6 2.2.2 2.2 1.6 0 .7-.5 1.2-1.5 1.2-.7-.1-1.3-.3-1.6-.7zm3.4 0 .4-.6c.3.3.7.5 1.2.5.4 0 .7-.2.7-.4 0-.7-2.2-.2-2.2-1.6 0-.6.5-1.1 1.4-1.1.6 0 1.1.2 1.5.5l-.4.6c-.3-.3-.7-.4-1.1-.4-.3 0-.5.1-.5.4 0 .6 2.2.2 2.2 1.6 0 .7-.5 1.2-1.5 1.2-.9-.1-1.4-.3-1.7-.7zm3.6.6V6.3H14c1.2 0 2 .7 2 1.9 0 1.1-.8 1.9-2 1.9l-1.5-.1zm2.6-1.9c0-.7-.4-1.2-1.2-1.2h-.7v2.3h.8c.7.1 1.1-.5 1.1-1.1z"/><path fill="#ffca65" d="M5.7 27.8h.4v.7h-.4zm1 0h.4v.7h-.4zm.9 0H8v.7h-.4zm1 0H9v.7h-.4zm.9 0h.4v.7h-.4zm1 0h.4v.7h-.4zm.9 0h.4v.7h-.4zm1 0h.4v.7h-.4zm1 0h.4v.7h-.4zm.9 0h.4v.7h-.4zm1 0h.4v.7h-.4z"/><path fill="#bababa" d="M19.3 29.2H2.1c-1.2 0-2.1-.9-2.1-2.1V4.2C0 3 .9 2.1 2.1 2.1h17.2c1.2 0 2.1.9 2.1 2.1v22.9c0 1.1-.9 2.1-2.1 2.1z"/><path fill="#d3d3d3" d="M19.3 27.2H2.1c-1.2 0-2.1-.9-2.1-2.1v-23C0 .9.9 0 2.1 0h17.2c1.2 0 2.1.9 2.1 2.1V25c0 1.2-.9 2.2-2.1 2.2z"/><path fill="#e8e4e7" d="M3 22.7V4.5C3 3.7 3.7 3 4.5 3h12.4c.8 0 1.5.7 1.5 1.5v18.2c0 .8-.7 1.5-1.5 1.5H4.5c-.8-.1-1.5-.7-1.5-1.5z"/><path fill="#ed6f62" d="M18.4 10.5v-6c0-.8-.7-1.5-1.5-1.5H4.5C3.7 3 3 3.7 3 4.5v6h15.4z"/><circle cx="19.7" cy="1.8" r=".5" fill="#656766"/><circle cx="19.7" cy="25.3" r=".5" fill="#656766"/><circle cx="1.6" cy="1.8" r=".5" fill="#656766"/><circle cx="1.6" cy="25.3" r=".5" fill="#656766"/><path fill="#656766" d="M5 28.1h11.4v1.1H5z"/><path fill="#fff" d="m5.5 8.1.4-.6c.3.3.7.5 1.2.5.4 0 .7-.2.7-.4 0-.7-2.2-.2-2.2-1.6 0-.6.5-1.1 1.4-1.1.6 0 1.1.2 1.5.5l-.4.6c-.3-.3-.7-.4-1.1-.4-.3 0-.5.1-.5.4 0 .6 2.2.2 2.2 1.6 0 .7-.5 1.2-1.5 1.2-.9-.1-1.4-.3-1.7-.7zm3.3 0 .4-.6c.3.3.7.5 1.2.5.4 0 .7-.2.7-.4 0-.7-2.2-.2-2.2-1.6 0-.6.5-1.1 1.4-1.1.6 0 1.1.2 1.5.5l-.4.6c-.3-.3-.7-.4-1.1-.4-.3 0-.5.1-.5.4 0 .6 2.2.2 2.2 1.6 0 .7-.5 1.2-1.5 1.2-.8-.1-1.3-.3-1.7-.7zm3.6.5V4.9h1.5c1.2 0 2 .7 2 1.9 0 1.1-.8 1.9-2 1.9h-1.5v-.1zm2.7-1.8c0-.7-.4-1.2-1.2-1.2h-.7v2.3h.7c.8 0 1.2-.5 1.2-1.1z"/><path fill="#ffca65" d="M5.2 28.1h.4v.7h-.4zm.6 0h.4v.7h-.4zm.5 0h.4v.7h-.4zm.6 0h.4v.7h-.4zm.6 0h.4v.7h-.4zm.5 0h.4v.7H8zm.6 0H9v.7h-.4zm.5 0h.4v.7h-.4zm.6 0h.4v.7h-.4zm.5 0h.4v.7h-.4zm.6 0h.4v.7h-.4zm.5 0h.4v.7h-.4zm.6 0h.4v.7h-.4zm.5 0h.4v.7h-.4zm1.1 0h.4v.7h-.4zm.6 0h.4v.7h-.4zm.5 0h.4v.7h-.4zm.6 0h.4v.7h-.4zm.6 0h.4v.7h-.4z"/><path d="M7 15.6h.2v2.2H7zm.5 0h.8v2.2h-.8zm1 0h.6v2.2h-.6zm.8 0h.3v2.2h-.3zm.6 0h1v2.2h-1zm1.2 0h.4v2.2h-.4zm.6 0h.2v2.2h-.2zm.4 0h.7v2.2h-.7zm.8 0h.3v2.2h-.3zm.5 0h.2v2.2h-.2zm.4 0h.6v2.2h-.6z" fill="#656766"/></svg>